<svg xmlns="http://www.w3.org/2000/svg" width="276.897" height="74.008" viewBox="0 0 276.897 74.008"><defs><style>.a{fill:#fff;}.b{fill:#4f7153;stroke:#fff;stroke-width:0.5px;}</style></defs><path class="a" d="M405.1,379.477h.054a8.25,8.25,0,0,0,10.49,0h.048l.514-.514a8.244,8.244,0,0,0,0-11.621l-4.564-4.57L410.4,361.53l-1.247,1.241-4.564,4.57a8.244,8.244,0,0,0,0,11.621Zm1.973-9.648h0l3.323-3.323,3.323,3.323h0a4.721,4.721,0,0,1,0,6.658h0a4.721,4.721,0,0,1-6.658,0h0a4.721,4.721,0,0,1,0-6.658Z" transform="translate(-373.355 -361.53)"/><path class="a" d="M371.982,423.129h0a8.244,8.244,0,0,0,0-11.621h0a8.244,8.244,0,0,0-11.621,0l-4.564,4.57-1.247,1.241,1.247,1.247,4.564,4.564A8.226,8.226,0,0,0,371.982,423.129Zm-12.457-5.811L362.848,414a4.691,4.691,0,1,1,0,6.658Z" transform="translate(-354.55 -380.311)"/><path class="a" d="M440.02,438.77a8.238,8.238,0,0,0-8.22,8.214h0a8.238,8.238,0,0,0,8.22,8.22h8.244v-8.22a8.238,8.238,0,0,0-8.22-8.214Zm4.7,12.917h-4.7a4.721,4.721,0,0,1-4.7-4.7h0a4.7,4.7,0,1,1,9.394,0Z" transform="translate(-385.042 -392.018)"/><path class="a" d="M458.207,411.586a8.22,8.22,0,0,0-11.621,11.621l.515.521h.048a8.238,8.238,0,0,0,11.058-.521l4.564-4.564,1.247-1.247-1.247-1.241Zm-2.488,9.134a4.7,4.7,0,1,1,0-6.658l3.323,3.317Z" transform="translate(-389.98 -380.389)"/><path class="a" d="M401.126,421.866l4.915-4.909a19.533,19.533,0,0,0,4.582-6.477h0a19.75,19.75,0,0,0,1.271-7.705v-6.912h4.7a8.244,8.244,0,0,0,8.25-8.22V379.43H416.6a8.238,8.238,0,0,0-8.22,8.214v15.132a16.505,16.505,0,0,1-1.011,6.386h0a16.228,16.228,0,0,1-3.819,5.3l-4.915,4.915-4.915-4.915a16.343,16.343,0,0,1-3.819-5.3h0a16.67,16.67,0,0,1-1-6.386V387.644a8.238,8.238,0,0,0-8.244-8.214h-8.2v8.214a8.244,8.244,0,0,0,8.2,8.22h4.7v6.912a19.665,19.665,0,0,0,1.277,7.7h0a19.647,19.647,0,0,0,4.588,6.477l4.915,4.909-3.3,3.311a8.25,8.25,0,0,0,0,11.627l4.564,4.564,1.247,1.241,1.247-1.241,4.564-4.564a8.25,8.25,0,0,0,0-11.627ZM411.9,387.644a4.709,4.709,0,0,1,4.7-4.7h4.7v4.7a4.721,4.721,0,0,1-4.7,4.7h-4.7Zm-26.523,4.7h-4.721a4.721,4.721,0,0,1-4.7-4.7v-4.7h4.7a4.709,4.709,0,0,1,4.721,4.7Zm16.585,41.976-3.323,3.323-3.323-3.323a4.715,4.715,0,0,1,0-6.658l3.323-3.323,3.323,3.323a4.715,4.715,0,0,1,0,6.658Z" transform="translate(-361.619 -368.595)"/><path class="a" d="M380.64,438.77a8.238,8.238,0,0,0-8.22,8.214v8.22h8.22a8.238,8.238,0,0,0,8.22-8.22h0A8.238,8.238,0,0,0,380.64,438.77Zm4.7,8.214a4.721,4.721,0,0,1-4.7,4.7h-4.7v-4.7a4.7,4.7,0,1,1,9.394,0Z" transform="translate(-361.604 -392.018)"/><path class="a" d="M388.323,408.65c.079.061.182-.036.109-.109a.811.811,0,0,0-.224-.151c-.079-.036-.291-.115-.236-.236s.218-.091.278-.1a3.381,3.381,0,0,0,.357-.061c.079,0,.091-.157,0-.176a1.211,1.211,0,0,0-.533.036.4.4,0,0,0-.309.212.3.3,0,0,0,.1.351C388,408.529,388.19,408.529,388.323,408.65Z" transform="translate(-367.653 -379.796)"/><path class="a" d="M427.163,395.933a7.106,7.106,0,0,0-2.488-2.681.109.109,0,0,0-.127,0l1.628-2.984a.157.157,0,0,0-.133-.236,5.243,5.243,0,0,1-2.851-1.368.127.127,0,0,0,.091-.091,5.955,5.955,0,0,0-.085-1.7,13.39,13.39,0,0,0-.321-1.689,11.906,11.906,0,0,0-1.362-3.281,9.909,9.909,0,0,0-4.794-4.086,7.522,7.522,0,0,0-1.737-.466,2.881,2.881,0,0,0-1.78.115c-.242-.805-.5-1.61-.708-2.421a.151.151,0,0,0-.182-.1c-1.241.194-2.5.248-3.759.357a.176.176,0,0,0,0-.157,8.764,8.764,0,0,0-4.842-4.5,8.474,8.474,0,0,0-6.767.393,7.741,7.741,0,0,0-2.972,2.506,3.228,3.228,0,0,1-2.1-1.574c-.042-.1-.182-.073-.23,0a13.091,13.091,0,0,1-.823,1.144.163.163,0,0,0-.067-.1,8.177,8.177,0,0,0-3.789-.968,9.685,9.685,0,0,0-3.632.569,8.777,8.777,0,0,0-5.078,4.842,7.639,7.639,0,0,0-.605,3.85h-.145a3.426,3.426,0,0,1-1.991-.085.139.139,0,0,0-.2.151,9.387,9.387,0,0,1,0,2.294.14.14,0,0,0-.085,0,17.835,17.835,0,0,0-3.8,1.568,7.947,7.947,0,0,0-2.706,2.675,10.29,10.29,0,0,0-.823,8.171,5.889,5.889,0,0,0,2.046,3.287,6.61,6.61,0,0,1-1.695,1.786.145.145,0,0,0-.03.23,12.36,12.36,0,0,1,1.761,1.816,6.654,6.654,0,0,0-1.761,3.293,10.611,10.611,0,0,0-.454,4.285,12.588,12.588,0,0,0,.466,2.052,8.25,8.25,0,0,0,.69,1.816,7.215,7.215,0,0,0,2.724,2.464c1.174.708,2.724,1.41,4.122,1h0a4.915,4.915,0,0,1,0,2.548c-.036.1.079.194.176.169a4.6,4.6,0,0,1,2.185.284l.539.151a6.979,6.979,0,0,0,2.518,6.658,9.309,9.309,0,0,0,7.415,1.846,11.261,11.261,0,0,0,2.348-.648,3.571,3.571,0,0,0,1.592-1,11.881,11.881,0,0,1,.714.974.145.145,0,0,0,.188.048,11.346,11.346,0,0,1,1.6-.968c1.592,2.016,4.285,2.736,6.743,2.9a9.189,9.189,0,0,0,3.922-.508,8.789,8.789,0,0,0,2.99-1.907,8.474,8.474,0,0,0,2.137-3.341.164.164,0,0,0,0-.145c.66.127,1.326.248,1.985.357a.139.139,0,0,0,.176-.1c.212-.763.442-1.531.66-2.306,4.685.436,8.637-3.48,9.642-7.814a10.9,10.9,0,0,0,.169-4.152.115.115,0,0,0-.042-.079,10.219,10.219,0,0,1,1.6-.375.157.157,0,0,0,.1-.23,11.632,11.632,0,0,1-1.4-2.942h0a7.757,7.757,0,0,0,3.965-4.842A8.317,8.317,0,0,0,427.163,395.933Zm-1.368-5.587-1.943,3.571a25.412,25.412,0,0,1-1.864,3.057c-1.428,1.913-3.722,3.565-6.234,3.026h0v-1.156c2,.151,3.825-.968,5.3-2.2A6.344,6.344,0,0,0,422.8,394.3l1.543-3.3a.169.169,0,0,0-.1-.242c-1.961-.678-3.632-1.949-5.659-2.524a6.96,6.96,0,0,0-5.684.7h0c-.248-.418-.521-.823-.805-1.211h.036l.254-.23a11.633,11.633,0,0,1,7.118-.278,10.9,10.9,0,0,1,3.341,1.592A6.565,6.565,0,0,0,425.795,390.346Zm-1.259,5.877a5.742,5.742,0,0,1,.829,1.271,6.483,6.483,0,0,1-2.288,8.2,14.31,14.31,0,0,0-.569-1.326,4.63,4.63,0,0,0,2.518-3.819,4.376,4.376,0,0,0-2.312-4.1c.254-.381.49-.769.72-1.162A10.686,10.686,0,0,1,424.536,396.224Zm-.091-.569a.514.514,0,0,1,.666.763A4.236,4.236,0,0,0,424.445,395.655Zm1.162,7.645a5.211,5.211,0,0,0,.284-.654.74.74,0,0,0,.176.1.5.5,0,0,1,.054.272.781.781,0,0,1-.248.454.816.816,0,0,0-.266-.176Zm.169.817c-.206.315-.448.127-.605-.036.109-.163.212-.333.309-.5a.46.46,0,0,0,.3.121.351.351,0,0,1,0,.418Zm.2-1.707a6.688,6.688,0,0,0,.182-.66h.1l.054.03a.393.393,0,0,1,.176.514c-.061.176-.1.242-.291.212A.429.429,0,0,1,425.977,402.41Zm.351-.86-.115-.054a7.2,7.2,0,0,0,.1-.8h.085a.6.6,0,0,1,.218.242c.139.26-.006.666-.284.611Zm0-1.09h0a6.15,6.15,0,0,0-.03-.817.9.9,0,0,1,.4.248c.272.418-.091.557-.369.569Zm-.073-1.065a5.7,5.7,0,0,0-.139-.726h.042a.788.788,0,0,0,.157-.1c.557.012.587.914-.061.829Zm-.194-.938a6.112,6.112,0,0,0-.357-.981.539.539,0,0,1,.605.363.605.605,0,0,1-.248.617Zm-.284-1.592a.466.466,0,0,1-.194.351c-.1-.188-.206-.387-.333-.605a.813.813,0,0,0,.067-.085l.248-.054C425.777,396.563,425.874,396.678,425.777,396.865Zm-1.858,8.595a5.108,5.108,0,0,0,.418-.393h0a.351.351,0,0,1,.091.527C424.233,405.842,424,405.69,423.919,405.46Zm-.133.769c-.23.139-.448-.073-.514-.284.157-.1.309-.212.46-.327a.46.46,0,0,0,.206.26.351.351,0,0,1-.151.351Zm.714-1.307h0a6.186,6.186,0,0,0,.508-.605.036.036,0,0,0,0,.036.5.5,0,0,1,.073.5.369.369,0,0,1-.581.067Zm-3.468-3.529c.605-.079,1.749-.248,1.888-.981s-.654-1.211-1.241-1.3a2.73,2.73,0,0,0-1.017.03,2.421,2.421,0,0,1,1.816-.466,1.852,1.852,0,0,1,1.459,1.761,1.538,1.538,0,0,1-1.749,1.5,11.014,11.014,0,0,1-2.615-.527.061.061,0,0,0-.055,0h-.061A5.4,5.4,0,0,0,421.031,401.393Zm-2.421-.508a.1.1,0,0,0-.085,0,8.369,8.369,0,0,0-1.265-.557,5.641,5.641,0,0,0,1.816-.514.085.085,0,0,0,.055,0,7.365,7.365,0,0,1,2-.49,1.937,1.937,0,0,1,.993.23c.3.169.678.569.448.944a1.5,1.5,0,0,1-.859.448,4.988,4.988,0,0,1-1.114.188,8.118,8.118,0,0,1-1.985-.218Zm2.585,1.211a4.237,4.237,0,0,0,1.628.091,1.689,1.689,0,0,0,1.41-1.895,2.143,2.143,0,0,0-1.592-1.846,2.56,2.56,0,0,0-1.973.406,9.011,9.011,0,0,0,1.271-1.271,10.526,10.526,0,0,0,.7-.956,4.6,4.6,0,0,1,2.082,3.952,4.316,4.316,0,0,1-2.2,3.45.139.139,0,0,0-.121,0h-.036c-.1-.188-.218-.375-.339-.557A5.612,5.612,0,0,0,420.9,402.2a4.874,4.874,0,0,0-.545-.381,3.892,3.892,0,0,0,.817.248Zm3.069-6.573a1.925,1.925,0,0,0-.732-.339.336.336,0,0,1,.03-.048,1.26,1.26,0,0,1,.412-.182c.345-.091.448.266.266.545Zm-3.959,9.521a1.531,1.531,0,0,1,.648,1.858,1.644,1.644,0,0,1-1.816,1.1,1.6,1.6,0,0,0-.284-1.652,1.816,1.816,0,0,0,1.428-1.332Zm0-.757.091.127a4.011,4.011,0,0,1,.309.5,1.592,1.592,0,0,0-.351-.212,1.643,1.643,0,0,0-.085-.442Zm-1.283,6.44c-.448.188-.9.363-1.344.514a1.363,1.363,0,0,0,.291-.442,1.6,1.6,0,0,0-.393-1.713,1.9,1.9,0,0,0,1.447-.8,1.42,1.42,0,0,1,.036,2.355.067.067,0,0,0-.073.06Zm-2.966.884h-.085a1.525,1.525,0,0,0-.315-1.846,1.816,1.816,0,0,0,1.265-.811.157.157,0,0,0,.073.067,1.326,1.326,0,0,1,.714,1.622,1.531,1.531,0,0,1-1.634.841c-.079.012-.1.079-.054.1Zm-14.3,4.909.321-.085a.085.085,0,0,0-.03.079.8.8,0,0,0,.254.557.418.418,0,0,0,.442.042.315.315,0,0,0,.145-.393c-.061-.163-.194-.272-.248-.442l.333-.1.224-.073a.1.1,0,0,0-.036.121c.157.454.43,1.519-.381,1.525-.648-.024-.853-.811-1.059-1.259Zm.968,1.743a1,1,0,0,0,0,.188,1.455,1.455,0,0,1-.067-.139h0Zm0,4.328a2.893,2.893,0,0,1,.406,1.441,1.876,1.876,0,0,1-.309,1.35c-.508.514-1.059-.109-1.211-.605a6.663,6.663,0,0,1-.157-1.392,16.543,16.543,0,0,1,.121-2.681c.381.6.763,1.229,1.132,1.864Zm-1.12-2.361a.358.358,0,0,0,0-.085l.091.254Zm1.719,3.111a2.425,2.425,0,0,0-.109-.357c.091.133.176.272.254.412a3.026,3.026,0,0,1,.381,1.271,1.489,1.489,0,0,1-1.459,1.677c-.981-.03-1.435-1-1.465-1.87a18.762,18.762,0,0,1,.339-2.657h0v-.067a11.5,11.5,0,0,0,0,2.578c.073.678.478,1.816,1.4,1.471s.8-1.767.635-2.488Zm3.632,1.017,1.392.284h0a1.585,1.585,0,0,1,.26.145.7.7,0,0,1,.242.236c.1.163.061.272-.127.321-.218.157-.2.109-.424.067a1.013,1.013,0,0,0-.272,0,.112.112,0,0,0-.055.206.46.46,0,0,1,.157.726.412.412,0,0,1-.533,0,.657.657,0,0,0-.1-.079l-.073-.085a.05.05,0,1,0-.091.042.085.085,0,0,0,0,.036.079.079,0,0,0,0,.073c.048.151.169.242.218.393a.569.569,0,0,1-.079.527c-.23.315-.557.2-.817,0a.321.321,0,0,0-.254-.206,6.448,6.448,0,0,0,1.816-2.209.157.157,0,0,0-.272-.157,7.868,7.868,0,0,1-1.991,2.3,6.8,6.8,0,0,1-5.865,1.126,7.469,7.469,0,0,1-1.537-.605,5.01,5.01,0,0,1-1.077-.684,9.28,9.28,0,0,0,.993-.751,5.823,5.823,0,0,0,4.842,1.211,5.448,5.448,0,0,0,2.24-1.035,3.8,3.8,0,0,0,1.435-1.816.133.133,0,0,0-.036-.091Zm-.5,3.3a1.053,1.053,0,0,1-.23.448c-.3.315-.527-.133-.7-.339h0a.073.073,0,0,0-.03-.03,6.967,6.967,0,0,0,.763-.508h.042a.055.055,0,0,0,0,.036c.036.036.091.061.127.1a.351.351,0,0,1,.018.272Zm-1.065.43v.236a.291.291,0,0,1-.254.351c-.224.109-.309.073-.484-.121a.909.909,0,0,1-.2-.357,6.784,6.784,0,0,0,.878-.406h0a2.512,2.512,0,0,0,.048.272Zm-1.168.206a2.256,2.256,0,0,1-.048.345c-.048.278-.042.357-.3.5a.248.248,0,0,1-.418,0,.605.605,0,0,1-.157-.242,2.3,2.3,0,0,1-.109-.327,7.593,7.593,0,0,0,1.017-.3Zm-1.592,1.09c-.363,0-.515-.406-.533-.7a4.863,4.863,0,0,0,.835-.073c.03.26.139.751-.315.751Zm-1.392-.055a.527.527,0,0,1-.393-.381.756.756,0,0,0,.073-.327h.036a6.537,6.537,0,0,0,.908.061c.018.327-.254.714-.635.623Zm-.539-.738v.036a.944.944,0,0,0,0,.127.454.454,0,0,1-.539.363.5.5,0,0,1-.291-.72h0a7.061,7.061,0,0,0,.817.169Zm-1.077-.266c-.145.272-.5.745-.781.291a.605.605,0,0,1,0-.454,1.208,1.208,0,0,0,.067-.121,6.863,6.863,0,0,0,.7.26Zm-1.713-.817.272.163c.163.1.333.194.508.278-.1.2-.291.436-.521.436l-.436-.23v-.272a1.029,1.029,0,0,1,.163-.4Zm-.472.157c-.206.176-.357.054-.454-.357a.538.538,0,0,1,.127-.248l.188-.115a1.047,1.047,0,0,0,.43.454.769.769,0,0,1-.309.242Zm9.291-3.353c-.236.278-.375.605-.605.914a4.844,4.844,0,0,1-.841.811,5.134,5.134,0,0,1-2.022.926,6.471,6.471,0,0,1-4.655-.993,9.558,9.558,0,0,0,2.221-3.026c-.036.194-.067.387-.1.575a4.175,4.175,0,0,0,0,1.6,1.816,1.816,0,0,0,1.816,1.5A1.719,1.719,0,0,0,404.12,425a2.808,2.808,0,0,0-.248-1.422,5.355,5.355,0,0,0-.363-.72,5.552,5.552,0,0,0,1.126.738,9.513,9.513,0,0,0,2.112.7Zm-5.314-6.01c.309-.266.272-.8.284-1.265.2.424.466.884.884.968q-.254.091-.508.163Zm-22.589.23a1.138,1.138,0,0,0,.212.418,7.5,7.5,0,0,0-1.646.048c0-.708-.036-1.465-.036-2.24a1.41,1.41,0,0,0,.284.315,1.471,1.471,0,0,0,1.307.248,1.816,1.816,0,0,0-.133,1.186Zm-1.047-1.749a1.447,1.447,0,0,1-.375-1.162.1.1,0,0,0-.036-.079,3.613,3.613,0,0,1,.042-.678,1.271,1.271,0,0,0,.605.339,1.544,1.544,0,0,0,.95-.079,1.949,1.949,0,0,0,.236,1.773h0a1.211,1.211,0,0,1-1.435-.139Zm1.55-8.637a.673.673,0,0,0-.054-.188h0c-.079-.218-.151-.436-.224-.654a1.307,1.307,0,0,0,.956.121,1.114,1.114,0,0,0-.406,1.338.835.835,0,0,0,1.023.387,2.313,2.313,0,0,0-.3.424,1.985,1.985,0,0,0-.157.43c-.284-.563-.545-1.138-.775-1.731h0Zm-4.77-2.609a5.411,5.411,0,0,1-.95-.841c-.1-.109-.188-.224-.278-.339a1.465,1.465,0,0,1,1-1.7,1.931,1.931,0,0,0,1.3,1.592c-.575.248-1.138.629-1.083,1.265Zm-1.477-1.5c-.363-.484-.7-.993-1.053-1.483a.054.054,0,0,0,0-.073c-.278-.605.412-1.162.835-1.507a2.106,2.106,0,0,0,1.071,1.525,1.628,1.628,0,0,0-.866,1.513Zm2.839-6.592a1.852,1.852,0,0,0-1.4,1.259c-.478-.278-1-.605-.968-1.253.091-.115.188-.224.284-.333a4.765,4.765,0,0,1,1.211-.974c-.121.533.351.993.859,1.277Zm1.211-14a2.591,2.591,0,0,0,1.483-.091.974.974,0,0,0-.182.412,1.331,1.331,0,0,0,.182.908,2.281,2.281,0,0,0-1.138.109,2.646,2.646,0,0,0-.557.278,5.054,5.054,0,0,0,.176-1.64Zm.133,1.7a1.936,1.936,0,0,1,.557-.182,2.1,2.1,0,0,1,.847,0,1.816,1.816,0,0,0-.139,1.4,2.161,2.161,0,0,0-2.016.8,7.625,7.625,0,0,1,.23-1.435,1.046,1.046,0,0,1,.042-.188.085.085,0,0,0,0-.036c0-.163.3-.333.442-.387Zm1.416,1.58a2.128,2.128,0,0,0-.188.212,2.457,2.457,0,0,0-.393,2.2,1.816,1.816,0,0,0-1.441,0,5.357,5.357,0,0,1-.115-.636,7.363,7.363,0,0,1-.048-1.035,2.112,2.112,0,0,1,2.161-.769Zm.563-3.632a13.473,13.473,0,0,1,1.786-.605,1.4,1.4,0,0,0,0,1.428,2.355,2.355,0,0,0-2.022.605l-.042.048c-.26-.466-.333-1.011.254-1.3a.139.139,0,0,0-.012-.182Zm2.149-.684c.188-.036.375-.067.569-.085a6.158,6.158,0,0,1,1.156,0,1.78,1.78,0,0,0,0,1.386,1.961,1.961,0,0,0-1.78.224,1.211,1.211,0,0,1-.212-.726,2.349,2.349,0,0,1,.248-.726.085.085,0,0,0-.018-.073Zm0,1.87a.133.133,0,0,0,.061-.054,1.652,1.652,0,0,1,1.882-.1.127.127,0,0,0,.115,0,1.7,1.7,0,0,0,.073,1.743,2.179,2.179,0,0,0-1.332-.218,2.851,2.851,0,0,0-1.211.454h0a1.659,1.659,0,0,1,.375-1.822Zm2-1.943a4.968,4.968,0,0,1,1.144.3,3.839,3.839,0,0,1,1.1.66,1.985,1.985,0,0,0-1.562.169,1.816,1.816,0,0,0-.514.484h0a2.239,2.239,0,0,1-.169-1.531.115.115,0,0,0-.036-.079Zm5.647.1a4.122,4.122,0,0,1-.551-2.125v-.218h.036c.605-.551,1.277.061,1.665.539h0a1.816,1.816,0,0,0-1.186,1.8Zm10.229.981c.079-.484.272-1.211.884-1.211.793,0,.908.872.962,1.471a.11.11,0,0,0,0,.061l-.5-.079a1.731,1.731,0,0,0-.121-.708.339.339,0,0,0-.393-.254.726.726,0,0,0-.466.841l-.605-.061a.085.085,0,0,0,.036-.073,1.816,1.816,0,0,0-.763-1.5q.72.054,1.435.145a1.677,1.677,0,0,0-.642,1.313c-.036.121.145.145.145.048Zm5.629-4.673a1.211,1.211,0,0,1,.714,1.338.151.151,0,0,0,.254.145,1.882,1.882,0,0,1,3.123,1.259l-.188-.085a2.161,2.161,0,0,0-2.058.3,1.6,1.6,0,0,0-.926-1.368,1.882,1.882,0,0,0-1.876.278c0-.654-.194-1.4-.835-1.58l.085-.079a.067.067,0,0,0,.048,0,1.816,1.816,0,0,1,1.622-.212Zm-1.108-.284a6.051,6.051,0,0,1,.981-.575c.157-.067.315-.127.478-.182a1.041,1.041,0,0,1-.1.841h0a1.737,1.737,0,0,0-1.4-.085Zm1.677-.823a8.859,8.859,0,0,1,1.786-.284.956.956,0,0,1,.036.551,2.015,2.015,0,0,0-1.743.327,1.175,1.175,0,0,0-.115-.593Zm1.725.557a1.071,1.071,0,0,1,.7,1.326.1.1,0,0,0,0,.073,2.143,2.143,0,0,0-1.949.2,1.5,1.5,0,0,0-.539-1.077,1.913,1.913,0,0,1,1.749-.521Zm3.486,5.665a2.572,2.572,0,0,0-2.79-.085,1.634,1.634,0,0,0-.841-1.622,2.832,2.832,0,0,0-.278-.127,1.816,1.816,0,0,1,3.026,1.289.163.163,0,0,0,.272.115,2.142,2.142,0,0,1,.817-.4,2.452,2.452,0,0,1,.424-.054h.224a.763.763,0,0,1,.309.042.091.091,0,0,1,.036.127h.042a8.886,8.886,0,0,1-.605,2.833,2.082,2.082,0,0,0-.672-2.118Zm2.01,5.266a17.984,17.984,0,0,1,.853,1.622,1.665,1.665,0,0,0-1.483-.248,1.453,1.453,0,0,0,.593-1.374Zm3.722-.884h.557a1.925,1.925,0,0,1,1.41,1.132,1.846,1.846,0,0,1-.569,2.064v-.067a1.731,1.731,0,0,0-1.5-1.168,1.6,1.6,0,0,0,.061-1.961Zm5.121,1.6a22.648,22.648,0,0,0,2.457,1.144l-1.307,2.8-.055.109a.145.145,0,0,0-.073-.042,1.773,1.773,0,0,0-.708-.061,2.173,2.173,0,0,0,.43-1.64,1.41,1.41,0,0,0-1.083-1.144,1.623,1.623,0,0,0,.3-.563,1.138,1.138,0,0,0,.006-.605Zm-5.774.666a.157.157,0,0,0,.139.036,1.368,1.368,0,0,1,.775,2.621,1.683,1.683,0,0,0-1.459-.932,2.131,2.131,0,0,0,.508-1.725Zm2.094,1.253h.061c.757-.157,1.422.805,1.652,1.41.345.878-.381,1.289-1.1,1.537a2.046,2.046,0,0,0-1.326-1.471,1.779,1.779,0,0,0,.672-1.477Zm3.026-.448a1.089,1.089,0,0,1,1.12,1.12,2.125,2.125,0,0,1-.605,1.453,1.683,1.683,0,0,0-1.071-.853,2.022,2.022,0,0,0,.5-1.719ZM419.863,393h0a2.494,2.494,0,0,0-1.58-1.556,2.2,2.2,0,0,0,.539-1.41A1.616,1.616,0,0,1,419.863,393Zm-3.069.448a1.767,1.767,0,0,1,1.4,1.326,1.743,1.743,0,0,1-.75,1.816,1.852,1.852,0,0,0-1.356-1.41,1.671,1.671,0,0,0,.654-1.731Zm.678,3.462c.642,0,1.211.145,1.344.841a.048.048,0,0,0,0,.03,6.053,6.053,0,0,1-2.349.714,1.888,1.888,0,0,0,.932-1.586Zm.381-.278a2.076,2.076,0,0,0,.678-1.6,1.313,1.313,0,0,1,1.35,1.114,1.362,1.362,0,0,1-.811,1.344c-.109-.539-.726-.781-1.271-.859Zm1.211-1.816a1.313,1.313,0,0,0,.878-1.5,1.4,1.4,0,0,1,1.326,1.453,2.106,2.106,0,0,1-1.089,1.671,1.266,1.266,0,0,0,0-.339,1.6,1.6,0,0,0-1.15-1.3Zm1.041,1.961a.151.151,0,0,0,.133,0,2.373,2.373,0,0,0,1.338-2.215,1.255,1.255,0,0,0-.067-.333,1.5,1.5,0,0,1,.962-.055h.03a6.2,6.2,0,0,1-1.471,2.07c-.333.291-.69.575-1.059.841a1.762,1.762,0,0,0,.1-.327Zm1.114-6.452a1.592,1.592,0,0,1-.442.678h0a1.943,1.943,0,0,0-1.386-1.18,1.314,1.314,0,0,0,.605-.72c.466.206.92.436,1.374.672a3.465,3.465,0,0,0-.188.533Zm-2.421-.605a2.081,2.081,0,0,0-.127-.46,1.936,1.936,0,0,0-.7-.866,7.273,7.273,0,0,1,.866.224q.466.157.908.345a1.592,1.592,0,0,1-1,.751Zm-3.026.539a.229.229,0,0,0-.055.055,1.815,1.815,0,0,0-.145-.381,2,2,0,0,0-2.215-1,9.078,9.078,0,0,1,2.494-.654h.254a1.368,1.368,0,0,1-.363,1.979Zm-.49-.212a1.774,1.774,0,0,1-.678,2.276.151.151,0,0,0-.073.1,21.4,21.4,0,0,0-.974-2.306c-.151-.3-.315-.605-.484-.9a1.876,1.876,0,0,1,2.179.8Zm.605,14.672a1.592,1.592,0,0,0,1.114-.938,2.367,2.367,0,0,1,1.011,1.773c0,.751-.708,1.507-1.495,1.138a.234.234,0,0,0-.061,0v-.042a1.816,1.816,0,0,0-.575-1.937Zm.278,1.816a1.55,1.55,0,0,1-1.816.968.157.157,0,0,0-.169.067,18.571,18.571,0,0,0,.726-1.961c.1-.327.194-.654.272-.987a.182.182,0,0,0,.085.061,1.543,1.543,0,0,1,.926,1.858Zm-3.026.745a1.471,1.471,0,0,0,.847-.1c-.133.315-.266.605-.412.926a.981.981,0,0,0-.411-.817Zm-1.549,2.457c.163.055.387.079.472-.109.139-.3-.188-.563-.466-.684l.157-.278c.381.26.872.648.605,1.126s-.9.266-1.313.085q.115-.176.218-.345a.909.909,0,0,0,.327.212Zm-.272-.321.163-.278c.163.073.345.151.393.327s-.212.121-.309.085a.7.7,0,0,1-.218-.127ZM413.005,408c.055-.278-.321-.557-.605-.575.042-.091.085-.188.133-.284.387.206,1.253.811.605,1.271a1.211,1.211,0,0,1-1.211-.036l.163-.3c.2.218.854.236.914-.067Zm-.866-.067.145-.291a.724.724,0,0,1,.23.03c.067,0,.357.2.266.315s-.351.048-.436.03a2.1,2.1,0,0,1-.206-.079Zm.472-1,.145-.351c.248.133.72.291.859,0s-.23-.605-.514-.642a.121.121,0,0,0-.091.03l.139-.381h0c.436.145,1.18.484.974,1.083s-1.047.405-1.513.3Zm.2-.478.157-.4a.091.091,0,0,0,.055.048c.145.067.466.121.418.357s-.472.067-.629,0Zm.95-1.356a.26.26,0,0,0,.309-.194c.085-.351-.272-.46-.539-.557.03-.1.061-.206.085-.3.418.157,1.053.454.829.987s-.8.448-1.211.315h0c.042-.115.079-.236.115-.351a1.6,1.6,0,0,0,.418.109Zm-.369-.266a1.035,1.035,0,0,1,.079-.266c.169.048.369.085.387.254s-.188.067-.266.055Zm1.09-1.447a.436.436,0,0,0-.073-.442.86.86,0,0,0-.472-.254h0a2.53,2.53,0,0,1,.061-.363.159.159,0,0,0,.055.03c.393.121,1.247.454.9,1.035a1.265,1.265,0,0,1-1.241.43h0c.042-.157.079-.309.109-.466.157.194.508.357.666.036Zm-.66-.206.055-.266c.163.048.436.121.418.345s-.375,0-.454-.067Zm.66-3.377a.466.466,0,0,0,.3-.424.424.424,0,0,0-.278-.363.4.4,0,0,0-.266,0v-.254c.381.067.835.188.95.605.163.569-.454.853-.926.866h-.036v-.381a.545.545,0,0,0,.26-.042Zm-.248-.1v-.442c.06,0,.1-.048.169-.036a.224.224,0,0,1,.157.145.236.236,0,0,1-.1.23.509.509,0,0,1-.23.109Zm0-1.3a2.439,2.439,0,0,0-.042-.551.605.605,0,0,0,.49-.042.363.363,0,0,0,.073-.514.605.605,0,0,0-.648-.212h0a3.108,3.108,0,0,0-.085-.521.133.133,0,0,0,.1,0,.835.835,0,0,1,.95.853,1.144,1.144,0,0,1-.865.993Zm-.061,2.724a1.425,1.425,0,0,1,.266.1c.067.042.23.127.224.218s-.176.127-.242.127a.774.774,0,0,1-.284-.085Zm-.048-3.868a1.554,1.554,0,0,0,.291.067c.1.036.224.139.188.26s-.139.109-.218.109h-.206Zm.036,6.755a1.319,1.319,0,0,0,.938-.393,18.573,18.573,0,0,1-.708,2.572,1.126,1.126,0,0,0-.466-.533.872.872,0,0,0,.8-.605.943.943,0,0,0-.593-1.035Zm.5-1.7a1.4,1.4,0,0,0,.7-.393c-.036.309-.073.605-.121.92a1.21,1.21,0,0,0-.605-.521Zm.672-.86a1.132,1.132,0,0,1-1.211.642h-.054a3.9,3.9,0,0,1,.067-.454.5.5,0,0,0,.745-.085c.151-.327-.393-.642-.666-.642l.036-.448h.048c.448.048,1.2.357,1,.993Zm-.454-1.1a.92.92,0,0,0,.605-.7c0,.369,0,.738-.03,1.108a1.338,1.338,0,0,0-.605-.406Zm-.527-1.816a1.211,1.211,0,0,0,.968-1.211,1.077,1.077,0,0,0-.829-.938,1.731,1.731,0,0,0,.605-.775,21.316,21.316,0,0,1,.393,3.777,1.362,1.362,0,0,0-1.168-.866Zm-.333-2.173h-.036c-.03-.194-.073-.387-.115-.605a.454.454,0,0,0,.442-.085.484.484,0,0,0,.163-.5.545.545,0,0,0-.381-.393.454.454,0,0,0-.454.073c-.042-.163-.091-.327-.145-.484.605-.139,1.368,0,1.4.738a1.392,1.392,0,0,1-.908,1.241Zm-.206-.775c-.048-.2-.1-.4-.151-.605a2.416,2.416,0,0,1,.3,0,.369.369,0,0,1,.272.218.279.279,0,0,1-.055.309c-.1.085-.194.061-.3.048a.073.073,0,0,0-.109.018Zm-.363-1.4h0c-.055-.151-.1-.3-.157-.442a1.319,1.319,0,0,0,.472-.194.321.321,0,0,0,.133-.424.757.757,0,0,0-.944-.248l-.133-.3h.055c.508-.1,1.332-.357,1.489.345a.793.793,0,0,1-.194.811,1.417,1.417,0,0,1-.648.212.127.127,0,0,0-.1.224Zm-.266-.654c-.06-.169-.127-.339-.2-.5a.635.635,0,0,1,.605.127c.176.188-.218.291-.43.363Zm-.23-1.816c.1-.109.236-.272.151-.43a.569.569,0,0,0-.636-.212.738.738,0,0,0-.393.139l-.248-.418c.2,0,.381-.1.605-.1a1.543,1.543,0,0,1,.805.182.527.527,0,0,1,.218.835,2.779,2.779,0,0,1-.69.666.165.165,0,0,0-.042.048c-.061-.133-.127-.266-.188-.393a.932.932,0,0,0,.387-.351Zm-.527.139c-.085-.163-.169-.321-.26-.478l.091-.085a.061.061,0,0,0,.055,0,.605.605,0,0,1,.321-.055c.1,0,.315.079.254.224s-.333.23-.49.369Zm1.41-.393c.115.284.23.569.333.859a1.55,1.55,0,0,0-.872-.054,1.725,1.725,0,0,0,.509-.841Zm.236,2.651a.956.956,0,0,0,.393-.278,1,1,0,0,0,.127-.254c.085.291.169.605.242.884a1.277,1.277,0,0,0-.793-.387Zm-1.78-4.237a3.464,3.464,0,0,1-.605.605h0l-.345-.466c.339-.061.684-.478.508-.817A.424.424,0,0,0,411.4,389a1.506,1.506,0,0,0-.575.321l-.339-.418h.054c.49-.3,1.211-.605,1.695-.091a.847.847,0,0,1,.03,1.041Zm-1.029.061-.369-.49c.212-.1.605-.375.775-.133.091.127,0,.3-.1.393s-.23.1-.339.2Zm-1.211-1.6c.194-.218.49-.7.169-.944s-.605.157-.763.43l-.333-.315h0l.091-.061a.091.091,0,0,0,.109,0,1.474,1.474,0,0,0,.176-.157c.46-.254,1.089-.5,1.4-.157.5.551-.127,1.211-.508,1.622a.163.163,0,0,0-.036.061c-.127-.145-.254-.291-.387-.43a.073.073,0,0,0,.042-.079Zm-.145-.061-.339-.351a.92.92,0,0,1,.194-.242c.1-.085.339-.26.393-.048s-.278.381-.29.611Zm-.835-1.562a.49.49,0,0,0-.073-.49c-.3-.369-.775.085-.944.393a8.719,8.719,0,0,0-.962-.666.7.7,0,0,0-.157-.823.406.406,0,0,0-.66.345c-.169-.1-.345-.188-.521-.272a1.211,1.211,0,0,1,1.592-.5.847.847,0,0,1,.393.745c0,.272-.163.484-.127.763a.132.132,0,0,0,.224.091c.327-.393.853-.974,1.422-.648s.406,1.174-.079,1.562a.115.115,0,0,0-.03.121l-.079.067a.085.085,0,0,0,0,.036l-.369-.315a.726.726,0,0,0,.327-.442Zm-.514.3-.375-.3c.133-.182.605-.642.684-.266.055.236-.29.327-.351.539Zm-1.689-1.211-.478-.278a.067.067,0,0,0,.042-.067.212.212,0,0,1,.26-.23.309.309,0,0,1,.218.23.515.515,0,0,1-.085.321Zm-1.12-1.531a1.392,1.392,0,0,0-.315-.751,22.751,22.751,0,0,1,2.651,1.211,11.4,11.4,0,0,1,.987.605,1.513,1.513,0,0,0-1.174.551,1.326,1.326,0,0,0,.036-.841,1.168,1.168,0,0,0-.72-.672,1.344,1.344,0,0,0-1.471.5,2.556,2.556,0,0,0-.036-.623Zm-.859.036a.466.466,0,0,0-.26-.369c-.369-.157-.605.218-.672.521l-.381-.121c.26-.5.678-1.18,1.338-.9a.992.992,0,0,1,.557.684,1.475,1.475,0,0,1,.036.46,2.209,2.209,0,0,1-.055.466h0c-.212-.1-.43-.194-.648-.278a.781.781,0,0,0,.042-.478Zm-.309.369-.266-.1-.2-.067c.073-.194.23-.521.448-.363s.018.327-.024.508Zm-1.786-1.017c-.048-.157-.127-.351-.315-.363a.52.52,0,0,0-.4.254.95.95,0,0,0-.169.363l-.345-.067c-.163-.133.254-.605.327-.7a1.084,1.084,0,0,1,.732-.387c.823,0,.793.956.708,1.519l-.478-.133a1.246,1.246,0,0,0-.1-.508Zm-.176.418c-.182-.048-.363-.085-.545-.127.073-.188.212-.442.375-.406s.133.315.127.514Zm.72-1.247q.545.151,1.071.327a1.641,1.641,0,0,0-.793.642,1.38,1.38,0,0,0-.236-.92Zm3.081-.853a2.59,2.59,0,0,0-1.816.605,2.421,2.421,0,0,0-.787-1.477.145.145,0,0,0,.067-.036,1.7,1.7,0,0,1,1.683-.478,1.259,1.259,0,0,1,.811,1.368Zm.418.442a1.211,1.211,0,0,1,.605,1.658c-.557-.26-1.126-.5-1.695-.72-.375-.139-.751-.272-1.132-.4a2.118,2.118,0,0,1,2.179-.557Zm2.936,3.377a10.982,10.982,0,0,1,1.132.993,1.211,1.211,0,0,0-1.138.121,1.138,1.138,0,0,0-.036-1.132Zm1.1.533c-.157-.145-.315-.291-.478-.424a12.918,12.918,0,0,0-2.621-1.671,2.367,2.367,0,0,1,2.627-.163,1.683,1.683,0,0,1,.43,2.24Zm.109,2.106a1.21,1.21,0,0,0,.236-1.313,10.488,10.488,0,0,1,.823,1.023c.091.127.182.254.266.387a1.4,1.4,0,0,0-1.368-.115Zm-3.377-10.368a1.4,1.4,0,0,1,1.422-.127,1.368,1.368,0,0,1,.726,1.168,2.233,2.233,0,0,0-1.489.169,1.4,1.4,0,0,0-.7-1.229Zm2.215,1.4h.036l.151.073a1.392,1.392,0,0,1,.714,1.453.132.132,0,0,0,0,.048,1.87,1.87,0,0,0-1.435.23,2.179,2.179,0,0,0-1.15-1.574,1.949,1.949,0,0,1,1.64-.248Zm.412-.157a1.047,1.047,0,0,1,.956,0,1.1,1.1,0,0,1,.521.968,3.142,3.142,0,0,0-.648.406,1.731,1.731,0,0,0-.8-1.356Zm.732,2.185a1.5,1.5,0,0,1,.732,1.211,2.348,2.348,0,0,0-1.556.363,2.246,2.246,0,0,0-.866-1.4,1.519,1.519,0,0,1,1.646-.194Zm.115-.3-.079-.042a4.359,4.359,0,0,1,.9-.605c.042.424.073.847.091,1.277v.448a1.937,1.937,0,0,0-.95-1.1Zm-1.011-2.143a1.652,1.652,0,0,0-2.53-1.3,1.065,1.065,0,0,0-.109-.393l.551-.03a11.2,11.2,0,0,0,3.1-.563,18.8,18.8,0,0,1,.642,2.572,1.428,1.428,0,0,0-1.695-.3Zm-6.47,1.888h0a1.52,1.52,0,0,0-.527-.188,1.592,1.592,0,0,0-1.495.642,6.156,6.156,0,0,1,1.326-2.191C403.617,379.373,403.636,380.335,403.605,380.94Zm-.49.127a1.921,1.921,0,0,1,1.211,1.786,26.529,26.529,0,0,0-2.8-.745,1.441,1.441,0,0,1,1.592-1.047Zm-.847,1.489a1.483,1.483,0,0,0-.829.75c-.073.121-.194.363-.115.5h-.085a.067.067,0,0,0,.03-.061,1.677,1.677,0,0,0-.472-1.477A14.37,14.37,0,0,1,402.268,382.556Zm-1.907,1.1-.605-.079c-.03-.224.1-.666.363-.642s.242.466.266.72Zm-1.537-.176h-.605c.042-.351,0-.853-.424-.866s-.424.5-.351.835h-.5c-.036-.605.26-1.719,1.1-1.3.593.236.593.835.805,1.332Zm-.835-.036h-.381c0-.248,0-.757.272-.605s.151.387.151.605Zm-2.621-.817c-.442,0-.406.551-.387.866l-.363.03v-.054a.1.1,0,0,0,0-.042,1.791,1.791,0,0,0-.067-.321,1.21,1.21,0,0,1,.7-1.138.665.665,0,0,1,.188-.073h.218c.563.085.89,1,.956,1.5a.085.085,0,0,0,0,.036h-.605c-.036-.309-.266-.811-.617-.8Zm.418.817-.66.036c0-.23,0-.7.284-.636.127.03.218.224.266.327a1.508,1.508,0,0,1,.133.272Zm-1.786.085c-.091-.278-.212-.872-.605-.793s-.284.7-.151.962h0l-.363.067c-.1-.575-.109-1.35.527-1.622.472-.206.666.139.787.514.048.163.1.321.163.478a.661.661,0,0,0,.085.23.454.454,0,0,0,.03.1.085.085,0,0,0,.055.048h0l-.527.061a.085.085,0,0,0,.024-.042Zm-.642.109a1.211,1.211,0,0,1-.073-.418c0-.139.054-.357.236-.23s.145.454.3.605l-.472.067a.066.066,0,0,0,.03-.024Zm-1.749-.46c-.436.1-.381.605-.242.932l-.291.079c-.157-.478-.2-1.562.563-1.537.521,0,.853.714.974,1.168l-.315.067c.012-.357-.291-.793-.666-.708Zm.521.745c-.206.042-.412.1-.605.151-.03-.194-.157-.714.206-.684.266,0,.3.339.412.521.006.006.012.006.012.012Zm-1.41-.212a1.6,1.6,0,0,0-.92-.738c.43-.151.872-.284,1.313-.406a1.368,1.368,0,0,0-.345,1.144Zm1.634-1.955a1.523,1.523,0,0,1,3.026-.351.157.157,0,0,0,.3,0,1.816,1.816,0,0,1,1.162-1.3c.968-.3,1.017.859.956,1.5h0a22.3,22.3,0,0,0-5.448.357h0Zm3.172-.847a1.907,1.907,0,0,0-1.907-1.059.153.153,0,0,0,0-.042v-.03c.036-.769.8-1.132,1.531-1.144a1.816,1.816,0,0,1,1.507,1.211h0a2.106,2.106,0,0,0-1.108,1.065Zm-2.131-1.4a1.816,1.816,0,0,0-1.652-.563h0a1.961,1.961,0,0,1,1.211-1.3,1.326,1.326,0,0,1,1.58.787h0c-.569.182-1.071.527-1.114,1.077Zm-1.665-.242a1.465,1.465,0,0,1,1.574.654,1.882,1.882,0,0,0-1.174,1.253,1.652,1.652,0,0,0-1.683-.642,1.87,1.87,0,0,1,1.307-1.265Zm.315,2.572v.1h0a.1.1,0,0,0,0,.042v.036a20.121,20.121,0,0,0-2.494.708l-.291.109h0a1.671,1.671,0,0,1,.8-1.87,1.313,1.313,0,0,1,2,.878Zm.533,1.253a1.362,1.362,0,0,0-.781-.7c.375-.085.745-.163,1.12-.224a1.453,1.453,0,0,0-.333.92Zm1.816-.557a1.3,1.3,0,0,0-.309-.527c.248-.03.5-.054.751-.073a1.519,1.519,0,0,0-.436.6Zm1.786-.666h1.174A1.332,1.332,0,0,0,396.79,383a2.421,2.421,0,0,0-.575-1.132Zm.884-2.137h-.121a1.344,1.344,0,0,1,.151-.823,2.063,2.063,0,0,1,.484-.515,4.842,4.842,0,0,1,.484,2.143A.926.926,0,0,0,397.062,379.73Zm-.412-.514a1.816,1.816,0,0,0-1.761-.872H394.8a1.955,1.955,0,0,1,1.622-1.428h.03a4.613,4.613,0,0,1,.993,1.211,1.332,1.332,0,0,0-.793,1.1ZM394.6,378a1.628,1.628,0,0,0-1.652-.66h-.061a2.034,2.034,0,0,1,1.253-1.483.133.133,0,0,0,.073-.091,8.365,8.365,0,0,1,1.919.92,2.209,2.209,0,0,0-1.531,1.3Zm-1.961-.968a2.294,2.294,0,0,0-1.338-.648,2.8,2.8,0,0,0-.605,0,5.375,5.375,0,0,0,1.168-2.028,5.012,5.012,0,0,0,2.034,1.277,2.094,2.094,0,0,0-1.259,1.38Zm-1.035-.284a2.071,2.071,0,0,1,1,.708,2.276,2.276,0,0,0-1.077,1.211,1.816,1.816,0,0,0-2.276-.569c.061-.085.115-.17.182-.248.242-.321.514-.605.787-.944a.06.06,0,0,0,.054-.036c.182-.406,1.029-.236,1.332-.139Zm-.2,2.318a2.221,2.221,0,0,0-1.162,1.211c-.46-.484-1.211-.932-1.737-.448a4.057,4.057,0,0,1,.5-1.326h0a1.628,1.628,0,0,1,2.4.545Zm-1.967,4.195c.666-.188,1.126.533,1.422,1h0l-.5.157a.079.079,0,0,0,0-.079.43.43,0,0,0-.145-.2,2.1,2.1,0,0,0-.188-.218.4.4,0,0,0-.478-.091.545.545,0,0,0-.236.533c0,.121,0,.309.127.387l-.406.169-.036-.1c-.133-.533-.163-1.4.436-1.58Zm.872,1.211c-.23.079-.46.157-.684.248h0c-.176-.176-.03-.866.272-.605.115.085.212.327.412.321Zm.484.151a22.54,22.54,0,0,1,10.756-.43,14.726,14.726,0,0,1,8.474,4.715,16,16,0,0,1,3.741,8.189,18.225,18.225,0,0,1-1.586,10.042c-.188.412-.387.823-.605,1.211a.164.164,0,0,0-.042.085,14.79,14.79,0,0,1-6.174,6.477,20.622,20.622,0,0,1-9.37,1.961H395.9a7.958,7.958,0,0,1-1.211-.06.048.048,0,0,0-.067,0h-.418a.157.157,0,0,0-.091,0,19.871,19.871,0,0,1-2.391-.387.066.066,0,0,0-.048,0h-.061a.085.085,0,0,0-.055,0c-.605-.206-1.253-.339-1.87-.539a11.247,11.247,0,0,1-1.059-.412,3.9,3.9,0,0,1-.351-.188h0c-.133-.061-.26-.115-.387-.188a9.527,9.527,0,0,1-3.807-3.026,18.915,18.915,0,0,1-2.7-4.007,17.553,17.553,0,0,1-1.816-9.448,16.748,16.748,0,0,1,3.329-8.547,15.738,15.738,0,0,1,7.9-5.5Zm19.732,26.027a2.059,2.059,0,0,1,.254.2c.079.061.2.169.2.284s-.315.061-.406,0a.763.763,0,0,1-.254-.206c.073-.109.139-.212.206-.333Zm-1.6,2.173a2.052,2.052,0,0,0,1.162.333c-.26.272-.527.539-.8.793a1.247,1.247,0,0,0-.363-1.126Zm-.981,1.5a1.144,1.144,0,0,0,.684.218l-.605.508a1.307,1.307,0,0,0-.067-.726Zm-.266-.533.188-.163.054-.042c.133.291.605.642.859.339a.418.418,0,0,0,0-.472.9.9,0,0,0-.212-.242,1.271,1.271,0,0,0-.133-.121l.194-.194a.962.962,0,0,1,.357,1.083c-.284.642-.944.151-1.271-.188Zm-1.15,1.537a1.386,1.386,0,0,0,.684.3c-.242.169-.484.327-.732.484a.95.95,0,0,0,.06-.787Zm-.236-.551h0l.26-.157c.206.218.557.466.793.266s.067-.539-.157-.69c.109-.073.212-.151.315-.23.266.351.527,1.15,0,1.374s-.908-.248-1.2-.563Zm-1.4,1.083a1.168,1.168,0,0,0,1.1.551c-.345.206-.7.4-1.065.605a1.21,1.21,0,0,0-.018-1.156Zm.914.327c-.448,0-.75-.4-1.017-.708l.351-.157c.121.266.478.66.757.418a.478.478,0,0,0-.1-.726l.284-.157a.164.164,0,0,0,0,.073c.254.412.521,1.277-.26,1.259Zm-2.288.7a1.077,1.077,0,0,0,.7.442h0q-.436.2-.872.363a1.1,1.1,0,0,0,.182-.805Zm-.182-.781a.1.1,0,0,0-.091-.061l.327-.109a.674.674,0,0,0,.605.654c.188,0,.23-.254.194-.406a.908.908,0,0,0-.266-.436l.375-.145c.218.387.642,1.211-.036,1.435s-.9-.5-1.1-.932Zm.363-.212.206-.073a2.162,2.162,0,0,1,.206.26c.048.079.157.327,0,.309s-.369-.291-.4-.5Zm1.562-.605.351-.163c.109.139.327.3.176.478s-.406-.169-.5-.339Zm1.374-.732c.121-.079.236-.151.351-.236a1.7,1.7,0,0,1,.188.176c.091.121.085.3-.121.278a.8.8,0,0,1-.406-.242ZM408,413.541l.315-.291c.121.169.418.291.345.527s-.472-.151-.648-.26Zm.926-.884.327-.357a1.108,1.108,0,0,0,.345.194c.139.061.339.127.436-.036a.429.429,0,0,0-.091-.466,1.034,1.034,0,0,0-.218-.248l.242-.309.048.03c.333.266.648.823.4,1.211S409.343,412.863,408.926,412.657Zm.442-.49.212-.254a.948.948,0,0,1,.121.1c.042.055.206.26.163.333s-.333-.067-.527-.175Zm-6.828,4.382c.055.079.182.194.151.3s-.224.091-.3.03a.793.793,0,0,1-.206-.436.054.054,0,0,0-.055-.048l.3-.085a.6.6,0,0,0,.079.236Zm-1.816.823c-.284.248-.406-.375-.442-.569l.4-.073c.067.212.242.454.024.642Zm-1.174,1.574a1.374,1.374,0,1,1-2.712.048,25.038,25.038,0,0,0,2.754-.182.163.163,0,0,0-.06.133Zm-9.079-.569.284.054c.853.176,1.719.309,2.585.406v.048a1.477,1.477,0,0,1-1.658,1.259,1.58,1.58,0,0,1-1.211-1.755s-.006-.012-.012-.012Zm2.917,1.211a1.5,1.5,0,0,0,1.32,1.319,1.465,1.465,0,0,1-2.784-.454,1.816,1.816,0,0,0,1.453-.853Zm.224-.738.9.079c.666.042,1.326.061,1.991.055a1.888,1.888,0,0,1-1.5,1.61c-1.023.1-1.392-.817-1.386-1.683a.218.218,0,0,0-.024-.048Zm-.478,3.184h0a1.816,1.816,0,0,0,1.665-.726,1.477,1.477,0,0,0,1.211.962v.036a1.6,1.6,0,0,1-1.634,1.253,1.422,1.422,0,0,1-1.253-1.513Zm1.87-1.144a1.985,1.985,0,0,0,1.568-1.211,1.761,1.761,0,0,0,1.18,1.162,2.064,2.064,0,0,1-1.38,1.138,1.144,1.144,0,0,1-1.368-1.09Zm1.937-3.456c0,.091.03.254-.067.315-.218.145-.3-.46-.309-.569a.054.054,0,0,0-.1,0c-.1.26,0,.787.345.817a.357.357,0,0,0,.327-.23c.085-.188,0-.393.036-.605a.187.187,0,0,0,0-.061h.605c0,.533-.139,1.525-.908,1.386-.605-.115-.745-.835-.781-1.38h.89a1.172,1.172,0,0,0-.012.351Zm.95.424a1.211,1.211,0,0,0,.545.781c-.406.036-.817.06-1.211.073a1.1,1.1,0,0,0,.69-.847Zm1.011.605c-.732.085-.866-.853-.908-1.374a.377.377,0,0,0,0-.042h.278c-.115.224.169.66.363.732.436.163.605-.454.478-.817l.345-.048h0c.206.569.248,1.5-.533,1.586Zm-.508-1.453.478-.048c.03.242.085.648-.157.605a.4.4,0,0,1-.3-.521Zm-3.747.787a.424.424,0,0,0,.5-.127.811.811,0,0,0,.157-.605h.5c0,.527-.139,1.253-.787,1.277s-.866-.466-.92-.968c.048-.139.091-.278.127-.412h.2a.605.605,0,0,0,.242.9Zm-.067-.775c.163,0,.333.03.5.036a1.048,1.048,0,0,1-.042.363c-.055.157-.242.272-.381.127a.527.527,0,0,1-.055-.49Zm-1.513.732a.373.373,0,0,0,.339-.291,1.1,1.1,0,0,0,.055-.563l.484.061a1.455,1.455,0,0,0-.048.266,1.211,1.211,0,0,1-.7.914.605.605,0,0,1-.823-.418,1.888,1.888,0,0,1,.054-.987c.139.03.284.055.43.073-.1.321-.212.944.23.981Zm-.115-.926.3.048c0,.163,0,.69-.2.654s-.073-.478-.079-.666Zm-1.422-.272a1.177,1.177,0,0,1,0,.145.418.418,0,0,1-.248.345c-.169.067-.284-.079-.291-.236a1.174,1.174,0,0,1,.1-.387l.369.061a.109.109,0,0,0,.079.073Zm-1.888-.5c-.085.182-.073.563-.321.563-.157,0-.091-.266-.067-.363a.83.83,0,0,1,.139-.272l.139.042Zm-2.046-.793h0l.054-.067h.073a.121.121,0,0,1,.073.048l.151.109a2.221,2.221,0,0,1-.091.284c-.054.121-.163.309-.315.309s-.176-.176-.145-.3a.768.768,0,0,1,.121-.218h0v-.048h0l.036-.085h0Zm-6.513-.182a1.592,1.592,0,0,1-1.646-.714,1.568,1.568,0,0,1,.1-1.725,1.919,1.919,0,0,0,1.677.514A1.973,1.973,0,0,0,381.083,415.084Zm-.121.3a1.683,1.683,0,0,0,.327,1.731,1.477,1.477,0,0,1-1.816-.375,1.689,1.689,0,0,1-.061-1.913,1.9,1.9,0,0,0,1.531.557Zm.309,0,.054.073a1.566,1.566,0,0,1,2.6,1.531,2.37,2.37,0,0,1-2.209.1,1.392,1.392,0,0,1-.46-1.713Zm.345-.085a1.628,1.628,0,0,1,.176-2.324,16.874,16.874,0,0,0,2.125,2.24,1.628,1.628,0,0,1-2.318.073Zm-.115-3.154a1.513,1.513,0,0,0,1.156-.272c-.291.472-.515,1.053-.121,1.459s.932.188,1.368-.1c-.278.472-.442,1.108-.036,1.483s.932.109,1.332-.224a2.578,2.578,0,0,0-.236,1.211,16.947,16.947,0,0,1-3.48-3.571Zm-.726-4.7c-.333,0-.781.387-.569.738s.605,0,.926,0c.048.109.109.218.163.327a.127.127,0,0,0-.091,0h0c-.418.309-1.307.605-1.428-.139-.091-.563.436-.944.841-1.211a.139.139,0,0,0,.048-.1c.048.121.1.242.157.369Zm.042.157.03-.036c.067.151.139.3.212.454-.182,0-.345.115-.527.127s-.218-.194-.115-.321.254-.145.381-.26Zm.545,1.077h0c.054.1.109.206.169.309a.9.9,0,0,0-.484.212.521.521,0,0,0-.218.514.315.315,0,0,0,.418.157c.206-.079.315-.284.5-.381a.079.079,0,0,0,.042-.048c.1.169.2.333.3.49a.109.109,0,0,0-.1.042,1.44,1.44,0,0,1-.708.418c-.254.067-.872.133-.926-.272a1.7,1.7,0,0,1,.605-1.144,1.326,1.326,0,0,0,.375-.309Zm.266.436.109.194h0a.418.418,0,0,0-.284.133c-.079.073-.206.26-.333.224s.091-.339.157-.387a.89.89,0,0,1,.333-.176Zm-.43,1.531a2.066,2.066,0,0,0,.333-.085,1.943,1.943,0,0,0-.43,1c-.169-.26-.333-.515-.49-.781l-.133-.194a1.658,1.658,0,0,0,.7.042Zm.5.151a4.9,4.9,0,0,1,.49-.672.21.21,0,0,0,0-.048l.218.333h0c-.182.133-.757.605-.406.841a.381.381,0,0,0,.393,0,.953.953,0,0,0,.194-.188l.169-.182c.1.139.2.272.3.412h-.042c-.26.212-1.574,1.077-1.683.3-.036-.248.212-.593.357-.805Zm.787-.3h0l.169.242c-.182.073-.236.339-.436.369h-.121c-.024,0,.061-.169.091-.218a2.83,2.83,0,0,1,.278-.406Zm.66,1.531c-.091.145-.206.369-.067.521a.393.393,0,0,0,.448.042.811.811,0,0,0,.309-.381c.133.145.26.291.4.436a.061.061,0,0,0-.03,0c-.309.321-1.307,1.029-1.586.327-.194-.484.321-1.144.605-1.519l.254.309a.509.509,0,0,0-.351.254Zm.43-.121c.042.048.079.1.121.139-.109.169-.194.424-.406.387s-.042-.212,0-.3a.436.436,0,0,1,.266-.242Zm.605,3.523q.527.436,1.089.835a14.729,14.729,0,0,0,1.35.835,1.489,1.489,0,0,1-2.421-1.671Zm1.12-.351a4.5,4.5,0,0,1,.345-.968.121.121,0,0,0-.194-.145c-.345.278-.884.956-1.368.575s0-1.265.272-1.622a.085.085,0,0,0,0-.073h0v-.03l.254.254c-.3.139-.648.539-.387.841s.708-.079.859-.393c.278.254.563.5.86.738a.884.884,0,0,0-.321.375.412.412,0,0,0,.067.539.418.418,0,0,0,.49-.036.672.672,0,0,0,.242-.527,4.81,4.81,0,0,0,.605.351h0a1.889,1.889,0,0,1-1.332,1c-.575.036-.508-.527-.418-.9Zm-.557-1.925.218.206a1.477,1.477,0,0,1-.194.272c-.079.079-.291.254-.369.1s.145-.472.321-.587Zm1.392,1.211a2.158,2.158,0,0,0,.188.139h0c-.127.127-.139.605-.436.5s.042-.484.224-.654Zm-5.829-8.159-.351.085c-.121,0-.291.079-.327-.091-.054-.266.3-.333.454-.448a.1.1,0,0,0,.036-.079,4.165,4.165,0,0,0,.163.514Zm-.993-7.869a.823.823,0,0,0-.472.1c-.127.048-.284.121-.309.272a.339.339,0,0,0,.194.321,3.213,3.213,0,0,0,.515.272v.236a.127.127,0,0,0-.085-.042c-.448-.048-1.065-.194-.95-.793a.962.962,0,0,1,1.156-.726,3.428,3.428,0,0,0-.091.357Zm.1,4.31h0a.69.69,0,0,1-.351,0c-.1,0-.357-.133-.194-.254a.949.949,0,0,1,.272-.133.754.754,0,0,0,.224-.054,1.5,1.5,0,0,0,.024.436Zm-.145-4.158q-.036.327-.054.654l-.194-.139c-.085-.055-.278-.133-.315-.23s.03-.115.1-.151l.2-.073A.66.66,0,0,0,379.267,398.493Zm-.061,2.264c-.182,0-.605,0-.508-.236s.327-.169.5-.236c.006.176.012.333.018.49Zm-.654-1.156a1.531,1.531,0,0,0-.557.363c0-.242,0-.478,0-.72a1,1,0,0,0,.563.375Zm.563.115a.194.194,0,0,0,.079-.03v.424a.605.605,0,0,0-.484.073.43.43,0,0,0-.23.363.4.4,0,0,0,.224.345.72.72,0,0,0,.515,0,3.388,3.388,0,0,0,.036.605h0a1.083,1.083,0,0,1-1.241-.642v-.387a1.168,1.168,0,0,1,1.108-.732Zm-.375,2.034a1.434,1.434,0,0,0-.672.805c-.036-.393-.061-.793-.073-1.211a1.386,1.386,0,0,0,.751.424Zm.169,1.876a1.973,1.973,0,0,0-.605.636c-.054-.345-.109-.7-.145-1.041a.908.908,0,0,0,.757.424Zm-.605-.878c.036-.46.442-.726.793-.974a1.011,1.011,0,0,0,.188-.03c0,.091,0,.182,0,.266a.781.781,0,0,0-.418.091c-.139.073-.345.194-.327.375.03.369.605.4.847.284a2.75,2.75,0,0,0,.109.605.109.109,0,0,0-.079,0c-.46.079-1.174.073-1.12-.6Zm2.052-11.5a2.288,2.288,0,0,1,1.35.054l-.091.157a.605.605,0,0,0-.805.091c-.182.3.115.551.357.66h0c-.079.139-.151.284-.224.43h0c-.466-.2-1.543-1.029-.593-1.38Zm-.194,1.211a1.659,1.659,0,0,0-.605,0q.1-.254.218-.508a1.452,1.452,0,0,0,.381.521Zm4.842-5.8a1.041,1.041,0,0,0-1.18-.206c.4-.357.811-.69,1.211-1a1.906,1.906,0,0,0-.061,1.223Zm.055.726-.315.278a1.64,1.64,0,0,1-.169-.248c-.03-.048-.109-.163-.067-.224s.115-.036.145-.036a.394.394,0,0,1,.272.1.355.355,0,0,0,.1.145Zm-.036-.357-.067-.03a.605.605,0,0,0-.466-.042c-.169.054-.272.176-.206.357a1.387,1.387,0,0,0,.321.478l-.3.284c-.363-.3-1-.835-.49-1.3.375-.357.866-.085,1.18.26Zm-1.3.89a1.919,1.919,0,0,0,.393.345l-.284.291a1.441,1.441,0,0,0-.49-.363.333.333,0,0,0-.412.067c-.266.291.03.648.327.738a.085.085,0,0,0,.067-.151.545.545,0,0,1-.254-.212c-.054-.1,0-.284.121-.266a.67.67,0,0,1,.284.176,1.061,1.061,0,0,0,.242.133c-.278.309-.551.605-.811.944a.154.154,0,0,0,0-.042c-.4-.412-.981-1.114-.4-1.634a.968.968,0,0,1,.872-.188,1.435,1.435,0,0,1,.315.176Zm-1.211,2.137c-.163-.266-.7-.369-.841-.03s.2.557.484.642c-.1.145-.2.3-.3.454l-.042-.042a1.386,1.386,0,0,1-.829-1.271v-.067c.091-.145.182-.284.278-.418.412-.163,1.138.242,1.453.472a.067.067,0,0,0,.042,0c-.188.242-.363.49-.539.745-.169-.079-.448-.2-.387-.418s.188-.145.3-.1.176.121.278.145a.091.091,0,0,0,.061-.1ZM381.5,389c.151-.206.309-.412.472-.605a1.41,1.41,0,0,0,.26.8,1.968,1.968,0,0,0-.775-.188Zm1.961-1.5-.157-.036a1.241,1.241,0,0,0-.539,0c.23-.248.472-.49.72-.72a.769.769,0,0,0-.067.769Zm-1.658.636a9.1,9.1,0,0,0-.726.962.551.551,0,0,0-.1.067h0a1.713,1.713,0,0,1-.551-1.126,1.386,1.386,0,0,1,.03-.95,1.719,1.719,0,0,1,.448-.508,2.554,2.554,0,0,1,1.477-.605,2.627,2.627,0,0,1,1.211.309,15.654,15.654,0,0,0-1.834,1.864Zm-.72,2.8a1.64,1.64,0,0,0-.878.073c.121-.224.242-.448.369-.666l.115-.188a1.628,1.628,0,0,0,.393.781Zm.418.7-.26.466h0c-.127-.091-.4-.272-.236-.448s.333-.048.5-.018Zm4.31-5.823c-.291.272-.133.648.079.908-.176.127-.351.26-.514.393-.206-.605-.436-1.386.151-1.816.454-.339.993,0,1.362.412a1.73,1.73,0,0,0,.145.254l-.278.176c-.176-.315-.617-.623-.938-.327Zm.775.424c-.188.121-.375.254-.557.381-.121-.182-.236-.412-.1-.605s.49.061.66.224Zm1.156-1.362c.291-.091.381.254.527.412l-.569.3C387.6,385.389,387.426,384.971,387.741,384.875Zm.95-.605a1.21,1.21,0,0,0-1.089-.381q.654-.327,1.326-.605a1.525,1.525,0,0,0-.248,1Zm.1.605a.138.138,0,0,0,.042.121l-.4.188c-.061-.333-.484-.666-.811-.508s-.224.672-.061.956l-.3.169c-.327-.527-.539-1.259.157-1.592a1.047,1.047,0,0,1,1.356.69Zm-2.052.351a1.211,1.211,0,0,0-.835-.375c.351-.224.708-.442,1.077-.642a1.065,1.065,0,0,0-.254,1.041Zm-2.948.829a.067.067,0,0,0,0-.073,1.6,1.6,0,0,1,.472-2.288,1.452,1.452,0,0,1,1.174-.127,1.992,1.992,0,0,1,.872.69,17.609,17.609,0,0,0-2.53,1.822Zm-3.16-.1a2.572,2.572,0,0,0-1.749.521h0a1.532,1.532,0,0,1,0-1.368.605.605,0,0,1,.266-.375l.085-.085a2.07,2.07,0,0,1,1.761-.442,1.949,1.949,0,0,0-.375,1.773Zm.121.3a2.354,2.354,0,0,0-.23.2,1.459,1.459,0,0,0-.448,1.471,2.536,2.536,0,0,0,.412,1.09,2.112,2.112,0,0,0-2.022.321h0a2.185,2.185,0,0,1,2.276-3.057Zm-2.488,3.262h0a1.591,1.591,0,0,0-.176.224,1.755,1.755,0,0,0,.212,2.028,4.994,4.994,0,0,1-1.616-2.488,1.731,1.731,0,0,1,1.568.26Zm.054.424a1.767,1.767,0,0,1,2.361-.527h.079a.183.183,0,0,0,0,.061.5.5,0,0,0,0,.091,17.4,17.4,0,0,0-1.5,2.869h0l-.133-.067a.066.066,0,0,0,0-.042c-.666-.587-1.344-1.489-.823-2.361Zm1.083,2.833c.357-.291,1.023-.036,1.453.079-.218.454-.412.914-.605,1.386-.484-.079-1.047-.351-1.083-.866a4.057,4.057,0,0,0,.224-.575Zm.03,1.4a1.289,1.289,0,0,0-.563.163l.182-.605a1.277,1.277,0,0,0,.369.466Zm.436.218a1.812,1.812,0,0,0,.315.067c-.109.309-.212.605-.3.932a.067.067,0,0,0-.048,0c-.212.048-.5-.182-.363-.406a.315.315,0,0,1,.212-.139.849.849,0,0,1,.272.036c.061,0,.085-.073.067-.121-.067-.145-.291-.151-.424-.115a.49.49,0,0,0-.339.315.478.478,0,0,0,.605.605l-.145.539h-.036c-.387-.157-1.011-.466-1-.932a1.262,1.262,0,0,1,.067-.26l.03-.054a1.047,1.047,0,0,1,1.09-.442Zm-.847,1.6a1.816,1.816,0,0,0-.605.1c.036-.176.073-.357.115-.533a1.453,1.453,0,0,0,.478.454Zm.575.291h.042v.115c-.054.224-.1.46-.145.69a.067.067,0,0,0-.067-.042,1.169,1.169,0,0,1-.291,0,.187.187,0,0,1-.182-.188c.03-.212.357-.151.5-.176s.067-.133,0-.157c-.26-.109-.708,0-.7.351s.448.387.7.321h.03c-.03.163-.055.321-.079.484-.393-.054-.926-.145-1.126-.5.036-.254.079-.508.127-.757a1.87,1.87,0,0,1,1.18-.121Zm-.872,1.465a1.071,1.071,0,0,0-.605.406,5.275,5.275,0,0,1,.085-.684,1.453,1.453,0,0,0,.508.3Zm-.605-1.447a.75.75,0,0,0-.2.424.811.811,0,0,0,.048.442c-.03.212-.061.418-.085.605-.042.363-.079.726-.1,1.1a1.58,1.58,0,0,1-1.114-1.55,1.556,1.556,0,0,1,1.525-1.41Zm-2.488,4.394a1.949,1.949,0,0,0-1.289,1.628,1.741,1.741,0,0,1,.127-3.353A2.076,2.076,0,0,0,375.635,400.709Zm-.841-1.876c.1-.775.908-1.1,1.58-1.211a1.577,1.577,0,0,1-.3,2.99c-.684-.345-1.4-.908-1.289-1.78Zm1.253,2.082h0a1.888,1.888,0,0,0,1.289,1.6,2.681,2.681,0,0,0-1.1,1.556h-.054a1.659,1.659,0,0,1-1.568-1.5,1.64,1.64,0,0,1,1.422-1.659Zm.327-.169a1.592,1.592,0,0,1,1.392-1.5c0,.46-.036.926-.036,1.386v.151c0,.5.03,1.011.073,1.513h-.036a1.6,1.6,0,0,1-1.4-1.556Zm0-3.468v.036c-.545-.254-1.259-.654-.987-1.362h0a4.062,4.062,0,0,1,2.669-.266h0a1.876,1.876,0,0,0-1.695,1.6Zm-2.221,1.519a2.106,2.106,0,0,0-1.289,1.816v.079a3.377,3.377,0,0,1-.508-.605,1.549,1.549,0,0,1-.2-.866.085.085,0,0,0,0-.067c.381-.472.763-.944,1.15-1.4a1.761,1.761,0,0,0,.835,1.047Zm-1.568,2.022a2.633,2.633,0,0,0-.89,1.271,6.777,6.777,0,0,0-1.059-1.065l1.211-1.507a2.046,2.046,0,0,0,.726,1.3Zm3.632,3.529a1.815,1.815,0,0,0,.1.775,2.058,2.058,0,0,0,1.083,1.162,4.684,4.684,0,0,1-1.55-.163,4.4,4.4,0,0,1-1.1-.49c-.048-.781.829-1.083,1.459-1.283Zm.345.551a2.155,2.155,0,0,1,1.259-2.306,21.836,21.836,0,0,0,.605,3.535,1.707,1.707,0,0,1-1.876-1.229Zm2.917-1.271a.121.121,0,0,0,.073-.079c.067.333.145.66.224.987a.067.067,0,0,0-.048,0,.841.841,0,0,1-.545,0c-.127-.073-.188-.242-.048-.333s.43-.1.466-.327c0-.067-.054-.139-.115-.1-.23.169-.69.218-.648.605.048.466.605.436.926.321a.109.109,0,0,0,.042-.03,1.3,1.3,0,0,0,.085.327l-.073.042c-.375.218-1.211.363-1.362-.242s.629-1.029,1.011-1.174Zm-.194,1.816a2.161,2.161,0,0,0-.551.847c-.091-.357-.182-.708-.254-1.065a1.1,1.1,0,0,0,.787.212Zm-.339,1.017a2.348,2.348,0,0,1,.763-1.132,1.213,1.213,0,0,0,.236-.151h0c.042.145.085.291.133.43a.061.061,0,0,0-.067,0c-.339,0-.726.327-.605.7s.642.23.95.085c.079.206.157.412.242.605a.091.091,0,0,0-.1,0,1.912,1.912,0,0,1-.908.218.605.605,0,0,1-.66-.763Zm1.023,3.668a17.782,17.782,0,0,0,1.616,2.585,1.586,1.586,0,0,1-2.028-.514,1.646,1.646,0,0,1,.4-2.076Zm-.7,2.215h0c-.43.182-.993.333-1.3-.121h0a4.624,4.624,0,0,1,1.392-1.816A1.816,1.816,0,0,0,379.267,412.342Zm-.151.387a1.816,1.816,0,0,0,.03,1.816l.061.091h-.042a1.338,1.338,0,0,1-.872.3c-.351,0-.859-.157-.847-.605a8.085,8.085,0,0,1,.412-1.767,1.21,1.21,0,0,0,1.277.169Zm.236,4.352a1.816,1.816,0,0,0,1.761.412,2.137,2.137,0,0,0,.121,1.313,2.589,2.589,0,0,0,.393.636c-.575-.145-1.144-.309-1.725-.406l-.418-.067a1.43,1.43,0,0,1-.115-1.888Zm2.179,1.658a1.815,1.815,0,0,1-.054-1.422,2.473,2.473,0,0,0,2.318,0,1.979,1.979,0,0,0-.1,1.507,1.277,1.277,0,0,0,.775.757,3.892,3.892,0,0,1-1.852.079l-.266-.055a4.39,4.39,0,0,1-.406-.278,2.027,2.027,0,0,1-.4-.587Zm2.385-.194a1.907,1.907,0,0,1,.2-1.211,1.727,1.727,0,0,0,.266.248,1.876,1.876,0,0,0,2.421-.272.163.163,0,0,0,.042-.085l.127.067h0a7.491,7.491,0,0,1-1.646,1.816,2.682,2.682,0,0,1-.448.272,1.132,1.132,0,0,1-.944-.835Zm1.713-2.336a1.671,1.671,0,0,0,1.083-.515c-.169.551-.218,1.15.381,1.386a.811.811,0,1,1,1.434.563l-.853-.272h-.188a15.865,15.865,0,0,1-1.84-1.162Zm1.507.605c-.605-.315-.1-1.32.079-1.761l.309.127a.187.187,0,0,0-.036.079c-.327.182-.515.853-.042.981.351.1.69-.333.726-.7a4.52,4.52,0,0,0,.424.2.091.091,0,0,0-.048.048c-.2.484-.7,1.374-1.41,1.023Zm1.816-.944.3.1a.883.883,0,0,0-.194.4c-.036.169-.042.393.139.484a.418.418,0,0,0,.448-.1,1.066,1.066,0,0,0,.224-.605c.351.1.708.194,1.071.266-.206.291-.2.847.236.884a.533.533,0,0,0,.472-.254,1.036,1.036,0,0,0,.139-.412l.412.079c-.151.521-.418,1.313-1.1,1.211s-.72-.974-.605-1.507a.121.121,0,0,0-.23-.06c-.163.545-.484,1.422-1.211,1.265S388.685,416.313,388.952,415.871Zm1.241,1.271a1,1,0,0,0,1.937.424c.03.46.224.878.775.92a1.1,1.1,0,0,0,1.059-.69,1.083,1.083,0,0,0,.975.847c.605.048.878-.351,1.017-.829a1.138,1.138,0,0,0,.841.932c-.745,0-1.489,0-2.233-.048a27.4,27.4,0,0,1-3.765-.5c-.46-.091-.92-.194-1.374-.309a1.411,1.411,0,0,0,.775-.751Zm1.344,3.287h.073c-.091.563-.43,1.677-1.211,1.211a5.35,5.35,0,0,1-.151-2.954,1.7,1.7,0,0,0,1.3,1.743Zm-.236,1.362a1.283,1.283,0,0,0,.484-.769,1.816,1.816,0,0,0,1.041.95h0c-.248.605-.859,1.731-1.671,1.283a9.417,9.417,0,0,1-.636-1.35.847.847,0,0,0,.787-.115Zm.853,1.646a1.816,1.816,0,0,0,.714-.817,1.774,1.774,0,0,0,1.083,1.162,1.888,1.888,0,0,1-.726.853,1.925,1.925,0,0,1-.5.212l-.194.048a2.1,2.1,0,0,0-.291.061c-.333-.466-.648-.944-.938-1.428a1.114,1.114,0,0,0,.859-.091ZM393.11,425a2.04,2.04,0,0,0,.944-.787,2.155,2.155,0,0,0,1.719,1.12,11.061,11.061,0,0,0-2.143,1.592c-.387-.605-.817-1.156-1.211-1.749a2.017,2.017,0,0,0,.7-.176Zm1.858-.26a1.477,1.477,0,0,1-.732-.884h0a1.852,1.852,0,0,0,1.895-1.077,1.961,1.961,0,0,0,2.2.944h0a8.472,8.472,0,0,1-2.1,1.344h-.03a6.228,6.228,0,0,1-1.192-.327Zm1.32-2.421h0a2.185,2.185,0,0,0,1.6-1.041,1.4,1.4,0,0,0,1.513.956,5.518,5.518,0,0,1-.605,1.011l-.121.061a1.154,1.154,0,0,0-.194.1.1.1,0,0,0-.073,0,1.646,1.646,0,0,1-2.112-1.083Zm1.816-1.422h.067a1.737,1.737,0,0,0,1.616-1.368,5.157,5.157,0,0,1-.29,2.367.151.151,0,0,0-.1,0,1.065,1.065,0,0,1-1.265-1Zm1.277-2.324a1.12,1.12,0,0,0,.424-.878,1.253,1.253,0,0,0,.793.714c-.375.061-.75.121-1.192.163Zm.351-1.683.381-.061c0,.321.163.938.605.763s.345-.605.151-.908l.605-.133c-.091.508.212,1.5-.484,1.64-.775.157-1.047-.738-1.235-1.3Zm5.786.115a.17.17,0,0,0,0,.054,1.858,1.858,0,0,1-.878,2.252,1.271,1.271,0,0,1-1.816-1.132A17.551,17.551,0,0,0,405.542,417Zm.369.309a2.506,2.506,0,0,0,2.209.182h0a1.622,1.622,0,0,1-2.6,1.5,2.422,2.422,0,0,0,.4-1.683Zm3.026-1.5a1.816,1.816,0,0,0,1.556-.151,1.362,1.362,0,0,1-2.1,1.725.061.061,0,0,0-.03,0h0a1.416,1.416,0,0,0,.587-1.574Zm1.652,2.385a2.258,2.258,0,0,0,1.459.3,2.306,2.306,0,0,0,.605-.182,1.816,1.816,0,0,1-2.869,1.628l.151-.067a1.537,1.537,0,0,0,.672-1.683Zm-2.125-.333a1.761,1.761,0,0,0,1.816.127c.109.648.151,1.441-.605,1.707a2.07,2.07,0,0,1-1.858-.521A1.864,1.864,0,0,0,408.442,417.862Zm-3.868,1.816a1.816,1.816,0,0,0,.751-.436c.309.726.605,1.786-.145,2.324a8.438,8.438,0,0,1-1.955-2.137A1.659,1.659,0,0,0,404.574,419.678Zm1.156-.2a1.913,1.913,0,0,0,1.816-.139,2.742,2.742,0,0,1,0,2.088,1.211,1.211,0,0,1-.769.636c-.212.061-.478,0-.678.1a7.757,7.757,0,0,1-.745-.472c.738-.478.635-1.441.375-2.221Zm1.156,2.809a1.356,1.356,0,0,0,.817-.605,2.669,2.669,0,0,0,.26-2.058,2.27,2.27,0,0,0,1.568.393.145.145,0,0,0,.03.121,1.58,1.58,0,0,1-.212,2.028,2.421,2.421,0,0,1-1.816.605,7.821,7.821,0,0,1-1.1-.442,2.113,2.113,0,0,0,.448-.055Zm2.766,0a1.931,1.931,0,0,0,.4-1.816,2.112,2.112,0,0,0,2.93-2.306,1.263,1.263,0,0,0,.121-.133h0c.079,1.816-.872,3.517-1,5.326a16.893,16.893,0,0,0-3.026-.236,6.586,6.586,0,0,1-.841-.133,2.179,2.179,0,0,0,1.416-.72Zm3.287-4.727c0,.527-.835.666-1.211.66a2,2,0,0,1-1.211-.418,1.725,1.725,0,0,0,.472-1.846,1.816,1.816,0,0,0,1.671.121,7.676,7.676,0,0,1,.381,1.344.163.163,0,0,0-.1.121Zm-2.2-2.119.067-.067a1.816,1.816,0,0,0,.091-2.246,5.236,5.236,0,0,1,1.386,2.028c.091.194.169.393.254.605A2.052,2.052,0,0,1,410.742,415.441Zm-.157-.291a1.489,1.489,0,0,1-1.967.133c-.151-.121-.363.073-.218.218a1.077,1.077,0,0,1-.515,1.731,2.421,2.421,0,0,1-2.118-.369h0a19.248,19.248,0,0,0,4.739-3.735.248.248,0,0,0,.03.055,1.489,1.489,0,0,1,.055,1.985Zm-.048-3.39a1.138,1.138,0,0,0,.684.085c-.175.224-.363.448-.551.66a1.211,1.211,0,0,0-.127-.7Zm-.418-.5-.042-.036c.055-.067.109-.139.157-.212a.878.878,0,0,0,.406.3c.157.06.381.1.5-.055.218-.3-.212-.654-.484-.829l.224-.339c.357.284.853.732.605,1.211-.272.63-.944.26-1.344-.024Zm1.3-.993a.962.962,0,0,0,1.144-.345c.291-.484,0-.938-.387-1.265a1.12,1.12,0,0,0,1.211-.206,19.365,19.365,0,0,1-1.592,2.633,1.3,1.3,0,0,0-.369-.8Zm2.706-2.651a.139.139,0,0,0,.036.133,1.816,1.816,0,0,1,.369,2.106,1.864,1.864,0,0,1-1.864.914l-.151-.121h-.042a19.681,19.681,0,0,0,1.659-3.014Zm.654,2.385a2.064,2.064,0,0,0-.133-2.149,1.907,1.907,0,0,0,1.677-.926,1.465,1.465,0,0,1-1.211,2.53c-.194,0-.194.248-.042.309a1.338,1.338,0,0,1,.605,1.816.149.149,0,0,0,0,.042,4.237,4.237,0,0,1-2.718-.654,2.01,2.01,0,0,0,1.828-.975Zm4.715-1.665a2.137,2.137,0,0,0,1.737-1.374,1.049,1.049,0,0,0,.067-.224,1,1,0,0,0,.067.23,14.873,14.873,0,0,0,.95,2.47,19.374,19.374,0,0,0-2.778,1.011,1.634,1.634,0,0,0-.036-2.094Zm.478-3.474A1.459,1.459,0,0,1,418.429,406a.164.164,0,0,0-.079.3,1.259,1.259,0,0,1,.436,1.634,1.652,1.652,0,0,1-1.713.787.115.115,0,0,0-.079,0,1.816,1.816,0,0,0-.145-1.671,1.428,1.428,0,0,0,1.4-1.041,2.2,2.2,0,0,0-.605-2.088,1.592,1.592,0,0,0,1.374-.666,1.489,1.489,0,0,1,.962,1.616Zm-2.8-1.356a.139.139,0,0,0-.1,0,1.876,1.876,0,0,0-.605-1.683,10.175,10.175,0,0,1,2.361,1.12,1.277,1.277,0,0,1-1.652.581Zm-.393-.254a1.211,1.211,0,0,1-1.465,1.114.17.17,0,0,0-.109,0,20.15,20.15,0,0,0,.448-2.748,1.816,1.816,0,0,1,1.144,1.652Zm-1.519-8.147a21.127,21.127,0,0,0-.7-2.53.139.139,0,0,0,.133,0,1.3,1.3,0,1,1,.714,2.494.157.157,0,0,0,.042.3,1.5,1.5,0,0,1,.412,2.96.133.133,0,0,0-.115.133h0a22.65,22.65,0,0,0-.478-3.341Zm-1.326-15.338a.254.254,0,0,1,.151-.309c.055-.176.163-.23.315-.176a.908.908,0,0,1,.5.642,4.843,4.843,0,0,0-.981,0,.718.718,0,0,0,.018-.139Zm4.885,2.464a6.555,6.555,0,0,1,1.459,2.421,7.042,7.042,0,0,1,.327,1.368c.048.418,0,.835.048,1.247a12.019,12.019,0,0,0-1.5-.478,11.584,11.584,0,0,0-3.256-.315,2.791,2.791,0,0,0,1.108-.654,2.076,2.076,0,0,0,.424-2.385,1.416,1.416,0,0,0-2.076-.605,3.807,3.807,0,0,0-1.441,1.719,9.368,9.368,0,0,0,.23-2.233q0-.227,0-.454a3.565,3.565,0,0,1,3.686,1.332,6.005,6.005,0,0,1,1.059,1.695,7,7,0,0,1,.3.914,8.023,8.023,0,0,0,.176.938c.042.115.242.145.266,0a4.092,4.092,0,0,0-.472-2.07,6.331,6.331,0,0,0-1.211-1.846c-.95-.993-2.464-1.786-3.813-1.156a13.514,13.514,0,0,0-.218-1.543,7.518,7.518,0,0,1,4.915,2.125Zm-3.7-2.282c.067-.278.327-.533.642-.363a.49.49,0,0,1,.206.539,5.847,5.847,0,0,0-.841-.157Zm1.126.26a.424.424,0,1,1,.781.315,7.265,7.265,0,0,0-.775-.3Zm1.011.43c.26-.206.7-.436.92-.061a.823.823,0,0,1-.042.605,8.163,8.163,0,0,0-.872-.527Zm3.862,4.842a1.805,1.805,0,0,1-.248.055h0c-.042-.212-.091-.424-.145-.605a.357.357,0,0,0,.236-.151.478.478,0,0,1,.254.073.212.212,0,0,1,.151.315c.06.194-.024.309-.242.339Zm.248.708a.351.351,0,0,1-.169.284.568.568,0,0,0-.176,0h0a4.862,4.862,0,0,0-.073-.605v-.121a.393.393,0,0,1,.424.466Zm.182.835a.375.375,0,0,1-.121.339.394.394,0,0,1-.272.085l-.218-.1a2.185,2.185,0,0,0,.073-.605.521.521,0,0,0,.3-.055.5.5,0,0,1,.248.357Zm-.7-2.8a.605.605,0,0,1-.194.46l-.091-.272a6.2,6.2,0,0,0-.248-.605c.176-.054.387-.127.515.115a.714.714,0,0,1,.024.327Zm-.648-.605a8.022,8.022,0,0,0-.406-.7h0a.608.608,0,0,0,.121-.067,1.013,1.013,0,0,1,.176,0c.472.1.339.5.115.763Zm-.508-.9h0a5.507,5.507,0,0,0-.533-.648.49.49,0,0,1,.732.061.406.406,0,0,1-.194.587Zm-.726-.805a6.865,6.865,0,0,0-.605-.551c.182-.157.466-.363.684-.163s.067.49-.073.714Zm-3.953,1.489c.7-.66,1.852-.817,2.215.26a1.816,1.816,0,0,1-.508,2.022,2.663,2.663,0,0,1-1.816.642,4.683,4.683,0,0,0,.551-.345c.569-.4,1.513-1.211,1.138-2.034a.769.769,0,0,0-.866-.4,2.294,2.294,0,0,0-1.126.757,9.8,9.8,0,0,0-.8.866,5.78,5.78,0,0,1,1.217-1.767Zm-.72,1.6a9.807,9.807,0,0,1,.841-.823,1.374,1.374,0,0,1,.72-.381.521.521,0,0,1,.551.642c-.133.7-.987,1.277-1.568,1.6a12.815,12.815,0,0,1-1.9.757A12.551,12.551,0,0,1,414.295,385Zm.436,1.586a2.921,2.921,0,0,0-.551.1c.127-.048.248-.109.375-.163a.1.1,0,0,0,.079.054Zm-.775-8.988a5.648,5.648,0,0,1,1.011.079,7.927,7.927,0,0,1,1.4.369,8.843,8.843,0,0,1,2.687,1.531,10.677,10.677,0,0,1,3.4,5.339,14.718,14.718,0,0,1,.381,1.761c.091.605.055,1.265.176,1.87-.151-.109-.3-.218-.454-.315a11.258,11.258,0,0,0-1.053-.605.715.715,0,0,0,.291-.466.605.605,0,0,0-.339-.605.678.678,0,0,0-.145-.944c.242-.121.436-.315.333-.605a.648.648,0,0,0-.605-.4,1.3,1.3,0,0,0,.055-.605.478.478,0,0,0-.557-.466.684.684,0,0,0,.085-.605.472.472,0,0,0-.23-.266,1.522,1.522,0,0,0-.3-.036.642.642,0,0,0-.787-.92.551.551,0,0,0-.92-.605c.085-.327.127-.666-.206-.872a.8.8,0,0,0-.884.067.584.584,0,0,0-1.126-.254.714.714,0,0,0,0-.339.69.69,0,0,0-.454-.406.635.635,0,0,0-.7.345c-.145-.3-.339-.605-.714-.605s-.484.266-.5.569c-.151-.684-.339-1.362-.539-2.034a2.1,2.1,0,0,0,.7.024Zm-1.707-2.336c.605,2.246,1.519,4.479,1.616,6.828a6.93,6.93,0,0,1-1.816,5.284l-.06.03a.073.073,0,0,0-.042.073h0c-.182-.236-.369-.46-.569-.678h0a9.588,9.588,0,0,0,.944-4.842,15.4,15.4,0,0,0-.109-1.58h0a.981.981,0,0,0,0-.139.473.473,0,0,1,0-.157,19.43,19.43,0,0,0-.835-3.6.163.163,0,0,0-.206-.115,12.673,12.673,0,0,1-3.71.648,7.572,7.572,0,0,0-3.026.7,5.962,5.962,0,0,0-3.208,4.285v.036c-.333-.067-.66-.121-.993-.176h-.218a3.328,3.328,0,0,0,.176-.714,8.352,8.352,0,0,1,1.356-2.536,7.33,7.33,0,0,1,3.026-2.173l.339-.127a.169.169,0,0,0,.073,0c2.3-.811,4.848-.678,7.269-1.041Zm-12.935,2.476a9.685,9.685,0,0,0-1.616-2.034l-.145-.133h.042a4.746,4.746,0,0,1,3.753-1.489,4.413,4.413,0,0,1,3.287,2.016,7.869,7.869,0,0,0-2.875,1.816,2.966,2.966,0,0,0,.539-1.543c0-.745-.272-1.592-1.126-1.628a1.9,1.9,0,0,0-1.816,1.247,2.894,2.894,0,0,0-.036,1.749Zm-2.694-3.868a2.01,2.01,0,0,0-.442.527c-.182-.133-.393-.351-.139-.533a.835.835,0,0,1,.587.006Zm.375-.884a.714.714,0,0,1,.605.151q-.254.163-.49.345l-.3.236h0c-.357-.266-.115-.648.194-.732Zm-.654,1.562c.127-.1.242-.23.363-.339a7.587,7.587,0,0,1,.642-.527,6.909,6.909,0,0,1,1.211-.69,6.18,6.18,0,0,1,3.026-.49,2.878,2.878,0,0,1,.557.085.1.1,0,0,0,.091,0,6.054,6.054,0,0,1,2.094.89,5.972,5.972,0,0,1,1.12.944c.333.357.557.8.884,1.156-.236.042-.46.091-.69.145s-.478.127-.708.206a4.781,4.781,0,0,0-3.553-2.227,4.473,4.473,0,0,0-3.965,1.7v.03a8.163,8.163,0,0,0-1.138-.847.079.079,0,0,0,.073-.036Zm2.33-2.034a.085.085,0,0,0,.073.048l-.242.1a6.661,6.661,0,0,0-.72.357l-.067-.048a.532.532,0,0,1,.962-.454Zm.176-.1a.484.484,0,0,1,.1-.448.43.43,0,0,1,.5-.067.744.744,0,0,1,.339.369,7.2,7.2,0,0,0-.956.266.1.1,0,0,0,.03-.121Zm1.78-.775a.8.8,0,0,1,.5.484h0a6.338,6.338,0,0,0-1.071.073.46.46,0,0,1,.575-.557Zm.66.508a.1.1,0,0,0,.042-.079c.03-.605.811-.424.829.085a.476.476,0,0,1,0,.1c-.157-.03-.321-.054-.484-.073Zm1.156.163h0a.563.563,0,0,1,1.047.357,6.508,6.508,0,0,0-1.041-.357Zm1.3.46a.605.605,0,0,1,.7-.139.442.442,0,0,1,.139.605h0a6.984,6.984,0,0,0-.835-.466Zm1.767,1.023a.49.49,0,0,1,.714.333.533.533,0,0,1-.176.454l-.333-.369a6.866,6.866,0,0,0-.944-.829.435.435,0,0,0,.067-.115.455.455,0,0,1,.157-.115l.284-.036c.278.133.315.291.115.484a.115.115,0,0,0,.121.194Zm1.083,1.671a2.373,2.373,0,0,0-.393-.7.268.268,0,0,0,.067-.054.66.66,0,0,1,.738.278c.139.291-.224.412-.412.551a.169.169,0,0,0,.006-.048Zm-7.088.956a1.7,1.7,0,0,1,1.5-1.41c.926-.079,1.114.938.987,1.652a2.984,2.984,0,0,1-.642,1.344c.048-.121.091-.236.133-.357.139-.418.508-1.979-.321-1.949-.732,0-1.211.926-1.3,1.531a5.962,5.962,0,0,0-.115,1.211,3.94,3.94,0,0,1-.23-2.022Zm1.4,1.9c-.248.563-.521,1.126-.751,1.707a4.113,4.113,0,0,0-.133-.66,13.91,13.91,0,0,1,0-1.507,3.086,3.086,0,0,1,.23-1.071c.115-.26.387-.7.684-.757,1-.206.127,1.943-.024,2.288Zm.333.176-.254.333c.042-.085.079-.176.121-.26a.121.121,0,0,0,.085-.03Zm-1.326-7.99a8.244,8.244,0,0,1,6.131,1.913,8.51,8.51,0,0,1,2.234,2.917h0c-.4.036-.793.079-1.211.133a.484.484,0,0,0,.133-.563.817.817,0,0,0-.823-.412.744.744,0,0,0,0-.605.708.708,0,0,0-.678-.381.448.448,0,0,0-.182-.508.551.551,0,0,0-.654,0,.653.653,0,0,0-.23-.521.775.775,0,0,0-.938,0,.72.72,0,0,0-1.332-.333.762.762,0,0,0-.067-.309.678.678,0,0,0-.381-.381.605.605,0,0,0-.75.321.787.787,0,0,0-.853-.339.605.605,0,0,0-.424.569.775.775,0,0,0-.829-.387.605.605,0,0,0-.454.508.708.708,0,0,0-.775-.061.678.678,0,0,0-.3.781.793.793,0,0,0-.926.067.605.605,0,0,0-.151.69c-.284-.036-.642,0-.769.2s.042.406.218.563a7.766,7.766,0,0,0-.872-.43c-.284-.121-.605-.224-.89-.333a8.928,8.928,0,0,1,5.774-3.1Zm-8.183,1.816a3.983,3.983,0,0,0,2.282,1.543,9.606,9.606,0,0,1,3.069,1.652,8.65,8.65,0,0,1,2.04,2.5,4.648,4.648,0,0,1,.605,3.722.191.191,0,0,0,0,.048c-.49-.067-.987-.115-1.477-.151a.169.169,0,0,0,.03-.067,5.006,5.006,0,0,0-1.313-4.624,6.173,6.173,0,0,0-2.348-1.374,5.339,5.339,0,0,1-2.706-1.677c-.073-.1-.272-.115-.3.036-.284,1.749-1.888,2.815-2.79,4.237a4.019,4.019,0,0,0,.248,4.764c-.472.188-.932.387-1.386.605a.211.211,0,0,0,0-.079c-.067-.121-.133-.236-.206-.345a7.081,7.081,0,0,1,.605-6.089c1-1.707,2.542-3.033,3.65-4.7Zm-7.13,6.591a.714.714,0,0,1,1.138-.375,2.04,2.04,0,0,1,.642,1.211c.212.847.291,1.725.5,2.572a.1.1,0,0,0,.085.079.631.631,0,0,0,.061.2h0a4.921,4.921,0,0,0-1.077-.853,5.588,5.588,0,0,1-.478-.448C384.914,380.686,384.3,379.73,384.594,378.913Zm.169,1.913c-.95-.708-1.531-2.058-.605-3.026a1.211,1.211,0,0,1,1.858.042,2.5,2.5,0,0,1,.569,1.58,3.27,3.27,0,0,0-.151-.406c-.339-.738-1.211-1.344-1.895-.605S384.321,380.16,384.763,380.825Zm2.094-1.5a2.585,2.585,0,0,0-.811-1.816,1.453,1.453,0,0,0-1.985.036,1.961,1.961,0,0,0-.533,2.04,2.948,2.948,0,0,0,1.489,1.574l.127.157a7.5,7.5,0,0,0-2.131-.514,13.471,13.471,0,0,0-3.026.121,4.842,4.842,0,0,1,.847-3.147,7.342,7.342,0,0,1,2.076-2.112,6.979,6.979,0,0,1,2.966-1.1,7.427,7.427,0,0,1,1.556-.03,16.921,16.921,0,0,1,1.731.363.163.163,0,0,0,.188-.121h0a16.846,16.846,0,0,0-1.265,1.6h0a5.054,5.054,0,0,0-4.358.7,4.4,4.4,0,0,0-2.1,3.5.121.121,0,0,0,.236,0,4.431,4.431,0,0,1,2.125-3.287,5.047,5.047,0,0,1,1.816-.708,6.052,6.052,0,0,1,2.143.079c-.133.2-.254.412-.369.605A7.129,7.129,0,0,0,386.857,379.324Zm-7.088,1.489c-.291.042-.726.054-.666-.375.036-.26.375-.351.605-.418A2.313,2.313,0,0,0,379.769,380.813Zm-.061-.987c-.357-.2-.763-.605-.254-.932a1.609,1.609,0,0,1,.563-.2,4.135,4.135,0,0,0-.309,1.132Zm.92-2.488a.466.466,0,0,1,0-.751.757.757,0,0,1,.751,0,7.266,7.266,0,0,0-.866,1.156,6.655,6.655,0,0,0-.375.684.412.412,0,0,1-.327-.684.678.678,0,0,1,.714-.206C380.617,377.527,380.714,377.412,380.629,377.339Zm1.059-1.846a.872.872,0,0,1,.714.169,7.214,7.214,0,0,0-.884.781h0C381.367,376.1,381.21,375.632,381.688,375.493Zm1.047-.648a.605.605,0,0,1,.605.218,7.416,7.416,0,0,0-.66.406l-.091.067h0a.381.381,0,0,1,.145-.708Zm1.126-.769c.387-.157.648.109.86.387h.03a7.539,7.539,0,0,0-1.132.436c-.061-.291-.073-.708.242-.841Zm1.059.272a.43.43,0,0,1,.091-.43.418.418,0,0,1,.514-.03.775.775,0,0,1,.309.375h-.061a8.068,8.068,0,0,0-.847.169.163.163,0,0,0-.006-.1Zm1.126-.151a.514.514,0,0,1,.563-.521.7.7,0,0,1,.551.527,8.37,8.37,0,0,0-1.1.036.085.085,0,0,0-.012-.061Zm1.356,0a.4.4,0,1,1,.8,0,.217.217,0,0,0,0,.067h0l-.605-.073Zm1.029-.091a.69.69,0,0,1,.744-.278.5.5,0,0,1,.363.369.605.605,0,0,1-.163.478h0a.163.163,0,0,0-.067-.061,3.251,3.251,0,0,0-.878-.291.733.733,0,0,0,0-.212Zm-8.286.974a9.11,9.11,0,0,1,8.371-2.494,13.478,13.478,0,0,1,2.106.714h.036c-.278.339-.569.678-.866,1.017a.823.823,0,0,0-.43-.678.835.835,0,0,0-.987.26.605.605,0,0,0-1.108-.042.8.8,0,0,0-.859-.412.684.684,0,0,0-.472.472.781.781,0,0,0-.805-.363.605.605,0,0,0-.454.484.72.72,0,0,0-.878-.212.811.811,0,0,0-.363.993.751.751,0,0,0-.962-.133.605.605,0,0,0-.26.605.8.8,0,0,0-.841.115.605.605,0,0,0-.042.9.811.811,0,0,0-.981.248.654.654,0,0,0,0,.714.757.757,0,0,0-.805.605.521.521,0,0,0,.4.605,1.132,1.132,0,0,0-.9.605c-.121.357.151.605.43.805-.3.121-.605.327-.539.7s.551.448.9.357h0l-.448.061-1.525.236a8.8,8.8,0,0,1,2.282-6.156Zm-4.564,6.464a6.1,6.1,0,0,0,2.839-.1,23.077,23.077,0,0,1,3.813-.387,5.816,5.816,0,0,1,5.175,2.554.164.164,0,0,0,.042.048c-.254.121-.5.254-.745.393a.048.048,0,0,0,0-.03,3.6,3.6,0,0,0-1.7-1.525,5.387,5.387,0,0,0-2.318-.527,8.149,8.149,0,0,0-2.766.515c-.89.321-1.943,1-2.905.605a.151.151,0,0,0-.218.169,10.606,10.606,0,0,1-.514,3.147,7.112,7.112,0,0,0,.054,2.724,4.77,4.77,0,0,0,2.845,3.517h0v.048a.9.9,0,0,0-.206.5.47.47,0,0,0,0,.091c-.079.23-.157.466-.23.7-.248-.176-.49-.351-.72-.527a.109.109,0,0,0,0-.061,5.006,5.006,0,0,0-1.174-1.047,5.619,5.619,0,0,1-.363-.466,7,7,0,0,1-1.211-2.948C374.867,386.454,375.847,384.015,375.581,381.546Zm-3.486,5.823c-.115-.291-.206-.708.2-.829a.534.534,0,0,1,.605.3,6.959,6.959,0,0,0-.847.605.079.079,0,0,0,.042-.079Zm-.067.127a7.321,7.321,0,0,0-.9.89.92.92,0,0,1,0-.757.539.539,0,0,1,.817-.145.085.085,0,0,0,.055.012Zm-.981.993a7.449,7.449,0,0,0-.49.66c-.054.085-.1.169-.151.254a.127.127,0,0,0-.048-.109.521.521,0,0,1-.042-.829.666.666,0,0,1,.672,0,.072.072,0,0,0,.048,0Zm-.738,1a.1.1,0,0,0,.054,0,7.154,7.154,0,0,0-.521,1.114.545.545,0,0,1-.3-.72.744.744,0,0,1,.769-.393Zm-.539,1.32a7,7,0,0,0-.248.993c-.242-.085-.454-.224-.448-.515C369.074,390.891,369.443,390.831,369.77,390.806Zm-.357,2.536a7.694,7.694,0,0,0,.1.981c-.345,0-1.011-.163-.605-.678A1.343,1.343,0,0,1,369.413,393.343Zm-.079-.169a.569.569,0,0,1-.43-.769.684.684,0,0,1,.605-.375,6.808,6.808,0,0,0-.073,1.108Zm.218,1.374a.939.939,0,0,0,.048.218,6.9,6.9,0,0,0,.2.714h-.042c-.339.1-.751-.109-.648-.508a.666.666,0,0,1,.472-.424Zm.3,1.083a6.052,6.052,0,0,0,.4.908h-.067c-.23.042-.781.139-.841-.242S369.583,395.764,369.855,395.63Zm.448,1.065h0a5.64,5.64,0,0,0,.575.847c-.194.1-.472.254-.672.163l-.266-.363.079-.278a1.815,1.815,0,0,1,.284-.387Zm-.188-6.01a7.215,7.215,0,0,1,4.842-4.4c-.048.466-.091.932-.1,1.4a.151.151,0,0,0-.1,0,6.053,6.053,0,0,0-3.5,3.5,5.708,5.708,0,0,0,.533,5.115c-.248.363-.478.738-.7,1.12a7.475,7.475,0,0,1-.974-6.737Zm3.129-4.092a.436.436,0,0,1,.127-.7.49.49,0,0,1,.605.236.231.231,0,0,0,.048.1v.03a7.683,7.683,0,0,0-.811.387A.049.049,0,0,0,373.245,386.594Zm.987-.466v-.048a.387.387,0,0,1,.291-.545c.291-.036.442.176.5.43a5.752,5.752,0,0,0-.757.236A.1.1,0,0,0,374.231,386.128Zm-2.669,5.193a5.714,5.714,0,0,1,3.3-3.323h0a7.323,7.323,0,0,0,.163,1.416,7.134,7.134,0,0,0,.7,1.895,3.632,3.632,0,0,0-2.064-1.168,1.9,1.9,0,0,0-2.07,1.211,1.816,1.816,0,0,0,.847,2.2,3.027,3.027,0,0,0,1.519.272q.745,0,1.489-.054a5.188,5.188,0,0,0-2.209.987A6.779,6.779,0,0,0,372,396.072,6,6,0,0,1,371.562,391.321Zm3.026,2.155.436.079a9.08,9.08,0,0,1-1.949-.085,1.6,1.6,0,0,1-1.271-1.919,1.658,1.658,0,0,1,2.088-1.126,3.686,3.686,0,0,1,1.725,1.211c-.23-.121-.466-.242-.7-.345-.769-.339-2.167-.666-2.5.442-.363,1.217,1.362,1.574,2.185,1.743Zm.284-.218a8.426,8.426,0,0,1-1.386-.339c-.533-.206-1.162-.847-.642-1.41.708-.763,2.016,0,2.724.387a9.95,9.95,0,0,1,1.017.648,6.961,6.961,0,0,0,1.247,1.174,5.524,5.524,0,0,0-.72-.085l-.769-.115c-.484-.073-.974-.163-1.459-.26Zm-6.61,3.026a11.222,11.222,0,0,1-.521-4.031,8.2,8.2,0,0,1,3.571-6.537,16.067,16.067,0,0,1,3.952-1.683c-.061.514-.133,1.029-.206,1.543a.642.642,0,0,0-.72-.248.775.775,0,0,1-1.126.454.563.563,0,0,0,0,.9h0l-.1.054a.757.757,0,0,0-.926-.387.605.605,0,0,0-.375.835.714.714,0,0,0-.757.188.8.8,0,0,0-.121.853.738.738,0,0,0-.89.218.714.714,0,0,0,.03.853.835.835,0,0,0-.757.636.69.69,0,0,0,.26.69c-.363.042-.732.224-.769.605a.69.69,0,0,0,.418.654.757.757,0,0,0-.563.642.672.672,0,0,0,.5.714c-.309.151-.648.345-.605.732s.357.466.666.514a.642.642,0,0,0-.339.763.605.605,0,0,0,.508.4.66.66,0,0,0-.23.738c.127.345.478.393.8.363-.212.291-.381.678-.073.968s.744.1,1.041-.115h0c-.242.418-.478.835-.732,1.241-.061.1-.127.2-.194.3a7.378,7.378,0,0,1-1.737-2.881Zm.284,5.006c1.628-1.211,2.367-3.16,3.486-4.788a.127.127,0,0,0,.061-.085,5.563,5.563,0,0,1,2.633-2.155,6.743,6.743,0,0,1,3.856-.036h.079c-.145.484-.266.974-.375,1.465h-.121a.169.169,0,0,0,0-.321,4.527,4.527,0,0,0-4.182,1.15,24.534,24.534,0,0,0-1.773,2.106l-1.937,2.288a.163.163,0,0,0,.036.254c1.5,1.071,2.155,2.9,3.492,4.134a4.667,4.667,0,0,0,4.7,1.047c.157.563.333,1.114.533,1.652-2.046,1.241-4.576-.121-6.053-1.64-1.58-1.592-2.675-3.632-4.419-5.09Zm4.431,10.084c.605.962,2.131.121,2.8-.291.2-.121.4-.254.605-.393-1.114,1.174-3.026,2.5-3.922.829a1.755,1.755,0,0,1,.726-2.421,3.771,3.771,0,0,1,2.276-.321,8.21,8.21,0,0,0-1.114.46c-.7.351-1.949,1.162-1.356,2.118Zm3.075-.8a7.547,7.547,0,0,1-1.15.678c-.442.206-1.344.52-1.689,0-.605-.914,1.1-1.695,1.707-1.949a6.532,6.532,0,0,1,1.338-.4c.266-.055.539-.073.811-.1a4.79,4.79,0,0,0,.932-.06,9.08,9.08,0,0,1-1.937,1.816Zm-4.758.763a5.072,5.072,0,0,0,4.382,2.96c-.048.4-.085.8-.1,1.211a.121.121,0,0,0-.061-.048c-.551-.157-1.126-.169-1.677-.369a6.261,6.261,0,0,1-1.5-.775,6.053,6.053,0,0,1-2.149-2.639,6.416,6.416,0,0,1,1.241-6.6c.254.321.514.642.781.95h0a4.189,4.189,0,0,0-1.247,2.536,4.981,4.981,0,0,0,.339,2.754Zm4.237,4.437c-.133.1-.091.351-.278.46a.4.4,0,0,1-.508-.127.92.92,0,0,1-.133-.454,2.573,2.573,0,0,0,.853.055c.018.024.073.079.109.048ZM374.4,415.6h0c-.085.291-.254.763-.678.533-.315-.163-.272-.527-.188-.829.127.055.26.1.393.139s.351.1.5.139Zm-1.071-.363a1.076,1.076,0,0,0-.048.188c-.218.278-.575.605-.8.079a.739.739,0,0,1,.127-.666,5.385,5.385,0,0,0,.763.381Zm-3.729-7.79c-.272-.182-.684-.515-.339-.859.236-.23.551-.157.847-.151a6.452,6.452,0,0,0-.69,2.506h-.055c-.557-.327-.569-1.211.182-1.283a.125.125,0,1,0,.1-.23Zm1.628-2.609.036.048h0a5.546,5.546,0,0,0-1.041,1.356.054.054,0,0,0-.067-.048c-.163.042-.212-.521-.212-.605a.859.859,0,0,1,.236-.605.756.756,0,0,1,.508-.2,1.814,1.814,0,0,1,.442.121.1.1,0,0,0,.139-.085Zm-1.816,4.291a6.659,6.659,0,0,0,.048,1.1.1.1,0,0,1,0,.042c-.182-.127-.406-.212-.5-.418-.145-.418.163-.648.49-.745Zm.1,1.392a5.779,5.779,0,0,0,.309,1.108.605.605,0,0,1-.272-1.126Zm.412,1.356a6.241,6.241,0,0,0,.49.908.539.539,0,0,1-.738-.188.563.563,0,0,1,.284-.738Zm.648,1.138a6.589,6.589,0,0,0,.829.914l-.036.036c-.333.085-.763.176-.908-.236a.932.932,0,0,1,.151-.708Zm.974,1.083a6.938,6.938,0,0,0,.86.648c-.248.333-.738.738-1.065.248a.761.761,0,0,1,.242-.914Zm4.158,3.765a6.055,6.055,0,0,1-1.87-.145,7.387,7.387,0,0,1-1.719-.72,7.669,7.669,0,0,1-2.784-2.282,6.432,6.432,0,0,1-.732-1.671,14.661,14.661,0,0,1-.484-1.907,9.618,9.618,0,0,1,.236-4.025,7.157,7.157,0,0,1,1.816-3.68c.333.418.654.841.981,1.265-.363-.321-1.071,0-1.277.381a1.138,1.138,0,0,0-.067.878.835.835,0,0,0,.115.248.859.859,0,0,0-.95.442c-.139.351.1.636.357.853a.811.811,0,0,0-.133,1.471.708.708,0,0,0-.466.539c-.1.5.26.654.575.89a.829.829,0,0,0-.321.938.72.72,0,0,0,.714.454.775.775,0,0,0-.206.872.738.738,0,0,0,.847.387.932.932,0,0,0,.03.962.7.7,0,0,0,.829.176.841.841,0,0,0,.085,1.047.7.7,0,0,0,.993,0,.678.678,0,0,0,.236.66.528.528,0,0,0,.775-.194.72.72,0,0,0,.454.708c.369.145.605-.091.763-.381.121.357.375.69.787.466a.992.992,0,0,0,.284-.315,5.548,5.548,0,0,0,.03.708,6.369,6.369,0,0,0,.133,1Zm0-3.88a4.842,4.842,0,0,1-4.134-2.76,4.739,4.739,0,0,1-.321-2.681,6.289,6.289,0,0,1,1.065-2.385c.3.327.605.642.926.938a6.919,6.919,0,0,0,2.421,1.447,4.031,4.031,0,0,0-2.923.539,1.979,1.979,0,0,0-.605,2.512,1.719,1.719,0,0,0,1.041.92,2.373,2.373,0,0,0,1.519-.248,4.806,4.806,0,0,0,2.016-1.689,11.773,11.773,0,0,0-.926,2.736,2.018,2.018,0,0,1-.042.654Zm1.864,6.658a4.134,4.134,0,0,0-1.483-.169,7.834,7.834,0,0,0-.169-3.063,12.263,12.263,0,0,1,.1-3.553c.357-2.022,1.211-4.443,3.1-5.5.2.5.418,1,.66,1.483a4.838,4.838,0,0,0-2.482,3.39,24.707,24.707,0,0,0-.254,5.944.163.163,0,0,0,.2.151,6.913,6.913,0,0,1,2.288,0,.91.91,0,0,0,.285.048h0c.224.036.448.085.666.133a15.219,15.219,0,0,0,2.881.605c1.816.067,2.911-1.211,3.862-2.578h0a11.206,11.206,0,0,0,1.386.448.157.157,0,0,0-.067.061,10.289,10.289,0,0,1-2.149,2.56A5.5,5.5,0,0,1,383,421.73a12.962,12.962,0,0,1-3.692-.605Zm13.062,5.484a6.137,6.137,0,0,1-2.887,1.422,5.672,5.672,0,0,1-2.681-.182h0a5.576,5.576,0,0,1-.605-.248,5.647,5.647,0,0,1-2.421-2.246,5.8,5.8,0,0,1-.605-1.489,16.132,16.132,0,0,1-.272-1.6h.03a10.781,10.781,0,0,0,1.247.151,1.7,1.7,0,0,0,0,.95,3.783,3.783,0,0,0,.4,1.211,4.425,4.425,0,0,0,1.816,1.816,5.448,5.448,0,0,0,5.448-.5c.194.224.393.436.605.642Zm.212.212v-.03a.962.962,0,0,1,.079.079.478.478,0,0,1-.127.72.557.557,0,0,1-.533,0,.605.605,0,0,1-.182-.157,4.144,4.144,0,0,0,.8-.611Zm-1.12,1.489c-.284.194-.569-.036-.738-.284a5.562,5.562,0,0,0,.9-.436h0c.061.254.067.569-.121.7Zm-1.035-.176c0,.309-.085.666-.418.751s-.466-.23-.551-.508a1.7,1.7,0,0,0,.424-.085c.139-.036.4-.115.581-.175Zm-1.162.381a.733.733,0,0,1-.545.412c-.182.048-.145.042-.357-.1s-.224-.169-.224-.375a6.053,6.053,0,0,0,1.1-.042.1.1,0,0,1,.061.085Zm-1.428-.085a1.816,1.816,0,0,1-.533.49c-.345.157-.545-.127-.569-.418a1.208,1.208,0,0,1,0-.291,6.412,6.412,0,0,0,1.138.2Zm-1.277-.278v.079a.72.72,0,0,1-.775.182.5.5,0,0,1-.224-.726,5.917,5.917,0,0,0,1.035.448Zm-3.868-4.691a.1.1,0,0,0-.109-.036.5.5,0,0,1-.605-.575.569.569,0,0,1,.69-.357h0a3.413,3.413,0,0,0,.061.95Zm0,.151v-.03a5.4,5.4,0,0,0,.291,1.041h-.079c-.272,0-.605,0-.605-.393a.914.914,0,0,1,.43-.636Zm.363,1.156.036.091a6.661,6.661,0,0,0,.514.962h0c-.188-.1-.309,0-.514,0a.387.387,0,0,1-.4-.527,1.4,1.4,0,0,1,.4-.545Zm.605,1.211a.085.085,0,0,0,0-.067,5.6,5.6,0,0,0,.678.835,1,1,0,0,1-.672.067c-.333-.194-.182-.6.012-.866Zm.9.974.176.157a4.842,4.842,0,0,0,.605.454c-.3.188-.974.575-1,0a.968.968,0,0,1,.242-.642Zm1.973-.738a4.236,4.236,0,0,1-1.713-1.658,4.032,4.032,0,0,1-.424-1.108,3.867,3.867,0,0,1-.079-.605,1.457,1.457,0,0,0,0-.369,8.749,8.749,0,0,0,1.126,0,5.611,5.611,0,0,0,2.96-1.211h0l-.048.067a5.078,5.078,0,0,0-2.118,2.27,1.816,1.816,0,0,0,.987,2.421,1.961,1.961,0,0,0,2.355-.823,3.438,3.438,0,0,0,.412-1.525c.042-.5.079-.987.109-1.483a7.952,7.952,0,0,0,.605,2.094,6.656,6.656,0,0,0,.908,1.459,5.157,5.157,0,0,1-5.06.472Zm1.211-.878c1.035.1,1.586-1.368,1.864-2.137a5.605,5.605,0,0,0,.206-.666c0,.194-.03.381-.048.575a6.69,6.69,0,0,1-.182,1.392,1.743,1.743,0,0,1-2.246,1.259,1.656,1.656,0,0,1-.684-2.457,5.853,5.853,0,0,1,1.416-1.525,12.3,12.3,0,0,0-.678,1.271c-.284.605-.775,2.149.357,2.258Zm1.816-2.887a7.136,7.136,0,0,1-.551,1.465c-.212.412-.49.987-.968,1.126a.527.527,0,0,1-.708-.357,1.876,1.876,0,0,1,.054-.8,5.207,5.207,0,0,1,.605-1.4c.46-.8,1-1.537,1.5-2.306.163-.2.327-.412.478-.605a13.729,13.729,0,0,1-.412,2.845Zm.605-3.026a.109.109,0,0,0-.079-.048l.133-.194a1.735,1.735,0,0,0-.036.206Zm.551,10.393a9.91,9.91,0,0,1-3.959,0,7.82,7.82,0,0,1-5.5-4.1,7.027,7.027,0,0,1-.605-3.959c.4.109.8.218,1.211.315.266.067.533.121.8.176a.763.763,0,0,0-.866.66.708.708,0,0,0,.605.726.817.817,0,0,0-.242.829.605.605,0,0,0,.648.321.793.793,0,0,0-.248.884.605.605,0,0,0,.3.327c.182.073.387-.042.569-.03-.194.291-.315.654,0,.914a.878.878,0,0,0,.9,0,.987.987,0,0,0-.1.969c.23.424.7.206,1.059,0a.714.714,0,0,0,.333.7.805.805,0,0,0,.932-.115.7.7,0,0,0,.4.726c.393.163.738-.188,1-.484a.605.605,0,0,0,.817.484,1.156,1.156,0,0,0,.636-.393.605.605,0,0,0,.605.339c.448-.042.605-.436.678-.829a.726.726,0,0,0,.823.266c.351-.139.375-.466.345-.787a.86.86,0,0,0,.962-.067.7.7,0,0,0,.218-.539c.375.381.738.763,1.083,1.168a6.542,6.542,0,0,1-3.39,1.459Zm4.425-.527a14.672,14.672,0,0,0-2.028-2.385,9.345,9.345,0,0,1-2.034-2.464,8.474,8.474,0,0,1-.551-5.738l.036-.055a.133.133,0,0,0,0-.157h.042c.436.121.872.23,1.307.333h0a5.664,5.664,0,0,0,.418,4.546,40.16,40.16,0,0,0,2.887,4.352.163.163,0,0,0,.248.03,11.423,11.423,0,0,1,2.742-1.955,7.414,7.414,0,0,0,2.421-1.677,5.447,5.447,0,0,0,1.15-4.806.14.14,0,0,0-.036-.073c.393-.048.793-.109,1.18-.176a.133.133,0,0,0,.03.085,2.01,2.01,0,0,1,.139,1.422.109.109,0,0,0,0,.127.474.474,0,0,1-.03.206A9.066,9.066,0,0,1,396.633,427a30.534,30.534,0,0,0-3.214,1.755Zm17.105-3.632a8.407,8.407,0,0,1-4.534,4.842,10.53,10.53,0,0,1-7.318.1A8.026,8.026,0,0,1,395.222,428c.527-.272,1.053-.527,1.568-.811a.654.654,0,0,0,0,.527c.194.291.472.236.714.079a.557.557,0,0,0,.321.745.738.738,0,0,0,.757-.194.563.563,0,0,0,.23.539.514.514,0,0,0,.714-.145.684.684,0,0,0,.539.575.666.666,0,0,0,.605-.23.7.7,0,0,0,1.259.048.684.684,0,0,0,.739.442.557.557,0,0,0,.478-.605.605.605,0,0,0,.605.424c.418,0,.539-.49.605-.9a.708.708,0,0,0,.793.406.7.7,0,0,0,.406-.781.5.5,0,0,0,.8.03,1.21,1.21,0,0,0,.291-.69.672.672,0,0,0,.9-.048.739.739,0,0,0,.212-.605,1.02,1.02,0,0,0-.048-.218.592.592,0,0,0,.587-.962c.315.061.642.145.763-.254a.605.605,0,0,0-.194-.642c.563.115,1.12.23,1.689.333a.146.146,0,0,0-.03.1Zm2.221,0c-1.3-.224-2.585-.466-3.874-.738a21.417,21.417,0,0,1-3.741-.938,5.7,5.7,0,0,1-2.5-2,6.393,6.393,0,0,1-.981-2.355,2.261,2.261,0,0,0-.054-.278.9.9,0,0,0-.055-.291.073.073,0,0,0-.048-.055c.188-.03.375-.067.557-.109a.145.145,0,0,0,.091,0l.266-.085a.079.079,0,0,0,0,.036,7.663,7.663,0,0,0,3.632,4.122,7.912,7.912,0,0,0,2.657.884,19.361,19.361,0,0,1,3.5.321.157.157,0,0,0,.194-.145c.091-2.046,1.283-3.94.987-6.016a10.166,10.166,0,0,0-.908-2.736,5,5,0,0,0-1.58-2.058h0q.327-.369.635-.763a.139.139,0,0,0,.067.139,6.472,6.472,0,0,1,2.681,5.448c.054,2.585-.835,5.145-1.513,7.608Zm-.278-12.79.115.061h0Zm.321.321h.1l.157.242c-.061-.054-.145-.157-.236-.248Zm6.9-.224c.381-.145.763-.3,1.144-.46a8.262,8.262,0,0,1-1.441,6,6.585,6.585,0,0,1-5.133,2.591c.079-.406.151-.811.2-1.211a2.373,2.373,0,0,0,1-.182,6.428,6.428,0,0,0,3.075-2.094,5.7,5.7,0,0,0,1.168-4.655Zm1.519,1.083c.206.048.557.127.605.333a.533.533,0,0,1-.2.575,1.307,1.307,0,0,1-.472.176.072.072,0,0,0-.048,0,10.277,10.277,0,0,0,.133-1.089Zm-.073-1.507a.726.726,0,0,1,.793.5.66.66,0,0,1-.714.775,9.925,9.925,0,0,0-.061-1.283Zm.448,3.589a.563.563,0,0,1-.708.236h-.042a7.416,7.416,0,0,0,.23-.962.539.539,0,0,1,.539.72Zm-2.034,2.923a.43.43,0,0,1-.085.781.859.859,0,0,1-.781-.109,6.7,6.7,0,0,0,.9-.95,6.588,6.588,0,0,0,.605-.884.654.654,0,0,1,.2.515.551.551,0,0,1-.732.43.121.121,0,0,0-.091.212Zm.745-1.38a7.5,7.5,0,0,0,.472-1.114h0c.242.163.726.527.551.89a.605.605,0,0,1-.714.291q-.147-.03-.291-.073Zm-1.767,2.875a.49.49,0,0,1-.817-.03.1.1,0,0,0-.06-.042,7.2,7.2,0,0,0,.8-.551.5.5,0,0,1,.1.617Zm-1,.079a.46.46,0,0,1-.321.66.605.605,0,0,1-.648-.3,6.454,6.454,0,0,0,.956-.436.1.1,0,0,0,.03.073Zm-1.477,1.1a.557.557,0,0,1-.605-.466,5.351,5.351,0,0,0,.872-.2.418.418,0,0,1-.248.66Zm-.811-.436a.684.684,0,0,1-.363.666c-.448.163-.714-.254-.642-.648a5.567,5.567,0,0,0,1.023-.024Zm2.954-3.777a6.253,6.253,0,0,1-1.719,1.416,8.308,8.308,0,0,1-1.083.5,6.091,6.091,0,0,0-.908.291,12.192,12.192,0,0,0,.073-2.1,7.868,7.868,0,0,0-.66-2.742c.26.363.533.714.817,1.059a8.666,8.666,0,0,0,1.211,1.313,1.671,1.671,0,0,0,2.288-.079,1.816,1.816,0,0,0,.085-2.385,2.421,2.421,0,0,0-1.126-.757c-.278-.1-.605-.206-.884-.3a8.064,8.064,0,0,0,2.028-.3c.357-.1.714-.218,1.059-.345a5.52,5.52,0,0,1-1.162,4.431Zm-.242-2.724a1.55,1.55,0,0,1-.06,2.312c-.829.642-1.665.139-2.282-.515s-1.3-1.453-1.9-2.221a.054.054,0,0,0-.073,0c-.055-.1-.1-.188-.163-.278a10.11,10.11,0,0,0,1.677,1.658c.521.4,1.816,1.447,2.342.472.442-.841-.66-1.713-1.271-2.07l-.472-.254a4.617,4.617,0,0,1,2.221.89Zm-1.319-.036c.333.278.775.738.666,1.211-.248,1.114-2.155-.539-2.5-.841a13.281,13.281,0,0,1-1.731-1.864,15.346,15.346,0,0,1,2.421.823,5.076,5.076,0,0,1,1.162.666Zm5.314,3.6a9.079,9.079,0,0,1-8.226,4.951c.139-.508.272-1.017.387-1.525a.654.654,0,0,0,.527.412.714.714,0,0,0,.763-.563.7.7,0,0,0,.878.278.605.605,0,0,0,.363-.605.7.7,0,0,0,.769.151.605.605,0,0,0,.375-.557.7.7,0,0,0,.878-.109.744.744,0,0,0,.079-.829.89.89,0,0,0,1.108-.115.605.605,0,0,0,.073-.726.763.763,0,0,0,.605-.448.8.8,0,0,0-.109-.793c.387.133.866.188,1.065-.254a.829.829,0,0,0-.291-.962.72.72,0,0,0,.121-1.41c.345-.061.714-.236.763-.605a.66.66,0,0,0-.454-.666.872.872,0,0,0,.521-.9.938.938,0,0,0-.859-.763c.605-.254,1.211-.5,1.816-.708v.03a11.2,11.2,0,0,1-1.132,6.713Zm2.754-7.481c-2.106.357-3.983,1.465-6,2.118a7.681,7.681,0,0,1-3.347.4,12.1,12.1,0,0,1-1.858-.412,5.077,5.077,0,0,1-1.737-.811c.218-.284.43-.605.605-.878h0l.067.079a.1.1,0,0,0,.036.036c1.12,1.168,2.99,1.211,4.467.847,1.949-.484,3.674-1.61,5.641-2.034a.17.17,0,0,0,.1-.242,15.615,15.615,0,0,1-1.12-2.99,6.5,6.5,0,0,0-1.1-2.5,9.026,9.026,0,0,0-4.764-2.76h0c0-.266.03-.539.042-.811a.121.121,0,0,0,.115.061c1.32-.163,2.542.714,3.674,1.271a5.75,5.75,0,0,1,2.488,2.349c1.168,1.979,1.465,4.352,2.712,6.271Zm1.519-5.49a6.791,6.791,0,0,1-2.621,2.276l-.254-.732a.557.557,0,0,0,.557,0,.509.509,0,0,0,.212-.478.521.521,0,0,0,.315-.042.545.545,0,0,0,.279-.678.539.539,0,0,0,.466-.188.557.557,0,0,1,.751-.726.605.605,0,0,0,.073-.672.557.557,0,0,0,.151-.115.666.666,0,0,0,.109-.75.551.551,0,0,0,.454-.218.605.605,0,0,0-.133-.823.539.539,0,0,0,.309-.363.642.642,0,0,0-.278-.714c.26-.061.5-.194.484-.5a.823.823,0,0,0-.478-.605.6.6,0,0,0-.157-1.156.811.811,0,0,0-.605-1.162.605.605,0,0,0,.079-.7.527.527,0,0,0-.508-.224.763.763,0,0,0-.127-.714.726.726,0,0,0-.751-.224.484.484,0,0,0-.169-.605.666.666,0,0,0-.672,0c.1-.169.194-.339.284-.508l.514-.944a.073.073,0,0,0,.036.079h0a8.256,8.256,0,0,1,3.166,5.151,8.9,8.9,0,0,1-1.465,6.337Z" transform="translate(-359.626 -364.919)"/><path class="b" d="M422.737,404.945c-.442-.466-.369.369-.369.369a2.59,2.59,0,0,0-.605-.351c-.194-.048-.272.381-.169.605a.321.321,0,0,0-.248.115c-.139.163.139.648.139.648l-.442.067a4.08,4.08,0,0,0-1.18.515c-.442.321-1.108,1.816-1.41,1.755a13.247,13.247,0,0,1-3.565-.829c-1.065-.575-3.026-1.368-3.026-1.368s-.182-.738-.484-1.919-.95-3.565-.95-3.565.048-.95,0-2.591-.23-3.45-1.156-4.63-3.819-1.271-4.655-1.664a4.052,4.052,0,0,1-1.737-1.253,24.645,24.645,0,0,1-.115-2.984,2.257,2.257,0,0,1,.212-.278,5.046,5.046,0,0,0,.393-.811,2.306,2.306,0,0,0,.533-.23,1.816,1.816,0,0,0,.738-1.319c.188-.9-.163-.926-.163-.926s.163-2.778-1.065-4.3a4.031,4.031,0,0,0-6.138,0c-1.211,1.525-1.065,4.3-1.065,4.3s-.351,0-.163.926a1.816,1.816,0,0,0,.738,1.32,2.307,2.307,0,0,0,.533.23,5.977,5.977,0,0,0,.393.811c.121.169.212.278.212.278a24.639,24.639,0,0,1-.115,2.984,4.093,4.093,0,0,1-1.737,1.253c-.829.393-3.729.484-4.655,1.664a7.861,7.861,0,0,0-1.156,4.63c-.024,1.646,0,2.591,0,2.591s-.648,2.385-.95,3.565-.484,1.919-.484,1.919-1.967.787-3.026,1.368a12.321,12.321,0,0,1-3.565.829c-.3.042-.968-1.435-1.41-1.755a4.08,4.08,0,0,0-1.18-.515l-.442-.067s.278-.484.139-.648a.321.321,0,0,0-.248-.115c.1-.224,0-.654-.169-.605a2.592,2.592,0,0,0-.605.351s.073-.835-.369-.369-1.3,1.435-1.156,2.106a10.75,10.75,0,0,0,1.132,2.288c.254.442,3.68,1.132,3.68,1.132a4.806,4.806,0,0,0-.3,3.777c.7,2.173,4.237,4.207,5.49,4.739a19.978,19.978,0,0,0,3.771.884.714.714,0,0,0-.254.926.805.805,0,0,0,.648.46s-.442.212-.254.508a.46.46,0,0,0,.484.23.477.477,0,0,0,.345.466,1.029,1.029,0,0,0,.605-.048s.091.327.787.236,4.352-.3,5.762-.514a7.526,7.526,0,0,0,1.683-.375,7.522,7.522,0,0,0,1.683.375c1.41.212,5.066.418,5.762.515s.787-.236.787-.236a1.029,1.029,0,0,0,.605.048c.321-.073.345-.466.345-.466a.46.46,0,0,0,.484-.23c.188-.3-.254-.508-.254-.508a.805.805,0,0,0,.648-.46.714.714,0,0,0-.254-.926,19.973,19.973,0,0,0,3.771-.884c1.253-.533,4.794-2.566,5.49-4.739a4.806,4.806,0,0,0-.3-3.777s3.426-.69,3.68-1.132a10.75,10.75,0,0,0,1.132-2.288C424.032,406.38,423.179,405.405,422.737,404.945Zm-28.448,6.107a12.926,12.926,0,0,0-.436,2.173s-2.016-1.108-3.172-1.665-2.421-1.247-2.421-1.247a6.209,6.209,0,0,0,1.574-.254,2.469,2.469,0,0,0,1.549-1.737,22.088,22.088,0,0,0,1.392-4.7c.145-1.211.787-5.49.787-5.49s.3,3.384.672,5.581.605,3.4.738,4.352a7.375,7.375,0,0,1-.69,2.984Zm15.737.508c-1.156.557-3.172,1.665-3.172,1.665a12.935,12.935,0,0,0-.436-2.173,7.7,7.7,0,0,1-.7-2.984c.115-.95.369-2.155.738-4.352s.672-5.581.672-5.581.642,4.237.787,5.49a22.084,22.084,0,0,0,1.392,4.7,2.469,2.469,0,0,0,1.549,1.737,6.212,6.212,0,0,0,1.574.254s-1.271.69-2.427,1.247Z" transform="translate(-363.323 -368.259)"/><path class="a" d="M499.512,428.13V416.89l-6.882-20.58h4.128l4.879,15.368,4.794-15.368h4.164l-6.84,20.58v11.24Z" transform="translate(-409.053 -375.258)"/><path class="a" d="M534.885,428.281a9.285,9.285,0,0,1-5.151-1.259,6.87,6.87,0,0,1-2.754-3.6,16.491,16.491,0,0,1-.823-5.484V405.874a15.332,15.332,0,0,1,.847-5.405,6.713,6.713,0,0,1,2.748-3.456,9.576,9.576,0,0,1,5.133-1.211,9.339,9.339,0,0,1,5.109,1.211,6.87,6.87,0,0,1,2.73,3.456,15.319,15.319,0,0,1,.847,5.387v12.106a15.858,15.858,0,0,1-.847,5.448,7.172,7.172,0,0,1-2.73,3.6A8.934,8.934,0,0,1,534.885,428.281Zm0-3.5a4.188,4.188,0,0,0,2.669-.726,3.631,3.631,0,0,0,1.211-2.046,13.636,13.636,0,0,0,.309-3.087V405a13.158,13.158,0,0,0-.309-3.026,3.4,3.4,0,0,0-1.211-1.961,4.352,4.352,0,0,0-2.669-.69,4.443,4.443,0,0,0-2.693.69,3.365,3.365,0,0,0-1.211,1.961,12.806,12.806,0,0,0-.315,3.026v13.921a13.279,13.279,0,0,0,.315,3.087,3.565,3.565,0,0,0,1.211,2.046A4.279,4.279,0,0,0,534.885,424.783Z" transform="translate(-422.285 -375.053)"/><path class="a" d="M569.334,428.323a8.044,8.044,0,0,1-4.776-1.277,7.148,7.148,0,0,1-2.6-3.71,18.922,18.922,0,0,1-.8-5.859V406.817a21.242,21.242,0,0,1,.726-5.956,6.712,6.712,0,0,1,2.6-3.753,9.018,9.018,0,0,1,5.205-1.3,10.035,10.035,0,0,1,4.842,1,5.847,5.847,0,0,1,2.651,3.069,14.1,14.1,0,0,1,.829,5.205V406.3h-4.17v-.981a17.317,17.317,0,0,0-.272-3.4,3.2,3.2,0,0,0-1.12-1.967,4.388,4.388,0,0,0-2.657-.648,3.833,3.833,0,0,0-2.845.908,4.194,4.194,0,0,0-1.1,2.421,25.529,25.529,0,0,0-.218,3.523v11.791a18.234,18.234,0,0,0,.333,3.813,3.844,3.844,0,0,0,1.277,2.282,4.237,4.237,0,0,0,2.675.745,3.97,3.97,0,0,0,2.675-.823,4.4,4.4,0,0,0,1.3-2.421,19.134,19.134,0,0,0,.351-4.013v-2.233h-4.092v-3.147H578.2v15.737h-2.79l-.436-3.632a6.616,6.616,0,0,1-1.967,2.911A5.49,5.49,0,0,1,569.334,428.323Z" transform="translate(-436.1 -375.058)"/><path class="a" d="M594,428.118l6.761-31.838h4.285l6.8,31.838h-4.237l-1.459-8.014h-6.44l-1.531,8.014Zm6.289-11.2H605.6l-2.675-14.351Z" transform="translate(-449.066 -375.247)"/><path class="a" d="M647.157,428.114,642,396.276h3.692l3.42,22.88L653.4,396.4h3.129l4.322,22.874,3.341-23h3.632l-5.115,31.838h-3.22L655.044,404.5l-4.479,23.606Z" transform="translate(-468.012 -375.243)"/><path class="a" d="M698.306,428.281a9.285,9.285,0,0,1-5.151-1.259,6.864,6.864,0,0,1-2.748-3.6,16.479,16.479,0,0,1-.829-5.484V405.874a15.471,15.471,0,0,1,.847-5.405,6.712,6.712,0,0,1,2.748-3.456,9.577,9.577,0,0,1,5.133-1.211,9.339,9.339,0,0,1,5.109,1.211,6.87,6.87,0,0,1,2.73,3.456,15.183,15.183,0,0,1,.847,5.387v12.106a15.739,15.739,0,0,1-.847,5.448,7.173,7.173,0,0,1-2.73,3.6A8.987,8.987,0,0,1,698.306,428.281Zm0-3.5a4.237,4.237,0,0,0,2.675-.726,3.632,3.632,0,0,0,1.211-2.046,13.614,13.614,0,0,0,.315-3.087V405a13.134,13.134,0,0,0-.315-3.026,3.425,3.425,0,0,0-1.211-1.961,4.37,4.37,0,0,0-2.675-.69,4.455,4.455,0,0,0-2.694.69,3.365,3.365,0,0,0-1.211,1.961,13.161,13.161,0,0,0-.309,3.026v13.921A13.632,13.632,0,0,0,694.4,422a3.565,3.565,0,0,0,1.21,2.046A4.292,4.292,0,0,0,698.306,424.783Z" transform="translate(-486.791 -375.053)"/><path class="a" d="M725.53,428.113V396.276h6.4a14.157,14.157,0,0,1,5.272.847,5.9,5.9,0,0,1,3.087,2.712,10.35,10.35,0,0,1,1,4.891,13.478,13.478,0,0,1-.393,3.365,6.525,6.525,0,0,1-1.259,2.554,4.842,4.842,0,0,1-2.276,1.513l4.515,15.955H737.6l-4.17-14.932h-3.456v14.932Zm4.443-18.086h1.689a8.384,8.384,0,0,0,3.069-.472,3.154,3.154,0,0,0,1.725-1.616,7.409,7.409,0,0,0,.551-3.184,6.31,6.31,0,0,0-1.023-4.025q-1.023-1.235-4.049-1.211h-1.961Z" transform="translate(-500.983 -375.242)"/><path class="a" d="M759.23,428.118V396.28h4.443v28.654H771.8v3.184Z" transform="translate(-514.285 -375.247)"/><path class="a" d="M785,428.109V396.272h6.918a12.16,12.16,0,0,1,5.6,1.083,6.192,6.192,0,0,1,2.948,3.238,14.368,14.368,0,0,1,.884,5.387v11.712a16.121,16.121,0,0,1-.884,5.7,6.755,6.755,0,0,1-2.869,3.517,10.192,10.192,0,0,1-5.326,1.211Zm4.437-3.184h2.518a5.1,5.1,0,0,0,3.462-.938,4.322,4.322,0,0,0,1.211-2.754,37.159,37.159,0,0,0,.218-4.364V406.531a20.452,20.452,0,0,0-.315-4.007,3.347,3.347,0,0,0-1.374-2.24,6.15,6.15,0,0,0-3.341-.708h-2.421Z" transform="translate(-524.457 -375.238)"/></svg>