<svg xmlns="http://www.w3.org/2000/svg" width="276.869" height="74" viewBox="0 0 276.869 74"><defs><style>.a{fill:#828303;}.b{fill:#4f4d08;}</style></defs><path class="a" d="M405.1,379.458h.054a8.241,8.241,0,0,0,10.479,0h.048l.514-.514a8.235,8.235,0,0,0,0-11.609l-4.559-4.565-1.246-1.24-1.246,1.24-4.559,4.565a8.235,8.235,0,0,0,0,11.609Zm1.971-9.638h0l3.32-3.32,3.32,3.32h0a4.716,4.716,0,0,1,0,6.651h0a4.716,4.716,0,0,1-6.651,0h0a4.716,4.716,0,0,1,0-6.651Z" transform="translate(-373.385 -361.53)"/><path class="a" d="M371.964,423.114h0a8.235,8.235,0,0,0,0-11.609h0a8.235,8.235,0,0,0-11.609,0L355.8,416.07l-1.246,1.24,1.246,1.246,4.559,4.559a8.217,8.217,0,0,0,11.609,0Zm-12.444-5.8L362.84,414a4.686,4.686,0,1,1,0,6.651Z" transform="translate(-354.55 -380.307)"/><path class="a" d="M440.011,438.77a8.229,8.229,0,0,0-8.211,8.205h0a8.229,8.229,0,0,0,8.211,8.211h8.235v-8.211a8.229,8.229,0,0,0-8.211-8.205Zm4.692,12.9h-4.692a4.716,4.716,0,0,1-4.692-4.7h0a4.692,4.692,0,1,1,9.384,0Z" transform="translate(-385.044 -391.997)"/><path class="a" d="M458.192,411.583a8.211,8.211,0,0,0-11.609,11.609l.514.52h.048a8.229,8.229,0,0,0,11.047-.52l4.559-4.559L464,417.388l-1.246-1.24Zm-2.485,9.124a4.692,4.692,0,1,1,0-6.651l3.32,3.314Z" transform="translate(-389.981 -380.385)"/><path class="a" d="M401.1,421.869l4.91-4.909a19.534,19.534,0,0,0,4.577-6.477h0a19.772,19.772,0,0,0,1.27-7.706v-6.913h4.692a8.24,8.24,0,0,0,8.241-8.22V379.43h-8.235a8.234,8.234,0,0,0-8.211,8.214v15.133a16.522,16.522,0,0,1-1.01,6.386h0a16.227,16.227,0,0,1-3.815,5.3l-4.91,4.915-4.91-4.915a16.343,16.343,0,0,1-3.815-5.3h0a16.687,16.687,0,0,1-1-6.386V387.644a8.234,8.234,0,0,0-8.235-8.214H372.46v8.214a8.24,8.24,0,0,0,8.187,8.22h4.692v6.913a19.686,19.686,0,0,0,1.276,7.7h0a19.648,19.648,0,0,0,4.583,6.477l4.91,4.909-3.3,3.311a8.257,8.257,0,0,0,0,11.628l4.559,4.564,1.246,1.241,1.246-1.241,4.559-4.564a8.257,8.257,0,0,0,0-11.628Zm10.763-34.225a4.707,4.707,0,0,1,4.692-4.7h4.692v4.7a4.719,4.719,0,0,1-4.692,4.7h-4.692Zm-26.5,4.7h-4.716a4.719,4.719,0,0,1-4.692-4.7v-4.7h4.692a4.707,4.707,0,0,1,4.716,4.7Zm16.567,41.979-3.32,3.323-3.32-3.323a4.719,4.719,0,0,1,0-6.658l3.319-3.323,3.32,3.323A4.719,4.719,0,0,1,401.931,434.32Z" transform="translate(-361.631 -368.607)"/><path class="a" d="M380.631,438.77a8.229,8.229,0,0,0-8.211,8.205v8.211h8.211a8.229,8.229,0,0,0,8.211-8.211h0A8.229,8.229,0,0,0,380.631,438.77Zm4.692,8.205a4.716,4.716,0,0,1-4.692,4.7h-4.692v-4.7a4.692,4.692,0,1,1,9.384,0Z" transform="translate(-361.615 -391.997)"/><path class="a" d="M388.322,408.649c.079.06.181-.036.109-.109a.809.809,0,0,0-.224-.151c-.079-.036-.29-.115-.236-.236s.218-.091.278-.1a3.379,3.379,0,0,0,.357-.061c.079,0,.091-.157,0-.175a1.21,1.21,0,0,0-.532.036.4.4,0,0,0-.308.212.3.3,0,0,0,.1.351C388,408.528,388.189,408.528,388.322,408.649Z" transform="translate(-367.674 -379.799)"/><path class="a" d="M427.1,395.936a7.1,7.1,0,0,0-2.485-2.682.109.109,0,0,0-.127,0l1.627-2.984a.157.157,0,0,0-.133-.236,5.235,5.235,0,0,1-2.848-1.368.127.127,0,0,0,.091-.091,5.963,5.963,0,0,0-.085-1.7,13.4,13.4,0,0,0-.32-1.689,11.916,11.916,0,0,0-1.36-3.281,9.9,9.9,0,0,0-4.789-4.086,7.508,7.508,0,0,0-1.735-.466,2.875,2.875,0,0,0-1.778.115c-.242-.805-.5-1.61-.707-2.421a.151.151,0,0,0-.181-.1c-1.24.194-2.5.248-3.755.357a.175.175,0,0,0,0-.157,8.759,8.759,0,0,0-4.837-4.5,8.456,8.456,0,0,0-6.76.394,7.735,7.735,0,0,0-2.969,2.506,3.225,3.225,0,0,1-2.1-1.574c-.042-.1-.181-.073-.23,0a13.092,13.092,0,0,1-.822,1.144.163.163,0,0,0-.066-.1,8.161,8.161,0,0,0-3.785-.969,9.664,9.664,0,0,0-3.628.569,8.772,8.772,0,0,0-5.073,4.843,7.648,7.648,0,0,0-.6,3.85H377.5a3.419,3.419,0,0,1-1.989-.085.139.139,0,0,0-.2.151,9.4,9.4,0,0,1,0,2.294.138.138,0,0,0-.085,0,17.8,17.8,0,0,0-3.8,1.568,7.943,7.943,0,0,0-2.7,2.676,10.3,10.3,0,0,0-.822,8.172,5.891,5.891,0,0,0,2.044,3.287,6.607,6.607,0,0,1-1.693,1.786.145.145,0,0,0-.03.23,12.355,12.355,0,0,1,1.759,1.816,6.657,6.657,0,0,0-1.76,3.293,10.623,10.623,0,0,0-.453,4.286,12.6,12.6,0,0,0,.466,2.052,8.253,8.253,0,0,0,.689,1.816,7.21,7.21,0,0,0,2.721,2.464c1.173.708,2.721,1.41,4.118,1h0a4.922,4.922,0,0,1,0,2.548c-.036.1.079.194.175.17a4.584,4.584,0,0,1,2.183.284l.538.151a6.984,6.984,0,0,0,2.515,6.659,9.291,9.291,0,0,0,7.407,1.846,11.235,11.235,0,0,0,2.346-.648,3.567,3.567,0,0,0,1.59-1,11.9,11.9,0,0,1,.714.975.145.145,0,0,0,.187.048,11.335,11.335,0,0,1,1.6-.969c1.59,2.016,4.281,2.736,6.736,2.9a9.17,9.17,0,0,0,3.918-.509,8.779,8.779,0,0,0,2.987-1.907,8.475,8.475,0,0,0,2.134-3.341.164.164,0,0,0,0-.145c.659.127,1.324.248,1.983.357a.139.139,0,0,0,.175-.1c.212-.763.441-1.532.659-2.306,4.68.436,8.628-3.481,9.632-7.815a10.907,10.907,0,0,0,.169-4.153.115.115,0,0,0-.042-.079,10.2,10.2,0,0,1,1.6-.375.157.157,0,0,0,.1-.23,11.643,11.643,0,0,1-1.4-2.942h0a7.756,7.756,0,0,0,3.96-4.843,8.326,8.326,0,0,0-.514-6.756Zm-1.367-5.587-1.941,3.572a25.436,25.436,0,0,1-1.862,3.057c-1.427,1.913-3.719,3.565-6.228,3.027h0v-1.156c2,.151,3.821-.969,5.3-2.2a6.343,6.343,0,0,0,1.741-2.343L424.283,391a.17.17,0,0,0-.1-.242c-1.959-.678-3.628-1.949-5.653-2.524a6.947,6.947,0,0,0-5.678.7h0c-.248-.418-.52-.823-.8-1.211h.036l.254-.23a11.609,11.609,0,0,1,7.111-.279,10.877,10.877,0,0,1,3.338,1.592,6.556,6.556,0,0,0,2.945,1.538Zm-1.258,5.878a5.741,5.741,0,0,1,.828,1.271,6.487,6.487,0,0,1-2.286,8.2,14.348,14.348,0,0,0-.568-1.326,4.631,4.631,0,0,0,2.515-3.82,4.378,4.378,0,0,0-2.31-4.1c.254-.381.49-.769.719-1.162A10.682,10.682,0,0,1,424.477,396.226Zm-.091-.569a.514.514,0,0,1,.665.763,4.238,4.238,0,0,0-.665-.763Zm1.161,7.645a5.211,5.211,0,0,0,.284-.654.74.74,0,0,0,.175.1.5.5,0,0,1,.054.272.781.781,0,0,1-.248.454A.817.817,0,0,0,425.547,403.3Zm.169.817c-.206.315-.447.127-.6-.036.109-.163.212-.333.308-.5a.459.459,0,0,0,.3.121.351.351,0,0,1,0,.418Zm.2-1.707a6.7,6.7,0,0,0,.181-.66h.1l.054.03a.394.394,0,0,1,.175.514c-.06.176-.1.242-.29.212a.429.429,0,0,1-.224-.1Zm.351-.86-.115-.054a7.218,7.218,0,0,0,.1-.8h.085a.605.605,0,0,1,.218.242c.139.26-.006.666-.284.611Zm0-1.09h0a6.162,6.162,0,0,0-.03-.817.9.9,0,0,1,.4.248C426.907,400.312,426.545,400.451,426.266,400.464Zm-.073-1.065a5.714,5.714,0,0,0-.139-.726h.042a.787.787,0,0,0,.157-.1c.556.012.587.914-.06.829ZM426,398.46a6.121,6.121,0,0,0-.357-.981.538.538,0,0,1,.6.363.606.606,0,0,1-.248.617Zm-.284-1.592a.466.466,0,0,1-.193.351c-.1-.188-.206-.387-.333-.605a.829.829,0,0,0,.067-.085l.248-.054c.212.091.308.206.212.393Zm-1.856,8.6a5.1,5.1,0,0,0,.417-.393h0a.351.351,0,0,1,.091.527c-.193.248-.423.1-.508-.133Zm-.133.769c-.23.139-.447-.073-.514-.285.157-.1.308-.212.46-.327a.46.46,0,0,0,.206.26.351.351,0,0,1-.151.351Zm.714-1.308h0a6.182,6.182,0,0,0,.508-.605.036.036,0,0,0,0,.036.5.5,0,0,1,.073.5.369.369,0,0,1-.58.067Zm-3.465-3.529c.6-.079,1.747-.248,1.886-.981s-.653-1.211-1.24-1.3a2.723,2.723,0,0,0-1.016.03,2.417,2.417,0,0,1,1.814-.466,1.852,1.852,0,0,1,1.457,1.762,1.537,1.537,0,0,1-1.747,1.5,10.993,10.993,0,0,1-2.612-.527.06.06,0,0,0-.054,0h-.06A5.389,5.389,0,0,0,420.976,401.4Zm-2.419-.508a.1.1,0,0,0-.085,0,8.36,8.36,0,0,0-1.264-.557,5.629,5.629,0,0,0,1.814-.514.084.084,0,0,0,.054,0,7.354,7.354,0,0,1,2-.49,1.933,1.933,0,0,1,.992.23c.3.169.677.569.447.944a1.5,1.5,0,0,1-.859.448,4.975,4.975,0,0,1-1.113.188,8.1,8.1,0,0,1-1.983-.218Zm2.582,1.211a4.228,4.228,0,0,0,1.627.091,1.689,1.689,0,0,0,1.409-1.895,2.142,2.142,0,0,0-1.59-1.846,2.555,2.555,0,0,0-1.971.406,9,9,0,0,0,1.27-1.271,10.519,10.519,0,0,0,.7-.956,4.6,4.6,0,0,1,2.08,3.953,4.316,4.316,0,0,1-2.2,3.45.139.139,0,0,0-.121,0h-.036c-.1-.188-.218-.375-.339-.557a5.611,5.611,0,0,0-1.125-1.265,4.873,4.873,0,0,0-.544-.381,3.886,3.886,0,0,0,.816.248Zm3.066-6.574a1.921,1.921,0,0,0-.732-.339.338.338,0,0,1,.03-.048,1.258,1.258,0,0,1,.411-.182c.345-.091.447.266.266.545Zm-3.954,9.522a1.532,1.532,0,0,1,.647,1.858,1.643,1.643,0,0,1-1.814,1.1,1.6,1.6,0,0,0-.284-1.653,1.815,1.815,0,0,0,1.427-1.332Zm0-.757.091.127a4.016,4.016,0,0,1,.308.5,1.591,1.591,0,0,0-.351-.212,1.643,1.643,0,0,0-.085-.442Zm-1.282,6.441c-.447.188-.895.363-1.342.515a1.364,1.364,0,0,0,.29-.442,1.6,1.6,0,0,0-.393-1.713,1.9,1.9,0,0,0,1.445-.8,1.421,1.421,0,0,1,.036,2.355.066.066,0,0,0-.073.061Zm-2.963.884h-.085a1.527,1.527,0,0,0-.314-1.846,1.814,1.814,0,0,0,1.264-.811.157.157,0,0,0,.073.067,1.326,1.326,0,0,1,.714,1.622,1.529,1.529,0,0,1-1.633.841c-.079.012-.1.079-.054.1Zm-14.282,4.909.32-.085a.085.085,0,0,0-.03.079.8.8,0,0,0,.254.557.417.417,0,0,0,.441.042.315.315,0,0,0,.145-.393c-.06-.163-.193-.272-.248-.442l.333-.1.224-.073a.1.1,0,0,0-.036.121c.157.454.429,1.519-.381,1.525-.647-.024-.853-.811-1.058-1.259Zm.967,1.743a1,1,0,0,0,0,.188,1.447,1.447,0,0,1-.066-.139h0Zm0,4.328a2.9,2.9,0,0,1,.405,1.441,1.878,1.878,0,0,1-.308,1.35c-.508.515-1.058-.109-1.209-.605a6.673,6.673,0,0,1-.157-1.392,16.566,16.566,0,0,1,.121-2.682c.381.6.762,1.229,1.131,1.864Zm-1.119-2.361a.358.358,0,0,0,0-.085l.091.254Zm1.717,3.111a2.431,2.431,0,0,0-.109-.357c.091.133.175.272.254.412a3.03,3.03,0,0,1,.381,1.271,1.489,1.489,0,0,1-1.457,1.677c-.98-.03-1.433-1-1.463-1.871a18.779,18.779,0,0,1,.339-2.657h0v-.067a11.511,11.511,0,0,0,0,2.579c.073.678.478,1.816,1.4,1.471s.8-1.768.635-2.488Zm3.628,1.017,1.391.285h0a1.576,1.576,0,0,1,.26.145.7.7,0,0,1,.242.236c.1.163.06.272-.127.321-.218.157-.2.109-.423.067a1.015,1.015,0,0,0-.272,0,.112.112,0,0,0-.054.206.46.46,0,0,1,.157.726.411.411,0,0,1-.532,0,.661.661,0,0,0-.1-.079l-.073-.085a.05.05,0,1,0-.091.042.085.085,0,0,0,0,.036.079.079,0,0,0,0,.073c.048.151.169.242.218.393a.57.57,0,0,1-.079.527c-.23.315-.556.2-.816,0a.321.321,0,0,0-.254-.206,6.446,6.446,0,0,0,1.814-2.21.157.157,0,0,0-.272-.157,7.866,7.866,0,0,1-1.989,2.3,6.784,6.784,0,0,1-5.859,1.126,7.457,7.457,0,0,1-1.536-.605,5.006,5.006,0,0,1-1.076-.684,9.283,9.283,0,0,0,.992-.751,5.812,5.812,0,0,0,4.837,1.211,5.44,5.44,0,0,0,2.237-1.035,3.8,3.8,0,0,0,1.433-1.816.133.133,0,0,0-.036-.091Zm-.5,3.3a1.053,1.053,0,0,1-.23.448c-.3.315-.526-.133-.7-.339h0a.073.073,0,0,0-.03-.03,6.958,6.958,0,0,0,.762-.509h.042a.054.054,0,0,0,0,.036c.036.036.091.061.127.1a.352.352,0,0,1,.018.272Zm-1.064.43v.236a.291.291,0,0,1-.254.351c-.224.109-.308.073-.484-.121a.908.908,0,0,1-.2-.357,6.761,6.761,0,0,0,.877-.406h0a2.482,2.482,0,0,0,.048.272Zm-1.167.206a2.257,2.257,0,0,1-.048.345c-.048.278-.042.357-.3.5a.248.248,0,0,1-.417,0,.605.605,0,0,1-.157-.242,2.3,2.3,0,0,1-.109-.327,7.572,7.572,0,0,0,1.016-.3Zm-1.59,1.09c-.363,0-.514-.406-.532-.7a4.858,4.858,0,0,0,.834-.073c.03.26.139.751-.314.751Zm-1.391-.054a.526.526,0,0,1-.393-.381.757.757,0,0,0,.073-.327h.036a6.528,6.528,0,0,0,.907.061c.018.327-.254.714-.635.624Zm-.538-.738v.036a.96.96,0,0,0,0,.127.454.454,0,0,1-.538.363.5.5,0,0,1-.29-.72h0a7.053,7.053,0,0,0,.816.17Zm-1.076-.266c-.145.272-.5.745-.78.291a.607.607,0,0,1,0-.454,1.2,1.2,0,0,0,.067-.121,6.86,6.86,0,0,0,.7.26Zm-1.711-.817.272.163c.163.1.333.194.508.278-.1.2-.29.436-.52.436l-.435-.23v-.272a1.03,1.03,0,0,1,.163-.4Zm-.472.157c-.206.176-.357.054-.453-.357a.538.538,0,0,1,.127-.248l.187-.115a1.047,1.047,0,0,0,.429.454.768.768,0,0,1-.308.242Zm9.281-3.354c-.236.278-.375.605-.6.914a4.84,4.84,0,0,1-.84.811,5.126,5.126,0,0,1-2.02.926,6.458,6.458,0,0,1-4.65-.993,9.558,9.558,0,0,0,2.219-3.027c-.036.194-.067.387-.1.575a4.182,4.182,0,0,0,0,1.6,1.814,1.814,0,0,0,1.814,1.5,1.718,1.718,0,0,0,1.566-1.61,2.811,2.811,0,0,0-.248-1.423,5.37,5.37,0,0,0-.363-.72,5.541,5.541,0,0,0,1.125.739,9.5,9.5,0,0,0,2.11.7Zm-5.309-6.011c.308-.266.272-.8.284-1.265.2.424.466.884.883.969q-.254.091-.508.163Zm-22.566.23a1.139,1.139,0,0,0,.212.418,7.488,7.488,0,0,0-1.645.048c0-.708-.036-1.465-.036-2.24a1.412,1.412,0,0,0,.284.315,1.468,1.468,0,0,0,1.306.248,1.818,1.818,0,0,0-.133,1.186Zm-1.046-1.749a1.448,1.448,0,0,1-.375-1.162.1.1,0,0,0-.036-.079,3.619,3.619,0,0,1,.042-.678,1.27,1.27,0,0,0,.6.339,1.54,1.54,0,0,0,.949-.079,1.951,1.951,0,0,0,.236,1.774h0a1.208,1.208,0,0,1-1.433-.139Zm1.548-8.638a.67.67,0,0,0-.054-.188h0c-.079-.218-.151-.436-.224-.654a1.3,1.3,0,0,0,.955.121,1.114,1.114,0,0,0-.405,1.338.834.834,0,0,0,1.022.387,2.313,2.313,0,0,0-.3.424,1.987,1.987,0,0,0-.157.43c-.284-.563-.544-1.138-.774-1.731h0Zm-4.765-2.609a5.409,5.409,0,0,1-.949-.841c-.1-.109-.187-.224-.278-.339a1.465,1.465,0,0,1,1-1.7,1.931,1.931,0,0,0,1.294,1.592c-.574.248-1.137.63-1.082,1.265Zm-1.475-1.5c-.363-.484-.7-.993-1.052-1.483a.054.054,0,0,0,0-.073c-.278-.605.411-1.162.834-1.507a2.106,2.106,0,0,0,1.07,1.525,1.629,1.629,0,0,0-.865,1.513Zm2.836-6.592a1.851,1.851,0,0,0-1.4,1.259c-.478-.278-1-.605-.967-1.253.091-.115.188-.224.284-.333a4.758,4.758,0,0,1,1.209-.975c-.121.533.351.993.859,1.277Zm1.209-14a2.585,2.585,0,0,0,1.481-.091.975.975,0,0,0-.181.412,1.333,1.333,0,0,0,.181.908,2.277,2.277,0,0,0-1.137.109,2.637,2.637,0,0,0-.556.278,5.063,5.063,0,0,0,.175-1.64Zm.133,1.7a1.933,1.933,0,0,1,.556-.182,2.1,2.1,0,0,1,.846,0,1.818,1.818,0,0,0-.139,1.4,2.157,2.157,0,0,0-2.014.8,7.632,7.632,0,0,1,.23-1.435,1.054,1.054,0,0,1,.042-.188.085.085,0,0,0,0-.036c0-.163.3-.333.441-.387Zm1.415,1.58a2.115,2.115,0,0,0-.187.212,2.46,2.46,0,0,0-.393,2.2,1.812,1.812,0,0,0-1.439,0,5.369,5.369,0,0,1-.115-.636,7.369,7.369,0,0,1-.048-1.035,2.109,2.109,0,0,1,2.159-.769Zm.562-3.632a13.454,13.454,0,0,1,1.784-.605,1.4,1.4,0,0,0,0,1.429,2.351,2.351,0,0,0-2.02.605l-.042.048c-.26-.466-.333-1.011.254-1.3a.139.139,0,0,0-.012-.182Zm2.146-.684c.187-.036.375-.067.568-.085a6.148,6.148,0,0,1,1.155,0,1.782,1.782,0,0,0,0,1.386,1.957,1.957,0,0,0-1.778.224,1.212,1.212,0,0,1-.212-.726,2.349,2.349,0,0,1,.248-.726.085.085,0,0,0-.018-.073Zm0,1.871a.133.133,0,0,0,.06-.054,1.649,1.649,0,0,1,1.88-.1.127.127,0,0,0,.115,0,1.7,1.7,0,0,0,.073,1.743,2.175,2.175,0,0,0-1.33-.218,2.846,2.846,0,0,0-1.209.454h0a1.66,1.66,0,0,1,.375-1.822Zm2-1.943a4.959,4.959,0,0,1,1.143.3,3.832,3.832,0,0,1,1.1.66,1.981,1.981,0,0,0-1.56.169,1.815,1.815,0,0,0-.514.484h0a2.242,2.242,0,0,1-.169-1.531.115.115,0,0,0-.036-.079Zm5.641.1a4.126,4.126,0,0,1-.55-2.125v-.218h.036c.6-.551,1.276.061,1.663.539h0a1.816,1.816,0,0,0-1.185,1.8Zm10.219.981c.079-.484.272-1.211.883-1.211.792,0,.907.872.961,1.471a.11.11,0,0,0,0,.061l-.5-.079a1.732,1.732,0,0,0-.121-.708.339.339,0,0,0-.393-.254.727.727,0,0,0-.466.841l-.6-.061a.085.085,0,0,0,.036-.073,1.817,1.817,0,0,0-.762-1.5q.72.054,1.433.145a1.678,1.678,0,0,0-.641,1.314c-.036.121.145.145.145.048Zm5.623-4.673a1.211,1.211,0,0,1,.714,1.338.151.151,0,0,0,.254.145,1.88,1.88,0,0,1,3.12,1.259l-.187-.085a2.156,2.156,0,0,0-2.056.3,1.6,1.6,0,0,0-.925-1.368,1.879,1.879,0,0,0-1.874.278c0-.654-.194-1.4-.834-1.58l.085-.079a.067.067,0,0,0,.048,0,1.812,1.812,0,0,1,1.621-.212Zm-1.107-.285a6.046,6.046,0,0,1,.98-.575c.157-.067.314-.127.478-.182a1.042,1.042,0,0,1-.1.841h0a1.734,1.734,0,0,0-1.4-.085Zm1.675-.823a8.837,8.837,0,0,1,1.784-.284.957.957,0,0,1,.036.551,2.011,2.011,0,0,0-1.741.327,1.176,1.176,0,0,0-.115-.593Zm1.723.557a1.072,1.072,0,0,1,.7,1.326.1.1,0,0,0,0,.073,2.138,2.138,0,0,0-1.947.2,1.5,1.5,0,0,0-.538-1.077,1.909,1.909,0,0,1,1.747-.521Zm3.483,5.666a2.567,2.567,0,0,0-2.787-.085,1.635,1.635,0,0,0-.84-1.622,2.827,2.827,0,0,0-.278-.127,1.814,1.814,0,0,1,3.023,1.289.163.163,0,0,0,.272.115,2.139,2.139,0,0,1,.816-.4,2.453,2.453,0,0,1,.423-.054h.224a.761.761,0,0,1,.308.042.091.091,0,0,1,.036.127h.042a8.9,8.9,0,0,1-.6,2.833,2.084,2.084,0,0,0-.671-2.119Zm2.007,5.266a17.994,17.994,0,0,1,.853,1.622,1.661,1.661,0,0,0-1.481-.248,1.453,1.453,0,0,0,.593-1.374Zm3.719-.884h.556a1.923,1.923,0,0,1,1.409,1.132,1.848,1.848,0,0,1-.568,2.064v-.067a1.73,1.73,0,0,0-1.493-1.168,1.6,1.6,0,0,0,.06-1.961Zm5.115,1.6a22.615,22.615,0,0,0,2.455,1.144l-1.306,2.8-.054.109a.145.145,0,0,0-.073-.042,1.77,1.77,0,0,0-.708-.061,2.175,2.175,0,0,0,.429-1.64,1.41,1.41,0,0,0-1.082-1.144,1.623,1.623,0,0,0,.3-.563,1.139,1.139,0,0,0,.006-.605Zm-5.768.666a.157.157,0,0,0,.139.036,1.368,1.368,0,0,1,.774,2.621,1.681,1.681,0,0,0-1.457-.932,2.133,2.133,0,0,0,.508-1.725Zm2.092,1.253h.06c.756-.157,1.421.805,1.651,1.41.345.878-.381,1.289-1.094,1.538a2.045,2.045,0,0,0-1.324-1.471,1.781,1.781,0,0,0,.671-1.477Zm3.023-.448a1.089,1.089,0,0,1,1.119,1.12,2.126,2.126,0,0,1-.6,1.453,1.681,1.681,0,0,0-1.07-.853,2.023,2.023,0,0,0,.5-1.719Zm-1.016,1.695h0a2.492,2.492,0,0,0-1.578-1.556,2.2,2.2,0,0,0,.538-1.41,1.616,1.616,0,0,1,1.04,2.966Zm-3.066.448a1.766,1.766,0,0,1,1.4,1.326,1.744,1.744,0,0,1-.75,1.816,1.852,1.852,0,0,0-1.354-1.41,1.672,1.672,0,0,0,.653-1.731Zm.677,3.463c.641,0,1.209.145,1.342.841a.049.049,0,0,0,0,.03,6.041,6.041,0,0,1-2.346.714,1.889,1.889,0,0,0,.931-1.586Zm.381-.278a2.077,2.077,0,0,0,.677-1.6,1.312,1.312,0,0,1,1.348,1.114,1.362,1.362,0,0,1-.81,1.344c-.109-.539-.726-.781-1.27-.86Zm1.209-1.816a1.314,1.314,0,0,0,.877-1.5,1.4,1.4,0,0,1,1.324,1.453,2.107,2.107,0,0,1-1.088,1.671,1.263,1.263,0,0,0,0-.339,1.6,1.6,0,0,0-1.149-1.3Zm1.04,1.961a.151.151,0,0,0,.133,0,2.373,2.373,0,0,0,1.336-2.216,1.253,1.253,0,0,0-.067-.333,1.492,1.492,0,0,1,.961-.055h.03a6.2,6.2,0,0,1-1.469,2.07c-.333.291-.689.575-1.058.841a1.759,1.759,0,0,0,.1-.327Zm1.113-6.453a1.593,1.593,0,0,1-.441.678h0a1.942,1.942,0,0,0-1.385-1.18,1.313,1.313,0,0,0,.6-.72c.466.206.919.436,1.373.672a3.458,3.458,0,0,0-.187.533Zm-2.419-.605a2.085,2.085,0,0,0-.127-.46,1.936,1.936,0,0,0-.7-.866,7.251,7.251,0,0,1,.865.224q.466.157.907.345a1.591,1.591,0,0,1-1,.751Zm-3.023.539a.23.23,0,0,0-.054.054,1.815,1.815,0,0,0-.145-.381,2,2,0,0,0-2.213-1,9.063,9.063,0,0,1,2.491-.654h.254a1.369,1.369,0,0,1-.363,1.979Zm-.49-.212a1.775,1.775,0,0,1-.677,2.276.152.152,0,0,0-.073.1,21.394,21.394,0,0,0-.974-2.306c-.151-.3-.314-.605-.484-.9a1.873,1.873,0,0,1,2.177.8Zm.6,14.673a1.591,1.591,0,0,0,1.113-.938,2.367,2.367,0,0,1,1.01,1.774c0,.751-.707,1.507-1.493,1.138a.228.228,0,0,0-.06,0v-.042a1.817,1.817,0,0,0-.574-1.937Zm.278,1.816a1.548,1.548,0,0,1-1.814.969.157.157,0,0,0-.169.067,18.586,18.586,0,0,0,.726-1.961c.1-.327.194-.654.272-.987a.181.181,0,0,0,.085.061,1.544,1.544,0,0,1,.925,1.858Zm-3.023.745a1.468,1.468,0,0,0,.846-.1c-.133.315-.266.605-.411.926a.981.981,0,0,0-.411-.817Zm-1.548,2.458c.163.054.387.079.472-.109.139-.3-.187-.563-.466-.684l.157-.278c.381.26.871.648.6,1.126s-.9.266-1.312.085q.115-.176.218-.345a.907.907,0,0,0,.327.212Zm-.272-.321.163-.278c.163.073.345.151.393.327s-.212.121-.308.085a.7.7,0,0,1-.218-.127ZM412.958,408c.054-.278-.32-.557-.6-.575.042-.091.085-.188.133-.285.387.206,1.252.811.6,1.271a1.208,1.208,0,0,1-1.209-.036l.163-.3c.2.218.853.236.913-.067Zm-.865-.067.145-.291a.725.725,0,0,1,.23.03c.067,0,.357.2.266.315s-.351.048-.435.03a2.1,2.1,0,0,1-.206-.079Zm.472-1,.145-.351c.248.133.72.291.859,0s-.23-.605-.514-.642a.121.121,0,0,0-.091.03l.139-.381h0c.435.145,1.179.484.973,1.084s-1.046.406-1.512.3Zm.2-.478.157-.4a.091.091,0,0,0,.054.048c.145.067.466.121.417.357s-.472.067-.629,0Zm.949-1.356a.26.26,0,0,0,.308-.194c.085-.351-.272-.46-.538-.557.03-.1.06-.206.085-.3.417.157,1.052.454.828.987s-.8.448-1.209.315h0c.042-.115.079-.236.115-.351a1.594,1.594,0,0,0,.417.109Zm-.369-.266a1.035,1.035,0,0,1,.079-.266c.169.048.369.085.387.254s-.187.067-.266.054Zm1.088-1.447a.436.436,0,0,0-.073-.442.859.859,0,0,0-.472-.254h0a2.522,2.522,0,0,1,.06-.363.157.157,0,0,0,.054.03c.393.121,1.246.454.895,1.035a1.263,1.263,0,0,1-1.24.43h0c.042-.157.079-.309.109-.466.157.194.508.357.665.036Zm-.659-.206.054-.266c.163.048.435.121.417.345s-.375,0-.453-.067Zm.659-3.378a.466.466,0,0,0,.3-.424.424.424,0,0,0-.278-.363.4.4,0,0,0-.266,0v-.254c.381.067.834.188.949.605.163.569-.453.853-.925.866h-.036v-.381a.543.543,0,0,0,.26-.042Zm-.248-.1v-.442c.06,0,.1-.048.169-.036a.224.224,0,0,1,.157.145.236.236,0,0,1-.1.23.508.508,0,0,1-.23.109Zm0-1.3a2.443,2.443,0,0,0-.042-.551.6.6,0,0,0,.49-.042.363.363,0,0,0,.073-.515.6.6,0,0,0-.647-.212h0a3.108,3.108,0,0,0-.085-.521.133.133,0,0,0,.1,0,.835.835,0,0,1,.949.854,1.144,1.144,0,0,1-.865.993Zm-.06,2.724a1.423,1.423,0,0,1,.266.1c.067.042.23.127.224.218s-.175.127-.242.127a.774.774,0,0,1-.284-.085Zm-.048-3.868a1.554,1.554,0,0,0,.29.067c.1.036.224.139.187.26s-.139.109-.218.109h-.206Zm.036,6.756a1.317,1.317,0,0,0,.937-.393,18.582,18.582,0,0,1-.707,2.573,1.125,1.125,0,0,0-.466-.533.871.871,0,0,0,.8-.605.943.943,0,0,0-.592-1.035Zm.5-1.7a1.4,1.4,0,0,0,.7-.393c-.036.309-.073.605-.121.92a1.209,1.209,0,0,0-.6-.521Zm.671-.86a1.13,1.13,0,0,1-1.209.642h-.054a3.917,3.917,0,0,1,.067-.454.5.5,0,0,0,.744-.085c.151-.327-.393-.642-.665-.642l.036-.448h.048c.448.048,1.2.357,1,.993Zm-.453-1.1a.92.92,0,0,0,.6-.7c0,.369,0,.739-.03,1.108a1.336,1.336,0,0,0-.6-.406Zm-.526-1.816a1.21,1.21,0,0,0,.967-1.211,1.077,1.077,0,0,0-.828-.938,1.731,1.731,0,0,0,.6-.775,21.348,21.348,0,0,1,.393,3.777,1.361,1.361,0,0,0-1.167-.866Zm-.333-2.173h-.036c-.03-.194-.073-.387-.115-.605a.453.453,0,0,0,.441-.085.485.485,0,0,0,.163-.5.544.544,0,0,0-.381-.393.453.453,0,0,0-.453.073c-.042-.163-.091-.327-.145-.484.6-.139,1.367,0,1.4.738a1.392,1.392,0,0,1-.907,1.241Zm-.206-.775c-.048-.2-.1-.4-.151-.605a2.423,2.423,0,0,1,.3,0,.369.369,0,0,1,.272.218.279.279,0,0,1-.054.309c-.1.085-.193.061-.3.048a.072.072,0,0,0-.109.018Zm-.363-1.4h0c-.054-.151-.1-.3-.157-.442a1.317,1.317,0,0,0,.472-.194.321.321,0,0,0,.133-.424.755.755,0,0,0-.943-.248l-.133-.3h.054c.508-.1,1.33-.357,1.487.345a.793.793,0,0,1-.194.811,1.413,1.413,0,0,1-.647.212.127.127,0,0,0-.1.224Zm-.266-.654c-.06-.169-.127-.339-.2-.5a.634.634,0,0,1,.6.127c.175.188-.218.291-.429.363Zm-.23-1.816c.1-.109.236-.272.151-.43a.568.568,0,0,0-.635-.212.737.737,0,0,0-.393.139l-.248-.418c.2,0,.381-.1.6-.1a1.54,1.54,0,0,1,.8.182.527.527,0,0,1,.218.835,2.779,2.779,0,0,1-.689.666.164.164,0,0,0-.042.048c-.06-.133-.127-.266-.187-.393a.933.933,0,0,0,.387-.351Zm-.526.139c-.085-.163-.169-.321-.26-.478l.091-.085a.06.06,0,0,0,.054,0,.6.6,0,0,1,.32-.054c.1,0,.314.079.254.224s-.333.23-.49.369Zm1.409-.393c.115.285.23.569.333.86a1.547,1.547,0,0,0-.871-.054,1.726,1.726,0,0,0,.508-.841Zm.236,2.651a.955.955,0,0,0,.393-.278,1,1,0,0,0,.127-.254c.085.291.169.605.242.884a1.275,1.275,0,0,0-.792-.387Zm-1.778-4.237a3.462,3.462,0,0,1-.6.605h0l-.345-.466c.339-.061.683-.478.508-.817a.423.423,0,0,0-.453-.206,1.5,1.5,0,0,0-.574.321l-.339-.418h.054c.49-.3,1.209-.605,1.693-.091a.848.848,0,0,1,.03,1.041Zm-1.028.061-.369-.49c.212-.1.6-.375.774-.133.091.127,0,.3-.1.393s-.23.1-.339.2Zm-1.209-1.6c.193-.218.49-.7.169-.944s-.6.157-.762.43l-.333-.315h0l.091-.061a.091.091,0,0,0,.109,0,1.466,1.466,0,0,0,.175-.157c.46-.254,1.088-.5,1.4-.157.5.551-.127,1.211-.508,1.622a.163.163,0,0,0-.036.061c-.127-.145-.254-.291-.387-.43a.072.072,0,0,0,.042-.079Zm-.145-.061-.339-.351a.919.919,0,0,1,.193-.242c.1-.085.339-.26.393-.048s-.278.381-.29.611Zm-.834-1.562a.491.491,0,0,0-.073-.49c-.3-.369-.774.085-.943.393a8.712,8.712,0,0,0-.961-.666.7.7,0,0,0-.157-.823.405.405,0,0,0-.659.345c-.169-.1-.345-.188-.52-.272a1.209,1.209,0,0,1,1.59-.5.848.848,0,0,1,.393.745c0,.272-.163.484-.127.763a.132.132,0,0,0,.224.091c.327-.393.853-.975,1.421-.648s.405,1.174-.079,1.562a.115.115,0,0,0-.03.121l-.079.067a.083.083,0,0,0,0,.036l-.369-.315a.726.726,0,0,0,.327-.442Zm-.514.3-.375-.3c.133-.182.6-.642.683-.266.055.236-.29.327-.351.539Zm-1.687-1.211-.478-.278a.067.067,0,0,0,.042-.067.212.212,0,0,1,.26-.23.309.309,0,0,1,.218.23.515.515,0,0,1-.085.321Zm-1.119-1.531a1.393,1.393,0,0,0-.314-.751,22.713,22.713,0,0,1,2.648,1.211,11.4,11.4,0,0,1,.986.605,1.511,1.511,0,0,0-1.173.551,1.327,1.327,0,0,0,.036-.841,1.168,1.168,0,0,0-.72-.672,1.342,1.342,0,0,0-1.469.5,2.556,2.556,0,0,0-.036-.624Zm-.859.036a.466.466,0,0,0-.26-.369c-.369-.157-.6.218-.671.521l-.381-.121c.26-.5.677-1.18,1.336-.9a.992.992,0,0,1,.556.684,1.479,1.479,0,0,1,.036.46,2.215,2.215,0,0,1-.054.466h0c-.212-.1-.429-.194-.647-.278a.782.782,0,0,0,.042-.478Zm-.308.369-.266-.1-.2-.067c.073-.194.23-.521.447-.363s.018.327-.024.508Zm-1.784-1.017c-.048-.157-.127-.351-.314-.363a.52.52,0,0,0-.4.254.951.951,0,0,0-.169.363l-.345-.067c-.163-.133.254-.605.326-.7a1.082,1.082,0,0,1,.732-.387c.822,0,.792.956.707,1.519l-.478-.133a1.248,1.248,0,0,0-.1-.509Zm-.175.418c-.181-.048-.363-.085-.544-.127.073-.188.212-.442.375-.406s.133.315.127.514Zm.72-1.247q.544.151,1.07.327a1.639,1.639,0,0,0-.792.642,1.381,1.381,0,0,0-.236-.92Zm3.078-.854a2.586,2.586,0,0,0-1.814.605,2.422,2.422,0,0,0-.786-1.477.144.144,0,0,0,.067-.036,1.7,1.7,0,0,1,1.681-.478,1.259,1.259,0,0,1,.81,1.368Zm.417.442a1.211,1.211,0,0,1,.6,1.659c-.556-.26-1.125-.5-1.693-.72-.375-.139-.75-.272-1.131-.4a2.115,2.115,0,0,1,2.177-.557Zm2.933,3.378a10.972,10.972,0,0,1,1.131.993,1.208,1.208,0,0,0-1.137.121,1.139,1.139,0,0,0-.036-1.132Zm1.1.533c-.157-.145-.314-.291-.478-.424a12.9,12.9,0,0,0-2.618-1.671,2.362,2.362,0,0,1,2.624-.163,1.684,1.684,0,0,1,.429,2.24Zm.109,2.107a1.212,1.212,0,0,0,.236-1.314,10.5,10.5,0,0,1,.822,1.023c.091.127.181.254.266.387a1.4,1.4,0,0,0-1.366-.115Zm-3.374-10.369a1.4,1.4,0,0,1,1.421-.127,1.368,1.368,0,0,1,.726,1.168,2.229,2.229,0,0,0-1.487.17,1.4,1.4,0,0,0-.7-1.229Zm2.213,1.4h.036l.151.073a1.393,1.393,0,0,1,.714,1.453.132.132,0,0,0,0,.048,1.867,1.867,0,0,0-1.433.23A2.179,2.179,0,0,0,408.1,379.7a1.945,1.945,0,0,1,1.639-.248Zm.411-.157a1.045,1.045,0,0,1,.955,0,1.1,1.1,0,0,1,.52.969,3.138,3.138,0,0,0-.647.406,1.731,1.731,0,0,0-.8-1.356Zm.732,2.185a1.5,1.5,0,0,1,.732,1.211,2.344,2.344,0,0,0-1.554.363,2.246,2.246,0,0,0-.865-1.4,1.516,1.516,0,0,1,1.645-.194Zm.115-.3-.079-.042a4.353,4.353,0,0,1,.895-.605c.042.424.073.847.091,1.277v.448a1.936,1.936,0,0,0-.949-1.1Zm-1.01-2.143a1.65,1.65,0,0,0-2.527-1.3,1.065,1.065,0,0,0-.109-.393l.55-.03a11.181,11.181,0,0,0,3.1-.563,18.814,18.814,0,0,1,.641,2.573,1.426,1.426,0,0,0-1.693-.3Zm-6.464,1.889h0a1.517,1.517,0,0,0-.526-.188,1.589,1.589,0,0,0-1.493.642,6.159,6.159,0,0,1,1.324-2.191C403.58,379.374,403.6,380.336,403.568,380.941Zm-.49.127a1.921,1.921,0,0,1,1.209,1.786,26.483,26.483,0,0,0-2.8-.745,1.439,1.439,0,0,1,1.59-1.047Zm-.847,1.489a1.482,1.482,0,0,0-.828.751c-.073.121-.193.363-.115.5H401.2a.066.066,0,0,0,.03-.061,1.678,1.678,0,0,0-.472-1.477A14.342,14.342,0,0,1,402.232,382.558Zm-1.9,1.1-.6-.079c-.03-.224.1-.666.363-.642s.242.466.266.72Zm-1.536-.176h-.6c.042-.351,0-.854-.423-.866s-.423.5-.351.835h-.5c-.036-.605.26-1.719,1.1-1.3.593.236.593.835.8,1.332Zm-.834-.036h-.381c0-.248,0-.757.272-.605s.151.387.151.605Zm-2.618-.817c-.441,0-.405.551-.387.866l-.363.03v-.054a.1.1,0,0,0,0-.042,1.79,1.79,0,0,0-.067-.321,1.211,1.211,0,0,1,.7-1.138.664.664,0,0,1,.188-.073h.218c.562.085.889,1,.955,1.5a.087.087,0,0,0,0,.036h-.6c-.036-.309-.266-.811-.617-.8Zm.417.817-.659.036c0-.23,0-.7.284-.636.127.03.218.224.266.327a1.51,1.51,0,0,1,.133.272Zm-1.784.085c-.091-.278-.212-.872-.6-.793s-.284.7-.151.962h0l-.363.067c-.1-.575-.109-1.35.526-1.622.472-.206.665.139.786.515.048.163.1.321.163.478a.662.662,0,0,0,.085.23.453.453,0,0,0,.03.1.084.084,0,0,0,.054.048h0l-.526.061a.085.085,0,0,0,.024-.042Zm-.641.109a1.212,1.212,0,0,1-.073-.418c0-.139.054-.357.236-.23s.145.454.3.605l-.472.067a.066.066,0,0,0,.03-.024Zm-1.747-.46c-.435.1-.381.605-.242.932l-.29.079c-.157-.478-.2-1.562.562-1.538.52,0,.853.714.974,1.168l-.314.067c.012-.357-.29-.793-.665-.708Zm.52.745c-.206.042-.411.1-.6.151-.03-.194-.157-.714.206-.684.266,0,.3.339.411.521.006.006.012.006.012.012Zm-1.409-.212a1.6,1.6,0,0,0-.919-.739c.429-.151.871-.285,1.312-.406a1.369,1.369,0,0,0-.345,1.144Zm1.633-1.955a1.522,1.522,0,1,1,3.023-.351.157.157,0,0,0,.3,0,1.815,1.815,0,0,1,1.161-1.3c.967-.3,1.016.86.955,1.5h0a22.252,22.252,0,0,0-5.442.357h0Zm3.168-.848a1.9,1.9,0,0,0-1.9-1.059.154.154,0,0,0,0-.042v-.03c.036-.769.8-1.132,1.53-1.144a1.815,1.815,0,0,1,1.506,1.211h0a2.105,2.105,0,0,0-1.107,1.065Zm-2.128-1.4a1.813,1.813,0,0,0-1.651-.563h0a1.96,1.96,0,0,1,1.209-1.3,1.324,1.324,0,0,1,1.578.787h0c-.568.182-1.07.527-1.113,1.078Zm-1.663-.242a1.463,1.463,0,0,1,1.572.654,1.882,1.882,0,0,0-1.173,1.253,1.65,1.65,0,0,0-1.681-.642,1.869,1.869,0,0,1,1.306-1.265Zm.314,2.573v.1h0a.1.1,0,0,0,0,.042v.036a20.1,20.1,0,0,0-2.491.708l-.29.109h0a1.672,1.672,0,0,1,.8-1.871,1.312,1.312,0,0,1,2,.878Zm.532,1.253a1.361,1.361,0,0,0-.78-.7c.375-.085.744-.163,1.119-.224a1.454,1.454,0,0,0-.333.92Zm1.814-.557a1.3,1.3,0,0,0-.308-.527c.248-.03.5-.054.75-.073a1.519,1.519,0,0,0-.435.6Zm1.784-.666h1.173a1.332,1.332,0,0,0-.562,1.132,2.422,2.422,0,0,0-.574-1.132Zm.883-2.137h-.121a1.345,1.345,0,0,1,.151-.823,2.063,2.063,0,0,1,.484-.515,4.848,4.848,0,0,1,.484,2.143A.925.925,0,0,0,397.031,379.731Zm-.411-.515a1.813,1.813,0,0,0-1.76-.872h-.091a1.954,1.954,0,0,1,1.62-1.429h.03a4.611,4.611,0,0,1,.992,1.211,1.332,1.332,0,0,0-.792,1.1Zm-2.044-1.211a1.626,1.626,0,0,0-1.651-.66h-.06a2.033,2.033,0,0,1,1.252-1.483.133.133,0,0,0,.073-.091,8.352,8.352,0,0,1,1.917.92,2.208,2.208,0,0,0-1.53,1.3Zm-1.959-.969a2.291,2.291,0,0,0-1.336-.648,2.791,2.791,0,0,0-.6,0,5.377,5.377,0,0,0,1.167-2.028,5.007,5.007,0,0,0,2.032,1.277,2.094,2.094,0,0,0-1.258,1.38Zm-1.034-.284a2.068,2.068,0,0,1,1,.708,2.275,2.275,0,0,0-1.076,1.211,1.813,1.813,0,0,0-2.273-.569c.06-.085.115-.17.181-.248.242-.321.514-.605.786-.944a.06.06,0,0,0,.054-.036c.181-.406,1.028-.236,1.33-.139Zm-.2,2.318a2.221,2.221,0,0,0-1.161,1.211c-.46-.484-1.209-.932-1.735-.448a4.058,4.058,0,0,1,.5-1.326h0a1.625,1.625,0,0,1,2.394.545Zm-1.965,4.195c.665-.188,1.125.533,1.421,1h0l-.5.157a.079.079,0,0,0,0-.079.43.43,0,0,0-.145-.2,2.089,2.089,0,0,0-.187-.218.4.4,0,0,0-.478-.091.545.545,0,0,0-.236.533c0,.121,0,.309.127.387l-.405.169-.036-.1c-.133-.533-.163-1.4.435-1.58Zm.871,1.211c-.23.079-.46.157-.683.248h0c-.175-.176-.03-.866.272-.605.115.085.212.327.411.321Zm.484.151a22.492,22.492,0,0,1,10.745-.43,14.707,14.707,0,0,1,8.465,4.716,16.014,16.014,0,0,1,3.737,8.19,18.246,18.246,0,0,1-1.584,10.043c-.187.412-.387.823-.6,1.211a.164.164,0,0,0-.042.085,14.784,14.784,0,0,1-6.167,6.477,20.58,20.58,0,0,1-9.36,1.961h-.091a7.934,7.934,0,0,1-1.209-.061.048.048,0,0,0-.066,0h-.417a.157.157,0,0,0-.091,0,19.833,19.833,0,0,1-2.388-.387.066.066,0,0,0-.048,0h-.06a.085.085,0,0,0-.054,0c-.6-.206-1.252-.339-1.868-.539a11.244,11.244,0,0,1-1.058-.412,3.92,3.92,0,0,1-.351-.188h0c-.133-.061-.26-.115-.387-.188a9.519,9.519,0,0,1-3.8-3.027,18.922,18.922,0,0,1-2.7-4.007,17.573,17.573,0,0,1-1.814-9.449,16.761,16.761,0,0,1,3.326-8.547,15.721,15.721,0,0,1,7.891-5.5Zm19.712,26.03a2.057,2.057,0,0,1,.254.2c.079.061.2.17.2.285s-.314.061-.405,0a.763.763,0,0,1-.254-.206c.073-.109.139-.212.206-.333Zm-1.6,2.173a2.048,2.048,0,0,0,1.161.333c-.26.272-.526.539-.8.793A1.248,1.248,0,0,0,408.883,412.831Zm-.98,1.5a1.142,1.142,0,0,0,.683.218l-.6.508a1.309,1.309,0,0,0-.067-.726Zm-.266-.533.188-.163.054-.042c.133.291.6.642.859.339a.418.418,0,0,0,0-.472.9.9,0,0,0-.212-.242,1.263,1.263,0,0,0-.133-.121l.194-.194a.963.963,0,0,1,.357,1.084c-.284.642-.943.151-1.27-.188Zm-1.149,1.538a1.383,1.383,0,0,0,.683.3c-.242.169-.484.327-.732.484a.951.951,0,0,0,.06-.787Zm-.236-.551h0l.26-.157c.206.218.556.466.792.266s.067-.539-.157-.69c.109-.073.212-.151.314-.23.266.351.526,1.15,0,1.374s-.907-.248-1.2-.563Zm-1.4,1.084a1.166,1.166,0,0,0,1.094.551c-.345.206-.7.4-1.064.605a1.212,1.212,0,0,0-.018-1.156Zm.913.327c-.447,0-.75-.4-1.016-.708l.351-.157c.121.266.478.66.756.418a.479.479,0,0,0-.1-.726l.284-.157a.164.164,0,0,0,0,.073c.254.412.52,1.277-.26,1.259Zm-2.286.7a1.076,1.076,0,0,0,.7.442h0q-.435.2-.871.363a1.1,1.1,0,0,0,.181-.805Zm-.181-.781a.1.1,0,0,0-.091-.061l.327-.109a.674.674,0,0,0,.6.654c.187,0,.23-.254.193-.406a.909.909,0,0,0-.266-.436l.375-.145c.218.387.641,1.211-.036,1.435s-.9-.5-1.094-.932Zm.363-.212.206-.073a2.168,2.168,0,0,1,.206.26c.048.079.157.327,0,.309s-.369-.291-.4-.5Zm1.56-.605.351-.163c.109.139.327.3.175.478s-.405-.169-.5-.339Zm1.373-.732c.121-.079.236-.151.351-.236a1.691,1.691,0,0,1,.187.176c.091.121.085.3-.121.278a.8.8,0,0,1-.405-.242Zm1.36-1.023.314-.291c.121.169.417.291.345.527s-.472-.151-.647-.26Zm.925-.884.326-.357a1.106,1.106,0,0,0,.345.194c.139.061.339.127.435-.036A.429.429,0,0,0,409.9,412a1.036,1.036,0,0,0-.218-.248l.242-.309.048.03c.333.266.647.823.4,1.211S409.3,412.867,408.883,412.661Zm.441-.49.212-.254a.941.941,0,0,1,.121.1c.042.054.206.26.163.333s-.333-.067-.526-.176Zm-6.82,4.383c.054.079.181.194.151.3s-.224.091-.3.03a.794.794,0,0,1-.206-.436.054.054,0,0,0-.054-.048l.3-.085a.606.606,0,0,0,.079.236Zm-1.814.823c-.284.248-.405-.375-.441-.569l.4-.073c.067.212.242.454.024.642Zm-1.173,1.574a1.373,1.373,0,1,1-2.709.048,24.976,24.976,0,0,0,2.751-.182.164.164,0,0,0-.06.133Zm-9.07-.569.284.055c.853.176,1.717.309,2.582.406v.048a1.476,1.476,0,0,1-1.657,1.259,1.58,1.58,0,0,1-1.209-1.755s-.006-.012-.012-.012Zm2.914,1.211a1.5,1.5,0,0,0,1.318,1.32,1.463,1.463,0,0,1-2.781-.454,1.814,1.814,0,0,0,1.451-.854Zm.224-.739.9.079c.665.042,1.324.061,1.989.055a1.888,1.888,0,0,1-1.493,1.61c-1.022.1-1.391-.817-1.385-1.683a.22.22,0,0,0-.024-.048Zm-.478,3.184h0a1.813,1.813,0,0,0,1.663-.726,1.476,1.476,0,0,0,1.209.962v.036a1.6,1.6,0,0,1-1.633,1.253,1.422,1.422,0,0,1-1.252-1.513Zm1.868-1.144a1.983,1.983,0,0,0,1.566-1.211,1.76,1.76,0,0,0,1.179,1.162,2.063,2.063,0,0,1-1.379,1.138,1.143,1.143,0,0,1-1.367-1.09Zm1.935-3.457c0,.091.03.254-.066.315-.218.145-.3-.46-.308-.569a.054.054,0,0,0-.1,0c-.1.26,0,.787.345.817a.357.357,0,0,0,.327-.23c.085-.188,0-.393.036-.605a.19.19,0,0,0,0-.061h.6c0,.533-.139,1.525-.907,1.386-.6-.115-.744-.835-.78-1.38h.889a1.176,1.176,0,0,0-.012.351Zm.949.424a1.21,1.21,0,0,0,.544.781c-.405.036-.816.061-1.209.073a1.1,1.1,0,0,0,.689-.848Zm1.01.605c-.732.085-.865-.854-.907-1.374a.378.378,0,0,0,0-.042h.278c-.115.224.169.66.363.732.435.163.6-.454.478-.817l.345-.048h0c.206.569.248,1.5-.532,1.586Zm-.508-1.453.478-.048c.03.242.085.648-.157.605a.4.4,0,0,1-.3-.521Zm-3.743.787a.423.423,0,0,0,.5-.127.812.812,0,0,0,.157-.605h.5c0,.527-.139,1.253-.786,1.277s-.865-.466-.919-.969c.048-.139.091-.278.127-.412h.2a.606.606,0,0,0,.242.9Zm-.067-.775c.163,0,.333.03.5.036a1.047,1.047,0,0,1-.042.363c-.054.157-.242.272-.381.127a.527.527,0,0,1-.054-.49Zm-1.512.732a.373.373,0,0,0,.339-.291,1.1,1.1,0,0,0,.054-.563l.484.061a1.461,1.461,0,0,0-.048.266,1.211,1.211,0,0,1-.7.914.6.6,0,0,1-.822-.418,1.89,1.89,0,0,1,.054-.987c.139.03.284.054.429.073-.1.321-.212.944.23.981Zm-.115-.926.3.048c0,.163,0,.69-.2.654s-.073-.478-.079-.666Zm-1.421-.272a1.177,1.177,0,0,1,0,.145.418.418,0,0,1-.248.345c-.169.067-.284-.079-.29-.236a1.176,1.176,0,0,1,.1-.387l.369.061a.109.109,0,0,0,.079.073Zm-1.887-.5c-.085.182-.073.563-.32.563-.157,0-.091-.266-.066-.363a.83.83,0,0,1,.139-.272l.139.042Zm-2.044-.793h0l.054-.067h.073a.121.121,0,0,1,.073.048l.151.109a2.223,2.223,0,0,1-.091.285c-.054.121-.163.309-.314.309s-.175-.176-.145-.3a.769.769,0,0,1,.121-.218h0v-.048h0l.036-.085h0Zm-6.506-.182a1.59,1.59,0,0,1-1.645-.714,1.569,1.569,0,0,1,.1-1.725,1.915,1.915,0,0,0,1.675.514,1.975,1.975,0,0,0-.133,1.925Zm-.121.3a1.684,1.684,0,0,0,.326,1.731,1.474,1.474,0,0,1-1.814-.375,1.691,1.691,0,0,1-.06-1.913,1.891,1.891,0,0,0,1.53.557Zm.308,0,.054.073A1.565,1.565,0,0,1,383.9,417a2.365,2.365,0,0,1-2.207.1,1.393,1.393,0,0,1-.46-1.713Zm.345-.085a1.63,1.63,0,0,1,.175-2.325,16.863,16.863,0,0,0,2.122,2.24,1.625,1.625,0,0,1-2.316.073Zm-.115-3.154a1.51,1.51,0,0,0,1.155-.272c-.29.472-.514,1.053-.121,1.459s.931.188,1.367-.1c-.278.472-.441,1.108-.036,1.483s.931.109,1.33-.224a2.581,2.581,0,0,0-.236,1.211,16.94,16.94,0,0,1-3.477-3.571Zm-.726-4.7c-.333,0-.78.387-.568.739s.6,0,.925,0c.048.109.109.218.163.327a.126.126,0,0,0-.091,0h0c-.417.309-1.306.605-1.427-.139-.091-.563.435-.944.841-1.211a.139.139,0,0,0,.048-.1c.048.121.1.242.157.369Zm.042.157.03-.036c.067.151.139.3.212.454-.181,0-.345.115-.526.127s-.218-.194-.115-.321.254-.145.381-.26Zm.544,1.077h0c.054.1.109.206.169.309a.9.9,0,0,0-.484.212.521.521,0,0,0-.218.514.314.314,0,0,0,.417.157c.206-.079.314-.285.5-.381a.079.079,0,0,0,.042-.048c.1.169.2.333.3.49a.109.109,0,0,0-.1.042,1.439,1.439,0,0,1-.707.418c-.254.067-.871.133-.925-.272a1.7,1.7,0,0,1,.6-1.144,1.323,1.323,0,0,0,.375-.309Zm.266.436.109.194h0a.417.417,0,0,0-.284.133c-.079.073-.206.26-.333.224s.091-.339.157-.387a.888.888,0,0,1,.333-.176Zm-.429,1.531a2.061,2.061,0,0,0,.333-.085,1.945,1.945,0,0,0-.429,1c-.169-.26-.333-.515-.49-.781l-.133-.194a1.656,1.656,0,0,0,.7.042Zm.5.151a4.9,4.9,0,0,1,.49-.672.214.214,0,0,0,0-.048l.218.333h0c-.181.133-.756.605-.405.841a.381.381,0,0,0,.393,0,.952.952,0,0,0,.193-.188l.169-.182c.1.139.2.272.3.412H383c-.26.212-1.572,1.077-1.681.3-.036-.248.212-.593.357-.805Zm.786-.3h0l.169.242c-.181.073-.236.339-.435.369h-.121c-.024,0,.06-.169.091-.218a2.831,2.831,0,0,1,.278-.406Zm.659,1.532c-.091.145-.206.369-.067.521a.393.393,0,0,0,.447.042.811.811,0,0,0,.308-.381c.133.145.26.291.4.436a.061.061,0,0,0-.03,0c-.308.321-1.306,1.029-1.584.327-.193-.484.32-1.144.6-1.519l.254.309a.508.508,0,0,0-.351.254Zm.429-.121c.042.048.079.1.121.139-.109.169-.193.424-.405.387s-.042-.212,0-.3a.436.436,0,0,1,.266-.242Zm.6,3.523q.526.436,1.088.835a14.7,14.7,0,0,0,1.348.835,1.488,1.488,0,0,1-2.419-1.671Zm1.119-.351a4.5,4.5,0,0,1,.345-.969.121.121,0,1,0-.194-.145c-.345.278-.883.956-1.367.575s0-1.265.272-1.622a.085.085,0,0,0,0-.073h0v-.03l.254.254c-.3.139-.647.539-.387.841s.707-.079.859-.393c.278.254.562.5.859.738a.883.883,0,0,0-.32.375.412.412,0,0,0,.066.539.417.417,0,0,0,.49-.036.672.672,0,0,0,.242-.527,4.8,4.8,0,0,0,.6.351h0a1.887,1.887,0,0,1-1.33,1c-.574.036-.508-.527-.417-.9Zm-.556-1.925.218.206a1.477,1.477,0,0,1-.193.272c-.079.079-.29.254-.369.1s.145-.472.32-.587Zm1.391,1.211a2.147,2.147,0,0,0,.187.139h0c-.127.127-.139.605-.435.5s.042-.484.224-.654Zm-5.823-8.16-.351.085c-.121,0-.29.079-.327-.091-.054-.266.3-.333.453-.448a.1.1,0,0,0,.036-.079,4.179,4.179,0,0,0,.163.515Zm-.992-7.869a.822.822,0,0,0-.472.1c-.127.048-.284.121-.308.272a.339.339,0,0,0,.193.321,3.209,3.209,0,0,0,.514.272v.236a.127.127,0,0,0-.085-.042c-.447-.048-1.064-.194-.949-.793a.961.961,0,0,1,1.155-.726,3.442,3.442,0,0,0-.091.357Zm.1,4.31h0a.689.689,0,0,1-.351,0c-.1,0-.357-.133-.194-.254a.949.949,0,0,1,.272-.133.756.756,0,0,0,.224-.054,1.5,1.5,0,0,0,.024.436Zm-.145-4.159q-.036.327-.054.654l-.194-.139c-.085-.055-.278-.133-.314-.23s.03-.115.1-.151l.2-.073A.658.658,0,0,0,379.255,398.5Zm-.06,2.264c-.181,0-.6,0-.508-.236s.326-.17.5-.236c.006.176.012.333.018.49Zm-.653-1.156a1.529,1.529,0,0,0-.556.363c0-.242,0-.478,0-.72a1,1,0,0,0,.562.375Zm.562.115a.193.193,0,0,0,.079-.03c0,.139,0,.278,0,.424a.6.6,0,0,0-.484.073.43.43,0,0,0-.23.363.4.4,0,0,0,.224.345.718.718,0,0,0,.514,0,3.389,3.389,0,0,0,.036.605h0a1.082,1.082,0,0,1-1.24-.642v-.387a1.167,1.167,0,0,1,1.106-.732Zm-.375,2.034a1.435,1.435,0,0,0-.671.805c-.036-.393-.06-.793-.073-1.211a1.385,1.385,0,0,0,.75.424Zm.169,1.877a1.973,1.973,0,0,0-.6.636c-.054-.345-.109-.7-.145-1.041a.907.907,0,0,0,.756.424Zm-.6-.878c.036-.46.441-.726.792-.975a1.01,1.01,0,0,0,.187-.03v.266a.78.78,0,0,0-.417.091c-.139.073-.345.194-.327.375.03.369.6.4.846.285a2.75,2.75,0,0,0,.109.605.109.109,0,0,0-.079,0c-.46.079-1.173.073-1.119-.6Zm2.05-11.5a2.283,2.283,0,0,1,1.348.054l-.091.157a.6.6,0,0,0-.8.091c-.181.3.115.551.357.66h0c-.079.139-.151.285-.224.43h0c-.466-.2-1.542-1.029-.593-1.38Zm-.194,1.211a1.656,1.656,0,0,0-.6,0q.1-.254.218-.508a1.453,1.453,0,0,0,.381.521Zm4.837-5.8a1.039,1.039,0,0,0-1.179-.206c.4-.357.81-.69,1.209-1a1.909,1.909,0,0,0-.06,1.223Zm.054.726-.314.278a1.64,1.64,0,0,1-.169-.248c-.03-.048-.109-.163-.066-.224s.115-.036.145-.036a.393.393,0,0,1,.272.1.354.354,0,0,0,.1.145Zm-.036-.357-.066-.03a.6.6,0,0,0-.466-.042c-.169.054-.272.176-.206.357a1.386,1.386,0,0,0,.32.478l-.3.284c-.363-.3-1-.835-.49-1.3.375-.357.865-.085,1.179.26Zm-1.3.89a1.916,1.916,0,0,0,.393.345l-.284.291a1.439,1.439,0,0,0-.49-.363.332.332,0,0,0-.411.067c-.266.291.03.648.327.739a.085.085,0,0,0,.066-.151.544.544,0,0,1-.254-.212c-.054-.1,0-.285.121-.266a.669.669,0,0,1,.284.176,1.059,1.059,0,0,0,.242.133c-.278.309-.55.605-.81.944a.15.15,0,0,0,0-.042c-.4-.412-.979-1.114-.4-1.634a.967.967,0,0,1,.871-.188,1.435,1.435,0,0,1,.314.176Zm-1.209,2.137c-.163-.266-.7-.369-.84-.03s.2.557.484.642c-.1.145-.2.3-.3.454l-.042-.042a1.386,1.386,0,0,1-.828-1.271v-.067c.091-.145.181-.285.278-.418.411-.163,1.137.242,1.451.472a.066.066,0,0,0,.042,0c-.187.242-.363.49-.538.745-.169-.079-.447-.2-.387-.418s.187-.145.3-.1.175.121.278.145a.091.091,0,0,0,.06-.1ZM381.486,389c.151-.206.308-.412.472-.605a1.411,1.411,0,0,0,.26.805,1.964,1.964,0,0,0-.774-.188Zm1.959-1.5-.157-.036a1.239,1.239,0,0,0-.538,0c.23-.248.472-.49.72-.72a.77.77,0,0,0-.067.769Zm-1.657.636a9.089,9.089,0,0,0-.726.962.55.55,0,0,0-.1.067h0a1.714,1.714,0,0,1-.55-1.126,1.387,1.387,0,0,1,.03-.95,1.718,1.718,0,0,1,.447-.508,2.55,2.55,0,0,1,1.475-.605,2.622,2.622,0,0,1,1.209.309,15.642,15.642,0,0,0-1.832,1.864Zm-.72,2.8a1.637,1.637,0,0,0-.877.073c.121-.224.242-.448.369-.666l.115-.188A1.629,1.629,0,0,0,381.069,390.942Zm.417.7-.26.466h0c-.127-.091-.4-.272-.236-.448s.333-.048.5-.018Zm4.305-5.823c-.29.272-.133.648.079.908-.175.127-.351.26-.514.393-.206-.605-.435-1.386.151-1.816.453-.339.992,0,1.36.412a1.725,1.725,0,0,0,.145.254l-.278.176c-.175-.315-.617-.623-.937-.327Zm.774.424c-.187.121-.375.254-.556.381-.121-.182-.236-.412-.1-.605s.49.061.659.224Zm1.155-1.362c.29-.091.381.254.526.412l-.568.3C387.575,385.391,387.405,384.973,387.72,384.876Zm.949-.605a1.209,1.209,0,0,0-1.088-.381q.653-.327,1.324-.605a1.527,1.527,0,0,0-.248,1Zm.1.605a.138.138,0,0,0,.042.121l-.4.188c-.06-.333-.484-.666-.81-.508s-.224.672-.06.956l-.3.17c-.327-.527-.538-1.259.157-1.592a1.046,1.046,0,0,1,1.354.69Zm-2.05.351a1.209,1.209,0,0,0-.834-.375c.351-.224.707-.442,1.076-.642a1.066,1.066,0,0,0-.254,1.041Zm-2.945.829a.067.067,0,0,0,0-.073,1.605,1.605,0,0,1,.472-2.288,1.449,1.449,0,0,1,1.173-.127,1.99,1.99,0,0,1,.871.69,17.594,17.594,0,0,0-2.527,1.822Zm-3.156-.1a2.568,2.568,0,0,0-1.747.521h0a1.533,1.533,0,0,1,0-1.368.605.605,0,0,1,.266-.375l.085-.085a2.066,2.066,0,0,1,1.76-.442,1.951,1.951,0,0,0-.375,1.774Zm.121.3a2.352,2.352,0,0,0-.23.2,1.46,1.46,0,0,0-.447,1.471,2.539,2.539,0,0,0,.411,1.09,2.108,2.108,0,0,0-2.02.321h0a2.185,2.185,0,0,1,2.273-3.057Zm-2.485,3.263h0a1.589,1.589,0,0,0-.175.224,1.757,1.757,0,0,0,.212,2.028,4.994,4.994,0,0,1-1.614-2.488,1.728,1.728,0,0,1,1.566.26Zm.054.424a1.764,1.764,0,0,1,2.358-.527h.079a.18.18,0,0,0,0,.061.5.5,0,0,0,0,.091,17.41,17.41,0,0,0-1.494,2.869h0l-.133-.067a.066.066,0,0,0,0-.042c-.665-.587-1.342-1.489-.822-2.361Zm1.082,2.833c.357-.291,1.022-.036,1.451.079-.218.454-.411.914-.6,1.386-.484-.079-1.046-.351-1.082-.866a4.066,4.066,0,0,0,.224-.575Zm.03,1.4a1.287,1.287,0,0,0-.562.163l.181-.605a1.277,1.277,0,0,0,.369.466Zm.435.218a1.811,1.811,0,0,0,.314.067c-.109.309-.212.605-.3.932a.066.066,0,0,0-.048,0c-.212.048-.5-.182-.363-.406a.315.315,0,0,1,.212-.139.847.847,0,0,1,.272.036c.06,0,.085-.073.066-.121-.066-.145-.29-.151-.423-.115a.49.49,0,0,0-.339.315.478.478,0,0,0,.6.605l-.145.539h-.036c-.387-.157-1.01-.466-1-.932a1.266,1.266,0,0,1,.067-.26l.03-.054a1.045,1.045,0,0,1,1.088-.442Zm-.846,1.6a1.812,1.812,0,0,0-.6.1c.036-.176.073-.357.115-.533a1.452,1.452,0,0,0,.478.454Zm.574.291h.042v.115c-.054.224-.1.46-.145.69a.067.067,0,0,0-.067-.042,1.164,1.164,0,0,1-.29,0,.187.187,0,0,1-.181-.188c.03-.212.357-.151.5-.176s.067-.133,0-.157c-.26-.109-.707,0-.7.351s.448.387.7.321h.03c-.03.163-.054.321-.079.484-.393-.054-.925-.145-1.125-.5.036-.254.079-.508.127-.757a1.867,1.867,0,0,1,1.179-.121Zm-.871,1.465a1.07,1.07,0,0,0-.6.406,5.287,5.287,0,0,1,.085-.684,1.451,1.451,0,0,0,.508.3Zm-.6-1.447a.751.751,0,0,0-.2.424.812.812,0,0,0,.048.442c-.03.212-.06.418-.085.605-.042.363-.079.726-.1,1.1a1.58,1.58,0,0,1-1.113-1.55,1.555,1.555,0,0,1,1.524-1.41Zm-2.485,4.395a1.949,1.949,0,0,0-1.288,1.628,1.742,1.742,0,0,1,.127-3.354A2.076,2.076,0,0,0,375.627,400.712Zm-.84-1.877c.1-.775.907-1.1,1.578-1.211a1.577,1.577,0,0,1-.3,2.99c-.683-.345-1.4-.908-1.288-1.78Zm1.252,2.082h0a1.888,1.888,0,0,0,1.288,1.6,2.682,2.682,0,0,0-1.1,1.556h-.054a1.658,1.658,0,0,1-1.566-1.5,1.64,1.64,0,0,1,1.421-1.659Zm.327-.169a1.591,1.591,0,0,1,1.391-1.5c0,.46-.036.926-.036,1.386v.151c0,.5.03,1.011.073,1.513h-.036a1.6,1.6,0,0,1-1.4-1.556Zm0-3.469v.036c-.544-.254-1.258-.654-.986-1.362h0a4.053,4.053,0,0,1,2.667-.266h0a1.875,1.875,0,0,0-1.693,1.6Zm-2.219,1.519a2.106,2.106,0,0,0-1.288,1.816v.079a3.377,3.377,0,0,1-.508-.605,1.551,1.551,0,0,1-.2-.866.085.085,0,0,0,0-.067c.381-.472.762-.944,1.149-1.4a1.761,1.761,0,0,0,.834,1.047Zm-1.566,2.022a2.633,2.633,0,0,0-.889,1.271,6.774,6.774,0,0,0-1.058-1.065l1.209-1.507a2.047,2.047,0,0,0,.726,1.3Zm3.628,3.529a1.818,1.818,0,0,0,.1.775,2.057,2.057,0,0,0,1.082,1.162,4.675,4.675,0,0,1-1.548-.163,4.394,4.394,0,0,1-1.1-.49c-.048-.781.828-1.084,1.457-1.283Zm.345.551a2.156,2.156,0,0,1,1.258-2.306,21.865,21.865,0,0,0,.6,3.535,1.705,1.705,0,0,1-1.874-1.229Zm2.914-1.271a.121.121,0,0,0,.073-.079c.066.333.145.66.224.987a.066.066,0,0,0-.048,0,.84.84,0,0,1-.544,0c-.127-.073-.187-.242-.048-.333s.429-.1.466-.327c0-.067-.054-.139-.115-.1-.23.169-.689.218-.647.605.048.466.6.436.925.321a.109.109,0,0,0,.042-.03,1.3,1.3,0,0,0,.085.327l-.073.042c-.375.218-1.209.363-1.36-.242s.629-1.029,1.01-1.174Zm-.193,1.816a2.161,2.161,0,0,0-.55.847c-.091-.357-.181-.708-.254-1.065a1.094,1.094,0,0,0,.786.212Zm-.339,1.017a2.348,2.348,0,0,1,.762-1.132,1.212,1.212,0,0,0,.236-.151h0c.042.145.085.291.133.43a.06.06,0,0,0-.066,0c-.339,0-.726.327-.6.7s.641.23.949.085c.079.206.157.412.242.605a.091.091,0,0,0-.1,0,1.909,1.909,0,0,1-.907.218.605.605,0,0,1-.659-.763Zm1.022,3.668a17.791,17.791,0,0,0,1.614,2.585,1.583,1.583,0,0,1-2.026-.515,1.648,1.648,0,0,1,.4-2.076Zm-.7,2.216h0c-.429.182-.992.333-1.294-.121h0a4.624,4.624,0,0,1,1.391-1.816A1.818,1.818,0,0,0,379.255,412.346Zm-.151.387a1.818,1.818,0,0,0,.03,1.816l.06.091h-.042a1.335,1.335,0,0,1-.871.3c-.351,0-.859-.157-.847-.605a8.1,8.1,0,0,1,.411-1.768,1.208,1.208,0,0,0,1.276.169Zm.236,4.352a1.812,1.812,0,0,0,1.76.412,2.139,2.139,0,0,0,.121,1.314,2.591,2.591,0,0,0,.393.636c-.574-.145-1.143-.309-1.723-.406l-.417-.067a1.431,1.431,0,0,1-.115-1.889Zm2.177,1.659a1.817,1.817,0,0,1-.054-1.423,2.468,2.468,0,0,0,2.316,0,1.981,1.981,0,0,0-.1,1.507,1.276,1.276,0,0,0,.774.757,3.884,3.884,0,0,1-1.85.079l-.266-.054a4.373,4.373,0,0,1-.405-.278,2.028,2.028,0,0,1-.4-.587Zm2.382-.194a1.909,1.909,0,0,1,.2-1.211,1.726,1.726,0,0,0,.266.248,1.873,1.873,0,0,0,2.419-.272.163.163,0,0,0,.042-.085l.127.067h0a7.491,7.491,0,0,1-1.645,1.816,2.68,2.68,0,0,1-.447.272,1.131,1.131,0,0,1-.943-.835Zm1.711-2.337a1.668,1.668,0,0,0,1.082-.515c-.169.551-.218,1.15.381,1.386a.81.81,0,1,1,1.433.563l-.853-.272h-.187a15.852,15.852,0,0,1-1.838-1.162Zm1.506.605c-.6-.315-.1-1.32.079-1.762l.308.127a.188.188,0,0,0-.036.079c-.327.182-.514.854-.042.981.351.1.689-.333.726-.7a4.529,4.529,0,0,0,.423.2.091.091,0,0,0-.048.048c-.2.484-.7,1.374-1.409,1.023Zm1.814-.944.3.1a.884.884,0,0,0-.193.4c-.036.169-.042.393.139.484a.417.417,0,0,0,.447-.1,1.066,1.066,0,0,0,.224-.605c.351.1.707.194,1.07.266-.206.291-.2.848.236.884a.532.532,0,0,0,.472-.254,1.036,1.036,0,0,0,.139-.412l.411.079c-.151.521-.417,1.314-1.094,1.211s-.719-.975-.6-1.507a.121.121,0,0,0-.23-.06c-.163.545-.484,1.423-1.209,1.265s-.369-1.308-.1-1.749Zm1.24,1.271a1,1,0,0,0,1.935.424c.03.46.224.878.774.92a1.1,1.1,0,0,0,1.058-.69,1.083,1.083,0,0,0,.974.848c.6.048.877-.351,1.016-.829a1.138,1.138,0,0,0,.841.932c-.744,0-1.487,0-2.231-.048a27.349,27.349,0,0,1-3.761-.5c-.46-.091-.919-.194-1.373-.309a1.41,1.41,0,0,0,.774-.751Zm1.342,3.287h.073c-.091.563-.429,1.677-1.209,1.211a5.357,5.357,0,0,1-.151-2.954,1.7,1.7,0,0,0,1.294,1.743Zm-.236,1.362a1.284,1.284,0,0,0,.484-.769,1.815,1.815,0,0,0,1.04.95h0c-.248.605-.859,1.731-1.669,1.283a9.419,9.419,0,0,1-.635-1.35.846.846,0,0,0,.786-.115Zm.853,1.647a1.816,1.816,0,0,0,.713-.817,1.773,1.773,0,0,0,1.082,1.162,1.888,1.888,0,0,1-.726.854,1.921,1.921,0,0,1-.5.212l-.193.048a2.092,2.092,0,0,0-.29.061c-.333-.466-.647-.944-.937-1.429a1.112,1.112,0,0,0,.859-.091Zm.955,1.562a2.039,2.039,0,0,0,.943-.787,2.152,2.152,0,0,0,1.717,1.12,11.053,11.053,0,0,0-2.141,1.592c-.387-.605-.816-1.156-1.209-1.749a2.012,2.012,0,0,0,.7-.176Zm1.856-.26a1.477,1.477,0,0,1-.732-.884h0a1.85,1.85,0,0,0,1.893-1.077,1.958,1.958,0,0,0,2.195.944h0a8.463,8.463,0,0,1-2.1,1.344h-.03a6.22,6.22,0,0,1-1.191-.327Zm1.318-2.421h0a2.182,2.182,0,0,0,1.6-1.041,1.4,1.4,0,0,0,1.512.956,5.519,5.519,0,0,1-.6,1.011l-.121.061a1.153,1.153,0,0,0-.194.1.1.1,0,0,0-.073,0,1.644,1.644,0,0,1-2.11-1.084Zm1.814-1.423h.067a1.736,1.736,0,0,0,1.614-1.368,5.163,5.163,0,0,1-.29,2.367.151.151,0,0,0-.1,0,1.064,1.064,0,0,1-1.264-1Zm1.276-2.324a1.12,1.12,0,0,0,.423-.878,1.252,1.252,0,0,0,.792.714c-.375.061-.75.121-1.191.163Zm.351-1.683.381-.061c0,.321.163.938.6.763s.345-.605.151-.908l.6-.133c-.091.508.212,1.5-.484,1.64-.774.157-1.046-.738-1.233-1.3Zm5.78.115a.17.17,0,0,0,0,.054,1.859,1.859,0,0,1-.877,2.252,1.27,1.27,0,0,1-1.814-1.132,17.523,17.523,0,0,0,2.715-1.174Zm.369.309a2.5,2.5,0,0,0,2.207.182h0a1.621,1.621,0,0,1-2.594,1.5,2.423,2.423,0,0,0,.4-1.683Zm3.023-1.5a1.812,1.812,0,0,0,1.554-.151,1.361,1.361,0,0,1-2.1,1.725.06.06,0,0,0-.03,0h0a1.417,1.417,0,0,0,.587-1.574Zm1.651,2.385a2.253,2.253,0,0,0,1.457.3,2.3,2.3,0,0,0,.6-.182,1.814,1.814,0,0,1-2.866,1.628l.151-.067a1.538,1.538,0,0,0,.671-1.683Zm-2.122-.333a1.758,1.758,0,0,0,1.814.127c.109.648.151,1.441-.6,1.707a2.066,2.066,0,0,1-1.856-.521A1.865,1.865,0,0,0,408.4,417.867Zm-3.864,1.816a1.813,1.813,0,0,0,.75-.436c.308.726.6,1.786-.145,2.324a8.435,8.435,0,0,1-1.953-2.137,1.655,1.655,0,0,0,1.348.248Zm1.155-.2a1.909,1.909,0,0,0,1.814-.139,2.745,2.745,0,0,1,0,2.088,1.209,1.209,0,0,1-.768.636c-.212.061-.478,0-.677.1a7.747,7.747,0,0,1-.744-.472c.738-.478.635-1.441.375-2.222Zm1.155,2.809a1.355,1.355,0,0,0,.816-.605,2.672,2.672,0,0,0,.26-2.058,2.265,2.265,0,0,0,1.566.393.145.145,0,0,0,.03.121,1.581,1.581,0,0,1-.212,2.028,2.417,2.417,0,0,1-1.814.605,7.807,7.807,0,0,1-1.094-.442,2.11,2.11,0,0,0,.447-.055Zm2.763,0a1.932,1.932,0,0,0,.4-1.816,2.111,2.111,0,0,0,2.927-2.306,1.272,1.272,0,0,0,.121-.133h0c.079,1.816-.871,3.517-1,5.327a16.861,16.861,0,0,0-3.023-.236,6.551,6.551,0,0,1-.841-.133,2.175,2.175,0,0,0,1.415-.72Zm3.283-4.728c0,.527-.834.666-1.209.66a1.994,1.994,0,0,1-1.209-.418,1.726,1.726,0,0,0,.472-1.846,1.812,1.812,0,0,0,1.669.121,7.693,7.693,0,0,1,.381,1.344.163.163,0,0,0-.1.121Zm-2.195-2.119.066-.067a1.818,1.818,0,0,0,.091-2.246,5.236,5.236,0,0,1,1.385,2.028c.091.194.169.393.254.605A2.048,2.048,0,0,1,410.7,415.446Zm-.157-.291a1.486,1.486,0,0,1-1.965.133c-.151-.121-.363.073-.218.218a1.078,1.078,0,0,1-.514,1.731,2.416,2.416,0,0,1-2.116-.369h0a19.231,19.231,0,0,0,4.734-3.735.248.248,0,0,0,.03.054,1.49,1.49,0,0,1,.054,1.986Zm-.048-3.39a1.135,1.135,0,0,0,.683.085c-.175.224-.363.448-.55.66a1.212,1.212,0,0,0-.127-.7Zm-.417-.5-.042-.036c.054-.067.109-.139.157-.212a.877.877,0,0,0,.405.3c.157.061.381.1.5-.054.218-.3-.212-.654-.484-.829l.224-.339c.357.284.853.732.6,1.211-.272.63-.943.26-1.342-.024Zm1.3-.993a.961.961,0,0,0,1.143-.345c.29-.484,0-.938-.387-1.265a1.118,1.118,0,0,0,1.209-.206,19.373,19.373,0,0,1-1.59,2.633,1.3,1.3,0,0,0-.369-.8Zm2.7-2.651a.139.139,0,0,0,.036.133,1.818,1.818,0,0,1,.369,2.107,1.862,1.862,0,0,1-1.862.914l-.151-.121h-.042a19.7,19.7,0,0,0,1.657-3.015ZM414.73,410a2.066,2.066,0,0,0-.133-2.149,1.9,1.9,0,0,0,1.675-.926,1.465,1.465,0,0,1-1.209,2.53c-.194,0-.194.248-.042.309a1.338,1.338,0,0,1,.6,1.816.149.149,0,0,0,0,.042,4.229,4.229,0,0,1-2.715-.654,2.007,2.007,0,0,0,1.826-.975Zm4.71-1.665a2.135,2.135,0,0,0,1.735-1.374,1.046,1.046,0,0,0,.066-.224,1,1,0,0,0,.067.23,14.879,14.879,0,0,0,.949,2.47,19.332,19.332,0,0,0-2.775,1.011,1.636,1.636,0,0,0-.036-2.094Zm.478-3.475a1.457,1.457,0,0,1-1.542,1.144.164.164,0,0,0-.079.3,1.26,1.26,0,0,1,.435,1.634,1.65,1.65,0,0,1-1.711.787.115.115,0,0,0-.079,0,1.818,1.818,0,0,0-.145-1.671,1.427,1.427,0,0,0,1.4-1.041,2.2,2.2,0,0,0-.6-2.088,1.59,1.59,0,0,0,1.372-.666,1.489,1.489,0,0,1,.961,1.616Zm-2.8-1.356a.139.139,0,0,0-.1,0,1.878,1.878,0,0,0-.6-1.683,10.158,10.158,0,0,1,2.358,1.12,1.275,1.275,0,0,1-1.651.581Zm-.393-.254a1.209,1.209,0,0,1-1.463,1.114.169.169,0,0,0-.109,0,20.192,20.192,0,0,0,.447-2.748,1.816,1.816,0,0,1,1.143,1.653Zm-1.518-8.148a21.16,21.16,0,0,0-.7-2.53.139.139,0,0,0,.133,0,1.3,1.3,0,1,1,.714,2.494.157.157,0,0,0,.042.3,1.5,1.5,0,0,1,.411,2.96.133.133,0,0,0-.115.133h0a22.661,22.661,0,0,0-.478-3.341Zm-1.324-15.339a.254.254,0,0,1,.151-.309c.054-.176.163-.23.314-.176a.908.908,0,0,1,.5.642,4.829,4.829,0,0,0-.98,0,.723.723,0,0,0,.018-.139Zm4.88,2.464a6.556,6.556,0,0,1,1.457,2.421,7.046,7.046,0,0,1,.327,1.368c.048.418,0,.835.048,1.247a11.983,11.983,0,0,0-1.5-.478,11.559,11.559,0,0,0-3.253-.315,2.787,2.787,0,0,0,1.106-.654,2.078,2.078,0,0,0,.423-2.385,1.414,1.414,0,0,0-2.074-.605,3.807,3.807,0,0,0-1.439,1.719,9.382,9.382,0,0,0,.23-2.234q0-.227,0-.454a3.559,3.559,0,0,1,3.682,1.332,6.008,6.008,0,0,1,1.058,1.695,7,7,0,0,1,.3.914,8.036,8.036,0,0,0,.175.938c.042.115.242.145.266,0a4.1,4.1,0,0,0-.472-2.07,6.333,6.333,0,0,0-1.209-1.846c-.949-.993-2.461-1.786-3.809-1.156a13.544,13.544,0,0,0-.218-1.544,7.505,7.505,0,0,1,4.91,2.125Zm-3.7-2.282c.067-.278.327-.533.641-.363a.491.491,0,0,1,.206.539,5.84,5.84,0,0,0-.84-.157Zm1.125.26a.423.423,0,1,1,.78.315,7.264,7.264,0,0,0-.774-.3Zm1.01.43c.26-.206.7-.436.919-.061a.824.824,0,0,1-.042.605,8.151,8.151,0,0,0-.871-.527Zm3.858,4.843a1.816,1.816,0,0,1-.248.055h0c-.042-.212-.091-.424-.145-.605a.357.357,0,0,0,.236-.151.477.477,0,0,1,.254.073.212.212,0,0,1,.151.315c.06.194-.024.309-.242.339Zm.248.708a.351.351,0,0,1-.169.285.565.565,0,0,0-.175,0h0a4.863,4.863,0,0,0-.073-.605v-.121a.393.393,0,0,1,.423.466Zm.181.835a.376.376,0,0,1-.121.339.393.393,0,0,1-.272.085l-.218-.1a2.187,2.187,0,0,0,.073-.605.519.519,0,0,0,.3-.055.5.5,0,0,1,.248.357Zm-.7-2.8a.606.606,0,0,1-.193.46l-.091-.272a6.216,6.216,0,0,0-.248-.605c.175-.054.387-.127.514.115a.714.714,0,0,1,.024.327Zm-.647-.605a8.02,8.02,0,0,0-.405-.7h0a.6.6,0,0,0,.121-.067,1.01,1.01,0,0,1,.175,0c.472.1.339.5.115.763Zm-.508-.9h0a5.5,5.5,0,0,0-.532-.648.489.489,0,0,1,.732.061.406.406,0,0,1-.193.587Zm-.726-.805a6.865,6.865,0,0,0-.6-.551c.181-.157.466-.363.683-.163s.067.49-.073.714Zm-3.948,1.489c.7-.66,1.85-.817,2.213.26a1.817,1.817,0,0,1-.508,2.022,2.659,2.659,0,0,1-1.814.642,4.671,4.671,0,0,0,.55-.345c.568-.4,1.512-1.211,1.137-2.034a.768.768,0,0,0-.865-.4,2.291,2.291,0,0,0-1.125.757,9.8,9.8,0,0,0-.8.866,5.782,5.782,0,0,1,1.215-1.768Zm-.72,1.6a9.815,9.815,0,0,1,.84-.823,1.372,1.372,0,0,1,.72-.381.52.52,0,0,1,.55.642c-.133.7-.986,1.277-1.566,1.6a12.791,12.791,0,0,1-1.9.757,12.545,12.545,0,0,1,1.36-1.792Zm.435,1.586a2.918,2.918,0,0,0-.55.1c.127-.048.248-.109.375-.163a.1.1,0,0,0,.079.054ZM413.9,377.6a5.637,5.637,0,0,1,1.01.079,7.912,7.912,0,0,1,1.4.369,8.832,8.832,0,0,1,2.685,1.532,10.679,10.679,0,0,1,3.4,5.339,14.732,14.732,0,0,1,.381,1.762c.091.605.054,1.265.175,1.87-.151-.109-.3-.218-.453-.315a11.227,11.227,0,0,0-1.052-.605.715.715,0,0,0,.29-.466.605.605,0,0,0-.339-.605.679.679,0,0,0-.145-.944c.242-.121.435-.315.333-.605a.647.647,0,0,0-.6-.4,1.3,1.3,0,0,0,.054-.605.478.478,0,0,0-.556-.466.684.684,0,0,0,.085-.605.472.472,0,0,0-.23-.266,1.516,1.516,0,0,0-.3-.036.641.641,0,0,0-.786-.92.55.55,0,0,0-.919-.605c.085-.327.127-.666-.206-.872a.8.8,0,0,0-.883.067.584.584,0,0,0-1.125-.254.715.715,0,0,0,0-.339.69.69,0,0,0-.453-.406.635.635,0,0,0-.7.345c-.145-.3-.339-.605-.713-.605s-.484.266-.5.569c-.151-.684-.339-1.362-.538-2.034a2.1,2.1,0,0,0,.7.024Zm-1.705-2.337c.6,2.246,1.518,4.48,1.614,6.828A6.936,6.936,0,0,1,412,387.376l-.06.03a.073.073,0,0,0-.042.073h0c-.181-.236-.369-.46-.568-.678h0a9.6,9.6,0,0,0,.943-4.843,15.4,15.4,0,0,0-.109-1.58h0a1,1,0,0,0,0-.139.473.473,0,0,1,0-.157,19.451,19.451,0,0,0-.834-3.6.163.163,0,0,0-.206-.115,12.649,12.649,0,0,1-3.706.648,7.557,7.557,0,0,0-3.023.7,5.962,5.962,0,0,0-3.2,4.286s0,0,0,.036c-.333-.067-.659-.121-.992-.176h-.218a3.331,3.331,0,0,0,.175-.714,8.356,8.356,0,0,1,1.354-2.536,7.323,7.323,0,0,1,3.023-2.173l.339-.127a.169.169,0,0,0,.073,0c2.3-.811,4.843-.678,7.262-1.041Zm-12.921,2.476a9.686,9.686,0,0,0-1.614-2.034l-.145-.133h.042a4.738,4.738,0,0,1,3.749-1.489,4.407,4.407,0,0,1,3.283,2.016,7.86,7.86,0,0,0-2.872,1.816,2.969,2.969,0,0,0,.538-1.544c0-.745-.272-1.592-1.125-1.628a1.893,1.893,0,0,0-1.814,1.247,2.9,2.9,0,0,0-.036,1.749Zm-2.691-3.868a2.008,2.008,0,0,0-.441.527c-.181-.133-.393-.351-.139-.533a.833.833,0,0,1,.586.006Zm.375-.884a.713.713,0,0,1,.6.151q-.254.163-.49.345l-.3.236h0c-.357-.266-.115-.648.193-.733Zm-.653,1.562c.127-.1.242-.23.363-.339a7.593,7.593,0,0,1,.641-.527,6.906,6.906,0,0,1,1.209-.69,6.167,6.167,0,0,1,3.023-.49,2.872,2.872,0,0,1,.556.085.1.1,0,0,0,.091,0,6.044,6.044,0,0,1,2.092.89,5.968,5.968,0,0,1,1.119.944c.333.357.556.805.883,1.156-.236.042-.46.091-.689.145s-.478.127-.707.206a4.776,4.776,0,0,0-3.549-2.228,4.466,4.466,0,0,0-3.96,1.7v.03a8.16,8.16,0,0,0-1.137-.848.079.079,0,0,0,.073-.036Zm2.328-2.034a.085.085,0,0,0,.073.048l-.242.1a6.657,6.657,0,0,0-.72.357l-.066-.048a.532.532,0,1,1,.961-.454Zm.175-.1a.485.485,0,0,1,.1-.448.429.429,0,0,1,.5-.067.744.744,0,0,1,.339.369,7.179,7.179,0,0,0-.955.266.1.1,0,0,0,.03-.121Zm1.778-.775a.8.8,0,0,1,.5.484h0a6.319,6.319,0,0,0-1.07.073.46.46,0,0,1,.574-.557Zm.659.508a.1.1,0,0,0,.042-.079c.03-.605.81-.424.828.085a.476.476,0,0,1,0,.1c-.157-.03-.32-.054-.484-.073Zm1.155.163h0a.562.562,0,0,1,1.046.357,6.5,6.5,0,0,0-1.04-.357Zm1.294.46a.6.6,0,0,1,.7-.139.442.442,0,0,1,.139.605h0a6.966,6.966,0,0,0-.834-.466Zm1.766,1.023a.49.49,0,0,1,.713.333.533.533,0,0,1-.175.454l-.333-.369a6.86,6.86,0,0,0-.943-.829.437.437,0,0,0,.067-.115.454.454,0,0,1,.157-.115l.284-.036c.278.133.314.291.115.484a.115.115,0,0,0,.121.194Zm1.082,1.671a2.374,2.374,0,0,0-.393-.7.268.268,0,0,0,.066-.055.659.659,0,0,1,.738.278c.139.291-.224.412-.411.551a.171.171,0,0,0,.006-.048Zm-7.081.956a1.7,1.7,0,0,1,1.494-1.41c.925-.079,1.113.938.986,1.653a2.985,2.985,0,0,1-.641,1.344c.048-.121.091-.236.133-.357.139-.418.508-1.979-.32-1.949-.732,0-1.209.926-1.3,1.531a5.972,5.972,0,0,0-.115,1.211,3.945,3.945,0,0,1-.23-2.022Zm1.4,1.9c-.248.563-.52,1.126-.75,1.707a4.117,4.117,0,0,0-.133-.66,13.92,13.92,0,0,1,0-1.507,3.089,3.089,0,0,1,.23-1.071c.115-.26.387-.7.683-.757,1-.206.127,1.943-.024,2.288Zm.333.176-.254.333c.042-.085.079-.176.121-.26a.121.121,0,0,0,.085-.03Zm-1.324-7.99A8.229,8.229,0,0,1,406,372.418a8.509,8.509,0,0,1,2.231,2.918h0c-.4.036-.792.079-1.209.133a.485.485,0,0,0,.133-.563.816.816,0,0,0-.822-.412.745.745,0,0,0,0-.605.707.707,0,0,0-.677-.381.448.448,0,0,0-.181-.508.55.55,0,0,0-.653,0,.654.654,0,0,0-.23-.521.773.773,0,0,0-.937,0,.719.719,0,0,0-1.33-.333.763.763,0,0,0-.067-.309.678.678,0,0,0-.381-.381.6.6,0,0,0-.75.321.786.786,0,0,0-.853-.339.605.605,0,0,0-.423.569.774.774,0,0,0-.828-.387.605.605,0,0,0-.453.508.707.707,0,0,0-.774-.061.678.678,0,0,0-.3.781.791.791,0,0,0-.925.067.606.606,0,0,0-.151.69c-.284-.036-.641,0-.768.2s.042.406.218.563a7.74,7.74,0,0,0-.871-.43c-.284-.121-.6-.224-.889-.333a8.916,8.916,0,0,1,5.768-3.1Zm-8.175,1.816a3.978,3.978,0,0,0,2.28,1.544,9.591,9.591,0,0,1,3.066,1.653,8.648,8.648,0,0,1,2.038,2.5,4.652,4.652,0,0,1,.6,3.723.189.189,0,0,0,0,.048c-.49-.067-.986-.115-1.475-.151a.17.17,0,0,0,.03-.067,5.01,5.01,0,0,0-1.312-4.625,6.165,6.165,0,0,0-2.346-1.374,5.333,5.333,0,0,1-2.7-1.677c-.073-.1-.272-.115-.3.036-.284,1.749-1.886,2.815-2.787,4.237a4.023,4.023,0,0,0,.248,4.764c-.472.188-.931.387-1.385.605a.212.212,0,0,0,0-.079c-.067-.121-.133-.236-.206-.345a7.089,7.089,0,0,1,.6-6.09c1-1.707,2.54-3.033,3.646-4.7Zm-7.123,6.592a.713.713,0,0,1,1.137-.375,2.041,2.041,0,0,1,.641,1.211c.212.848.29,1.725.5,2.573a.1.1,0,0,0,.085.079.631.631,0,0,0,.06.2h0a4.918,4.918,0,0,0-1.076-.854,5.578,5.578,0,0,1-.478-.448C384.9,380.687,384.279,379.731,384.576,378.914Zm.169,1.913c-.949-.708-1.53-2.058-.6-3.027a1.208,1.208,0,0,1,1.856.042,2.5,2.5,0,0,1,.568,1.58,3.276,3.276,0,0,0-.151-.406c-.339-.739-1.209-1.344-1.893-.605S384.3,380.16,384.745,380.826Zm2.092-1.5a2.586,2.586,0,0,0-.81-1.816,1.45,1.45,0,0,0-1.983.036,1.963,1.963,0,0,0-.532,2.04A2.947,2.947,0,0,0,385,381.159l.127.157A7.491,7.491,0,0,0,383,380.8a13.445,13.445,0,0,0-3.023.121,4.847,4.847,0,0,1,.846-3.148,7.338,7.338,0,0,1,2.074-2.113,6.967,6.967,0,0,1,2.963-1.1,7.412,7.412,0,0,1,1.554-.03,16.888,16.888,0,0,1,1.729.363.163.163,0,0,0,.187-.121h0a16.84,16.84,0,0,0-1.264,1.6h0a5.044,5.044,0,0,0-4.354.7,4.4,4.4,0,0,0-2.1,3.5.121.121,0,0,0,.236,0,4.432,4.432,0,0,1,2.122-3.287,5.041,5.041,0,0,1,1.814-.708,6.04,6.04,0,0,1,2.141.079c-.133.2-.254.412-.369.605A7.137,7.137,0,0,0,386.837,379.325Zm-7.08,1.489c-.29.042-.726.054-.665-.375.036-.26.375-.351.6-.418A2.315,2.315,0,0,0,379.757,380.814Zm-.06-.987c-.357-.2-.762-.605-.254-.932a1.607,1.607,0,0,1,.562-.2,4.137,4.137,0,0,0-.308,1.132Zm.919-2.488a.466.466,0,0,1,0-.751.755.755,0,0,1,.75,0,7.265,7.265,0,0,0-.865,1.156,6.659,6.659,0,0,0-.375.684.412.412,0,0,1-.326-.684.677.677,0,0,1,.714-.206C380.6,377.527,380.7,377.412,380.615,377.34Zm1.058-1.846a.87.87,0,0,1,.713.169,7.208,7.208,0,0,0-.883.781h0C381.353,376.1,381.2,375.633,381.673,375.493Zm1.046-.648a.6.6,0,0,1,.6.218,7.409,7.409,0,0,0-.659.406l-.091.067h0a.381.381,0,0,1,.145-.708Zm1.125-.769c.387-.157.647.109.859.387h.03a7.524,7.524,0,0,0-1.131.436c-.06-.291-.073-.708.242-.841Zm1.058.272a.43.43,0,0,1,.091-.43.417.417,0,0,1,.514-.03.774.774,0,0,1,.308.375h-.06a8.062,8.062,0,0,0-.847.169.163.163,0,0,0-.006-.1Zm1.125-.151a.514.514,0,0,1,.562-.521.7.7,0,0,1,.55.527,8.37,8.37,0,0,0-1.1.036.085.085,0,0,0-.012-.061Zm1.354,0a.4.4,0,1,1,.8,0,.214.214,0,0,0,0,.067h0l-.6-.073Zm1.028-.091a.689.689,0,0,1,.744-.278.5.5,0,0,1,.363.369.605.605,0,0,1-.163.478h0a.163.163,0,0,0-.066-.061,3.246,3.246,0,0,0-.877-.291.734.734,0,0,0,0-.212Zm-8.278.975a9.093,9.093,0,0,1,8.362-2.494,13.456,13.456,0,0,1,2.1.714h.036c-.278.339-.568.678-.865,1.017a.823.823,0,0,0-.429-.678.834.834,0,0,0-.986.26.6.6,0,0,0-1.107-.042.8.8,0,0,0-.859-.412.684.684,0,0,0-.472.472.78.78,0,0,0-.8-.363.605.605,0,0,0-.453.484.719.719,0,0,0-.877-.212.812.812,0,0,0-.363.993.749.749,0,0,0-.961-.133.606.606,0,0,0-.26.605.8.8,0,0,0-.84.115.606.606,0,0,0-.042.9.81.81,0,0,0-.98.248.655.655,0,0,0,0,.714.756.756,0,0,0-.8.605.521.521,0,0,0,.4.605,1.131,1.131,0,0,0-.9.605c-.121.357.151.605.429.805-.3.121-.6.327-.538.7s.55.448.9.357h0l-.447.061-1.524.236a8.807,8.807,0,0,1,2.28-6.156Zm-4.559,6.465a6.082,6.082,0,0,0,2.836-.1,23.026,23.026,0,0,1,3.809-.387,5.808,5.808,0,0,1,5.17,2.555.163.163,0,0,0,.042.048c-.254.121-.5.254-.744.393a.048.048,0,0,0,0-.03,3.593,3.593,0,0,0-1.7-1.525,5.375,5.375,0,0,0-2.316-.527,8.131,8.131,0,0,0-2.763.515c-.889.321-1.941,1-2.9.605a.151.151,0,0,0-.218.169,10.617,10.617,0,0,1-.514,3.148,7.12,7.12,0,0,0,.054,2.724,4.769,4.769,0,0,0,2.842,3.517h0v.048a.9.9,0,0,0-.206.5.47.47,0,0,0,0,.091c-.079.23-.157.466-.23.7-.248-.176-.49-.351-.72-.527a.11.11,0,0,0,0-.061,5,5,0,0,0-1.173-1.047,5.629,5.629,0,0,1-.363-.466,7,7,0,0,1-1.209-2.948C374.859,386.456,375.839,384.017,375.572,381.547Zm-3.483,5.823c-.115-.291-.206-.708.2-.829a.534.534,0,0,1,.6.3,6.951,6.951,0,0,0-.846.605.079.079,0,0,0,.042-.079Zm-.066.127a7.31,7.31,0,0,0-.895.89.921.921,0,0,1,0-.757.538.538,0,0,1,.816-.145.084.084,0,0,0,.054.012Zm-.98.993a7.44,7.44,0,0,0-.49.66c-.054.085-.1.17-.151.254a.127.127,0,0,0-.048-.109.521.521,0,0,1-.042-.829.664.664,0,0,1,.671,0,.072.072,0,0,0,.048,0Zm-.738,1a.1.1,0,0,0,.054,0,7.16,7.16,0,0,0-.52,1.114.545.545,0,0,1-.3-.72A.743.743,0,0,1,370.306,389.489Zm-.538,1.32a7.01,7.01,0,0,0-.248.993c-.242-.085-.453-.224-.447-.515C369.072,390.893,369.441,390.833,369.768,390.808Zm-.357,2.536a7.716,7.716,0,0,0,.1.981c-.345,0-1.01-.163-.6-.678A1.343,1.343,0,0,1,369.411,393.345Zm-.079-.169a.569.569,0,0,1-.429-.769.683.683,0,0,1,.6-.375,6.823,6.823,0,0,0-.073,1.108Zm.218,1.374a.938.938,0,0,0,.048.218,6.911,6.911,0,0,0,.2.714h-.042c-.339.1-.75-.109-.647-.508a.665.665,0,0,1,.472-.424Zm.3,1.084a6.053,6.053,0,0,0,.4.908h-.067c-.23.042-.78.139-.84-.242S369.58,395.766,369.852,395.633Zm.447,1.065h0a5.642,5.642,0,0,0,.574.848c-.193.1-.472.254-.671.163l-.266-.363.079-.278a1.817,1.817,0,0,1,.284-.387Zm-.187-6.011a7.211,7.211,0,0,1,4.837-4.4c-.048.466-.091.932-.1,1.4a.151.151,0,0,0-.1,0,6.05,6.05,0,0,0-3.495,3.5,5.714,5.714,0,0,0,.532,5.115c-.248.363-.478.738-.7,1.12A7.483,7.483,0,0,1,370.112,390.687Zm3.126-4.092a.436.436,0,0,1,.127-.7.489.489,0,0,1,.6.236.231.231,0,0,0,.048.1v.03a7.67,7.67,0,0,0-.81.387A.048.048,0,0,0,373.239,386.6Zm.986-.466v-.048a.387.387,0,0,1,.29-.545c.29-.036.441.176.5.43a5.746,5.746,0,0,0-.756.236.1.1,0,0,0-.03-.073Zm-2.667,5.194a5.711,5.711,0,0,1,3.3-3.323h0a7.332,7.332,0,0,0,.163,1.417,7.143,7.143,0,0,0,.7,1.895,3.627,3.627,0,0,0-2.062-1.168,1.9,1.9,0,0,0-2.068,1.211,1.817,1.817,0,0,0,.847,2.2,3.02,3.02,0,0,0,1.518.272q.744,0,1.487-.055a5.179,5.179,0,0,0-2.207.987,6.776,6.776,0,0,0-1.233,1.32A6.005,6.005,0,0,1,371.558,391.323Zm3.023,2.155.435.079a9.057,9.057,0,0,1-1.947-.085,1.6,1.6,0,0,1-1.27-1.919,1.656,1.656,0,0,1,2.086-1.126,3.683,3.683,0,0,1,1.723,1.211c-.23-.121-.466-.242-.7-.345-.768-.339-2.165-.666-2.5.442-.363,1.217,1.36,1.574,2.183,1.743Zm.284-.218a8.4,8.4,0,0,1-1.385-.339c-.532-.206-1.161-.847-.641-1.41.707-.763,2.013,0,2.721.387a9.936,9.936,0,0,1,1.016.648,6.953,6.953,0,0,0,1.246,1.174,5.52,5.52,0,0,0-.72-.085l-.768-.115c-.484-.073-.973-.163-1.457-.26Zm-6.6,3.027a11.237,11.237,0,0,1-.52-4.032,8.2,8.2,0,0,1,3.568-6.538,16.039,16.039,0,0,1,3.948-1.683c-.06.515-.133,1.029-.206,1.544a.641.641,0,0,0-.72-.248.774.774,0,0,1-1.125.454.563.563,0,0,0,0,.9h0l-.1.054a.755.755,0,0,0-.925-.387.605.605,0,0,0-.375.835.713.713,0,0,0-.756.188.806.806,0,0,0-.121.854.737.737,0,0,0-.889.218.715.715,0,0,0,.03.854.835.835,0,0,0-.756.636.691.691,0,0,0,.26.69c-.363.042-.732.224-.768.605a.69.69,0,0,0,.417.654.756.756,0,0,0-.562.642.672.672,0,0,0,.5.714c-.308.151-.647.345-.6.732s.357.466.665.515a.642.642,0,0,0-.339.763.6.6,0,0,0,.508.4.66.66,0,0,0-.23.739c.127.345.478.393.8.363-.212.291-.381.678-.073.969s.744.1,1.04-.115h0c-.242.418-.478.835-.732,1.241-.06.1-.127.2-.194.3a7.381,7.381,0,0,1-1.735-2.881Zm.284,5.006c1.627-1.211,2.364-3.16,3.483-4.788a.127.127,0,0,0,.06-.085,5.558,5.558,0,0,1,2.63-2.155,6.728,6.728,0,0,1,3.852-.036h.079c-.145.484-.266.975-.375,1.465h-.121a.17.17,0,0,0,0-.321,4.519,4.519,0,0,0-4.178,1.15,24.534,24.534,0,0,0-1.772,2.107l-1.935,2.288a.164.164,0,0,0,.036.254c1.5,1.071,2.153,2.9,3.489,4.134a4.658,4.658,0,0,0,4.692,1.047c.157.563.333,1.114.532,1.653-2.044,1.241-4.571-.121-6.047-1.64-1.578-1.592-2.673-3.632-4.414-5.091Zm4.426,10.085c.6.962,2.128.121,2.793-.291.2-.121.4-.254.6-.393-1.113,1.174-3.023,2.5-3.918.829a1.756,1.756,0,0,1,.726-2.421,3.763,3.763,0,0,1,2.273-.321,8.193,8.193,0,0,0-1.113.46c-.7.351-1.947,1.162-1.354,2.119Zm3.072-.805a7.54,7.54,0,0,1-1.149.678c-.441.206-1.342.521-1.687,0-.6-.914,1.094-1.695,1.705-1.949a6.521,6.521,0,0,1,1.336-.4c.266-.055.538-.073.81-.1a4.783,4.783,0,0,0,.931-.061,9.073,9.073,0,0,1-1.935,1.816Zm-4.753.763a5.067,5.067,0,0,0,4.378,2.96c-.048.4-.085.8-.1,1.211a.121.121,0,0,0-.06-.048c-.55-.157-1.125-.169-1.675-.369a6.253,6.253,0,0,1-1.494-.775,6.052,6.052,0,0,1-2.146-2.639,6.422,6.422,0,0,1,1.24-6.6c.254.321.514.642.78.95h0a4.191,4.191,0,0,0-1.246,2.536,4.986,4.986,0,0,0,.339,2.754Zm4.233,4.437c-.133.1-.091.351-.278.46a.4.4,0,0,1-.508-.127.921.921,0,0,1-.133-.454,2.567,2.567,0,0,0,.853.055c.018.024.073.079.109.048Zm-1.131-.169h0c-.085.291-.254.763-.677.533-.314-.163-.272-.527-.187-.829.127.054.26.1.393.139s.351.1.5.139Zm-1.07-.363a1.075,1.075,0,0,0-.048.188c-.218.278-.574.605-.8.079a.739.739,0,0,1,.127-.666,5.377,5.377,0,0,0,.762.381Zm-3.725-7.791c-.272-.182-.683-.514-.339-.86.236-.23.55-.157.847-.151a6.459,6.459,0,0,0-.689,2.506h-.054c-.556-.327-.568-1.211.181-1.283a.125.125,0,0,0,.1-.23Zm1.626-2.609.036.048h0a5.544,5.544,0,0,0-1.04,1.356.054.054,0,0,0-.066-.048c-.163.042-.212-.521-.212-.605a.86.86,0,0,1,.236-.605.755.755,0,0,1,.508-.2,1.812,1.812,0,0,1,.441.121.1.1,0,0,0,.139-.085Zm-1.814,4.292a6.673,6.673,0,0,0,.048,1.1.1.1,0,0,1,0,.042c-.181-.127-.405-.212-.5-.418-.145-.418.163-.648.49-.745Zm.1,1.392a5.786,5.786,0,0,0,.308,1.108.605.605,0,0,1-.272-1.126Zm.411,1.356a6.246,6.246,0,0,0,.49.908.538.538,0,0,1-.738-.188.563.563,0,0,1,.284-.738Zm.647,1.138a6.587,6.587,0,0,0,.828.914l-.036.036c-.333.085-.762.176-.907-.236a.933.933,0,0,1,.151-.708Zm.974,1.084a6.93,6.93,0,0,0,.859.648c-.248.333-.738.739-1.064.248a.762.762,0,0,1,.242-.914Zm4.154,3.765a6.041,6.041,0,0,1-1.868-.145,7.373,7.373,0,0,1-1.717-.72,7.663,7.663,0,0,1-2.781-2.282,6.433,6.433,0,0,1-.732-1.671,14.678,14.678,0,0,1-.484-1.907,9.63,9.63,0,0,1,.236-4.026,7.161,7.161,0,0,1,1.814-3.68c.333.418.653.841.98,1.265-.363-.321-1.07,0-1.276.381a1.139,1.139,0,0,0-.066.878.834.834,0,0,0,.115.248.858.858,0,0,0-.949.442c-.139.351.1.636.357.853a.812.812,0,0,0-.133,1.471.708.708,0,0,0-.466.539c-.1.5.26.654.574.89a.83.83,0,0,0-.32.938.72.72,0,0,0,.714.454.775.775,0,0,0-.206.872.737.737,0,0,0,.846.387.933.933,0,0,0,.03.962.7.7,0,0,0,.828.176.842.842,0,0,0,.085,1.047.7.7,0,0,0,.992,0,.678.678,0,0,0,.236.66.528.528,0,0,0,.774-.194.72.72,0,0,0,.453.708c.369.145.6-.091.762-.381.121.357.375.69.786.466a.992.992,0,0,0,.284-.315,5.544,5.544,0,0,0,.03.708,6.381,6.381,0,0,0,.133,1Zm0-3.88a4.837,4.837,0,0,1-4.13-2.76,4.744,4.744,0,0,1-.321-2.682,6.294,6.294,0,0,1,1.064-2.385c.3.327.6.642.925.938a6.909,6.909,0,0,0,2.419,1.447,4.023,4.023,0,0,0-2.921.539,1.981,1.981,0,0,0-.6,2.512,1.717,1.717,0,0,0,1.04.92,2.368,2.368,0,0,0,1.518-.248,4.8,4.8,0,0,0,2.013-1.689,11.782,11.782,0,0,0-.925,2.736,2.02,2.02,0,0,1-.042.654Zm1.862,6.659a4.125,4.125,0,0,0-1.481-.17,7.843,7.843,0,0,0-.169-3.063,12.278,12.278,0,0,1,.1-3.553c.357-2.022,1.209-4.443,3.1-5.5.2.5.417,1,.659,1.483a4.838,4.838,0,0,0-2.479,3.39,24.736,24.736,0,0,0-.254,5.944.163.163,0,0,0,.2.151,6.9,6.9,0,0,1,2.286,0,.908.908,0,0,0,.284.048h0c.224.036.447.085.665.133a15.193,15.193,0,0,0,2.878.605c1.814.067,2.908-1.211,3.858-2.579h0a11.2,11.2,0,0,0,1.385.448.157.157,0,0,0-.067.061,10.289,10.289,0,0,1-2.146,2.561,5.492,5.492,0,0,1-3.38,1.132,12.933,12.933,0,0,1-3.688-.605ZM390.6,426.13a6.128,6.128,0,0,1-2.884,1.423,5.659,5.659,0,0,1-2.679-.182h0a5.557,5.557,0,0,1-.6-.248,5.644,5.644,0,0,1-2.419-2.246,5.81,5.81,0,0,1-.6-1.489,16.135,16.135,0,0,1-.272-1.6h.03a10.764,10.764,0,0,0,1.246.151,1.7,1.7,0,0,0,0,.95,3.787,3.787,0,0,0,.4,1.211,4.423,4.423,0,0,0,1.814,1.816,5.437,5.437,0,0,0,5.442-.5c.193.224.393.436.6.642Zm.212.212v-.03a.966.966,0,0,1,.079.079.478.478,0,0,1-.127.72.556.556,0,0,1-.532,0,.605.605,0,0,1-.181-.157,4.141,4.141,0,0,0,.8-.611Zm-1.119,1.489c-.284.194-.568-.036-.738-.285a5.554,5.554,0,0,0,.895-.436h0c.06.254.067.569-.121.7Zm-1.034-.176c0,.309-.085.666-.417.751s-.466-.23-.55-.508a1.7,1.7,0,0,0,.423-.085c.139-.036.4-.115.58-.176Zm-1.161.381a.732.732,0,0,1-.544.412c-.181.048-.145.042-.357-.1s-.224-.17-.224-.375a6.041,6.041,0,0,0,1.1-.042.1.1,0,0,1,.06.085Zm-1.427-.085a1.815,1.815,0,0,1-.532.49c-.345.157-.544-.127-.568-.418a1.218,1.218,0,0,1,0-.291,6.4,6.4,0,0,0,1.137.2Zm-1.276-.278v.079a.719.719,0,0,1-.774.182.5.5,0,0,1-.224-.726,5.915,5.915,0,0,0,1.034.448Zm-3.864-4.691a.1.1,0,0,0-.109-.036.5.5,0,0,1-.6-.575.568.568,0,0,1,.689-.357h0a3.414,3.414,0,0,0,.06.95Zm0,.151v-.03a5.408,5.408,0,0,0,.29,1.041h-.079c-.272,0-.6,0-.6-.393a.914.914,0,0,1,.429-.636Zm.363,1.156.036.091a6.67,6.67,0,0,0,.514.962h0c-.187-.1-.308,0-.514,0a.387.387,0,0,1-.4-.527,1.4,1.4,0,0,1,.4-.545Zm.6,1.211a.085.085,0,0,0,0-.067,5.6,5.6,0,0,0,.677.835,1,1,0,0,1-.671.067c-.333-.194-.181-.6.012-.866Zm.9.975.175.157a4.841,4.841,0,0,0,.6.454c-.3.188-.974.575-1,0a.969.969,0,0,1,.242-.642Zm1.971-.739a4.234,4.234,0,0,1-1.711-1.659,4.034,4.034,0,0,1-.423-1.108,3.865,3.865,0,0,1-.079-.605,1.455,1.455,0,0,0,0-.369,8.731,8.731,0,0,0,1.125,0,5.6,5.6,0,0,0,2.957-1.211h0l-.048.067a5.077,5.077,0,0,0-2.116,2.27,1.817,1.817,0,0,0,.986,2.421,1.958,1.958,0,0,0,2.352-.823,3.442,3.442,0,0,0,.411-1.525c.042-.5.079-.987.109-1.483a7.959,7.959,0,0,0,.6,2.094,6.66,6.66,0,0,0,.907,1.459,5.147,5.147,0,0,1-5.055.472Zm1.209-.878c1.034.1,1.584-1.368,1.862-2.137a5.607,5.607,0,0,0,.206-.666c0,.194-.03.381-.048.575a6.7,6.7,0,0,1-.181,1.392,1.741,1.741,0,0,1-2.243,1.259,1.657,1.657,0,0,1-.683-2.458,5.852,5.852,0,0,1,1.415-1.525,12.289,12.289,0,0,0-.677,1.271c-.284.605-.774,2.149.357,2.258Zm1.814-2.887a7.138,7.138,0,0,1-.55,1.465c-.212.412-.49.987-.967,1.126a.526.526,0,0,1-.707-.357,1.879,1.879,0,0,1,.054-.8,5.209,5.209,0,0,1,.6-1.4c.46-.8,1-1.538,1.5-2.306.163-.2.326-.412.478-.605a13.743,13.743,0,0,1-.411,2.845Zm.6-3.027a.109.109,0,0,0-.079-.048l.133-.194a1.744,1.744,0,0,0-.036.206Zm.55,10.394a9.888,9.888,0,0,1-3.954,0,7.813,7.813,0,0,1-5.5-4.1,7.035,7.035,0,0,1-.6-3.959c.4.109.8.218,1.209.315.266.067.532.121.8.176a.762.762,0,0,0-.865.66.708.708,0,0,0,.6.726.818.818,0,0,0-.242.829.6.6,0,0,0,.647.321.794.794,0,0,0-.248.884.605.605,0,0,0,.3.327c.181.073.387-.042.568-.03-.194.291-.314.654,0,.914a.876.876,0,0,0,.9,0,.988.988,0,0,0-.1.969c.23.424.7.206,1.058,0a.715.715,0,0,0,.333.7.8.8,0,0,0,.931-.115.7.7,0,0,0,.4.726c.393.163.738-.188,1-.484a.6.6,0,0,0,.816.484,1.155,1.155,0,0,0,.635-.393.6.6,0,0,0,.6.339c.447-.042.6-.436.677-.829a.725.725,0,0,0,.822.266c.351-.139.375-.466.345-.787a.858.858,0,0,0,.961-.067.7.7,0,0,0,.218-.539c.375.381.738.763,1.082,1.168a6.531,6.531,0,0,1-3.386,1.459Zm4.42-.527a14.669,14.669,0,0,0-2.026-2.385,9.345,9.345,0,0,1-2.032-2.464,8.484,8.484,0,0,1-.55-5.739l.036-.055a.133.133,0,0,0,0-.157h.042c.435.121.871.23,1.306.333h0a5.67,5.67,0,0,0,.417,4.546,40.182,40.182,0,0,0,2.884,4.352.163.163,0,0,0,.248.03,11.41,11.41,0,0,1,2.739-1.955,7.407,7.407,0,0,0,2.419-1.677,5.452,5.452,0,0,0,1.149-4.806.139.139,0,0,0-.036-.073c.393-.048.792-.109,1.179-.176a.133.133,0,0,0,.03.085,2.012,2.012,0,0,1,.139,1.423.109.109,0,0,0,0,.127.474.474,0,0,1-.03.206,9.1,9.1,0,0,1-.405,1.6,9,9,0,0,1-4.281,4.982,30.481,30.481,0,0,0-3.211,1.755Zm17.087-3.632a8.4,8.4,0,0,1-4.529,4.843,10.508,10.508,0,0,1-7.31.1,8.016,8.016,0,0,1-3.428-2.113c.526-.272,1.052-.527,1.566-.811a.654.654,0,0,0,0,.527c.193.291.472.236.714.079a.557.557,0,0,0,.32.745.737.737,0,0,0,.756-.194.563.563,0,0,0,.23.539.514.514,0,0,0,.714-.145.684.684,0,0,0,.538.575.665.665,0,0,0,.6-.23.7.7,0,0,0,1.258.048.683.683,0,0,0,.738.442.557.557,0,0,0,.478-.605.6.6,0,0,0,.6.424c.417,0,.538-.49.6-.9a.707.707,0,0,0,.792.406.7.7,0,0,0,.405-.781.5.5,0,0,0,.8.03,1.211,1.211,0,0,0,.29-.69.671.671,0,0,0,.895-.048.739.739,0,0,0,.212-.605,1.021,1.021,0,0,0-.048-.218.592.592,0,0,0,.586-.962c.314.061.641.145.762-.254a.606.606,0,0,0-.194-.642c.562.115,1.119.23,1.687.333a.145.145,0,0,0-.03.1Zm2.219,0c-1.294-.224-2.582-.466-3.87-.739a21.371,21.371,0,0,1-3.737-.938,5.691,5.691,0,0,1-2.5-2,6.4,6.4,0,0,1-.979-2.355,2.272,2.272,0,0,0-.054-.278.9.9,0,0,0-.054-.291.073.073,0,0,0-.048-.054c.187-.03.375-.067.556-.109a.145.145,0,0,0,.091,0l.266-.085a.078.078,0,0,0,0,.036,7.661,7.661,0,0,0,3.628,4.122,7.9,7.9,0,0,0,2.654.884,19.318,19.318,0,0,1,3.5.321.157.157,0,0,0,.193-.145c.091-2.046,1.282-3.941.986-6.017a10.179,10.179,0,0,0-.907-2.736,5,5,0,0,0-1.578-2.058h0q.327-.369.635-.763a.139.139,0,0,0,.066.139,6.475,6.475,0,0,1,2.679,5.448c.054,2.585-.834,5.145-1.512,7.609Zm-.278-12.791.115.061h0Zm.32.321h.1l.157.242c-.06-.054-.145-.157-.236-.248Zm6.893-.224c.381-.145.762-.3,1.143-.46a8.27,8.27,0,0,1-1.439,6,6.576,6.576,0,0,1-5.128,2.591c.079-.406.151-.811.2-1.211a2.368,2.368,0,0,0,1-.182,6.421,6.421,0,0,0,3.072-2.094,5.707,5.707,0,0,0,1.167-4.655Zm1.518,1.084c.206.048.556.127.6.333a.533.533,0,0,1-.2.575,1.3,1.3,0,0,1-.472.176.073.073,0,0,0-.048,0,10.293,10.293,0,0,0,.133-1.09Zm-.073-1.507a.726.726,0,0,1,.792.5.659.659,0,0,1-.714.775,9.927,9.927,0,0,0-.06-1.283Zm.447,3.59a.562.562,0,0,1-.707.236h-.042a7.438,7.438,0,0,0,.23-.962.539.539,0,0,1,.538.72Zm-2.032,2.924a.43.43,0,0,1-.085.781.858.858,0,0,1-.78-.109,6.7,6.7,0,0,0,.9-.95,6.582,6.582,0,0,0,.6-.884.654.654,0,0,1,.2.515.55.55,0,0,1-.732.43.121.121,0,0,0-.091.212Zm.744-1.38a7.5,7.5,0,0,0,.472-1.114h0c.242.163.726.527.55.89a.6.6,0,0,1-.714.291q-.147-.03-.29-.073Zm-1.766,2.875a.489.489,0,0,1-.816-.03.1.1,0,0,0-.06-.042,7.2,7.2,0,0,0,.8-.551.5.5,0,0,1,.1.617Zm-1,.079a.46.46,0,0,1-.32.66.6.6,0,0,1-.647-.3,6.446,6.446,0,0,0,.955-.436.1.1,0,0,0,.03.073Zm-1.475,1.1a.556.556,0,0,1-.6-.466,5.341,5.341,0,0,0,.871-.2.418.418,0,0,1-.248.66Zm-.81-.436a.684.684,0,0,1-.363.666c-.447.163-.714-.254-.641-.648a5.555,5.555,0,0,0,1.022-.024Zm2.951-3.777a6.249,6.249,0,0,1-1.717,1.417,8.3,8.3,0,0,1-1.082.5,6.082,6.082,0,0,0-.907.291,12.206,12.206,0,0,0,.073-2.1,7.875,7.875,0,0,0-.659-2.742c.26.363.532.714.816,1.059a8.663,8.663,0,0,0,1.209,1.314,1.667,1.667,0,0,0,2.286-.079,1.817,1.817,0,0,0,.085-2.385,2.419,2.419,0,0,0-1.125-.757c-.278-.1-.6-.206-.883-.3a8.044,8.044,0,0,0,2.026-.3c.357-.1.714-.218,1.058-.345a5.525,5.525,0,0,1-1.161,4.431Zm-.242-2.724a1.551,1.551,0,0,1-.06,2.312c-.828.642-1.663.139-2.28-.515s-1.294-1.453-1.9-2.222a.054.054,0,0,0-.073,0c-.054-.1-.1-.188-.163-.278a10.1,10.1,0,0,0,1.675,1.659c.52.4,1.814,1.447,2.34.472.441-.841-.659-1.713-1.27-2.07l-.472-.254a4.61,4.61,0,0,1,2.219.89Zm-1.318-.036c.333.278.774.739.665,1.211-.248,1.114-2.153-.539-2.5-.841A13.282,13.282,0,0,1,413,412.776a15.317,15.317,0,0,1,2.419.823,5.072,5.072,0,0,1,1.161.666Zm5.309,3.6a9.068,9.068,0,0,1-8.217,4.952c.139-.508.272-1.017.387-1.525a.653.653,0,0,0,.526.412.714.714,0,0,0,.762-.563.7.7,0,0,0,.877.278.606.606,0,0,0,.363-.605.7.7,0,0,0,.768.151.605.605,0,0,0,.375-.557.7.7,0,0,0,.877-.109.745.745,0,0,0,.079-.829.888.888,0,0,0,1.106-.115.606.606,0,0,0,.073-.726.762.762,0,0,0,.6-.448.8.8,0,0,0-.109-.793c.387.133.865.188,1.064-.254a.83.83,0,0,0-.29-.962.72.72,0,0,0,.121-1.41c.345-.061.714-.236.762-.605a.66.66,0,0,0-.453-.666.872.872,0,0,0,.52-.9.938.938,0,0,0-.859-.763c.6-.254,1.209-.5,1.814-.708v.03a11.21,11.21,0,0,1-1.131,6.713Zm2.751-7.482c-2.1.357-3.979,1.465-6,2.119a7.665,7.665,0,0,1-3.344.4,12.084,12.084,0,0,1-1.856-.412,5.072,5.072,0,0,1-1.735-.811c.218-.285.429-.605.6-.878h0l.067.079a.1.1,0,0,0,.036.036c1.119,1.168,2.987,1.211,4.462.847,1.947-.484,3.67-1.61,5.635-2.034a.17.17,0,0,0,.1-.242,15.628,15.628,0,0,1-1.119-2.99,6.5,6.5,0,0,0-1.1-2.5,9.014,9.014,0,0,0-4.759-2.76h0c0-.266.03-.539.042-.811a.121.121,0,0,0,.115.061c1.318-.163,2.54.714,3.67,1.271a5.747,5.747,0,0,1,2.485,2.349c1.167,1.979,1.463,4.352,2.709,6.271Zm1.518-5.49a6.787,6.787,0,0,1-2.618,2.276l-.254-.732a.556.556,0,0,0,.556,0,.509.509,0,0,0,.212-.478.519.519,0,0,0,.314-.042.545.545,0,0,0,.278-.678.538.538,0,0,0,.466-.188.557.557,0,0,1,.75-.726.606.606,0,0,0,.073-.672.556.556,0,0,0,.151-.115.666.666,0,0,0,.109-.751.55.55,0,0,0,.453-.218.606.606,0,0,0-.133-.823.539.539,0,0,0,.308-.363.642.642,0,0,0-.278-.714c.26-.06.5-.194.484-.5a.823.823,0,0,0-.478-.605.6.6,0,0,0-.157-1.156.811.811,0,0,0-.6-1.162.606.606,0,0,0,.079-.7.526.526,0,0,0-.508-.224.764.764,0,0,0-.127-.714.725.725,0,0,0-.75-.224.485.485,0,0,0-.169-.605.664.664,0,0,0-.671,0c.1-.169.193-.339.284-.508l.514-.944a.073.073,0,0,0,.036.079h0a8.258,8.258,0,0,1,3.162,5.151,8.906,8.906,0,0,1-1.463,6.338Z" transform="translate(-359.634 -364.924)"/><path class="b" d="M422.689,404.918c-.441-.466-.369.369-.369.369a2.591,2.591,0,0,0-.6-.351c-.193-.048-.272.381-.169.6a.321.321,0,0,0-.248.115c-.139.163.139.647.139.647l-.441.066a4.074,4.074,0,0,0-1.179.514c-.441.32-1.107,1.814-1.409,1.753a13.233,13.233,0,0,1-3.561-.828c-1.064-.574-3.023-1.367-3.023-1.367s-.181-.738-.484-1.917-.949-3.561-.949-3.561.048-.949,0-2.588-.23-3.447-1.155-4.626-3.815-1.27-4.65-1.663a4.048,4.048,0,0,1-1.735-1.252,24.626,24.626,0,0,1-.115-2.981,2.25,2.25,0,0,1,.212-.278,5.042,5.042,0,0,0,.393-.81,2.3,2.3,0,0,0,.532-.23,1.814,1.814,0,0,0,.738-1.318c.187-.9-.163-.925-.163-.925s.163-2.775-1.064-4.3a4.027,4.027,0,0,0-6.131,0c-1.209,1.524-1.064,4.3-1.064,4.3s-.351,0-.163.925a1.814,1.814,0,0,0,.738,1.318,2.3,2.3,0,0,0,.532.23,5.973,5.973,0,0,0,.393.81c.121.169.212.278.212.278a24.626,24.626,0,0,1-.115,2.981,4.089,4.089,0,0,1-1.735,1.252c-.828.393-3.725.484-4.65,1.663a7.852,7.852,0,0,0-1.155,4.626c-.024,1.645,0,2.588,0,2.588s-.647,2.382-.949,3.561-.484,1.917-.484,1.917-1.965.786-3.023,1.367a12.307,12.307,0,0,1-3.561.828c-.3.042-.967-1.433-1.409-1.753a4.074,4.074,0,0,0-1.179-.514l-.441-.066s.278-.484.139-.647a.32.32,0,0,0-.248-.115c.1-.224,0-.653-.169-.6a2.591,2.591,0,0,0-.6.351s.073-.834-.369-.369-1.294,1.433-1.155,2.1a10.74,10.74,0,0,0,1.131,2.286c.254.441,3.676,1.131,3.676,1.131a4.8,4.8,0,0,0-.3,3.773c.7,2.171,4.233,4.2,5.484,4.734a19.95,19.95,0,0,0,3.767.883.714.714,0,0,0-.254.925.8.8,0,0,0,.647.46s-.441.212-.254.508a.459.459,0,0,0,.484.23.477.477,0,0,0,.345.466,1.028,1.028,0,0,0,.6-.048s.091.327.786.236,4.347-.3,5.756-.514a7.52,7.52,0,0,0,1.681-.375,7.516,7.516,0,0,0,1.681.375c1.409.212,5.061.417,5.756.514s.786-.236.786-.236a1.028,1.028,0,0,0,.6.048c.32-.073.345-.466.345-.466a.46.46,0,0,0,.484-.23c.187-.3-.254-.508-.254-.508a.8.8,0,0,0,.647-.46.713.713,0,0,0-.254-.925,19.95,19.95,0,0,0,3.767-.883c1.252-.532,4.789-2.564,5.484-4.734a4.8,4.8,0,0,0-.3-3.773s3.422-.689,3.676-1.131a10.738,10.738,0,0,0,1.131-2.286C423.983,406.351,423.131,405.378,422.689,404.918Zm-28.419,6.1a12.921,12.921,0,0,0-.435,2.171s-2.013-1.107-3.168-1.663-2.419-1.246-2.419-1.246a6.2,6.2,0,0,0,1.572-.254,2.467,2.467,0,0,0,1.548-1.735,22.065,22.065,0,0,0,1.391-4.692c.145-1.209.786-5.484.786-5.484s.3,3.38.671,5.575.6,3.4.738,4.347a7.366,7.366,0,0,1-.689,2.981Zm15.721.508c-1.155.556-3.168,1.663-3.168,1.663a12.915,12.915,0,0,0-.435-2.171,7.692,7.692,0,0,1-.7-2.981c.115-.949.369-2.153.738-4.347s.671-5.575.671-5.575.641,4.233.786,5.484a22.058,22.058,0,0,0,1.391,4.692,2.467,2.467,0,0,0,1.548,1.735,6.2,6.2,0,0,0,1.572.254s-1.27.689-2.425,1.246Z" transform="translate(-363.337 -368.27)"/><path d="M499.5,428.1V416.868L492.63,396.31h4.124l4.873,15.352,4.789-15.352h4.16l-6.833,20.558V428.1Z" transform="translate(-409.056 -375.246)"/><path d="M534.876,428.247a9.275,9.275,0,0,1-5.146-1.258,6.863,6.863,0,0,1-2.751-3.592,16.47,16.47,0,0,1-.822-5.478V405.863a15.316,15.316,0,0,1,.847-5.4,6.705,6.705,0,0,1,2.745-3.453,9.566,9.566,0,0,1,5.127-1.209,9.33,9.33,0,0,1,5.1,1.209,6.863,6.863,0,0,1,2.727,3.453,15.3,15.3,0,0,1,.846,5.381v12.093a15.84,15.84,0,0,1-.846,5.442,7.165,7.165,0,0,1-2.727,3.592A8.925,8.925,0,0,1,534.876,428.247Zm0-3.495a4.184,4.184,0,0,0,2.667-.726,3.628,3.628,0,0,0,1.209-2.044,13.621,13.621,0,0,0,.308-3.084V404.986a13.145,13.145,0,0,0-.308-3.023A3.4,3.4,0,0,0,537.543,400a4.347,4.347,0,0,0-2.667-.689,4.438,4.438,0,0,0-2.691.689,3.362,3.362,0,0,0-1.209,1.959,12.8,12.8,0,0,0-.314,3.023v13.907a13.261,13.261,0,0,0,.314,3.084,3.562,3.562,0,0,0,1.209,2.044A4.275,4.275,0,0,0,534.876,424.752Z" transform="translate(-422.289 -375.04)"/><path d="M569.326,428.289a8.036,8.036,0,0,1-4.771-1.276,7.141,7.141,0,0,1-2.594-3.707,18.9,18.9,0,0,1-.8-5.853V406.806a21.223,21.223,0,0,1,.726-5.95,6.706,6.706,0,0,1,2.594-3.749,9.009,9.009,0,0,1,5.2-1.294,10.025,10.025,0,0,1,4.837,1,5.841,5.841,0,0,1,2.648,3.066,14.089,14.089,0,0,1,.828,5.2v1.209h-4.166v-.979a17.3,17.3,0,0,0-.272-3.4,3.192,3.192,0,0,0-1.119-1.965,4.383,4.383,0,0,0-2.654-.647,3.83,3.83,0,0,0-2.842.907,4.19,4.19,0,0,0-1.1,2.419,25.5,25.5,0,0,0-.218,3.519v11.779a18.212,18.212,0,0,0,.333,3.809,3.839,3.839,0,0,0,1.276,2.28,4.232,4.232,0,0,0,2.673.744,3.966,3.966,0,0,0,2.673-.822,4.4,4.4,0,0,0,1.294-2.419,19.1,19.1,0,0,0,.351-4.009v-2.231H570.13v-3.144h8.054v15.721H575.4l-.435-3.628A6.609,6.609,0,0,1,573,427.128,5.484,5.484,0,0,1,569.326,428.289Z" transform="translate(-436.105 -375.045)"/><path d="M594,428.085l6.754-31.8h4.281l6.8,31.8H607.6l-1.457-8.006h-6.434l-1.53,8.006Zm6.282-11.186h5.3l-2.673-14.336Z" transform="translate(-449.071 -375.234)"/><path d="M647.152,428.081,642,396.276h3.688l3.416,22.856,4.281-22.735h3.126l4.317,22.85,3.338-22.977h3.628l-5.109,31.8h-3.217l-4.438-23.581-4.474,23.581Z" transform="translate(-468.013 -375.23)"/><path d="M698.3,428.247a9.276,9.276,0,0,1-5.146-1.258,6.857,6.857,0,0,1-2.745-3.592,16.466,16.466,0,0,1-.828-5.478V405.863a15.456,15.456,0,0,1,.847-5.4,6.705,6.705,0,0,1,2.745-3.453A9.566,9.566,0,0,1,698.3,395.8a9.33,9.33,0,0,1,5.1,1.209,6.863,6.863,0,0,1,2.727,3.453,15.166,15.166,0,0,1,.847,5.381v12.093a15.723,15.723,0,0,1-.847,5.442,7.165,7.165,0,0,1-2.727,3.592A8.978,8.978,0,0,1,698.3,428.247Zm0-3.495a4.232,4.232,0,0,0,2.673-.726,3.628,3.628,0,0,0,1.209-2.044,13.6,13.6,0,0,0,.314-3.084V404.986a13.114,13.114,0,0,0-.314-3.023A3.423,3.423,0,0,0,700.969,400a4.366,4.366,0,0,0-2.673-.689,4.45,4.45,0,0,0-2.691.689,3.362,3.362,0,0,0-1.209,1.959,13.145,13.145,0,0,0-.308,3.023v13.907a13.618,13.618,0,0,0,.308,3.084,3.561,3.561,0,0,0,1.209,2.044A4.287,4.287,0,0,0,698.3,424.752Z" transform="translate(-486.799 -375.04)"/><path d="M725.53,428.08v-31.8h6.4a14.143,14.143,0,0,1,5.266.846,5.889,5.889,0,0,1,3.084,2.709,10.339,10.339,0,0,1,1,4.886,13.461,13.461,0,0,1-.393,3.362,6.518,6.518,0,0,1-1.258,2.552,4.837,4.837,0,0,1-2.273,1.512l4.511,15.939h-4.275l-4.166-14.917h-3.453V428.08Zm4.438-18.067h1.687a8.375,8.375,0,0,0,3.065-.472,3.15,3.15,0,0,0,1.723-1.614,7.4,7.4,0,0,0,.55-3.18,6.3,6.3,0,0,0-1.022-4.021q-1.022-1.233-4.045-1.209h-1.959Z" transform="translate(-500.957 -375.23)"/><path d="M759.23,428.085v-31.8h4.438V424.9h8.12v3.18Z" transform="translate(-514.281 -375.234)"/><path d="M785,428.076v-31.8h6.911a12.147,12.147,0,0,1,5.593,1.082,6.186,6.186,0,0,1,2.945,3.235,14.354,14.354,0,0,1,.883,5.381v11.7a16.1,16.1,0,0,1-.883,5.7,6.749,6.749,0,0,1-2.866,3.513,10.182,10.182,0,0,1-5.321,1.209Zm4.432-3.18h2.515a5.091,5.091,0,0,0,3.459-.937,4.317,4.317,0,0,0,1.209-2.751,37.123,37.123,0,0,0,.218-4.36V406.521a20.438,20.438,0,0,0-.314-4,3.344,3.344,0,0,0-1.372-2.237,6.144,6.144,0,0,0-3.338-.707H789.39Z" transform="translate(-524.469 -375.226)"/></svg>