<svg xmlns="http://www.w3.org/2000/svg" xmlns:xlink="http://www.w3.org/1999/xlink" width="129.984" height="129.984" viewBox="0 0 129.984 129.984"><defs><style>.a{fill:url(#a);}</style><linearGradient id="a" x1="0.5" x2="0.5" y2="1" gradientUnits="objectBoundingBox"><stop offset="0" stop-color="#2385d9"/><stop offset="1" stop-color="#0ec9b0"/></linearGradient></defs><g transform="translate(-2 -2)"><path class="a" d="M84.546,48H80.213v8.666h-39V61h39v6.5a6.5,6.5,0,0,1-6.5,6.5H26.053a6.523,6.523,0,0,1-5.633-3.25l-3.752,2.166a10.878,10.878,0,0,0,9.385,5.416H73.714A10.845,10.845,0,0,0,84.546,67.5Z" transform="translate(17.109 53.655)"/><rect class="a" width="4" height="5" transform="translate(64.992 116.992)"/><path class="a" d="M74.325,60.493V56.16h-6.61A28.163,28.163,0,0,0,41.829,30.274v-6.61H37.5v6.61a27.99,27.99,0,0,0-4.333.676V19.331H67.826V15H33.163V12.832a6.5,6.5,0,0,1,6.5-6.5H87.323a6.5,6.5,0,0,1,4.3,1.624l2.867-3.249A10.819,10.819,0,0,0,87.323,2H39.663A10.845,10.845,0,0,0,28.83,12.832v19.5A28.2,28.2,0,0,0,11.61,56.16H5v4.333h6.614A28.038,28.038,0,0,0,37.5,86.39v6.6h4.333v-6.6a28.038,28.038,0,0,0,25.882-25.9ZM37.5,77.824v4.233a23.737,23.737,0,0,1-8.666-2.5v-3.9a10.832,10.832,0,1,1,21.664,0v3.9a23.778,23.778,0,0,1-8.666,2.507v-4.24Zm-4.333-23.83a6.5,6.5,0,1,1,6.5,6.5A6.5,6.5,0,0,1,33.163,53.994Zm22.385,22.1c-.234.217-.483.39-.721.589V75.658a15.165,15.165,0,0,0-8.187-13.449,10.832,10.832,0,1,0-13.956,0A15.165,15.165,0,0,0,24.5,75.658v1.033c-.24-.2-.49-.381-.721-.589a23.846,23.846,0,0,1-7.829-15.609h4.218V56.16H15.943A23.852,23.852,0,0,1,37.5,34.607v4.222h4.333V34.607A23.852,23.852,0,0,1,63.382,56.16H59.16v4.333h4.218A23.846,23.846,0,0,1,55.549,76.1Z" transform="translate(3.499 0)"/><path class="a" d="M85.827,36.33a2.166,2.166,0,0,0,2.166-2.166v-26A2.166,2.166,0,0,0,85.827,6H38.166A2.166,2.166,0,0,0,36,8.166v26a2.166,2.166,0,0,0,2.166,2.166Zm-45.495-26H83.661V32H40.333Z" transform="translate(39.658 4.666)"/><rect class="a" width="11" height="5" transform="translate(82.992 17.992)"/><rect class="a" width="19" height="5" transform="translate(97.992 17.992)"/><rect class="a" width="34" height="4" transform="translate(82.992 27.992)"/><path class="a" d="M90.111,22a6.868,6.868,0,0,0-4.549,1.733l-18.9,16.66V22H62.331V43.664h.626L50.632,54.539a15.165,15.165,0,0,0-14.3,15.122v3.822A5.633,5.633,0,0,1,33.2,78.554a2.166,2.166,0,0,0,.968,4.105H49.332a15.165,15.165,0,0,0,15.122-14.3L95.273,33.434A6.883,6.883,0,0,0,90.111,22ZM49.332,78.327H39.425a10,10,0,0,0,1.241-4.844V69.661a10.847,10.847,0,0,1,9.965-10.8l9.5,9.5A10.845,10.845,0,0,1,49.332,78.327ZM92.024,30.568,62.233,64.332l-7.572-7.569L88.425,26.97a2.55,2.55,0,0,1,3.6,3.6Z" transform="translate(34.991 23.328)"/><path class="a" d="M4.166,74.5H51.827a2.166,2.166,0,0,0,2.166-2.166V55a2.166,2.166,0,0,0-2.166-2.166H36.663V42H32.33V52.832H4.166A2.166,2.166,0,0,0,2,55V72.33A2.166,2.166,0,0,0,4.166,74.5ZM6.333,57.165H49.661v13H6.333Z" transform="translate(0 46.656)"/><rect class="a" width="9" height="4" transform="translate(11.992 108.992)"/><rect class="a" width="21" height="4" transform="translate(24.992 108.992)"/><path class="a" d="M4.166,27.664H25.83A2.166,2.166,0,0,0,28,25.5V8.166A2.166,2.166,0,0,0,25.83,6H4.166A2.166,2.166,0,0,0,2,8.166V25.5A2.166,2.166,0,0,0,4.166,27.664ZM6.333,10.333H23.664v13H6.333Z" transform="translate(0 4.666)"/><rect class="a" width="6" height="5" transform="translate(11.992 17.992)"/></g></svg>