<svg xmlns="http://www.w3.org/2000/svg" xmlns:xlink="http://www.w3.org/1999/xlink" width="125.616" height="150.448" viewBox="0 0 125.616 150.448">
  <defs>
    <linearGradient id="linear-gradient" x1="0.5" x2="0.5" y2="1" gradientUnits="objectBoundingBox">
      <stop offset="0" stop-color="#2385d9"/>
      <stop offset="1" stop-color="#0ec9b0"/>
    </linearGradient>
  </defs>
  <g id="Group_1002" data-name="Group 1002" transform="translate(-173.3 -7.3)">
    <g id="Group_1001" data-name="Group 1001" transform="translate(173.3 7.3)">
      <g id="Group_994" data-name="Group 994" transform="translate(9.9 0)">
        <g id="Group_993" data-name="Group 993">
          <g id="Group_991" data-name="Group 991" transform="translate(0 0.008)">
            <path id="Path_135" data-name="Path 135" d="M413.269,157.841H310.639a6.552,6.552,0,0,1-6.539-6.547V125.7a3.255,3.255,0,0,1,6.509,0v25.6l102.66.03.03-103.553L379.43,13.909H310.639l-.023,74.278a3.255,3.255,0,0,1-6.509,0V13.939A6.546,6.546,0,0,1,310.647,7.4h70.138a3.235,3.235,0,0,1,2.3.954L418.863,44.13a3.248,3.248,0,0,1,.954,2.3V151.3A6.562,6.562,0,0,1,413.269,157.841Z" transform="translate(-304.1 -7.4)" fill="url(#linear-gradient)"/>
          </g>
          <g id="Group_992" data-name="Group 992" transform="translate(73.423)">
            <path id="Path_136" data-name="Path 136" d="M1313.231,49.593h-32.492a6.551,6.551,0,0,1-6.539-6.539V10.562a3.26,3.26,0,0,1,5.563-2.308L1315.54,44.03a3.261,3.261,0,0,1-2.308,5.563Zm-32.515-31.167.023,24.651h24.628Z" transform="translate(-1274.2 -7.3)" fill="url(#linear-gradient)"/>
          </g>
        </g>
      </g>
      <g id="Group_995" data-name="Group 995" transform="translate(0 77.533)">
        <path id="Path_137" data-name="Path 137" d="M263.805,1075.734H179.817a6.522,6.522,0,0,1-6.517-6.517v-31a6.522,6.522,0,0,1,6.517-6.517h83.989a6.522,6.522,0,0,1,6.517,6.517v31A6.522,6.522,0,0,1,263.805,1075.734Zm-83.989-37.517v31h84v-31Z" transform="translate(-173.3 -1031.7)" fill="url(#linear-gradient)"/>
      </g>
      <g id="Group_1000" data-name="Group 1000" transform="translate(15.599 91.353)">
        <g id="Group_996" data-name="Group 996" transform="translate(0 0.008)">
          <path id="Path_138" data-name="Path 138" d="M390.185,1216.777a2.375,2.375,0,0,1,.182-.931,2.561,2.561,0,0,1,.492-.757,2.391,2.391,0,0,1,.711-.507,2.249,2.249,0,0,1,1.771,0,2.3,2.3,0,0,1,.719.507,2.42,2.42,0,0,1,.492.757,2.371,2.371,0,0,1,.174.931v12.95a2.515,2.515,0,0,1-.174.931,2.294,2.294,0,0,1-.492.757,2.179,2.179,0,0,1-.719.507,2.182,2.182,0,0,1-2.483-.507,2.415,2.415,0,0,1-.658-1.688l-.015-5.033h-6.274v5.033a2.415,2.415,0,0,1-.658,1.688,2.225,2.225,0,0,1-2.49.507,2.149,2.149,0,0,1-.711-.507,2.223,2.223,0,0,1-.477-.757,2.371,2.371,0,0,1-.174-.931v-12.95a2.515,2.515,0,0,1,.174-.931,2.677,2.677,0,0,1,.477-.757,2.391,2.391,0,0,1,.711-.507,2.249,2.249,0,0,1,1.771,0,2.3,2.3,0,0,1,.719.507,2.4,2.4,0,0,1,.484.757,2.371,2.371,0,0,1,.174.931v4.45h6.274Z" transform="translate(-379.4 -1214.4)" fill="url(#linear-gradient)"/>
        </g>
        <g id="Group_997" data-name="Group 997" transform="translate(16.583 0.008)">
          <path id="Path_139" data-name="Path 139" d="M600.233,1217.632a1.769,1.769,0,0,1-.666-.129,1.8,1.8,0,0,1-.553-.348,1.778,1.778,0,0,1-.378-.507,1.455,1.455,0,0,1-.136-.621,1.515,1.515,0,0,1,.136-.628,1.622,1.622,0,0,1,.378-.522,1.956,1.956,0,0,1,.553-.348,1.8,1.8,0,0,1,.666-.129h11.126a1.633,1.633,0,0,1,.666.129,1.9,1.9,0,0,1,.552.348,1.652,1.652,0,0,1,.378.522,1.4,1.4,0,0,1,.136.628,1.455,1.455,0,0,1-.136.621,1.563,1.563,0,0,1-.378.507,1.8,1.8,0,0,1-1.219.477H608.1v12.095a2.515,2.515,0,0,1-.174.931,2.294,2.294,0,0,1-.492.757,2.181,2.181,0,0,1-.719.507,2.182,2.182,0,0,1-2.482-.507,2.415,2.415,0,0,1-.658-1.688v-12.095Z" transform="translate(-598.5 -1214.4)" fill="url(#linear-gradient)"/>
        </g>
        <g id="Group_998" data-name="Group 998" transform="translate(33.506)">
          <path id="Path_140" data-name="Path 140" d="M839.432,1218.569c-.727,1.786-1.37,3.383-1.937,4.776-.242.6-.477,1.181-.711,1.756s-.431,1.075-.613,1.521-.333.81-.447,1.082l-.159.4c-.167.416-.348.81-.537,1.181a4.867,4.867,0,0,1-.651.976,3.162,3.162,0,0,1-.825.674,2.161,2.161,0,0,1-1.052.25,2.247,2.247,0,0,1-.961-.189,2.367,2.367,0,0,1-.764-.575,4.942,4.942,0,0,1-.651-.961,12.193,12.193,0,0,1-.606-1.347l-3.837-9.5v11.618a1.687,1.687,0,0,1-.144.7,1.644,1.644,0,0,1-.386.568,1.9,1.9,0,0,1-.575.379,1.787,1.787,0,0,1-.7.136,1.814,1.814,0,0,1-.7-.136,1.866,1.866,0,0,1-.568-.379,1.735,1.735,0,0,1-.378-.568,1.812,1.812,0,0,1-.136-.7v-11.247a16.661,16.661,0,0,1,.106-1.93,4.08,4.08,0,0,1,.447-1.476,2.352,2.352,0,0,1,.939-.946,3.3,3.3,0,0,1,1.589-.333,2.965,2.965,0,0,1,1.234.242,2.863,2.863,0,0,1,.984.787,7.323,7.323,0,0,1,.885,1.408c.288.575.605,1.279.946,2.1l3.255,7.856h.1l3.292-7.856c.288-.7.575-1.332.855-1.892a7.544,7.544,0,0,1,.893-1.423,3.583,3.583,0,0,1,1.037-.9,2.546,2.546,0,0,1,1.279-.318,3.523,3.523,0,0,1,1.355.235,2.131,2.131,0,0,1,.954.742,3.5,3.5,0,0,1,.552,1.324,9.066,9.066,0,0,1,.182,1.953v11.686a1.811,1.811,0,0,1-.136.7,1.643,1.643,0,0,1-.386.568,2,2,0,0,1-.575.379,1.849,1.849,0,0,1-1.393,0,1.863,1.863,0,0,1-.568-.379,1.736,1.736,0,0,1-.378-.568,1.813,1.813,0,0,1-.136-.7v-11.671Z" transform="translate(-822.1 -1214.3)" fill="url(#linear-gradient)"/>
        </g>
        <g id="Group_999" data-name="Group 999" transform="translate(58.308 0.015)">
          <path id="Path_141" data-name="Path 141" d="M1160.418,1228.956a1.485,1.485,0,0,1,.628.129,1.511,1.511,0,0,1,.515.348,1.578,1.578,0,0,1,.348.522,1.6,1.6,0,0,1,0,1.256,1.509,1.509,0,0,1-.348.515,1.627,1.627,0,0,1-.515.348,1.61,1.61,0,0,1-.628.129h-8.348a1.989,1.989,0,0,1-1.1-.288,2.052,2.052,0,0,1-.7-.757,3.29,3.29,0,0,1-.363-1.067,7.224,7.224,0,0,1-.106-1.219v-12a2.415,2.415,0,0,1,.658-1.688,2.39,2.39,0,0,1,.711-.507,2.25,2.25,0,0,1,1.771,0,2.379,2.379,0,0,1,1.377,2.195l.015,12.087h6.085Z" transform="translate(-1149.8 -1214.5)" fill="url(#linear-gradient)"/>
        </g>
      </g>
    </g>
  </g>
</svg>
