<svg xmlns="http://www.w3.org/2000/svg" width="20.371" height="12.043" viewBox="0 0 20.371 12.043">
  <g id="icon_courses" transform="translate(-2.475 -21.9)">
    <path id="Path_363" data-name="Path 363" d="M26.114,53.014a6.616,6.616,0,0,1-1.714-.236l-4.8-1.436v3.279a1.331,1.331,0,0,0,.964,1.286l2.1.621a12.411,12.411,0,0,0,7.071,0l2.1-.621a1.331,1.331,0,0,0,.964-1.286V51.3l-4.971,1.479A5.81,5.81,0,0,1,26.114,53.014Z" transform="translate(-13.455 -23.1)" fill="#fff"/>
    <path id="Path_364" data-name="Path 364" d="M22.409,24.6l-8.464-2.507a4.454,4.454,0,0,0-2.593,0L2.909,24.6a.617.617,0,0,0,0,1.179l8.464,2.507a4.454,4.454,0,0,0,2.593,0l7.243-2.143V28.05a.48.48,0,0,0-.257.407v.514a.447.447,0,0,0,.279.429l-.45,1.05a.225.225,0,0,0,.193.321l.471.043h.279l.471-.043a.246.246,0,0,0,.193-.321l-.45-1.05a.469.469,0,0,0,.279-.429v-.514a.48.48,0,0,0-.257-.407V25.929l.471-.15A.621.621,0,0,0,22.409,24.6Z" fill="#fff"/>
  </g>
</svg>
