<svg xmlns="http://www.w3.org/2000/svg" width="22.322" height="22.322" viewBox="0 0 22.322 22.322">
  <g id="icon_practical_task" transform="translate(0 0)">
    <circle id="Ellipse_15" data-name="Ellipse 15" cx="0.5" cy="0.5" r="0.5" transform="translate(3.161 3.16)" fill="#fff"/>
    <path id="Path_383" data-name="Path 383" d="M.821,4.839a.983.983,0,0,0-.173.619,1.045,1.045,0,0,0,.308.678l.231.232a1.054,1.054,0,0,0,.738.309A.973.973,0,0,0,2.485,6.5,1.019,1.019,0,0,0,3.5,7.324h.329A1.019,1.019,0,0,0,4.839,6.5a.972.972,0,0,0,.559.174,1.052,1.052,0,0,0,.737-.309l.233-.233a1.02,1.02,0,0,0,.135-1.3,1.019,1.019,0,0,0,.821-1.012V3.5A1.019,1.019,0,0,0,6.5,2.485a1.019,1.019,0,0,0-.134-1.3L6.135.956A1.05,1.05,0,0,0,5.4.647a.972.972,0,0,0-.56.174A1.019,1.019,0,0,0,3.826,0H3.5A1.019,1.019,0,0,0,2.485.821.972.972,0,0,0,1.926.647a1.052,1.052,0,0,0-.737.309l-.233.233a1.05,1.05,0,0,0-.309.735.973.973,0,0,0,.174.561A1.019,1.019,0,0,0,0,3.5v.329A1.019,1.019,0,0,0,.821,4.839ZM3.662,2.092a1.57,1.57,0,1,1-1.57,1.57,1.57,1.57,0,0,1,1.57-1.57Z" transform="translate(0 0)" fill="#fff"/>
    <circle id="Ellipse_16" data-name="Ellipse 16" cx="4" cy="4" r="4" transform="translate(7.161 4.16)" fill="#fff"/>
    <path id="Path_384" data-name="Path 384" d="M92.5,2.485a1.019,1.019,0,0,0-.134-1.3L92.135.956A1.05,1.05,0,0,0,91.4.647a.971.971,0,0,0-.56.174A1.019,1.019,0,0,0,89.826,0H89.5a1.019,1.019,0,0,0-1.012.821.972.972,0,0,0-.559-.174,1.052,1.052,0,0,0-.737.309l-.233.233a1.05,1.05,0,0,0-.309.735.973.973,0,0,0,.174.561A1.019,1.019,0,0,0,86,3.5v.329a1.019,1.019,0,0,0,.821,1.012.983.983,0,0,0-.173.619,1.045,1.045,0,0,0,.308.678l.231.232a1.054,1.054,0,0,0,.738.309.973.973,0,0,0,.559-.174,1.019,1.019,0,0,0,1.012.821h.329A1.019,1.019,0,0,0,90.839,6.5a.972.972,0,0,0,.559.174,1.052,1.052,0,0,0,.737-.309l.233-.233a1.02,1.02,0,0,0,.135-1.3,1.019,1.019,0,0,0,.821-1.012V3.5A1.019,1.019,0,0,0,92.5,2.485ZM89.662,5.231a1.57,1.57,0,1,1,1.57-1.57,1.57,1.57,0,0,1-1.57,1.57Z" transform="translate(-71.002 0)" fill="#fff"/>
    <circle id="Ellipse_17" data-name="Ellipse 17" cx="0.5" cy="0.5" r="0.5" transform="translate(18.161 3.16)" fill="#fff"/>
    <path id="Path_385" data-name="Path 385" d="M39.5,82H29.051A1.056,1.056,0,0,0,28,83.058l.351,5.918A1.056,1.056,0,0,0,29.4,90.022h9.751A1.056,1.056,0,0,0,40.2,88.976l.351-5.9v-.021A1.056,1.056,0,0,0,39.5,82Zm0,6.944v.021a.357.357,0,0,1-.354.36H29.4a.357.357,0,0,1-.354-.36L28.7,83.049a.357.357,0,0,1,.354-.351H39.5a.357.357,0,0,1,.354.351Z" transform="translate(-23.117 -67.7)" fill="#fff"/>
    <path id="Path_386" data-name="Path 386" d="M57.221,98.75a1.221,1.221,0,1,0,1.221,1.221A1.221,1.221,0,0,0,57.221,98.75Zm0,1.744a.523.523,0,1,1,.523-.523A.523.523,0,0,1,57.221,100.494Z" transform="translate(-46.234 -81.529)" fill="#fff"/>
    <path id="Path_387" data-name="Path 387" d="M21.973,67.581H18.834v-3.12A4.13,4.13,0,0,0,14.849,60.1a4.527,4.527,0,0,1-7.375,0,4.13,4.13,0,0,0-3.986,4.361v3.12H.349a.349.349,0,1,0,0,.7H4.38l-.194-3.261v-.041a1.754,1.754,0,0,1,1.749-1.755H16.388a1.754,1.754,0,0,1,1.749,1.755v.062l-.193,3.24h4.031a.349.349,0,1,0,0-.7Z" transform="translate(0 -49.619)" fill="#fff"/>
  </g>
</svg>
