<?xml version="1.0" encoding="UTF-8"?>
<svg width="115px" height="115px" viewBox="0 0 115 115" version="1.1" xmlns="http://www.w3.org/2000/svg" xmlns:xlink="http://www.w3.org/1999/xlink">
    <!-- Generator: Sketch 62 (91390) - https://sketch.com -->
    <title>Code_school_Online_Symbol_Color</title>
    <desc>Created with Sketch.</desc>
    <defs>
        <linearGradient x1="0%" y1="0%" x2="101.999998%" y2="100.999999%" id="linearGradient-1">
            <stop stop-color="#2385D9" offset="0%"></stop>
            <stop stop-color="#0EC9B0" offset="100%"></stop>
        </linearGradient>
    </defs>
    <g id="Page-1" stroke="none" stroke-width="1" fill="none" fill-rule="evenodd">
        <g id="Code_school_Online_Symbol_Color" transform="translate(-8.000000, -8.000000)" fill-rule="nonzero">
            <g id="Group">
                <g>
                    <path d="M91.3553668,19.344 L39.2619268,19.344 C28.2794039,19.344 19.3438468,28.2795571 19.3438468,39.26208 L19.3438468,91.35552 C19.3438468,102.338043 28.2794039,111.2736 39.2619268,111.2736 L91.3553668,111.2736 C102.33789,111.2736 111.273447,102.338043 111.273447,91.35552 L111.273447,39.26208 C111.273447,28.2795571 102.33789,19.344 91.3553668,19.344 L91.3553668,19.344 Z" id="Path" fill="url(#linearGradient-1)" transform="translate(65.308647, 65.308800) rotate(-315.000000) translate(-65.308647, -65.308800) "></path>
                    <path d="M89.385009,66.3935693 L85.2267268,70.5411264 L85.2267268,77.56608 C85.2267268,80.946025 82.4780317,83.69472 79.0980868,83.69472 C78.2508023,83.69472 77.5659268,83.0083123 77.5659268,82.16256 C77.5659268,81.3168077 78.2508023,80.6304 79.0980868,80.6304 C80.7880593,80.6304 82.1624068,79.2560525 82.1624068,77.56608 L82.1624068,69.90528 C82.1624068,69.4977254 82.3248157,69.1070246 82.6128618,68.8205107 L86.1337655,65.3088 L82.6128618,61.7970893 C82.3248157,61.5090432 82.1624068,61.1198746 82.1624068,60.71232 L82.1624068,53.05152 C82.1624068,51.3615475 80.7880593,49.9872 79.0980868,49.9872 C78.2508023,49.9872 77.5659268,49.3007923 77.5659268,48.45504 C77.5659268,47.6092877 78.2508023,46.92288 79.0980868,46.92288 C82.4780317,46.92288 85.2267268,49.671575 85.2267268,53.05152 L85.2267268,60.0764736 L89.385009,64.2240307 C89.6730551,64.5105446 89.8354641,64.9012454 89.8354641,65.3088 C89.8354641,65.7163546 89.6730551,66.1070554 89.385009,66.3935693 L89.385009,66.3935693 Z M72.8775172,48.9790387 L60.6202372,82.6865587 C60.3934775,83.3086157 59.8051281,83.69472 59.1800068,83.69472 C59.0068727,83.69472 58.8306743,83.665609 58.6560081,83.6027904 C57.8623492,83.3132122 57.4501981,82.4337523 57.7413085,81.6385613 L69.9985885,47.9310413 C70.2866346,47.1373824 71.1630301,46.7282957 71.9612855,47.0148096 C72.7549444,47.3043878 73.1670954,48.1838477 72.8775172,48.9790387 L72.8775172,48.9790387 Z M48.0059639,68.8220429 C48.29401,69.1085568 48.4548868,69.4992576 48.4548868,69.90528 L48.4548868,77.56608 C48.4548868,79.2560525 49.8307665,80.6304 51.5192068,80.6304 C52.3664913,80.6304 53.0513668,81.3168077 53.0513668,82.16256 C53.0513668,83.0083123 52.3664913,83.69472 51.5192068,83.69472 C48.1392618,83.69472 45.3905668,80.946025 45.3905668,77.56608 L45.3905668,70.5395942 L41.2430097,66.3920371 C40.6439351,65.7929626 40.6439351,64.8246374 41.2430097,64.2255629 L45.3905668,60.0780058 L45.3905668,53.05152 C45.3905668,49.671575 48.1392618,46.92288 51.5192068,46.92288 C52.3664913,46.92288 53.0513668,47.6092877 53.0513668,48.45504 C53.0513668,49.3007923 52.3664913,49.9872 51.5192068,49.9872 C49.8307665,49.9872 48.4548868,51.3615475 48.4548868,53.05152 L48.4548868,60.71232 C48.4548868,61.1183424 48.29401,61.5090432 48.0059639,61.7955571 L44.492721,65.3088 L48.0059639,68.8220429 Z" id="Shape" fill="#FFFFFF"></path>
                </g>
            </g>
        </g>
    </g>
</svg>