<?xml version="1.0" encoding="UTF-8"?>
<svg width="567px" height="115px" viewBox="0 0 567 115" version="1.1" xmlns="http://www.w3.org/2000/svg" xmlns:xlink="http://www.w3.org/1999/xlink">
    <!-- Generator: Sketch 62 (91390) - https://sketch.com -->
    <title>Code_school_Online_Logo_Color</title>
    <desc>Created with Sketch.</desc>
    <defs>
        <linearGradient x1="0%" y1="0%" x2="101.999998%" y2="100.999999%" id="linearGradient-1">
            <stop stop-color="#2385D9" offset="0%"></stop>
            <stop stop-color="#0EC9B0" offset="100%"></stop>
        </linearGradient>
    </defs>
    <g id="Page-1" stroke="none" stroke-width="1" fill="none" fill-rule="evenodd">
        <g id="Code_school_Online_Logo_Color" transform="translate(-8.000000, -8.000000)" fill-rule="nonzero">
            <g id="Group-Copy-4" transform="translate(0.000000, 0.200000)">
                <g id="Group">
                    <g>
                        <path d="M91.3553668,19.344 L39.2619268,19.344 C28.2794039,19.344 19.3438468,28.2795571 19.3438468,39.26208 L19.3438468,91.35552 C19.3438468,102.338043 28.2794039,111.2736 39.2619268,111.2736 L91.3553668,111.2736 C102.33789,111.2736 111.273447,102.338043 111.273447,91.35552 L111.273447,39.26208 C111.273447,28.2795571 102.33789,19.344 91.3553668,19.344 L91.3553668,19.344 Z" id="Path" fill="url(#linearGradient-1)" transform="translate(65.308647, 65.308800) rotate(-315.000000) translate(-65.308647, -65.308800) "></path>
                        <path d="M89.385009,66.3935693 L85.2267268,70.5411264 L85.2267268,77.56608 C85.2267268,80.946025 82.4780317,83.69472 79.0980868,83.69472 C78.2508023,83.69472 77.5659268,83.0083123 77.5659268,82.16256 C77.5659268,81.3168077 78.2508023,80.6304 79.0980868,80.6304 C80.7880593,80.6304 82.1624068,79.2560525 82.1624068,77.56608 L82.1624068,69.90528 C82.1624068,69.4977254 82.3248157,69.1070246 82.6128618,68.8205107 L86.1337655,65.3088 L82.6128618,61.7970893 C82.3248157,61.5090432 82.1624068,61.1198746 82.1624068,60.71232 L82.1624068,53.05152 C82.1624068,51.3615475 80.7880593,49.9872 79.0980868,49.9872 C78.2508023,49.9872 77.5659268,49.3007923 77.5659268,48.45504 C77.5659268,47.6092877 78.2508023,46.92288 79.0980868,46.92288 C82.4780317,46.92288 85.2267268,49.671575 85.2267268,53.05152 L85.2267268,60.0764736 L89.385009,64.2240307 C89.6730551,64.5105446 89.8354641,64.9012454 89.8354641,65.3088 C89.8354641,65.7163546 89.6730551,66.1070554 89.385009,66.3935693 L89.385009,66.3935693 Z M72.8775172,48.9790387 L60.6202372,82.6865587 C60.3934775,83.3086157 59.8051281,83.69472 59.1800068,83.69472 C59.0068727,83.69472 58.8306743,83.665609 58.6560081,83.6027904 C57.8623492,83.3132122 57.4501981,82.4337523 57.7413085,81.6385613 L69.9985885,47.9310413 C70.2866346,47.1373824 71.1630301,46.7282957 71.9612855,47.0148096 C72.7549444,47.3043878 73.1670954,48.1838477 72.8775172,48.9790387 L72.8775172,48.9790387 Z M48.0059639,68.8220429 C48.29401,69.1085568 48.4548868,69.4992576 48.4548868,69.90528 L48.4548868,77.56608 C48.4548868,79.2560525 49.8307665,80.6304 51.5192068,80.6304 C52.3664913,80.6304 53.0513668,81.3168077 53.0513668,82.16256 C53.0513668,83.0083123 52.3664913,83.69472 51.5192068,83.69472 C48.1392618,83.69472 45.3905668,80.946025 45.3905668,77.56608 L45.3905668,70.5395942 L41.2430097,66.3920371 C40.6439351,65.7929626 40.6439351,64.8246374 41.2430097,64.2255629 L45.3905668,60.0780058 L45.3905668,53.05152 C45.3905668,49.671575 48.1392618,46.92288 51.5192068,46.92288 C52.3664913,46.92288 53.0513668,47.6092877 53.0513668,48.45504 C53.0513668,49.3007923 52.3664913,49.9872 51.5192068,49.9872 C49.8307665,49.9872 48.4548868,51.3615475 48.4548868,53.05152 L48.4548868,60.71232 C48.4548868,61.1183424 48.29401,61.5090432 48.0059639,61.7955571 L44.492721,65.3088 L48.0059639,68.8220429 Z" id="Shape" fill="#FFFFFF"></path>
                    </g>
                </g>
            </g>
            <path d="M179.136,108.864 C184.256,108.864 188.224,107.856 191.04,105.84 C193.856,103.824 195.84,101.008 196.992,97.392 C198.144,93.776 198.72,89.6 198.72,84.864 L198.72,84.864 L198.72,79.104 L188.448,79.104 L188.448,84.864 C188.448,87.936 188.288,90.624 187.968,92.928 C187.648,95.232 186.848,97.04 185.568,98.352 C184.288,99.664 182.176,100.32 179.232,100.32 C176.736,100.32 174.752,99.84 173.28,98.88 C171.808,97.92 170.752,96.304 170.112,94.032 C169.472,91.76 169.152,88.672 169.152,84.768 L169.152,84.768 L169.152,53.952 C169.152,50.752 169.36,47.952 169.776,45.552 C170.192,43.152 171.104,41.296 172.512,39.984 C173.92,38.672 176.16,38.016 179.232,38.016 C182.24,38.016 184.384,38.624 185.664,39.84 C186.944,41.056 187.728,42.768 188.016,44.976 C188.304,47.184 188.448,49.728 188.448,52.608 L188.448,52.608 L188.448,58.08 L198.72,58.08 L198.72,51.936 C198.72,47.264 198.096,43.264 196.848,39.936 C195.6,36.608 193.552,34.048 190.704,32.256 C187.856,30.464 184,29.568 179.136,29.568 C173.632,29.568 169.36,30.64 166.32,32.784 C163.28,34.928 161.168,37.952 159.984,41.856 C158.8,45.76 158.208,50.336 158.208,55.584 L158.208,55.584 L158.208,83.04 C158.208,87.84 158.8,92.192 159.984,96.096 C161.168,100 163.28,103.104 166.32,105.408 C169.36,107.712 173.632,108.864 179.136,108.864 Z M223.488,108.768 C227.584,108.768 230.8,107.936 233.136,106.272 C235.472,104.608 237.136,102.24 238.128,99.168 C239.12,96.096 239.616,92.48 239.616,88.32 L239.616,88.32 L239.616,72.192 C239.616,68.032 239.12,64.416 238.128,61.344 C237.136,58.272 235.472,55.904 233.136,54.24 C230.8,52.576 227.584,51.744 223.488,51.744 C219.392,51.744 216.16,52.576 213.792,54.24 C211.424,55.904 209.744,58.272 208.752,61.344 C207.76,64.416 207.264,68.032 207.264,72.192 L207.264,72.192 L207.264,88.32 C207.264,92.48 207.76,96.096 208.752,99.168 C209.744,102.24 211.424,104.608 213.792,106.272 C216.16,107.936 219.392,108.768 223.488,108.768 Z M223.488,101.184 C221.504,101.184 220.096,100.608 219.264,99.456 C218.432,98.304 217.936,96.784 217.776,94.896 C217.616,93.008 217.536,91.04 217.536,88.992 L217.536,88.992 L217.536,71.616 C217.536,69.504 217.616,67.52 217.776,65.664 C217.936,63.808 218.432,62.288 219.264,61.104 C220.096,59.92 221.504,59.328 223.488,59.328 C225.472,59.328 226.864,59.92 227.664,61.104 C228.464,62.288 228.944,63.808 229.104,65.664 C229.264,67.52 229.344,69.504 229.344,71.616 L229.344,71.616 L229.344,88.992 C229.344,91.04 229.264,93.008 229.104,94.896 C228.944,96.784 228.464,98.304 227.664,99.456 C226.864,100.608 225.472,101.184 223.488,101.184 Z M261.888,108.768 C263.744,108.768 265.392,108.368 266.832,107.568 C268.272,106.768 269.6,105.728 270.816,104.448 L270.816,104.448 L270.816,108 L281.088,108 L281.088,30.24 L270.816,30.24 L270.816,56.064 C269.6,54.848 268.224,53.824 266.688,52.992 C265.152,52.16 263.456,51.744 261.6,51.744 C257.824,51.744 254.96,52.832 253.008,55.008 C251.056,57.184 249.728,60.08 249.024,63.696 C248.32,67.312 247.968,71.232 247.968,75.456 L247.968,75.456 L247.968,86.208 C247.968,94.4 249.12,100.208 251.424,103.632 C253.728,107.056 257.216,108.768 261.888,108.768 Z M264.48,100.704 C262.688,100.704 261.344,100.112 260.448,98.928 C259.552,97.744 258.96,96.112 258.672,94.032 C258.384,91.952 258.24,89.632 258.24,87.072 L258.24,87.072 L258.24,71.424 C258.24,68.224 258.656,65.488 259.488,63.216 C260.32,60.944 261.92,59.808 264.288,59.808 C265.568,59.808 266.752,60.048 267.84,60.528 C268.928,61.008 269.92,61.568 270.816,62.208 L270.816,62.208 L270.816,98.592 C269.728,99.296 268.64,99.824 267.552,100.176 C266.464,100.528 265.44,100.704 264.48,100.704 Z M306.816,108.768 C312.512,108.768 316.544,107.168 318.912,103.968 C321.28,100.768 322.464,96.384 322.464,90.816 L322.464,90.816 L322.464,88.704 L312.48,88.704 L312.48,92.064 C312.48,93.92 312.336,95.536 312.048,96.912 C311.76,98.288 311.216,99.344 310.416,100.08 C309.616,100.816 308.448,101.184 306.912,101.184 C305.44,101.184 304.24,100.848 303.312,100.176 C302.384,99.504 301.712,98.464 301.296,97.056 C300.88,95.648 300.672,93.824 300.672,91.584 L300.672,91.584 L300.672,80.448 L322.56,80.448 L322.56,75.936 C322.56,70.88 322.208,66.544 321.504,62.928 C320.8,59.312 319.344,56.544 317.136,54.624 C314.928,52.704 311.488,51.744 306.816,51.744 C302.592,51.744 299.28,52.576 296.88,54.24 C294.48,55.904 292.8,58.368 291.84,61.632 C290.88,64.896 290.4,68.992 290.4,73.92 L290.4,73.92 L290.4,86.592 C290.4,91.392 290.864,95.44 291.792,98.736 C292.72,102.032 294.368,104.528 296.736,106.224 C299.104,107.92 302.464,108.768 306.816,108.768 Z M312.48,74.88 L300.672,74.88 L300.672,71.904 C300.672,68.704 300.832,66.192 301.152,64.368 C301.472,62.544 302.064,61.248 302.928,60.48 C303.792,59.712 305.056,59.328 306.72,59.328 C308.448,59.328 309.712,59.728 310.512,60.528 C311.312,61.328 311.84,62.512 312.096,64.08 C312.352,65.648 312.48,67.584 312.48,69.888 L312.48,69.888 L312.48,74.88 Z M373.056,108.864 C376.704,108.864 379.92,108.128 382.704,106.656 C385.488,105.184 387.68,103.056 389.28,100.272 C390.88,97.488 391.68,94.176 391.68,90.336 C391.68,85.472 390.56,81.264 388.32,77.712 C386.08,74.16 383.488,71.104 380.544,68.544 L380.544,68.544 L367.392,57.024 C365.6,55.424 364.304,53.856 363.504,52.32 C362.704,50.784 362.304,48.832 362.304,46.464 C362.304,43.648 363.056,41.52 364.56,40.08 C366.064,38.64 368.16,37.92 370.848,37.92 C373.536,37.92 375.6,38.576 377.04,39.888 C378.48,41.2 379.488,42.928 380.064,45.072 C380.64,47.216 381.024,49.568 381.216,52.128 L381.216,52.128 L390.432,49.632 C390.112,46.24 389.488,43.28 388.56,40.752 C387.632,38.224 386.384,36.128 384.816,34.464 C383.248,32.8 381.296,31.568 378.96,30.768 C376.624,29.968 373.92,29.568 370.848,29.568 C365.216,29.568 360.768,31.136 357.504,34.272 C354.24,37.408 352.608,41.824 352.608,47.52 C352.608,51.424 353.216,54.704 354.432,57.36 C355.648,60.016 357.536,62.464 360.096,64.704 L360.096,64.704 L373.152,76.224 C375.584,78.4 377.6,80.56 379.2,82.704 C380.8,84.848 381.6,87.68 381.6,91.2 C381.6,94.144 380.88,96.4 379.44,97.968 C378,99.536 375.872,100.32 373.056,100.32 C370.304,100.32 368.16,99.504 366.624,97.872 C365.088,96.24 363.984,94.144 363.312,91.584 C362.64,89.024 362.208,86.368 362.016,83.616 L362.016,83.616 L352.416,86.208 C352.672,90.688 353.568,94.624 355.104,98.016 C356.64,101.408 358.896,104.064 361.872,105.984 C364.848,107.904 368.576,108.864 373.056,108.864 Z M414.432,108.768 C418.4,108.768 421.488,108.064 423.696,106.656 C425.904,105.248 427.44,103.2 428.304,100.512 C429.168,97.824 429.6,94.624 429.6,90.912 L429.6,90.912 L429.6,87.072 L420.288,87.072 L420.288,91.584 C420.288,93.44 420.176,95.104 419.952,96.576 C419.728,98.048 419.216,99.184 418.416,99.984 C417.616,100.784 416.352,101.184 414.624,101.184 C412.32,101.184 410.72,100.384 409.824,98.784 C408.928,97.184 408.48,94.016 408.48,89.28 L408.48,89.28 L408.48,71.808 C408.48,68.672 408.624,66.192 408.912,64.368 C409.2,62.544 409.792,61.248 410.688,60.48 C411.584,59.712 412.864,59.328 414.528,59.328 C416.064,59.328 417.248,59.648 418.08,60.288 C418.912,60.928 419.488,61.952 419.808,63.36 C420.128,64.768 420.288,66.688 420.288,69.12 L420.288,69.12 L420.288,72.48 L429.6,72.48 L429.6,69.216 C429.6,65.376 429.184,62.16 428.352,59.568 C427.52,56.976 426,55.024 423.792,53.712 C421.584,52.4 418.464,51.744 414.432,51.744 C409.952,51.744 406.544,52.624 404.208,54.384 C401.872,56.144 400.288,58.672 399.456,61.968 C398.624,65.264 398.208,69.248 398.208,73.92 L398.208,73.92 L398.208,86.688 C398.208,91.104 398.608,94.976 399.408,98.304 C400.208,101.632 401.776,104.208 404.112,106.032 C406.448,107.856 409.888,108.768 414.432,108.768 Z M449.28,108 L449.28,63.456 C450.432,62.432 451.664,61.568 452.976,60.864 C454.288,60.16 455.552,59.808 456.768,59.808 C458.56,59.808 459.744,60.352 460.32,61.44 C460.896,62.528 461.184,64.064 461.184,66.048 L461.184,66.048 L461.184,108 L471.456,108 L471.456,63.072 C471.456,61.28 471.216,59.52 470.736,57.792 C470.256,56.064 469.424,54.624 468.24,53.472 C467.056,52.32 465.376,51.744 463.2,51.744 C460.384,51.744 457.824,52.384 455.52,53.664 C453.216,54.944 451.136,56.48 449.28,58.272 L449.28,58.272 L449.28,30.24 L439.008,30.24 L439.008,108 L449.28,108 Z M496.704,108.768 C500.8,108.768 504.016,107.936 506.352,106.272 C508.688,104.608 510.352,102.24 511.344,99.168 C512.336,96.096 512.832,92.48 512.832,88.32 L512.832,88.32 L512.832,72.192 C512.832,68.032 512.336,64.416 511.344,61.344 C510.352,58.272 508.688,55.904 506.352,54.24 C504.016,52.576 500.8,51.744 496.704,51.744 C492.608,51.744 489.376,52.576 487.008,54.24 C484.64,55.904 482.96,58.272 481.968,61.344 C480.976,64.416 480.48,68.032 480.48,72.192 L480.48,72.192 L480.48,88.32 C480.48,92.48 480.976,96.096 481.968,99.168 C482.96,102.24 484.64,104.608 487.008,106.272 C489.376,107.936 492.608,108.768 496.704,108.768 Z M496.704,101.184 C494.72,101.184 493.312,100.608 492.48,99.456 C491.648,98.304 491.152,96.784 490.992,94.896 C490.832,93.008 490.752,91.04 490.752,88.992 L490.752,88.992 L490.752,71.616 C490.752,69.504 490.832,67.52 490.992,65.664 C491.152,63.808 491.648,62.288 492.48,61.104 C493.312,59.92 494.72,59.328 496.704,59.328 C498.688,59.328 500.08,59.92 500.88,61.104 C501.68,62.288 502.16,63.808 502.32,65.664 C502.48,67.52 502.56,69.504 502.56,71.616 L502.56,71.616 L502.56,88.992 C502.56,91.04 502.48,93.008 502.32,94.896 C502.16,96.784 501.68,98.304 500.88,99.456 C500.08,100.608 498.688,101.184 496.704,101.184 Z M537.504,108.768 C541.6,108.768 544.816,107.936 547.152,106.272 C549.488,104.608 551.152,102.24 552.144,99.168 C553.136,96.096 553.632,92.48 553.632,88.32 L553.632,88.32 L553.632,72.192 C553.632,68.032 553.136,64.416 552.144,61.344 C551.152,58.272 549.488,55.904 547.152,54.24 C544.816,52.576 541.6,51.744 537.504,51.744 C533.408,51.744 530.176,52.576 527.808,54.24 C525.44,55.904 523.76,58.272 522.768,61.344 C521.776,64.416 521.28,68.032 521.28,72.192 L521.28,72.192 L521.28,88.32 C521.28,92.48 521.776,96.096 522.768,99.168 C523.76,102.24 525.44,104.608 527.808,106.272 C530.176,107.936 533.408,108.768 537.504,108.768 Z M537.504,101.184 C535.52,101.184 534.112,100.608 533.28,99.456 C532.448,98.304 531.952,96.784 531.792,94.896 C531.632,93.008 531.552,91.04 531.552,88.992 L531.552,88.992 L531.552,71.616 C531.552,69.504 531.632,67.52 531.792,65.664 C531.952,63.808 532.448,62.288 533.28,61.104 C534.112,59.92 535.52,59.328 537.504,59.328 C539.488,59.328 540.88,59.92 541.68,61.104 C542.48,62.288 542.96,63.808 543.12,65.664 C543.28,67.52 543.36,69.504 543.36,71.616 L543.36,71.616 L543.36,88.992 C543.36,91.04 543.28,93.008 543.12,94.896 C542.96,96.784 542.48,98.304 541.68,99.456 C540.88,100.608 539.488,101.184 537.504,101.184 Z M574.272,108 L574.272,30.24 L564,30.24 L564,108 L574.272,108 Z" id="CodeSchool" fill="#FFFFFF"></path>
        </g>
    </g>
</svg>