<?xml version="1.0" standalone="no"?>
<!DOCTYPE svg PUBLIC "-//W3C//DTD SVG 20010904//EN"
 "http://www.w3.org/TR/2001/REC-SVG-20010904/DTD/svg10.dtd">
<svg version="1.0" xmlns="http://www.w3.org/2000/svg"
 width="1280.000000pt" height="501.000000pt" viewBox="0 0 1280.000000 501.000000"
 preserveAspectRatio="xMidYMid meet">
<metadata>
Created by potrace 1.15, written by Peter Selinger 2001-2017
</metadata>
<g transform="translate(0.000000,501.000000) scale(0.100000,-0.100000)"
fill="#000000" stroke="none">
<path d="M6260 3859 c-145 -11 -261 -37 -323 -74 -52 -30 -127 -104 -169 -166
-16 -24 -36 -48 -44 -52 -8 -5 -60 2 -122 15 -91 19 -136 23 -297 23 -196 0
-239 -5 -525 -56 -212 -39 -376 -78 -518 -124 -147 -47 -314 -85 -379 -85 -28
0 -117 -11 -197 -25 -171 -29 -214 -31 -344 -8 -129 22 -388 22 -547 -1 -66
-9 -201 -32 -300 -51 -615 -117 -862 -127 -1105 -45 -63 21 -149 48 -190 60
-41 12 -139 56 -219 97 l-145 76 -66 -8 c-36 -3 -82 -6 -103 -5 -24 0 -39 -4
-43 -14 -3 -8 -14 -16 -24 -19 -26 -7 -73 -92 -66 -121 10 -40 44 -74 94 -92
26 -10 64 -35 84 -56 49 -50 99 -74 216 -104 180 -47 223 -73 281 -173 44 -74
96 -127 137 -137 44 -11 96 4 212 63 l112 57 115 4 c77 3 155 -1 237 -13 180
-25 505 -89 643 -126 113 -31 130 -33 285 -33 150 0 179 3 315 34 141 31 163
33 365 35 159 1 258 8 380 24 147 21 190 22 395 17 267 -7 395 -18 630 -52 94
-13 222 -32 285 -41 63 -9 116 -17 118 -18 1 -1 -6 -22 -17 -46 -11 -24 -49
-150 -86 -279 -37 -129 -81 -266 -98 -305 -40 -89 -42 -157 -8 -235 57 -133
169 -326 262 -451 55 -74 111 -152 124 -174 l23 -40 -39 -118 -40 -117 -84
-83 c-86 -85 -104 -120 -66 -132 24 -7 48 2 96 40 22 17 52 39 68 48 23 15 27
15 27 2 0 -8 -14 -40 -31 -70 -34 -61 -33 -81 6 -91 32 -8 56 12 116 102 43
63 44 64 90 64 46 0 46 0 53 -38 3 -20 6 -56 6 -80 0 -62 14 -82 56 -82 40 0
54 24 54 94 0 24 3 58 6 75 6 30 8 31 58 31 51 0 51 0 127 -80 42 -44 83 -80
91 -80 9 0 26 9 39 19 l24 20 -35 67 c-19 37 -50 85 -68 107 -25 31 -30 42
-20 48 28 18 81 7 160 -31 96 -46 155 -53 188 -20 26 26 17 45 -28 63 -20 8
-48 27 -62 42 -14 15 -41 35 -61 45 -20 11 -59 38 -87 62 -34 29 -73 51 -120
66 -85 27 -114 57 -196 196 -68 115 -92 177 -145 368 -22 79 -51 174 -64 211
l-25 69 38 71 c20 40 55 114 75 165 31 74 41 91 54 86 26 -11 120 -5 199 13
l73 16 42 -44 c24 -25 78 -64 126 -89 69 -37 93 -56 138 -112 72 -90 85 -90
158 2 48 60 68 76 138 111 47 24 98 59 119 81 l37 40 51 -11 c76 -16 171 -14
198 5 22 15 23 14 48 -43 14 -32 48 -105 76 -161 49 -103 49 -104 35 -145 -8
-23 -24 -96 -37 -162 -47 -247 -78 -358 -128 -466 -43 -92 -57 -112 -108 -155
-33 -27 -88 -77 -123 -112 -35 -35 -84 -74 -110 -86 -25 -13 -55 -33 -65 -45
-11 -12 -39 -30 -63 -41 -24 -10 -43 -26 -43 -34 0 -54 98 -62 197 -16 34 17
74 30 88 30 l25 0 -46 -90 c-25 -50 -44 -98 -42 -107 4 -20 48 -39 71 -30 8 3
45 44 83 91 l68 86 53 0 c36 0 53 -4 53 -12 1 -57 21 -192 31 -204 14 -17 63
-18 76 -1 6 6 13 54 16 106 3 51 8 95 11 98 3 3 16 3 29 0 17 -5 33 -28 63
-89 38 -81 40 -83 78 -86 l38 -3 -5 43 c-3 24 -10 62 -15 86 -8 38 -8 42 10
42 22 0 56 -21 119 -72 32 -26 57 -38 77 -38 65 0 54 25 -64 145 -76 77 -80
84 -118 190 -21 61 -40 121 -43 135 -5 30 19 78 129 252 43 70 104 183 134
250 119 268 127 319 69 448 -19 43 -35 82 -35 87 0 20 -118 401 -139 447 -12
27 -20 50 -19 51 2 0 71 12 153 24 559 86 928 105 1244 63 118 -16 217 -22
349 -22 168 0 196 -3 335 -32 140 -29 167 -32 337 -32 171 0 192 2 280 27 209
60 619 134 795 144 148 8 226 -7 345 -65 81 -39 104 -46 157 -46 57 -1 65 2
97 33 19 19 52 66 72 105 61 118 98 147 260 200 99 32 160 70 205 125 18 23
52 50 76 61 43 19 83 68 83 102 0 31 -43 108 -64 114 -12 4 -24 11 -27 17 -11
15 -179 17 -215 2 -17 -7 -78 -43 -135 -80 -114 -74 -145 -90 -329 -166 -142
-59 -201 -75 -309 -84 -138 -12 -457 24 -801 90 -282 54 -374 66 -565 72 -153
4 -199 2 -308 -16 -151 -25 -173 -25 -263 -7 -101 21 -196 35 -309 46 -116 11
-189 28 -335 75 -264 85 -677 165 -954 185 -144 10 -241 3 -401 -29 -49 -10
-96 -16 -102 -13 -7 2 -21 18 -32 35 -45 72 -186 179 -287 216 -31 12 -91 26
-131 31 -113 15 -472 20 -613 9z"/>
</g>
</svg>
