<?xml version="1.0" standalone="no"?>
<!DOCTYPE svg PUBLIC "-//W3C//DTD SVG 20010904//EN"
 "http://www.w3.org/TR/2001/REC-SVG-20010904/DTD/svg10.dtd">
<svg version="1.0" xmlns="http://www.w3.org/2000/svg"
 width="920.000000pt" height="651.000000pt" viewBox="0 0 920.000000 651.000000"
 preserveAspectRatio="xMidYMid meet">

<g transform="translate(0.000000,651.000000) scale(0.100000,-0.100000)"
fill="#000000" stroke="none">
<path d="M6266 5767 c-41 -53 -65 -117 -72 -192 -9 -96 -37 -138 -117 -176
-50 -23 -55 -27 -27 -22 106 18 149 69 161 190 9 85 30 149 69 203 29 41 17
38 -14 -3z"/>
<path d="M5970 5729 c-32 -12 -42 -18 -24 -15 31 5 109 35 89 34 -5 0 -35 -9
-65 -19z"/>
<path d="M5850 5704 c-8 -2 -87 -10 -175 -18 -135 -11 -169 -18 -217 -40 -52
-24 -130 -95 -155 -141 -19 -33 -28 -7 -15 42 7 25 10 48 7 51 -3 3 -25 -15
-49 -40 -44 -46 -100 -167 -112 -241 -3 -18 10 6 28 53 19 47 47 108 63 135
30 50 30 50 33 20 5 -47 22 -105 31 -105 4 0 13 17 19 38 7 22 27 59 46 84 64
84 159 122 331 133 94 6 260 33 205 33 -14 0 -32 -2 -40 -4z"/>
<path d="M5639 5507 c-43 -29 -62 -81 -48 -131 13 -46 40 -71 98 -91 59 -20
156 -32 148 -18 -4 6 -26 13 -49 15 -75 9 -157 46 -173 78 -30 59 -17 105 43
145 20 14 32 25 26 25 -6 0 -26 -10 -45 -23z"/>
<path d="M5239 5224 c-35 -26 -100 -84 -144 -129 -217 -221 -351 -499 -420
-870 l-8 -40 -9 30 c-5 17 -12 100 -15 186 -6 178 9 295 59 439 33 95 103 233
146 288 46 59 49 66 21 52 -55 -29 -150 -103 -194 -152 -133 -146 -240 -392
-261 -595 -4 -35 -10 -63 -14 -63 -20 0 -53 120 -57 210 -9 159 44 326 154
492 26 40 52 79 56 86 21 33 -83 -39 -148 -103 -86 -83 -179 -222 -236 -354
-23 -53 -46 -100 -51 -106 -7 -7 -9 17 -6 70 5 75 22 137 72 260 15 36 15 38
1 20 -35 -43 -126 -244 -145 -319 -93 -369 140 -692 645 -895 100 -39 155 -57
155 -49 0 3 -14 33 -31 69 -44 90 -70 159 -61 159 24 0 99 -113 172 -260 75
-151 230 -348 355 -452 41 -34 73 -63 71 -65 -3 -4 -177 -45 -366 -88 -63 -14
-123 -28 -132 -31 -20 -6 -20 -8 12 156 11 52 21 129 24 170 l4 75 -10 -75
c-5 -41 -18 -113 -28 -160 -10 -47 -22 -106 -25 -131 l-7 -46 -176 -42 c-98
-23 -239 -57 -316 -76 l-138 -33 -39 35 c-21 20 -39 32 -39 27 0 -4 15 -20 33
-35 24 -21 28 -29 17 -33 -8 -3 -127 -32 -265 -65 l-250 -60 -55 52 -55 52 49
-52 c35 -37 45 -54 35 -57 -16 -6 -689 -166 -697 -166 -2 0 -2 18 2 40 6 36 4
40 -15 40 -21 0 -84 -57 -104 -93 -7 -14 -53 -29 -175 -58 -91 -21 -222 -53
-293 -70 -125 -30 -128 -30 -176 -14 -28 9 -71 15 -98 13 -50 -4 -49 -5 20
-30 15 -6 27 -14 27 -18 0 -12 -61 -21 -120 -16 -39 2 -45 2 -20 -3 44 -9 36
-13 -114 -47 -66 -15 -116 -29 -110 -31 5 -1 72 12 149 31 127 30 143 32 175
20 61 -24 257 -251 316 -367 70 -136 227 -209 442 -206 l87 2 -100 8 c-119 10
-242 46 -308 90 -35 23 -67 60 -121 142 -86 130 -230 295 -281 323 -38 20 -45
34 -17 34 9 0 26 3 38 6 33 9 176 -133 258 -255 104 -155 202 -234 324 -260
67 -14 98 -14 164 0 l53 12 -80 22 c-102 28 -124 37 -188 78 -64 42 -102 80
-180 181 -71 93 -152 176 -208 213 -22 14 -36 29 -32 33 4 4 33 12 63 18 30 7
149 34 265 62 115 27 214 50 220 50 6 0 10 -49 10 -133 0 -132 0 -132 -33
-181 -17 -28 -32 -55 -32 -60 0 -6 12 9 26 34 14 25 34 54 44 65 15 17 17 27
10 65 -11 53 -12 145 -4 188 5 26 13 32 49 41 24 6 46 11 48 11 3 0 7 -18 11
-41 10 -64 41 -115 126 -204 104 -111 130 -189 95 -290 -4 -13 -1 -12 9 5 8
14 16 34 16 45 1 18 2 17 15 -5 45 -80 18 -167 -68 -225 -29 -19 -47 -35 -40
-35 22 0 108 66 126 98 21 36 26 87 14 146 l-8 39 42 -6 c56 -7 147 -55 173
-90 15 -21 22 -47 24 -101 5 -87 -14 -134 -87 -210 -30 -33 -36 -42 -16 -27
141 106 164 299 47 388 -54 41 -138 67 -186 57 -36 -6 -36 -6 -36 30 0 53 -42
127 -119 210 -72 78 -100 127 -108 185 l-5 37 350 82 c192 45 355 82 361 82 7
0 35 -18 64 -39 70 -52 147 -90 211 -103 l53 -10 16 -73 c47 -217 180 -367
322 -364 28 1 41 3 30 5 -122 24 -125 26 -180 76 -66 60 -122 165 -155 290
l-22 85 -50 6 c-56 7 -176 63 -227 106 l-35 29 33 7 c27 6 37 3 59 -18 42 -40
139 -94 192 -108 l49 -12 26 -76 c66 -186 168 -286 304 -297 l56 -5 -50 18
c-65 24 -114 61 -163 126 -45 58 -104 170 -123 235 -9 33 -18 44 -38 48 -98
22 -153 39 -209 65 -36 16 -63 31 -61 33 2 2 105 27 228 56 174 41 228 50 246
42 58 -27 305 -344 389 -499 l44 -83 -42 -18 c-22 -11 -56 -32 -75 -48 -35
-29 -91 -109 -91 -128 0 -6 9 5 21 24 44 74 137 150 183 150 9 0 32 -26 52
-57 20 -32 50 -73 65 -91 16 -18 29 -36 29 -40 0 -4 -20 -15 -44 -25 -52 -22
-116 -87 -145 -149 -12 -23 -16 -35 -9 -24 70 102 121 147 186 166 35 9 37 8
103 -57 76 -74 168 -141 244 -178 27 -14 131 -50 230 -81 312 -97 535 -187
653 -264 l47 -30 -33 28 c-90 79 -385 204 -727 308 -166 50 -279 114 -402 227
-49 45 -53 56 -19 50 22 -5 26 -1 32 32 14 77 -20 153 -90 196 -24 16 -44 19
-93 17 l-62 -4 -33 65 c-60 119 -299 438 -376 501 -35 29 -35 29 -11 35 13 3
145 35 293 70 148 36 272 65 276 65 3 0 4 -28 2 -63 -8 -130 37 -290 91 -319
10 -5 19 -8 20 -6 45 89 87 133 162 169 97 47 144 35 112 -28 -20 -38 -58 -71
-145 -128 -109 -71 -153 -137 -132 -201 8 -24 19 -36 38 -40 15 -3 32 -7 38
-9 17 -5 153 24 194 42 19 8 58 18 85 23 49 7 50 8 10 9 -22 0 -76 -11 -120
-25 -44 -14 -105 -28 -136 -31 -49 -5 -59 -3 -79 17 -46 46 -1 124 114 197
112 71 166 130 166 182 0 56 -115 47 -198 -17 -51 -39 -78 -69 -103 -115 l-16
-30 -26 34 c-40 54 -58 133 -55 244 l3 98 90 23 c50 13 170 43 269 68 l179 45
63 -40 c67 -43 200 -103 249 -114 17 -4 -5 9 -48 28 -92 42 -227 117 -227 128
0 4 39 17 88 28 48 12 193 48 322 81 129 32 236 58 238 56 2 -2 -15 -34 -37
-70 l-40 -67 30 22 c27 19 133 145 134 159 1 3 11 28 24 55 40 89 53 156 58
305 4 115 9 150 23 170 40 58 33 136 -25 280 -19 47 -39 111 -44 141 -5 32 -9
42 -10 25 -1 -37 25 -136 54 -207 31 -73 41 -147 25 -193 -6 -20 -15 -36 -20
-36 -4 0 -11 26 -15 58 -4 31 -18 91 -31 132 -41 131 -56 212 -59 324 -5 127
-3 123 -118 197 -254 163 -583 268 -927 294 -103 8 -95 15 -179 -145 -68 -131
-111 -242 -146 -382 -34 -131 -31 -140 10 -35 88 225 239 424 377 497 l47 25
158 -39 c262 -65 478 -143 526 -190 9 -10 17 -14 17 -10 0 3 7 1 15 -6 44 -36
-2 -131 -110 -225 -157 -139 -183 -166 -214 -229 -18 -35 -35 -83 -38 -107
l-6 -44 44 65 c56 84 169 198 239 242 65 41 144 73 159 63 23 -14 12 -82 -24
-141 -20 -32 -43 -82 -52 -111 -23 -72 -74 -123 -157 -157 -36 -14 -73 -26
-81 -26 -25 0 -61 -21 -75 -43 -17 -27 -31 -89 -19 -81 5 3 9 14 9 25 0 37 50
74 116 87 110 22 186 88 223 193 23 66 63 149 72 149 3 0 14 -29 23 -64 10
-35 28 -87 42 -115 20 -44 23 -62 17 -111 -7 -71 8 -115 48 -135 25 -13 28
-21 34 -87 9 -97 -9 -221 -48 -337 l-32 -95 -110 -27 c-60 -14 -217 -52 -348
-84 l-237 -57 -71 57 c-140 115 -274 279 -372 455 -32 58 -68 120 -80 139 -20
33 -20 34 -1 27 101 -41 136 -48 280 -54 120 -6 156 -11 178 -26 15 -9 30 -16
32 -13 3 3 -12 15 -33 28 -33 20 -55 24 -173 30 -251 13 -292 31 -388 172 -44
65 -80 142 -70 152 2 2 21 0 43 -5 22 -5 112 -15 200 -21 180 -13 239 -28 314
-83 115 -85 171 -215 171 -401 l0 -90 54 3 c30 2 64 -2 76 -8 14 -8 20 -8 16
-1 -10 15 -81 33 -108 26 -23 -6 -24 -5 -20 64 17 299 -165 500 -453 501 -78
0 -237 15 -282 26 -14 4 -23 14 -23 25 0 42 83 339 126 447 104 265 262 488
442 623 70 53 78 59 70 59 -3 0 -34 -21 -69 -46z m886 -1323 c9 -29 14 -55 12
-57 -2 -2 -13 6 -24 19 -21 21 -27 46 -24 97 2 34 16 12 36 -59z m-1374 36
c12 -22 12 -22 -10 -3 -11 11 -21 23 -21 28 0 14 19 -1 31 -25z m-1846 -1359
c-9 -40 -3 -35 -49 -43 -36 -7 -38 -7 -27 13 12 23 58 62 73 62 6 0 7 -14 3
-32z m1876 -348 c23 0 89 -75 100 -112 15 -59 5 -88 -30 -88 -23 0 -38 11 -68
48 -41 49 -103 137 -103 146 0 6 61 14 78 9 8 -1 18 -3 23 -3z"/>
<path d="M5954 5124 c-98 -46 -258 -53 -428 -18 -38 8 -71 13 -73 11 -2 -2 15
-21 37 -41 22 -20 40 -38 40 -40 0 -9 -104 25 -136 44 -44 25 -84 32 -119 20
-30 -10 -29 -10 6 -5 26 4 48 -2 85 -21 78 -42 153 -64 234 -69 l75 -5 -55 20
c-30 11 -68 31 -85 45 l-30 24 50 -7 c28 -4 109 -7 180 -6 109 0 139 4 186 22
30 12 64 29 75 37 26 20 18 18 -42 -11z"/>
<path d="M6435 5005 c25 -66 34 -205 16 -234 -8 -12 -16 -9 -45 17 -84 74
-200 141 -322 187 -84 32 -93 31 -54 -1 37 -32 67 -88 76 -143 l7 -41 -79 28
c-106 39 -201 60 -309 66 l-90 6 100 -35 c222 -78 393 -185 502 -316 58 -69
128 -193 118 -210 -4 -5 0 -18 9 -28 27 -30 48 -155 44 -263 -2 -53 0 -91 4
-85 4 7 8 20 8 30 0 9 6 17 13 17 6 0 26 26 44 58 159 290 163 590 12 871 -40
76 -70 117 -54 76z"/>
<path d="M6573 4870 c80 -210 103 -478 58 -650 -36 -137 -138 -306 -171 -285
-9 6 -11 4 -6 -4 5 -7 0 -21 -10 -32 -9 -10 -12 -19 -6 -19 6 0 14 5 17 10 12
19 22 10 33 -29 24 -79 5 -141 -49 -160 -38 -13 -49 -8 -50 27 l-1 27 -7 -28
-6 -29 -39 27 -39 26 7 -41 c8 -51 30 -96 64 -132 l25 -28 -11 -107 c-19 -176
-77 -362 -171 -553 -23 -47 -33 -74 -22 -60 36 44 129 242 155 330 30 99 56
253 56 327 l0 51 58 -5 c85 -7 127 14 158 80 47 102 26 218 -57 302 l-39 41
26 34 c45 61 94 168 109 241 21 99 19 277 -4 397 -20 103 -75 280 -92 297 -6
5 1 -19 14 -55z m23 -1023 c37 -69 39 -152 3 -223 -21 -43 -30 -50 -72 -63
-34 -10 -58 -12 -85 -5 -36 9 -37 10 -40 60 l-3 52 35 6 c72 14 104 106 67
191 -20 45 -20 49 -4 67 16 18 17 18 44 -8 14 -14 39 -49 55 -77z m-212 -192
c8 -29 7 -65 -2 -65 -11 0 -72 105 -72 124 0 13 69 -42 74 -59z"/>
<path d="M5285 4891 c159 -25 270 -52 389 -95 225 -82 455 -231 600 -388 42
-46 76 -78 76 -72 0 23 -202 222 -284 281 -211 150 -552 269 -821 287 -74 5
-71 4 40 -13z"/>
<path d="M3996 4665 c-3 -9 -6 -24 -5 -33 0 -9 5 -4 10 12 9 32 6 48 -5 21z"/>
<path d="M3982 4580 c0 -19 2 -27 5 -17 2 9 2 25 0 35 -3 9 -5 1 -5 -18z"/>
<path d="M5848 4532 c-31 -55 -107 -132 -198 -199 -120 -90 -161 -171 -159
-317 l2 -81 7 80 c15 157 43 201 240 376 65 58 151 171 139 184 -3 2 -17 -17
-31 -43z"/>
<path d="M3975 4430 c4 -139 32 -240 98 -343 83 -131 237 -262 402 -345 93
-46 385 -147 385 -132 0 3 -51 23 -114 44 -203 67 -430 191 -544 299 -52 49
-116 136 -150 203 -44 87 -64 165 -73 284 l-7 105 3 -115z"/>
<path d="M4730 4051 c1 -3 20 -27 43 -53 l42 -47 45 10 c124 29 318 -30 428
-130 50 -46 54 -32 10 35 -55 81 -176 142 -336 168 -98 17 -232 26 -232 17z"/>
<path d="M6372 3780 c0 -14 2 -19 5 -12 2 6 2 18 0 25 -3 6 -5 1 -5 -13z"/>
<path d="M6303 3521 c-3 -158 -72 -348 -177 -487 -25 -34 -100 -109 -165 -167
-111 -99 -217 -211 -257 -272 -25 -39 -7 -49 99 -53 138 -6 153 0 197 83 20
39 72 124 117 190 44 66 95 149 113 185 82 163 122 354 101 488 -17 111 -26
121 -28 33z"/>
<path d="M6262 3570 c0 -14 2 -19 5 -12 2 6 2 18 0 25 -3 6 -5 1 -5 -13z"/>
<path d="M6236 3473 c-41 -144 -142 -301 -243 -378 -56 -43 -43 -47 16 -4 71
51 128 118 170 198 42 81 85 209 79 236 -2 9 -12 -14 -22 -52z"/>
<path d="M4872 3460 c0 -14 2 -19 5 -12 2 6 2 18 0 25 -3 6 -5 1 -5 -13z"/>
<path d="M5896 3451 c-18 -20 -68 -43 -136 -61 -41 -11 -101 -59 -111 -88 -3
-10 -15 -11 -54 -2 -33 7 -64 7 -90 1 l-40 -9 58 -1 c32 -1 73 -8 92 -15 33
-14 35 -14 46 7 22 43 54 68 104 82 64 19 124 54 143 83 18 27 11 29 -12 3z"/>
<path d="M7130 3456 c-65 -19 -128 -53 -185 -101 -58 -49 -175 -128 -257 -175
-32 -17 -58 -34 -58 -36 0 -17 274 155 342 214 87 77 226 111 315 77 57 -22
125 -83 161 -144 26 -45 27 -50 26 -206 -1 -173 -19 -288 -69 -434 -30 -88
-26 -107 5 -25 67 180 96 357 87 531 -5 111 -16 139 -86 216 -68 76 -186 110
-281 83z"/>
<path d="M7274 3349 c53 -189 8 -465 -119 -732 -15 -32 -26 -59 -24 -61 2 -2
29 -16 59 -31 30 -15 63 -34 72 -42 16 -14 18 -13 27 8 5 13 19 49 31 79 110
276 148 555 93 680 -18 42 -82 110 -103 110 -4 0 -16 3 -26 7 -14 5 -16 2 -10
-18z"/>
<path d="M6570 3115 c-14 -8 -20 -14 -14 -15 5 0 19 7 30 15 24 18 16 19 -16
0z"/>
<path d="M4050 2975 c13 -14 26 -25 28 -25 3 0 -5 11 -18 25 -13 14 -26 25
-28 25 -3 0 5 -11 18 -25z"/>
<path d="M6330 2913 c-61 -191 -297 -401 -471 -419 -121 -12 -263 34 -342 111
-20 20 -37 32 -37 26 0 -18 115 -101 170 -123 45 -18 76 -22 170 -22 107 -1
119 1 171 27 82 42 186 123 236 186 44 55 104 170 117 224 9 40 -1 33 -14 -10z"/>
<path d="M6861 2814 c0 -11 3 -14 6 -6 3 7 2 16 -1 19 -3 4 -6 -2 -5 -13z"/>
<path d="M2300 2795 c0 -8 74 -42 130 -60 81 -26 139 -58 216 -117 49 -37 64
-45 53 -28 -34 53 -136 118 -232 148 -50 16 -109 36 -129 45 -21 9 -38 14 -38
12z"/>
<path d="M6814 2668 c-54 -164 -212 -504 -239 -515 -8 -2 -12 -10 -9 -17 6
-16 -139 -228 -226 -331 -87 -102 -169 -179 -273 -257 -91 -67 -93 -76 -4 -17
186 124 345 297 483 526 27 46 56 85 64 87 32 11 248 25 295 20 169 -17 259
-70 294 -173 13 -41 14 -114 2 -159 -5 -17 -6 -32 -2 -32 9 0 79 74 118 125
64 84 87 144 88 225 0 85 -14 122 -73 191 -35 40 -173 139 -195 139 -6 0 17
-17 51 -37 192 -117 251 -258 174 -416 -19 -37 -57 -93 -85 -123 l-52 -56 -1
74 c0 124 -59 200 -183 238 -71 23 -236 27 -355 10 -38 -6 -71 -8 -74 -5 -3 2
2 15 11 28 47 72 226 511 214 524 -3 2 -13 -20 -23 -49z"/>
<path d="M5541 2412 c-6 -12 -11 -35 -11 -52 0 -40 6 -42 217 -70 l173 -24 27
21 c30 22 41 69 24 101 -9 16 -31 21 -146 32 -75 7 -138 10 -141 8 -2 -3 57
-12 132 -21 75 -9 139 -18 141 -21 2 -2 5 -19 5 -36 2 -47 -24 -63 -87 -55
-27 4 -97 13 -155 21 -58 7 -119 14 -137 14 -37 0 -49 23 -33 65 13 33 6 45
-9 17z"/>
<path d="M1291 2351 c-21 -39 -24 -97 -6 -135 10 -20 19 -35 21 -33 2 2 -2 29
-8 59 -9 42 -9 66 -1 92 12 39 9 47 -6 17z"/>
<path d="M1216 2278 c-10 -37 -7 -83 6 -96 19 -19 30 -14 17 10 -6 12 -11 41
-11 65 1 48 -3 55 -12 21z"/>
<path d="M1708 2253 c7 -3 16 -2 19 1 4 3 -2 6 -13 5 -11 0 -14 -3 -6 -6z"/>
<path d="M1658 2243 c6 -2 18 -2 25 0 6 3 1 5 -13 5 -14 0 -19 -2 -12 -5z"/>
<path d="M1618 2233 c7 -3 16 -2 19 1 4 3 -2 6 -13 5 -11 0 -14 -3 -6 -6z"/>
<path d="M1578 2223 c7 -3 16 -2 19 1 4 3 -2 6 -13 5 -11 0 -14 -3 -6 -6z"/>
<path d="M1498 2203 c7 -3 16 -2 19 1 4 3 -2 6 -13 5 -11 0 -14 -3 -6 -6z"/>
<path d="M1320 2149 c0 -37 -80 -178 -133 -234 -43 -45 -100 -130 -128 -189
-41 -88 -46 -140 -20 -210 11 -31 21 -63 21 -71 0 -8 -21 -37 -46 -66 -25 -28
-50 -62 -55 -76 -12 -32 -11 -94 1 -113 8 -12 10 -9 10 13 0 38 23 79 61 111
42 36 55 21 30 -35 -25 -53 -27 -136 -5 -167 18 -26 34 -29 34 -4 0 13 -2 14
-9 3 -7 -11 -11 -10 -20 7 -17 32 -13 106 9 157 15 36 18 51 9 61 -16 20 -61
-6 -89 -51 -12 -20 -24 -34 -27 -31 -12 12 21 76 62 118 49 52 54 71 30 138
-25 72 -20 136 19 215 19 39 53 93 76 120 48 59 120 154 137 181 9 15 11 1 12
-72 1 -155 44 -240 170 -328 159 -112 251 -246 254 -370 l2 -65 37 -6 c99 -17
191 -130 170 -209 -32 -115 -114 -128 -143 -22 -9 31 -13 35 -29 26 -10 -5
-22 -10 -25 -10 -6 0 0 40 11 82 7 26 -26 12 -81 -33 -27 -22 -55 -37 -62 -35
-8 3 -11 1 -8 -4 11 -19 34 -10 80 30 25 22 47 40 49 40 1 0 1 -25 -2 -55 -5
-58 0 -65 28 -40 15 14 18 12 29 -25 12 -42 43 -70 76 -70 31 0 74 50 91 106
14 48 14 50 -16 110 -32 66 -80 107 -142 125 -34 9 -35 11 -42 70 -13 128
-101 251 -270 377 -106 79 -139 130 -156 238 -10 67 -4 162 16 257 4 17 2 27
-5 27 -6 0 -11 -9 -11 -21z"/>
<path d="M6528 2133 c7 -3 16 -2 19 1 4 3 -2 6 -13 5 -11 0 -14 -3 -6 -6z"/>
<path d="M4421 1999 c-6 -18 -11 -41 -10 -53 0 -12 6 2 14 29 15 57 13 72 -4
24z"/>
<path d="M3060 1643 c0 -6 8 -17 18 -24 16 -13 16 -13 2 6 -8 11 -16 22 -17
24 -2 2 -3 0 -3 -6z"/>
<path d="M3112 1558 c8 -13 84 -133 168 -268 191 -306 199 -318 263 -381 69
-68 153 -125 246 -165 78 -34 254 -75 313 -73 19 1 0 7 -45 14 -155 26 -278
75 -400 157 -113 77 -164 140 -361 446 -104 160 -191 292 -193 292 -3 0 1 -10
9 -22z"/>
<path d="M1600 1080 c-6 -11 -8 -20 -6 -20 3 0 10 9 16 20 6 11 8 20 6 20 -3
0 -10 -9 -16 -20z"/>
<path d="M1581 1014 c0 -11 3 -14 6 -6 3 7 2 16 -1 19 -3 4 -6 -2 -5 -13z"/>
</g>
</svg>
