<?xml version="1.0" standalone="no"?>
<!DOCTYPE svg PUBLIC "-//W3C//DTD SVG 20010904//EN"
 "http://www.w3.org/TR/2001/REC-SVG-20010904/DTD/svg10.dtd">
<svg version="1.0" xmlns="http://www.w3.org/2000/svg"
 width="1070.000000pt" height="1280.000000pt" viewBox="0 0 1070.000000 1280.000000"
 preserveAspectRatio="xMidYMid meet">
<metadata>
Created by potrace 1.15, written by Peter Selinger 2001-2017
</metadata>
<g transform="translate(0.000000,1280.000000) scale(0.100000,-0.100000)"
fill="#000000" stroke="none">
<path d="M5119 12435 c-3 -3 -100 -7 -215 -9 -131 -3 -220 -9 -239 -16 -16 -7
-65 -18 -107 -25 -76 -13 -250 -84 -311 -127 -15 -11 -46 -47 -69 -81 -22 -34
-58 -80 -79 -102 -81 -86 -117 -146 -150 -249 -17 -56 -49 -128 -70 -161 -48
-76 -59 -106 -59 -159 0 -25 -11 -67 -25 -97 -70 -154 -76 -341 -19 -540 l16
-55 -57 -115 c-90 -178 -153 -288 -211 -364 -53 -70 -54 -71 -221 -154 -196
-97 -284 -132 -488 -196 -197 -61 -319 -94 -572 -154 -254 -60 -680 -193 -838
-261 -204 -87 -501 -266 -578 -348 -107 -115 -84 -244 82 -447 184 -225 485
-451 1041 -782 317 -189 426 -251 558 -317 l90 -46 -34 -119 c-42 -149 -76
-240 -116 -311 -25 -44 -249 -362 -278 -393 -8 -9 -104 119 -267 353 -143 206
-254 324 -425 453 -149 111 -247 158 -414 197 -95 23 -180 62 -272 127 -76 54
-147 83 -206 83 -36 0 -48 -5 -65 -26 -12 -15 -21 -40 -21 -56 0 -28 -24 -98
-34 -98 -2 0 0 15 5 32 14 50 11 126 -7 163 -15 32 -52 53 -64 36 -3 -4 -12
-10 -20 -13 -9 -3 -29 -51 -48 -113 -37 -118 -38 -138 -8 -290 31 -158 36
-167 142 -246 52 -38 133 -107 179 -154 121 -119 141 -126 490 -155 158 -13
253 -29 293 -47 18 -9 51 -37 75 -63 34 -38 204 -326 336 -571 l25 -46 -71
-154 c-75 -161 -88 -204 -122 -382 -33 -173 -24 -444 19 -527 19 -36 68 -82
120 -111 42 -24 336 -18 493 10 70 12 132 19 137 16 5 -3 15 -15 20 -25 9 -17
-5 -35 -103 -132 -117 -116 -187 -209 -347 -456 -51 -78 -97 -142 -104 -142
-19 0 -68 -52 -121 -129 -27 -40 -67 -93 -89 -118 -21 -26 -43 -58 -49 -72 -6
-14 -32 -49 -58 -77 -26 -28 -61 -79 -79 -114 -34 -68 -63 -99 -157 -166 -42
-31 -71 -61 -92 -98 -36 -65 -53 -73 -97 -45 -18 11 -75 29 -126 39 -51 10
-122 26 -158 34 -45 11 -90 13 -155 9 -65 -4 -110 -1 -160 10 -45 10 -121 16
-213 17 -139 0 -143 0 -167 -24 -14 -14 -25 -32 -25 -41 0 -19 35 -55 55 -55
8 0 32 -16 54 -35 62 -56 121 -77 226 -80 101 -3 162 -17 196 -44 20 -16 23
-27 23 -102 0 -161 -59 -246 -162 -232 -63 8 -92 -15 -92 -73 0 -59 18 -92 76
-137 52 -41 103 -49 138 -22 13 10 44 15 89 15 l69 0 -41 -46 c-23 -26 -41
-52 -41 -59 0 -6 -13 -21 -30 -33 -25 -19 -30 -30 -30 -63 0 -33 6 -47 34 -75
19 -19 44 -34 56 -34 26 0 62 18 73 36 4 8 22 21 40 31 28 14 31 14 19 0 -35
-42 8 -100 83 -112 35 -5 47 -1 100 33 33 22 81 63 106 91 26 29 55 51 66 51
24 0 73 -36 73 -54 0 -11 -227 -139 -439 -247 -177 -89 -322 -213 -384 -327
-40 -73 -78 -216 -84 -318 -11 -177 25 -288 155 -482 265 -396 369 -495 600
-573 95 -32 318 -81 452 -99 47 -6 162 -29 255 -50 182 -42 335 -69 565 -102
212 -30 779 -32 1528 -5 114 4 131 3 167 -16 42 -21 169 -32 339 -29 43 1 114
-5 158 -14 75 -15 81 -15 137 4 57 19 59 19 88 1 24 -16 36 -17 57 -9 39 14
89 12 112 -5 23 -17 60 -19 102 -4 23 8 41 7 77 -5 43 -15 49 -15 76 1 25 15
36 16 86 6 32 -7 70 -9 85 -6 19 3 37 -2 60 -18 29 -21 44 -24 128 -24 52 0
122 -4 155 -9 54 -7 71 -5 171 28 66 22 131 36 160 36 27 0 123 -18 214 -40
91 -22 208 -44 260 -50 52 -6 123 -15 158 -21 71 -11 274 -1 283 14 8 11 334
-7 436 -24 44 -8 96 -8 177 0 108 10 122 13 208 57 51 26 103 56 116 68 21 18
27 19 68 8 41 -11 48 -11 60 5 29 36 35 55 36 102 0 91 -49 152 -163 206 -61
28 -113 31 -218 13 -68 -12 -69 -11 -101 16 -77 64 -254 134 -396 156 -43 7
-85 18 -93 24 -7 6 -46 14 -85 17 -236 23 -332 46 -465 115 -47 24 -92 44
-100 44 -8 0 -12 3 -8 6 9 9 499 -86 832 -162 341 -77 352 -78 596 -104 240
-25 421 -36 644 -39 94 -1 184 -4 200 -6 94 -13 381 -25 445 -20 90 7 208 31
258 52 127 53 426 328 498 457 54 99 82 182 95 285 15 118 -3 211 -67 340 -73
148 -198 263 -389 358 -44 22 -102 48 -130 58 -77 28 -182 108 -245 186 l-30
38 39 -14 c53 -18 88 -37 211 -110 58 -34 116 -66 130 -70 14 -4 63 -24 110
-45 84 -38 86 -38 203 -37 101 2 121 5 132 20 12 17 18 16 115 -13 116 -34
152 -37 171 -14 16 19 3 44 -29 59 -12 5 -22 19 -22 31 0 30 -43 66 -155 129
-55 31 -104 61 -110 66 -6 7 25 9 90 7 107 -3 250 14 293 34 33 16 37 52 5 56
-12 2 -37 18 -56 36 -35 33 -93 56 -143 56 -106 0 -371 144 -479 260 -33 35
-114 118 -180 184 -130 130 -132 139 -27 112 108 -28 181 -16 237 40 19 18 43
34 54 34 30 0 52 27 42 53 -13 35 -60 56 -153 66 -48 6 -101 17 -117 25 -17 9
-55 16 -88 16 -34 0 -92 10 -138 25 -75 23 -89 24 -235 19 -119 -5 -164 -10
-195 -24 -52 -24 -124 -43 -153 -42 -28 2 -77 27 -117 59 -78 62 -147 114
-221 166 -45 31 -112 91 -149 132 -37 42 -88 90 -114 107 -43 29 -88 69 -200
180 -86 85 -214 179 -260 191 -36 10 -73 41 -225 186 -193 185 -253 238 -371
326 -52 38 -73 59 -69 70 8 19 6 19 116 -10 129 -34 235 -53 337 -61 77 -6 93
-4 137 15 120 53 145 107 163 353 9 118 8 158 -9 285 -26 208 -43 270 -119
452 l-31 75 48 85 c78 137 311 521 338 557 38 49 92 86 138 95 23 5 156 11
296 14 342 7 363 12 475 114 46 42 116 99 155 126 147 103 154 109 171 155 26
68 64 249 63 300 0 59 -61 250 -87 274 -18 18 -22 18 -46 5 -15 -9 -33 -33
-43 -59 -9 -25 -17 -37 -17 -28 -1 28 -41 48 -96 48 -58 -1 -140 -31 -217 -82
-80 -53 -184 -95 -268 -107 -167 -26 -275 -67 -430 -165 -206 -129 -316 -239
-543 -541 -179 -239 -223 -293 -229 -285 -20 22 -249 399 -275 451 -18 36 -46
115 -62 175 -32 121 -106 424 -106 438 0 4 34 20 75 36 111 40 216 96 400 212
91 58 210 133 265 168 184 115 239 152 425 288 412 302 579 456 722 667 83
124 102 243 52 335 -34 63 -59 83 -279 232 -185 125 -357 225 -487 281 -232
101 -456 187 -663 257 -414 140 -708 255 -940 370 -121 59 -244 127 -272 150
-29 23 -81 80 -115 128 -35 48 -98 124 -142 170 l-79 82 2 118 c2 137 -17 226
-75 349 -30 65 -38 94 -44 173 -15 171 -64 308 -154 427 -48 63 -216 217 -264
242 -15 8 -42 27 -60 42 -18 16 -45 35 -60 43 -31 16 -105 30 -113 21z m975
-2471 c248 -68 334 -111 691 -342 240 -155 320 -204 490 -299 50 -27 148 -84
219 -126 127 -75 128 -77 100 -87 -178 -68 -489 -242 -755 -423 -67 -45 -110
-67 -140 -72 -143 -22 -377 -98 -517 -169 -82 -42 -116 -44 -175 -15 -69 35
-461 311 -515 362 -82 78 -140 199 -162 339 -8 55 -7 93 10 208 l20 142 50 54
c67 74 124 194 158 331 15 62 30 113 35 113 4 0 7 -7 7 -15 0 -12 4 -11 19 4
17 17 33 20 111 19 49 -1 93 2 97 5 17 18 134 5 257 -29z m-1876 -400 c18 -21
32 -47 32 -56 0 -10 4 -18 8 -18 18 0 33 -56 44 -172 11 -104 10 -130 -4 -200
-44 -213 -111 -284 -482 -507 -186 -113 -227 -131 -332 -146 -159 -24 -206
-23 -354 12 -74 18 -160 37 -191 43 -36 7 -92 32 -160 71 -151 89 -490 262
-594 304 -49 20 -94 40 -98 44 -4 5 14 16 40 26 90 33 395 185 727 360 394
207 537 271 723 321 117 31 160 38 283 43 126 6 152 10 200 32 l55 25 36 -71
c19 -40 50 -90 67 -111z m-3568 -1785 l47 -31 -22 -71 c-13 -40 -27 -70 -32
-68 -48 21 -65 62 -56 141 3 33 8 60 11 60 2 0 26 -14 52 -31z m195 -116 c30
-21 54 -41 55 -44 0 -10 -24 -18 -77 -25 l-48 -6 3 56 c2 31 6 56 9 56 2 0 29
-17 58 -37z m8330 -84 c9 -49 -10 -59 -25 -14 -12 38 -4 90 10 64 5 -8 11 -30
15 -50z m-146 -138 c2 -55 -19 -106 -49 -124 l-27 -16 -21 77 c-11 42 -17 78
-14 80 4 1 27 15 52 31 44 28 45 28 52 7 3 -11 6 -36 7 -55z m-214 -119 c-6
-6 -85 21 -85 29 0 5 17 19 38 33 l37 23 6 -41 c4 -22 5 -42 4 -44z m-5320
-2081 c9 -53 31 -159 50 -236 56 -230 57 -520 3 -679 -36 -107 -150 -347 -220
-463 -37 -62 -65 -118 -62 -126 2 -7 -17 -47 -44 -88 -47 -71 -77 -107 -161
-194 -96 -99 -141 -156 -141 -180 0 -13 -4 -26 -9 -30 -15 -9 -102 -23 -244
-41 -302 -36 -807 -199 -1003 -324 -26 -16 -49 -28 -52 -26 -10 10 33 69 60
84 77 42 148 132 148 189 0 11 11 28 24 37 14 8 32 28 41 44 9 15 29 35 43 43
27 15 34 27 67 105 9 23 29 48 46 58 16 10 48 42 70 72 22 31 59 67 81 82 23
15 59 45 80 67 100 102 119 123 149 165 17 24 44 54 60 67 15 13 37 43 49 68
26 53 111 134 297 283 201 161 345 333 389 466 9 27 34 131 54 230 22 108 50
211 69 255 17 40 49 135 71 210 22 75 43 143 47 151 4 8 10 -32 15 -89 4 -56
15 -146 23 -200z m2593 149 c12 -52 29 -158 37 -234 20 -185 30 -242 71 -426
63 -284 70 -297 252 -448 141 -117 198 -155 377 -249 215 -113 415 -247 415
-277 0 -14 64 -76 79 -76 4 0 34 -23 65 -50 32 -28 74 -59 95 -69 20 -11 58
-37 85 -59 26 -22 78 -51 114 -66 37 -14 94 -48 127 -75 33 -26 78 -58 100
-69 42 -21 69 -48 99 -95 10 -16 39 -38 64 -49 26 -12 63 -35 83 -53 20 -18
52 -38 71 -44 22 -7 45 -27 64 -54 42 -59 127 -121 202 -146 34 -11 67 -21 73
-21 6 0 23 -9 39 -20 15 -11 42 -21 60 -22 24 -2 62 -24 129 -75 53 -41 133
-99 179 -130 45 -31 81 -58 79 -60 -4 -4 -72 21 -502 183 -552 207 -670 244
-1098 343 -212 49 -377 77 -545 91 -158 13 -322 38 -338 51 -6 5 -14 22 -17
38 -4 16 -29 50 -63 82 -123 116 -140 137 -176 205 -20 38 -46 78 -57 89 -12
10 -38 48 -58 84 -20 36 -69 118 -110 182 -49 78 -89 157 -120 240 l-47 124
-1 255 0 255 43 162 c50 190 78 348 88 491 4 57 10 99 14 95 3 -4 16 -51 28
-103z m-5088 -2615 c-17 -25 -36 -45 -42 -45 -6 0 -3 10 8 23 67 80 80 89 34
22z m3093 -1291 c73 -7 94 -15 64 -27 -8 -3 -48 3 -91 13 -75 18 -128 35 -76
25 14 -2 60 -8 103 -11z m262 -30 c36 -6 203 -84 181 -84 -20 0 -152 43 -185
61 -20 10 -43 19 -51 19 -8 0 -22 5 -30 11 -11 8 -8 9 15 5 17 -3 48 -8 70
-12z m455 -130 l25 -13 -26 -1 c-28 0 -88 18 -103 31 -14 12 76 -2 104 -17z
m253 -19 c20 -8 64 -15 98 -15 46 0 68 -5 91 -21 24 -18 38 -20 79 -15 35 5
63 2 99 -11 48 -17 51 -17 83 0 32 17 34 17 77 -2 41 -18 46 -19 71 -4 15 9
34 13 44 10 15 -6 14 -10 -7 -36 -30 -38 -63 -50 -165 -58 -79 -6 -85 -5 -109
18 -21 20 -39 25 -112 30 -60 4 -100 13 -130 28 -24 12 -49 20 -55 18 -7 -2
-26 2 -44 10 -18 7 -47 13 -66 13 -47 0 -78 33 -39 43 32 9 50 7 85 -8z"/>
</g>
</svg>
