<?xml version="1.0" standalone="no"?>
<!DOCTYPE svg PUBLIC "-//W3C//DTD SVG 20010904//EN"
 "http://www.w3.org/TR/2001/REC-SVG-20010904/DTD/svg10.dtd">
<svg version="1.0" xmlns="http://www.w3.org/2000/svg"
 width="1148.000000pt" height="1280.000000pt" viewBox="0 0 1148.000000 1280.000000"
 preserveAspectRatio="xMidYMid meet">
<metadata>
Created by potrace 1.15, written by Peter Selinger 2001-2017
</metadata>
<g transform="translate(0.000000,1280.000000) scale(0.100000,-0.100000)"
fill="#000000" stroke="none">
<path d="M5483 12169 c-18 -5 -35 -14 -38 -19 -3 -6 -25 -10 -47 -10 -22 0
-59 -8 -82 -19 -51 -24 -160 -50 -251 -61 -150 -19 -171 -23 -197 -42 -16 -11
-28 -25 -28 -32 0 -7 -17 -24 -37 -37 -21 -13 -45 -39 -53 -56 -9 -20 -23 -33
-35 -33 -23 -1 -46 -19 -92 -73 -28 -31 -33 -46 -33 -86 0 -48 -1 -49 -70
-106 -39 -32 -68 -60 -65 -63 3 -3 19 7 35 23 18 18 30 23 30 15 0 -8 14 -1
33 18 34 33 47 39 47 23 0 -5 -31 -32 -69 -60 -38 -29 -86 -74 -107 -101 -21
-27 -41 -47 -46 -44 -4 3 -5 -2 -2 -11 4 -9 2 -15 -5 -13 -16 4 -69 -122 -87
-205 -8 -38 -14 -103 -14 -145 0 -62 -4 -83 -21 -107 l-21 -30 5 95 c3 52 13
115 21 139 9 24 14 46 12 48 -7 7 -55 -142 -66 -209 -7 -37 -10 -79 -6 -92 5
-19 -11 -43 -91 -137 -53 -63 -135 -154 -181 -204 -98 -104 -125 -143 -152
-214 -20 -52 -18 -64 7 -33 12 15 13 12 7 -23 -4 -22 -9 -44 -12 -50 -9 -14
-2 -88 10 -105 7 -12 8 -10 5 8 -3 12 -4 22 -2 22 2 0 30 -27 62 -60 61 -64
81 -102 83 -160 l2 -35 11 39 12 38 37 -53 c72 -105 72 -138 3 -194 -24 -20
-43 -41 -42 -47 1 -5 -9 -17 -23 -25 l-25 -15 25 21 c32 26 15 27 -25 1 -45
-30 -51 -24 -15 17 43 49 60 92 60 152 0 74 -17 70 -25 -6 -9 -83 -14 -98 -62
-164 -32 -45 -39 -50 -41 -32 -2 11 4 37 12 57 8 20 13 36 11 36 -10 0 -45
-75 -45 -98 -1 -15 -7 -40 -13 -56 -9 -21 -10 -50 -4 -102 7 -60 5 -79 -9
-111 -35 -76 -35 -79 -5 -47 23 26 30 44 36 105 8 67 9 70 15 34 4 -33 6 -36
12 -18 3 13 4 42 1 65 -3 32 -2 39 6 28 9 -12 11 -10 11 12 0 19 13 37 49 67
27 23 52 41 55 41 11 0 -16 -44 -34 -57 -29 -21 -43 -87 -30 -148 10 -49 9
-58 -11 -97 -13 -24 -23 -46 -24 -50 0 -4 -7 -13 -15 -20 -12 -11 -12 -11 -1
5 15 19 2 24 -17 5 -7 -7 -12 -9 -12 -4 0 4 -11 -6 -25 -22 -20 -24 -25 -40
-23 -73 3 -41 1 -44 -27 -49 -26 -5 -29 -9 -25 -30 11 -55 4 -249 -10 -277
-21 -41 -40 -62 -53 -57 -13 5 -50 -53 -42 -66 3 -4 -4 -10 -15 -13 -24 -6
-38 -56 -19 -68 8 -5 31 -12 52 -15 22 -4 37 -12 37 -21 0 -8 4 -12 8 -9 4 2
9 -5 9 -16 2 -23 23 -51 23 -30 0 7 5 12 10 12 6 0 10 -6 10 -14 0 -7 7 -19
15 -26 8 -7 15 -20 15 -30 0 -10 9 -28 20 -41 17 -21 19 -22 20 -6 0 10 4 16
8 13 5 -3 0 20 -10 51 -31 90 -15 83 40 -17 29 -52 49 -81 46 -65 -4 17 -13
39 -19 50 -29 46 -39 123 -27 195 13 78 69 257 83 266 12 7 13 9 -21 -91 -40
-119 -23 -96 25 32 25 69 45 107 61 118 13 8 26 15 29 15 14 0 2 -53 -25 -101
-16 -30 -30 -62 -30 -71 0 -10 -15 -34 -32 -55 -23 -27 -26 -32 -8 -18 l24 20
-18 -30 c-10 -16 -27 -39 -37 -51 -11 -11 -19 -26 -19 -32 0 -7 -7 -25 -16
-40 l-16 -27 21 25 c11 14 21 21 21 15 0 -5 18 17 40 49 25 38 41 55 44 45 2
-7 14 -48 26 -89 21 -73 119 -265 104 -205 -4 17 -7 38 -8 47 0 9 -3 15 -7 12
-11 -7 -40 45 -44 79 l-4 32 20 -24 c10 -12 16 -28 12 -35 -3 -6 -3 -8 2 -4 4
4 14 3 22 -4 11 -8 12 -7 7 6 -12 31 11 15 31 -22 19 -34 19 -43 8 -127 -15
-116 -8 -157 34 -212 19 -25 33 -46 31 -46 -2 -1 -12 -8 -23 -15 -24 -15 -77
-39 -166 -76 -130 -53 -254 -154 -308 -250 -38 -67 -76 -174 -98 -278 -16 -73
-18 -143 -19 -593 -1 -500 -1 -516 -32 -805 -18 -162 -41 -383 -52 -490 -45
-430 -76 -584 -127 -631 -15 -14 -72 -50 -126 -79 -55 -30 -129 -79 -165 -110
-73 -61 -408 -320 -413 -320 -2 0 -4 54 -4 119 0 104 -2 122 -20 141 -15 17
-28 21 -60 18 -32 -3 -43 0 -57 18 -38 47 -109 32 -130 -27 -10 -29 -11 -29
-34 -14 -39 26 -82 20 -102 -15 -9 -16 -29 -35 -44 -41 -44 -18 -71 -55 -80
-112 -38 -241 -43 -423 -14 -491 9 -21 16 -40 16 -42 0 -2 -17 -4 -37 -4 -170
-1 -408 -158 -463 -305 -72 -193 -42 -339 120 -583 116 -175 281 -356 546
-597 66 -60 194 -179 283 -263 90 -84 211 -192 269 -240 58 -48 117 -96 130
-108 19 -15 21 -21 9 -21 -9 0 -13 5 -10 10 4 6 1 7 -6 3 -7 -5 -10 -14 -8
-20 8 -20 -4 -32 -58 -60 -27 -15 -52 -31 -56 -37 -3 -6 -25 -10 -47 -11 -23
0 -42 -4 -42 -8 0 -8 -15 -11 -69 -13 -22 -1 -37 -5 -35 -9 4 -7 -27 -20 -42
-17 -5 1 -11 0 -14 -1 -10 -3 -45 -11 -57 -12 -7 -1 -13 -4 -13 -8 0 -4 -6 -7
-12 -8 -41 -3 -78 -13 -118 -31 -25 -11 -52 -21 -60 -21 -18 0 -82 -58 -76
-69 3 -4 -1 -8 -8 -8 -8 0 -12 7 -10 16 2 9 -4 -1 -14 -22 -12 -27 -22 -37
-34 -33 -22 5 -34 -12 -19 -27 9 -9 14 -8 21 3 8 13 10 13 10 -2 0 -9 -6 -21
-13 -25 -8 -4 -22 -20 -32 -35 -17 -27 -17 -28 1 -29 18 0 17 -1 -1 -8 -11 -5
-21 -5 -23 0 -4 10 -32 0 -32 -13 0 -5 3 -7 8 -5 4 3 16 -4 26 -14 12 -11 14
-19 7 -19 -7 0 -9 -5 -6 -10 5 -8 11 -8 20 0 9 8 14 5 18 -11 3 -11 10 -18 15
-15 6 3 24 -8 42 -24 18 -17 41 -30 52 -30 10 0 17 -4 14 -8 -3 -4 8 -13 25
-19 16 -6 29 -7 29 -3 0 5 12 -2 26 -15 14 -13 34 -22 45 -20 13 3 19 -2 19
-13 0 -15 2 -15 10 -2 8 13 10 12 10 -2 0 -10 5 -19 10 -19 6 -1 15 -2 20 -3
6 0 14 -7 19 -14 4 -8 17 -12 27 -10 12 2 18 -2 16 -11 -2 -9 4 -12 18 -8 11
3 20 1 20 -4 0 -5 8 -9 18 -9 9 0 44 -11 76 -24 33 -13 66 -22 75 -19 9 4 13
3 9 -1 -12 -14 16 -33 45 -30 16 2 26 0 22 -6 -3 -6 3 -10 15 -10 12 0 18 -4
15 -10 -8 -13 1 -13 26 0 15 9 19 7 19 -6 0 -10 3 -14 7 -11 3 4 12 2 20 -5 7
-6 27 -11 44 -10 17 0 27 -3 23 -9 -3 -6 0 -10 7 -8 8 1 25 1 39 0 20 -1 22
-3 10 -11 -12 -8 -8 -10 15 -11 17 -1 36 -1 44 0 7 2 10 -2 6 -8 -3 -6 1 -12
9 -12 17 -2 35 -5 39 -9 4 -3 41 -11 57 -12 8 0 20 -5 27 -10 7 -5 17 -7 22
-3 7 4 8 -1 4 -12 -6 -16 -5 -17 12 -3 14 11 19 12 22 2 3 -6 9 -10 14 -6 5 3
9 0 9 -5 0 -6 11 -11 24 -11 14 0 28 -5 31 -10 4 -6 11 -8 16 -4 5 3 17 0 25
-7 9 -7 27 -13 42 -14 40 -2 72 -15 72 -28 0 -7 4 -6 10 3 7 11 10 11 10 2 0
-7 4 -11 9 -8 8 5 56 -8 166 -46 17 -6 45 -10 63 -10 17 0 32 -4 32 -9 0 -5
13 -7 30 -5 16 2 27 -1 24 -5 -3 -5 -2 -9 3 -10 4 0 17 -3 28 -5 11 -3 44 -7
74 -9 29 -3 60 -10 67 -16 11 -9 14 -8 14 1 0 9 4 9 13 2 10 -8 60 -18 137
-27 8 -1 31 -5 50 -10 42 -9 51 -11 270 -35 153 -17 401 -31 622 -35 98 -2
181 -6 186 -9 5 -3 12 -3 15 1 3 3 91 7 194 8 103 1 269 6 368 10 99 5 198 9
220 10 22 1 42 3 45 4 3 1 70 4 150 7 80 2 151 7 159 10 8 2 57 6 108 9 52 2
118 6 146 9 29 3 84 8 122 11 129 10 180 16 237 26 31 5 60 9 65 8 4 -1 10 0
13 1 3 1 14 3 25 4 57 8 113 17 135 22 14 2 39 6 57 8 18 3 36 7 40 9 4 3 24
8 43 11 19 3 44 8 55 11 11 2 40 9 65 15 66 15 123 32 136 42 6 4 13 6 16 3 3
-3 22 2 43 11 22 9 46 17 54 19 9 2 30 9 46 16 17 7 33 13 37 13 3 1 10 4 14
8 4 5 16 8 28 8 11 0 39 9 63 21 24 11 49 22 55 24 65 14 79 19 84 26 2 4 11
6 19 2 8 -3 15 0 15 7 0 7 7 10 16 6 8 -3 12 -2 9 4 -6 9 8 14 20 8 2 -2 11 6
20 17 14 16 16 17 11 3 -5 -16 -3 -16 17 -5 12 6 25 16 28 21 4 5 11 6 17 2 6
-3 12 -3 14 1 5 12 72 44 96 46 12 1 22 4 22 8 0 4 15 11 33 14 17 4 34 11 37
14 3 4 28 15 55 25 28 10 68 26 90 36 39 18 68 28 83 30 13 2 82 43 82 49 0 3
14 7 30 8 17 1 38 9 46 18 9 8 22 15 30 15 8 0 14 4 14 10 0 5 16 12 36 16 19
4 38 12 41 20 2 7 11 10 19 7 13 -5 19 8 15 30 -1 5 4 5 10 1 6 -3 15 -1 19 5
4 7 17 13 28 14 12 1 22 5 22 9 0 4 9 8 21 8 16 0 19 4 14 21 -6 18 -4 20 14
14 12 -4 21 -2 21 4 0 6 8 8 18 4 9 -3 14 -3 10 2 -4 4 7 19 23 33 24 19 27
27 17 34 -10 8 -10 9 2 5 9 -3 24 1 35 9 14 10 15 14 4 14 -10 1 -9 3 4 11 9
5 17 15 17 20 0 6 -4 7 -10 4 -6 -4 -10 6 -10 24 0 16 -5 33 -12 37 -7 5 -8 3
-3 -7 7 -12 6 -12 -7 -1 -13 10 -17 10 -22 0 -3 -7 -3 -3 0 9 4 19 2 22 -12
16 -12 -4 -15 -3 -10 5 4 7 1 12 -9 12 -9 0 -14 4 -11 9 4 5 -4 7 -16 3 -14
-3 -19 -2 -14 6 5 8 -2 12 -19 12 -15 0 -24 4 -20 10 3 6 -1 10 -9 10 -9 0
-16 6 -16 13 0 8 -4 7 -10 -3 -7 -11 -10 -11 -10 -2 0 7 -4 11 -9 7 -5 -3 -15
1 -23 8 -7 7 -17 14 -21 14 -21 3 -42 41 -43 78 -1 22 1 34 3 28 3 -7 9 -13
14 -13 6 0 9 6 8 13 -3 23 1 38 9 33 4 -2 9 5 9 16 1 12 6 24 11 27 5 3 12 16
16 29 4 13 12 19 18 16 7 -5 9 -1 5 9 -3 9 0 18 9 21 9 3 13 10 10 14 -3 5 4
16 15 25 13 11 18 26 15 42 -3 15 0 24 7 22 7 -1 11 4 9 12 -2 9 3 11 13 7 10
-3 13 -2 10 5 -4 5 -2 16 5 24 6 8 10 24 8 37 -2 15 2 22 10 20 8 -1 11 2 7 7
-3 6 2 23 12 38 10 15 13 24 6 20 -8 -5 -11 -1 -10 13 1 11 4 20 7 20 3 0 7 9
8 20 4 44 6 50 16 50 6 0 3 6 -6 13 -10 8 -13 18 -9 26 13 20 2 45 -24 57 -19
9 -27 8 -46 -10 -13 -11 60 65 161 169 189 194 261 286 325 414 37 73 65 177
65 241 0 67 -30 175 -70 256 -49 100 -117 166 -228 222 l-77 38 30 20 c16 10
43 45 59 77 24 47 30 71 30 120 -1 120 -6 203 -17 247 -5 25 -10 77 -11 115
-1 73 -9 90 -78 182 -16 19 -28 41 -28 48 0 38 -84 61 -110 30 -16 -19 -26
-12 -33 24 -13 65 -101 79 -136 21 -13 -23 -20 -26 -35 -18 -25 14 -63 2 -83
-28 -12 -19 -18 -55 -21 -135 -4 -104 -5 -108 -24 -98 -11 6 -34 8 -52 5 -31
-6 -35 -2 -151 146 -157 199 -219 265 -338 355 -53 41 -108 91 -122 111 -66
100 -97 263 -195 1012 -28 212 -53 396 -56 410 -3 14 -9 216 -14 450 -9 458
-21 591 -66 746 -69 239 -202 373 -455 459 -38 13 -81 33 -94 43 -24 19 -24
20 -5 37 27 24 43 80 36 123 -4 20 -16 77 -28 125 -14 54 -18 91 -13 95 6 4
20 25 31 46 25 45 96 137 102 132 2 -3 -19 -36 -47 -74 -28 -38 -51 -78 -51
-88 0 -14 5 -10 16 11 22 42 34 53 34 30 0 -16 5 -13 23 12 36 53 49 41 22
-23 -9 -23 -19 -33 -26 -28 -8 4 -9 3 -5 -4 4 -6 0 -25 -9 -41 -8 -17 -15 -36
-15 -43 0 -24 89 147 95 185 6 35 25 53 25 23 0 -15 80 -109 87 -102 3 3 -8
22 -23 43 l-28 38 39 -35 c36 -32 34 -23 -6 25 -9 11 -25 34 -35 50 -18 30
-18 30 1 14 35 -28 51 -34 31 -11 -11 12 -15 22 -11 22 5 0 -1 10 -12 23 -29
32 -34 43 -27 62 6 13 9 14 16 3 7 -9 8 -5 3 12 -50 195 -64 254 -60 258 3 3
19 -7 35 -23 44 -42 90 -203 106 -370 13 -134 42 -231 68 -229 9 1 14 -2 11
-6 -2 -4 5 -16 18 -26 l22 -19 -19 23 c-11 13 -14 22 -7 22 7 0 3 11 -9 28
-16 21 -19 34 -12 51 8 23 9 23 41 -14 19 -22 38 -35 47 -31 8 3 25 1 38 -4
20 -7 24 -6 22 8 -1 9 -12 21 -25 27 -25 11 -24 41 2 39 21 -2 21 6 2 32 -19
25 -19 40 0 24 21 -18 29 -6 14 19 -17 26 -7 36 37 33 21 -2 41 4 50 13 9 8
12 15 8 15 -3 0 0 8 7 17 13 15 12 15 -5 6 -23 -13 -71 9 -87 39 -6 11 -17 17
-25 14 -8 -3 -19 4 -25 17 -7 12 -19 27 -27 33 -8 5 -15 23 -17 40 -1 16 -6
37 -10 47 -4 10 -5 20 -2 23 3 3 22 -29 43 -70 20 -42 39 -74 41 -72 2 2 -15
42 -39 90 -29 58 -45 82 -51 73 -6 -8 -7 -6 -3 5 3 10 -1 33 -9 52 -8 20 -16
50 -16 68 -1 21 -3 26 -6 13 -10 -42 -21 -34 -32 25 -14 68 -10 80 19 62 26
-16 30 -15 30 7 0 11 -9 26 -20 34 -17 12 -18 18 -9 51 6 20 8 47 6 59 -4 18
-5 17 -6 -5 -2 -39 -13 -35 -35 12 -14 28 -22 37 -28 28 -7 -12 -9 -11 -12 11
0 5 -5 13 -10 18 -5 5 -6 2 -1 -6 5 -8 4 -12 -2 -8 -5 3 -7 23 -5 43 l5 38 19
-27 c24 -34 78 -64 78 -45 0 7 -7 26 -15 42 -22 41 -19 58 20 136 19 39 32 70
28 70 -5 0 -17 -21 -27 -46 -18 -43 -20 -45 -32 -28 -7 10 -18 25 -24 31 -7 8
-8 32 -4 62 9 69 -1 112 -40 169 -70 102 -86 144 -86 234 0 96 38 274 52 242
8 -18 4 72 -7 176 -4 35 -3 40 5 25 22 -44 -2 61 -26 115 -32 70 -66 106 -185
191 -117 84 -129 97 -140 152 -4 25 -15 60 -24 78 -8 19 -13 25 -10 14 13 -45
17 -105 7 -105 -11 0 -21 46 -26 127 -3 52 -44 160 -91 246 -32 57 -43 63 -15
7 11 -22 18 -40 16 -40 -2 0 -29 35 -59 79 -31 43 -90 109 -132 147 -42 38
-82 78 -88 89 -9 18 -9 19 9 6 10 -8 41 -35 69 -60 27 -25 44 -39 37 -32 -25
30 -11 34 20 5 20 -18 16 -10 -12 21 -24 28 -66 65 -92 84 -42 30 -48 38 -48
70 0 64 -43 122 -161 218 -35 29 -77 69 -92 88 -43 54 -88 72 -182 70 -62 -1
-89 3 -118 18 -21 11 -50 20 -65 22 -15 1 -39 9 -52 18 -88 57 -193 67 -281
27 -30 -14 -58 -30 -62 -37 -11 -17 -34 -16 -40 1 -17 43 -254 81 -344 55z
m75 -9 c14 0 14 -2 3 -9 -16 -10 -51 -3 -51 11 0 6 7 7 16 4 9 -3 23 -6 32 -6z
m575 -12 c14 -11 5 -13 -58 -15 -41 0 -75 1 -75 3 0 3 10 9 23 14 33 13 91 12
110 -2z m467 -170 c0 -5 -4 -8 -8 -8 -9 0 -32 44 -32 58 1 9 39 -41 40 -50z
m-1698 7 c-2 -14 -6 -25 -8 -25 -2 0 -4 11 -4 25 0 14 4 25 9 25 4 0 6 -11 3
-25z m1627 -5 c12 -35 5 -37 -28 -9 -21 17 -22 22 -10 30 22 14 26 11 38 -21z
m-1582 -12 c-3 -7 -5 -2 -5 12 0 14 2 19 5 13 2 -7 2 -19 0 -25z m73 24 c0
-12 -46 -32 -54 -25 -16 16 -4 33 24 33 17 0 30 -4 30 -8z m1498 -51 c11 -7
11 -9 -1 -14 -9 -3 -21 1 -27 9 -10 11 -10 14 1 14 8 0 20 -4 27 -9z m-1688
-35 c0 -8 -4 -17 -9 -21 -12 -7 -24 12 -16 25 9 15 25 12 25 -4z m-43 -28 c-3
-8 -6 -5 -6 6 -1 11 2 17 5 13 3 -3 4 -12 1 -19z m2023 -79 c19 -35 6 -42 -18
-10 -18 24 -19 31 -8 31 9 0 20 -9 26 -21z m-2115 -16 c-4 -10 -12 -31 -17
-46 -12 -33 -28 -20 -28 24 0 31 7 39 33 39 14 0 17 -4 12 -17z m-53 -52 c2
-22 0 -37 -4 -35 -8 5 -11 74 -4 74 2 0 6 -18 8 -39z m2349 -178 c13 -15 12
-15 -8 -4 -24 12 -29 21 -14 21 5 0 15 -7 22 -17z m-2525 -173 c-34 -69 -72
-147 -84 -175 l-22 -50 5 65 c9 111 38 180 101 240 30 29 57 51 59 49 2 -2
-25 -60 -59 -129z m2598 16 c37 -43 64 -85 77 -123 21 -59 50 -195 44 -201 -4
-4 -70 135 -90 189 -14 38 -53 114 -86 167 -34 53 -5 36 55 -32z m-2703 -89
c-24 -55 -41 -143 -41 -208 0 -26 -5 -51 -12 -55 -29 -18 14 239 48 292 25 37
27 23 5 -29z m2847 -110 c11 -29 22 -86 26 -127 l6 -75 -24 101 c-13 56 -31
116 -40 132 -20 39 -20 48 -1 32 8 -6 23 -35 33 -63z m276 -527 c14 -17 26
-41 26 -53 0 -12 -4 -17 -8 -11 -4 5 -25 30 -45 56 -21 26 -55 60 -77 75 -22
15 -40 32 -40 36 0 13 116 -70 144 -103z m-3291 28 c-59 -68 -160 -186 -176
-208 -10 -14 -7 -5 6 19 26 48 166 211 181 211 5 0 0 -10 -11 -22z m3381 -133
c34 -66 46 -176 26 -225 -15 -35 -30 -30 -30 10 0 16 -7 62 -16 102 -18 83
-27 181 -15 174 4 -3 20 -30 35 -61z m-3368 23 c-64 -91 -132 -199 -154 -247
-17 -35 -28 -50 -30 -39 -2 10 13 48 32 85 39 74 146 223 160 223 5 0 1 -10
-8 -22z m3171 -25 c42 -54 76 -118 71 -134 -3 -8 -14 5 -28 31 -12 25 -38 64
-56 87 -19 23 -34 44 -34 47 0 16 20 2 47 -31z m263 -1 c0 -15 -2 -15 -10 -2
-13 20 -13 33 0 25 6 -3 10 -14 10 -23z m-3707 -67 c-36 -44 -43 -50 -43 -40
0 6 71 85 77 85 2 0 -13 -20 -34 -45z m29 -18 c-20 -24 -62 -170 -69 -238 -3
-38 -9 -69 -13 -69 -4 0 -15 9 -25 20 -14 16 -16 29 -11 71 4 29 14 66 23 83
22 43 92 146 100 146 3 0 1 -6 -5 -13z m3680 -41 c-9 -18 -11 -16 -11 19 0 33
1 37 10 21 8 -12 8 -25 1 -40z m-3810 -65 c-15 -28 -28 -46 -30 -41 -3 8 46
90 54 90 2 0 -8 -22 -24 -49z m431 -30 c-16 -61 -43 -102 -43 -65 0 11 10 48
21 83 26 77 43 63 22 -18z m3363 -87 c-32 -90 -35 -95 -35 -58 -1 22 10 69 24
104 14 35 25 73 25 85 0 37 15 39 18 2 2 -21 -11 -74 -32 -133z m-77 21 c0
-22 -4 -47 -9 -55 -7 -10 -9 12 -9 70 1 60 4 76 9 55 4 -16 8 -48 9 -70z
m-3610 -61 c0 -62 -3 -84 -11 -76 -9 9 -3 162 7 162 2 0 4 -39 4 -86z m-119
40 c0 -8 -4 -12 -10 -9 -5 3 -10 13 -10 21 0 8 5 12 10 9 6 -3 10 -13 10 -21z
m3648 -203 l-13 -56 -3 95 c-2 57 2 113 10 140 l13 45 3 -84 c2 -46 -3 -109
-10 -140z m-3610 79 c26 -33 29 -40 12 -25 -68 54 -80 69 -80 99 l1 31 16 -30
c8 -16 32 -50 51 -75z m176 -8 c7 -15 17 -43 21 -62 7 -32 6 -34 -10 -20 -19
16 -29 37 -40 89 -8 39 7 36 29 -7z m3539 -18 c2 -15 -2 -54 -10 -88 -21 -89
-13 -149 30 -221 19 -33 33 -62 30 -65 -12 -12 -81 83 -92 124 -15 60 -14 95
5 198 16 87 27 103 37 52z m-3333 -202 c0 -20 -6 -15 -35 28 -19 29 -35 55
-35 58 0 3 16 -9 35 -28 21 -20 35 -44 35 -58z m3131 -6 l-6 -40 -12 27 c-7
15 -10 34 -8 42 16 51 16 51 25 30 4 -11 5 -38 1 -59z m-3187 31 c28 -68 27
-81 -3 -34 -17 27 -29 53 -26 58 10 15 14 11 29 -24z m3243 -29 c-3 -8 -6 -5
-6 6 -1 11 2 17 5 13 3 -3 4 -12 1 -19z m3 -92 c0 -6 -7 -2 -15 8 -8 11 -15
25 -15 30 0 6 7 2 15 -8 8 -11 15 -25 15 -30z m175 -87 c24 -18 42 -42 46 -60
8 -38 -14 -39 -38 -1 -10 15 -34 47 -54 72 -51 62 -72 108 -27 58 18 -21 51
-51 73 -69z m-3438 29 c-3 -7 -5 -2 -5 12 0 14 2 19 5 13 2 -7 2 -19 0 -25z
m3306 -25 c20 -29 33 -53 27 -53 -13 0 -70 79 -70 98 0 9 1 13 3 11 2 -2 20
-28 40 -56z m23 -100 c-7 -7 -26 7 -26 19 0 6 6 6 15 -2 9 -7 13 -15 11 -17z
m-3596 3 c0 -2 -12 -11 -27 -20 l-28 -17 24 20 c23 21 31 25 31 17z m727 -103
c-4 -17 -4 -17 -12 0 -4 9 -4 25 0 35 8 16 8 16 12 0 3 -10 3 -26 0 -35z
m3132 3 c7 -8 8 -17 3 -20 -6 -3 -12 3 -15 14 -6 24 -4 25 12 6z m-3522 -158
c-3 -7 -5 -2 -5 12 0 14 2 19 5 13 2 -7 2 -19 0 -25z m-67 -32 c0 -20 -11 -46
-19 -46 -4 0 -6 14 -3 30 4 30 22 43 22 16z m447 -33 c-3 -10 -5 -2 -5 17 0
19 2 27 5 18 2 -10 2 -26 0 -35z m2453 5 c0 -9 -4 -20 -10 -23 -6 -4 -10 9
-10 32 0 28 3 34 10 23 5 -8 10 -23 10 -32z m221 -29 l-9 -34 -1 30 c0 17 2
41 6 55 7 23 8 24 11 4 2 -12 -1 -37 -7 -55z m446 -25 c8 -21 -13 -42 -28 -27
-13 13 -5 43 11 43 6 0 13 -7 17 -16z m27 -9 c3 -8 1 -15 -4 -15 -6 0 -10 7
-10 15 0 8 2 15 4 15 2 0 6 -7 10 -15z m-3553 -28 c-10 -9 -11 -8 -5 6 3 10 9
15 12 12 3 -3 0 -11 -7 -18z m-141 -12 c0 -14 -40 -58 -47 -51 -5 5 31 66 40
66 4 0 7 -7 7 -15z m-220 -14 c0 -23 -25 -51 -46 -51 -25 0 -15 39 14 54 34
19 32 19 32 -3z m365 -53 c-15 -46 -55 -98 -77 -98 -11 0 33 92 61 127 14 18
27 30 29 28 2 -2 -4 -28 -13 -57z m3529 20 c3 -13 5 -50 5 -83 l-1 -60 -13 46
c-24 90 -27 119 -12 119 8 0 17 -10 21 -22z m-3785 -57 c-6 -18 -13 -30 -15
-28 -2 2 1 18 7 36 6 18 13 30 15 28 2 -2 -1 -18 -7 -36z m61 15 c0 -2 -8 -10
-17 -17 -16 -13 -17 -12 -4 4 13 16 21 21 21 13z m3590 -21 c13 -14 21 -25 18
-25 -2 0 -15 11 -28 25 -13 14 -21 25 -18 25 2 0 15 -11 28 -25z m-286 -1 c3
-8 2 -12 -4 -9 -6 3 -10 10 -10 16 0 14 7 11 14 -7z m-3484 -38 c0 -25 -5 -57
-12 -73 -11 -27 -12 -26 -20 31 -10 65 -6 86 17 86 11 0 15 -11 15 -44z m163
4 c-10 -17 -19 -26 -21 -20 -4 10 25 50 35 50 2 0 -4 -14 -14 -30z m102 -23
c-8 -20 -18 -37 -20 -37 -7 0 5 50 18 75 17 33 19 1 2 -38z m-345 1 c0 -46 -8
-44 -26 7 -11 32 -10 35 7 35 16 0 19 -8 19 -42z m127 -5 c-3 -10 -5 -4 -5 12
0 17 2 24 5 18 2 -7 2 -21 0 -30z m3447 -3 c-6 -6 -10 -2 -11 12 -2 16 1 18
10 9 7 -7 8 -14 1 -21z m186 15 c16 -19 1 -19 -24 0 -16 12 -17 15 -4 15 8 0
21 -7 28 -15z m-428 -27 c-7 -7 -12 -8 -12 -2 0 14 12 26 19 19 2 -3 -1 -11
-7 -17z m-3105 -26 c-15 -14 -27 -21 -27 -15 0 15 41 55 49 48 3 -3 -7 -18
-22 -33z m179 -7 c-6 -25 -14 -45 -18 -45 -5 0 -8 -7 -8 -16 0 -9 -16 -35 -35
-58 -49 -60 -62 -100 -41 -131 18 -28 21 -45 6 -45 -5 0 -19 19 -31 42 -41 80
-7 179 90 265 20 18 39 32 42 33 3 0 1 -20 -5 -45z m3356 -12 c15 -22 30 -60
33 -84 l7 -44 -21 25 c-11 14 -25 39 -32 55 -10 29 -28 70 -37 89 -3 5 1 7 9
4 8 -2 26 -23 41 -45z m-3247 18 c-3 -6 -11 -11 -17 -11 -6 0 -6 6 2 15 14 17
26 13 15 -4z m-248 -13 c-3 -8 -6 -5 -6 6 -1 11 2 17 5 13 3 -3 4 -12 1 -19z
m3501 -110 c27 -40 29 -46 17 -74 -7 -16 -26 -44 -44 -61 -17 -17 -31 -36 -31
-41 0 -5 -6 -15 -14 -21 -11 -9 -15 -7 -19 9 -3 13 5 33 24 57 37 46 45 78 30
117 -7 17 -15 44 -17 59 -2 15 -8 36 -14 47 -21 39 -9 33 14 -7 13 -23 37 -61
54 -85z m-3758 38 c-16 -43 -19 -28 -6 29 8 36 12 42 14 24 2 -14 -2 -38 -8
-53z m3474 3 c-9 -10 -24 -19 -33 -18 -11 0 -9 3 6 9 12 5 24 22 29 42 7 29 9
30 12 10 2 -13 -4 -32 -14 -43z m208 -15 l-4 -25 -13 25 c-11 21 -12 35 -5 66
4 18 26 -47 22 -66z m-42 9 c0 -14 -19 -38 -25 -32 -8 8 5 39 16 39 5 0 9 -3
9 -7z m-3204 -80 c-11 -11 -19 6 -11 24 8 17 8 17 12 0 3 -10 2 -21 -1 -24z
m3185 6 c-12 -12 -24 -19 -27 -17 -2 3 6 15 17 27 12 12 24 20 27 17 3 -4 -5
-16 -17 -27z m-2950 -30 c-5 -13 -10 -19 -10 -12 -1 15 10 45 15 40 3 -2 0
-15 -5 -28z m-241 -10 c0 -5 -7 -6 -15 -3 -8 4 -15 13 -15 21 0 13 3 13 15 3
8 -7 15 -16 15 -21z m3166 -36 c-10 -10 -19 5 -10 18 6 11 8 11 12 0 2 -7 1
-15 -2 -18z m-3541 -63 c-10 -29 -18 -74 -18 -101 0 -27 -4 -49 -9 -49 -16 0
-7 100 13 154 27 70 37 66 14 -4z m385 40 c0 -5 -2 -10 -4 -10 -3 0 -8 5 -11
10 -3 6 -1 10 4 10 6 0 11 -4 11 -10z m3566 -119 l3 -66 -14 70 c-8 39 -17 81
-20 95 -5 23 -4 23 11 -4 9 -17 18 -59 20 -95z m-4096 93 c0 -17 -30 -45 -41
-39 -12 8 -11 29 1 41 15 15 40 13 40 -2z m493 -111 c-4 -11 -12 -8 -35 14
-31 29 -49 62 -41 76 8 13 82 -74 76 -90z m3236 40 c-18 -51 -26 -59 -34 -33
-4 12 -3 25 2 29 6 3 16 17 22 29 19 35 25 19 10 -25z m-3754 8 c-8 -13 -35
-15 -35 -2 0 5 8 11 18 13 21 5 26 2 17 -11z m396 -3 c11 -21 11 -22 -4 -9
-10 7 -17 17 -17 22 0 15 9 10 21 -13z m-404 -34 c-3 -3 -12 -4 -19 -1 -8 3
-5 6 6 6 11 1 17 -2 13 -5z m433 -4 c0 -5 -2 -10 -4 -10 -3 0 -8 5 -11 10 -3
6 -1 10 4 10 6 0 11 -4 11 -10z m257 -112 c-3 -7 -5 -2 -5 12 0 14 2 19 5 13
2 -7 2 -19 0 -25z m3080 -157 c6 -59 -8 -103 -41 -130 -20 -17 -20 -12 2 30
12 24 17 56 16 112 -1 90 15 82 23 -12z m-40 -14 c-5 -60 -28 -106 -58 -115
-10 -4 -10 0 3 15 30 33 50 104 44 153 -4 36 -3 41 5 26 7 -11 9 -43 6 -79z
m-247 53 c0 -5 -2 -10 -4 -10 -3 0 -8 5 -11 10 -3 6 -1 10 4 10 6 0 11 -4 11
-10z m-2910 -140 c7 -14 22 -37 33 -52 30 -41 11 -47 -22 -7 -42 48 -63 139
-44 186 5 12 10 -2 14 -42 3 -33 12 -71 19 -85z m3060 131 c0 -5 -9 -19 -20
-32 -21 -26 -27 -11 -10 22 11 19 30 26 30 10z m-3101 -156 c0 -5 -6 -1 -14 9
-10 13 -15 41 -14 80 l1 61 13 -70 c7 -38 14 -74 14 -80z m270 109 c21 -35 24
-58 4 -32 -12 16 -34 68 -29 68 2 0 14 -16 25 -36z m2665 21 c-4 -8 -8 -15
-10 -15 -2 0 -4 7 -4 15 0 8 4 15 10 15 5 0 7 -7 4 -15z m-2796 -51 c-4 -3
-12 5 -18 18 -12 22 -12 22 6 6 10 -10 15 -20 12 -24z m3009 -21 c-15 -29 -57
-72 -57 -59 0 11 63 97 67 92 3 -2 -2 -17 -10 -33z m-87 24 c0 -2 -10 -12 -22
-23 l-23 -19 19 23 c18 21 26 27 26 19z m14 -32 c-15 -20 -29 -33 -32 -30 -5
5 46 65 55 65 2 0 -8 -16 -23 -35z m-2764 1 c0 -3 -4 -8 -10 -11 -5 -3 -10 -1
-10 4 0 6 5 11 10 11 6 0 10 -2 10 -4z m-139 -68 c17 -31 2 -19 -32 25 -30 39
-31 40 -5 17 15 -14 32 -33 37 -42z m9 37 c13 -14 21 -25 18 -25 -2 0 -15 11
-28 25 -13 14 -21 25 -18 25 2 0 15 -11 28 -25z m-48 -60 c7 -14 1 -11 -22 10
-17 17 -36 39 -42 50 -7 14 -1 11 22 -10 17 -16 36 -39 42 -50z m2972 -2610
c6 -28 5 -29 -9 -11 -8 11 -15 36 -14 55 1 32 2 33 8 11 4 -14 11 -38 15 -55z
m85 -310 c39 -143 89 -350 111 -460 21 -110 46 -220 55 -245 37 -104 115 -191
255 -282 115 -76 369 -195 514 -243 186 -60 276 -99 397 -172 58 -34 111 -63
117 -63 34 0 1 -19 -92 -52 -57 -21 -177 -71 -268 -112 -173 -79 -325 -129
-498 -166 -187 -39 -343 -82 -439 -121 l-93 -38 -32 25 c-33 26 -71 80 -120
167 -17 30 -34 47 -46 47 -30 0 -130 180 -184 328 -69 193 -91 462 -53 655 29
145 89 340 109 357 13 10 22 37 28 79 5 37 18 77 30 92 11 16 20 38 20 49 0
12 11 41 25 65 21 35 24 50 19 84 -6 35 -2 47 21 81 23 34 27 47 22 82 -6 44
11 125 23 111 4 -4 40 -125 79 -268z m-3009 50 c8 -10 10 -32 6 -69 -6 -41 -3
-62 8 -85 9 -16 16 -46 16 -66 0 -21 10 -51 26 -75 17 -25 29 -60 33 -99 4
-33 14 -68 23 -78 9 -10 21 -38 28 -63 7 -25 34 -114 61 -199 74 -228 82 -274
82 -446 1 -187 -16 -256 -108 -440 -82 -168 -99 -193 -127 -197 -17 -2 -32
-21 -60 -77 -20 -41 -52 -90 -71 -109 l-35 -34 -88 52 c-147 87 -251 129 -471
190 -291 80 -391 119 -713 272 -173 83 -319 154 -324 158 -11 11 21 27 90 45
32 8 67 23 78 34 39 35 238 70 401 71 286 1 651 88 784 188 112 84 144 154
191 408 17 93 55 271 85 395 30 125 55 229 55 233 0 11 17 6 30 -9z"/>
<path d="M3836 9975 c42 -82 46 -94 41 -145 -2 -30 -7 -64 -11 -75 -3 -11 1
-4 10 15 32 68 3 183 -67 270 -11 14 1 -15 27 -65z"/>
<path d="M7716 9979 c5 -9 42 -52 83 -95 41 -42 66 -64 56 -47 -19 32 -154
170 -139 142z"/>
<path d="M3733 9215 c0 -22 2 -30 4 -17 2 12 2 30 0 40 -3 9 -5 -1 -4 -23z"/>
<path d="M3671 8859 c-17 -45 -30 -83 -28 -85 2 -2 18 33 36 77 17 45 30 83
28 85 -2 2 -18 -33 -36 -77z"/>
<path d="M7695 8700 c10 -11 20 -20 23 -20 3 0 -3 9 -13 20 -10 11 -20 20 -23
20 -3 0 3 -9 13 -20z"/>
<path d="M9285 2510 c-3 -5 -1 -10 4 -10 6 0 11 5 11 10 0 6 -2 10 -4 10 -3 0
-8 -4 -11 -10z"/>
<path d="M9397 1613 c-10 -9 -9 -23 1 -23 5 0 9 7 9 15 0 17 -1 18 -10 8z"/>
<path d="M2147 1473 c-4 -3 -7 -11 -7 -17 0 -6 5 -5 12 2 6 6 9 14 7 17 -3 3
-9 2 -12 -2z"/>
</g>
</svg>
