<svg id="svg" version="1.1" width="1000" height="1000" xmlns="http://www.w3.org/2000/svg" xmlns:xlink="http://www.w3.org/1999/xlink" style="display: block;"><g id="svgg"><path id="path0" d="M198.806 29.400 C 194.958 34.114,186.638 55.992,184.809 66.200 C 183.997 70.735,183.886 70.899,180.276 72.887 C 172.924 76.934,158.061 85.395,156.075 86.664 C 151.217 89.768,126.189 108.554,121.048 112.955 L 118.696 114.969 118.970 120.985 C 120.389 152.159,128.731 179.509,143.835 202.502 C 149.037 210.422,148.820 209.792,149.290 218.365 C 149.733 226.464,149.707 226.353,153.206 234.800 C 155.818 241.108,163.275 260.300,164.861 264.800 C 168.416 274.884,164.411 291.199,156.411 299.220 C 150.723 304.922,147.505 306.206,138.000 306.564 C 134.370 306.701,130.050 306.896,128.400 306.997 C 126.750 307.099,122.700 307.281,119.400 307.403 C 116.100 307.525,112.770 307.703,112.000 307.797 C 111.230 307.891,108.440 308.084,105.800 308.224 C 103.160 308.365,94.586 308.877,86.747 309.362 L 72.494 310.244 69.873 311.534 C 63.831 314.509,62.000 318.226,62.000 327.516 C 62.000 344.298,70.999 354.793,85.395 354.802 C 90.065 354.805,91.858 355.325,93.600 357.182 C 97.385 361.215,105.892 364.971,112.740 365.632 C 120.156 366.348,120.704 367.048,116.300 370.180 C 108.898 375.445,108.226 376.253,108.636 379.400 C 108.991 382.124,110.045 384.689,112.704 389.300 L 114.953 393.200 120.152 393.200 L 125.351 393.200 130.876 390.390 C 136.129 387.717,136.454 387.607,137.500 388.140 C 139.307 389.061,154.456 389.376,161.600 388.642 C 196.667 385.037,207.489 384.978,236.471 388.236 C 243.831 389.063,261.738 388.904,263.110 388.000 C 263.966 387.435,264.356 387.571,269.733 390.300 L 275.446 393.200 279.697 393.200 C 285.535 393.200,285.409 393.279,288.412 387.746 C 293.140 379.037,292.949 376.170,287.388 372.400 C 280.106 367.463,279.767 365.600,286.150 365.600 C 292.704 365.600,301.434 361.951,306.883 356.934 C 307.918 355.980,309.088 355.182,309.483 355.159 C 321.733 354.466,326.907 352.788,331.187 348.119 C 339.937 338.572,341.296 320.520,333.781 313.652 C 330.823 310.949,328.546 310.170,322.600 309.830 C 319.960 309.679,316.990 309.475,316.000 309.377 C 313.283 309.109,288.954 307.659,282.800 307.399 C 279.830 307.274,276.860 307.097,276.200 307.007 C 275.540 306.916,271.130 306.737,266.400 306.608 C 253.392 306.253,253.065 306.165,246.196 301.174 C 238.897 295.871,234.729 285.779,234.642 273.200 L 234.600 267.000 238.953 255.600 C 241.348 249.330,244.987 240.021,247.041 234.914 L 250.774 225.629 251.035 218.714 C 251.359 210.100,251.552 209.517,256.610 201.824 C 271.359 179.397,280.376 150.135,281.471 121.148 L 281.722 114.497 279.910 113.148 C 278.913 112.407,275.241 109.543,271.749 106.785 C 266.085 102.311,253.509 92.963,246.400 87.941 C 244.146 86.349,229.654 77.964,220.347 72.868 C 216.484 70.752,216.423 70.670,215.746 66.705 C 214.193 57.605,209.774 45.262,203.536 32.600 C 201.735 28.945,200.087 27.830,198.806 29.400 M219.353 87.618 C 229.667 97.967,241.497 109.605,245.642 113.481 C 255.159 122.380,255.408 122.731,255.376 127.200 C 255.345 131.599,251.544 140.674,241.891 159.400 C 239.736 163.580,236.586 169.747,234.891 173.103 C 233.195 176.460,231.537 179.291,231.204 179.395 C 230.029 179.760,224.975 180.384,223.132 180.392 C 220.322 180.404,215.753 174.485,213.994 168.553 L 213.505 166.907 216.868 161.349 C 218.717 158.293,220.553 154.714,220.948 153.396 C 221.343 152.078,221.735 150.775,221.820 150.500 C 221.905 150.225,222.246 150.000,222.576 150.000 C 222.968 150.000,223.401 149.197,223.816 147.700 C 224.167 146.435,224.534 145.157,224.630 144.860 C 225.593 141.895,225.607 136.687,224.657 134.612 C 223.524 132.137,222.962 129.544,222.586 125.053 C 220.953 105.543,202.909 95.065,188.441 105.225 C 182.191 109.615,179.045 115.676,177.800 125.726 C 177.113 131.277,176.669 133.099,175.530 135.029 C 174.091 137.468,175.934 149.322,177.886 150.186 C 178.466 150.442,178.842 151.066,179.007 152.044 C 179.334 153.976,180.956 157.362,183.683 161.802 C 187.122 167.400,186.973 166.877,185.983 169.852 C 184.985 172.849,181.858 177.740,179.761 179.580 C 178.189 180.961,178.583 180.944,171.703 179.922 L 168.805 179.491 167.038 176.246 C 161.348 165.799,149.113 140.553,146.251 133.350 C 142.913 124.954,142.770 125.201,161.344 107.266 C 169.735 99.164,181.803 87.194,188.162 80.667 C 194.521 74.140,199.921 68.801,200.162 68.801 C 200.403 68.802,209.039 77.270,219.353 87.618 M212.614 192.800 C 213.848 192.800,213.917 193.499,212.700 193.672 C 211.032 193.909,211.129 211.670,212.801 212.200 C 214.414 212.712,213.531 213.200,210.990 213.200 C 207.567 213.200,207.600 213.306,207.600 202.374 C 207.600 194.842,207.515 193.600,207.000 193.600 C 206.670 193.600,206.400 193.420,206.400 193.200 C 206.400 192.980,206.670 192.800,207.000 192.800 C 207.472 192.800,207.604 192.225,207.619 190.100 L 207.638 187.400 209.519 185.897 L 211.400 184.395 211.514 188.597 C 211.626 192.767,211.635 192.800,212.614 192.800 M192.800 188.600 L 192.800 190.800 190.600 190.800 L 188.400 190.800 188.400 188.600 L 188.400 186.400 190.600 186.400 L 192.800 186.400 192.800 188.600 M168.703 188.376 C 173.970 192.191,175.032 204.824,170.578 210.665 L 169.580 211.973 171.690 213.183 C 174.349 214.708,176.580 215.448,180.483 216.100 L 183.565 216.615 182.554 217.907 C 181.321 219.482,180.639 219.515,176.489 218.204 C 173.596 217.290,168.869 214.683,168.230 213.648 C 168.059 213.371,167.121 213.304,165.618 213.461 C 159.503 214.100,156.264 209.597,156.222 200.400 C 156.176 190.003,162.516 183.894,168.703 188.376 M163.716 188.603 C 159.493 191.561,160.037 211.716,164.357 212.334 C 165.597 212.511,166.184 211.899,165.691 210.943 C 165.109 209.813,165.500 209.118,166.436 209.619 C 167.467 210.171,167.863 209.098,168.444 204.175 C 169.495 195.264,166.814 186.434,163.716 188.603 M179.204 201.100 C 179.210 212.457,179.495 213.705,181.600 211.600 C 182.353 210.847,182.400 210.267,182.400 201.800 L 182.400 192.800 184.400 192.800 L 186.400 192.800 186.400 203.000 L 186.400 213.200 184.400 213.200 C 182.889 213.200,182.400 213.053,182.400 212.600 C 182.400 212.133,182.222 212.178,181.600 212.800 C 180.421 213.979,177.850 213.886,176.582 212.618 L 175.600 211.636 175.600 202.218 L 175.600 192.800 177.400 192.800 L 179.200 192.800 179.204 201.100 M192.400 203.000 L 192.400 213.200 190.600 213.200 L 188.800 213.200 188.800 203.000 L 188.800 192.800 190.600 192.800 L 192.400 192.800 192.400 203.000 M203.996 193.934 C 205.359 195.298,206.400 198.561,206.400 201.473 L 206.400 203.600 202.600 203.600 L 198.800 203.600 198.813 204.900 C 198.887 212.243,200.811 214.429,204.052 210.855 C 205.421 209.345,206.504 209.771,205.437 211.399 C 204.110 213.424,200.367 214.224,197.984 212.992 C 193.839 210.849,193.616 196.276,197.684 193.426 C 199.266 192.318,202.652 192.591,203.996 193.934 M199.642 194.900 C 199.412 195.615,199.173 197.640,199.111 199.400 L 199.000 202.600 200.757 202.726 L 202.514 202.852 202.304 199.326 C 201.998 194.174,200.618 191.879,199.642 194.900 M222.400 202.103 L 222.400 205.406 224.163 205.266 C 227.317 205.015,227.600 205.651,227.600 213.000 L 227.600 219.200 226.610 219.200 L 225.620 219.200 225.510 212.943 C 225.388 206.023,225.008 204.964,223.223 206.579 C 222.463 207.267,222.400 207.776,222.400 213.262 L 222.400 219.200 221.400 219.200 L 220.400 219.200 220.400 209.000 L 220.400 198.800 221.400 198.800 C 222.386 198.800,222.400 198.846,222.400 202.103 M218.800 203.613 C 218.800 204.677,219.004 205.303,219.400 205.455 C 219.730 205.582,220.000 205.846,220.000 206.043 C 220.000 206.239,219.730 206.400,219.400 206.400 C 218.892 206.400,218.800 207.378,218.800 212.800 L 218.800 219.200 217.800 219.200 L 216.800 219.200 216.800 212.800 C 216.800 207.378,216.708 206.400,216.200 206.400 C 215.870 206.400,215.600 206.239,215.600 206.043 C 215.600 205.846,215.870 205.582,216.200 205.455 C 216.596 205.303,216.800 204.677,216.800 203.613 C 216.800 202.159,216.899 202.000,217.800 202.000 C 218.701 202.000,218.800 202.159,218.800 203.613 M238.926 205.650 C 240.042 206.224,241.570 207.609,242.030 208.461 C 242.332 209.021,241.540 209.468,236.778 211.423 C 230.486 214.006,230.551 213.958,231.343 215.489 C 233.296 219.266,237.853 219.467,239.794 215.863 C 240.676 214.226,240.757 214.188,241.762 214.923 C 242.437 215.416,242.416 215.520,241.391 216.737 C 235.903 223.259,225.525 216.592,229.235 208.928 C 230.748 205.802,235.863 204.072,238.926 205.650 M234.650 206.050 C 232.445 206.640,230.800 208.906,230.800 211.353 L 230.800 212.746 235.400 210.873 C 240.485 208.802,240.499 208.787,238.810 207.209 C 237.451 205.940,236.280 205.614,234.650 206.050 M169.421 226.139 C 169.432 226.172,171.023 229.567,172.956 233.682 C 176.277 240.751,176.437 241.212,175.852 242.047 C 175.191 242.990,174.514 241.785,170.579 232.670 L 169.400 229.940 169.137 231.470 C 168.320 236.236,168.558 240.433,169.703 241.418 C 171.242 242.742,171.162 242.800,167.800 242.800 C 164.529 242.800,164.381 242.698,165.666 241.330 C 166.567 240.371,167.134 236.155,167.181 230.065 C 167.199 227.609,167.163 227.516,166.000 227.078 C 163.816 226.253,164.487 225.469,167.100 225.793 C 168.365 225.949,169.409 226.105,169.421 226.139 M188.000 225.840 C 188.000 225.971,187.449 226.594,186.775 227.223 L 185.550 228.368 185.794 233.284 C 186.123 239.899,186.267 240.638,187.415 241.540 C 188.802 242.632,188.668 242.800,186.408 242.800 C 184.042 242.800,184.061 242.842,183.869 237.200 C 183.765 234.184,183.745 234.370,183.769 238.101 L 183.800 242.801 181.700 242.801 C 179.286 242.800,179.210 242.697,180.680 241.433 C 181.844 240.431,181.978 238.358,181.272 232.251 L 181.000 229.902 178.805 235.019 L 176.609 240.136 173.322 233.368 C 169.582 225.668,169.690 226.000,170.941 226.000 C 171.756 226.000,172.165 226.630,173.992 230.700 C 175.153 233.285,176.233 235.544,176.392 235.721 C 176.551 235.897,177.653 233.787,178.841 231.030 C 180.852 226.363,181.076 226.018,182.100 226.009 L 183.200 226.000 183.282 229.500 L 183.365 233.000 183.497 229.526 C 183.644 225.707,183.622 225.735,186.500 225.646 C 187.325 225.621,188.000 225.708,188.000 225.840 M193.367 225.843 C 193.916 226.053,194.000 227.191,194.000 234.443 L 194.000 242.800 191.800 242.800 C 189.286 242.800,189.262 242.774,190.562 241.474 C 192.526 239.511,192.589 228.553,190.646 227.004 C 190.071 226.545,189.600 226.042,189.600 225.885 C 189.600 225.538,192.488 225.505,193.367 225.843 M198.400 226.200 C 198.400 226.530,198.136 226.800,197.814 226.800 C 195.987 226.800,195.619 239.715,197.400 241.365 C 198.787 242.650,198.682 242.800,196.400 242.800 L 194.400 242.800 194.400 234.433 C 194.400 225.293,194.288 225.687,196.900 225.632 C 197.981 225.609,198.400 225.768,198.400 226.200 M203.846 226.492 C 209.394 230.780,221.200 241.334,221.200 242.006 C 221.200 243.763,217.515 241.020,208.100 232.254 L 206.800 231.043 206.800 235.552 C 206.800 240.029,206.809 240.070,208.000 241.262 C 209.595 242.857,209.677 242.800,205.800 242.800 C 202.625 242.800,201.433 242.361,203.139 241.819 C 204.416 241.414,204.800 239.776,204.800 234.745 C 204.800 229.354,204.882 229.527,201.300 227.355 C 200.365 226.788,199.600 226.161,199.600 225.962 C 199.600 225.212,202.688 225.597,203.846 226.492 M223.600 225.906 C 223.600 226.051,223.105 226.564,222.500 227.046 C 221.406 227.917,221.399 227.953,221.200 233.973 L 221.000 240.025 213.800 233.972 C 209.840 230.643,206.154 227.488,205.609 226.960 L 204.618 226.000 205.809 226.005 C 206.762 226.010,208.198 227.061,213.000 231.273 L 219.000 236.534 219.122 233.367 C 219.298 228.818,219.000 227.606,217.573 227.068 C 215.442 226.263,216.270 225.803,220.001 225.721 C 221.980 225.677,223.600 225.760,223.600 225.906 M228.167 225.843 C 228.716 226.053,228.800 227.191,228.800 234.443 L 228.800 242.800 226.500 242.791 C 224.248 242.782,224.218 242.768,225.079 242.091 C 227.511 240.180,227.630 227.371,225.223 226.607 C 224.770 226.464,224.400 226.178,224.400 225.973 C 224.400 225.559,227.176 225.463,228.167 225.843 M237.840 226.362 C 239.740 227.225,241.044 228.872,241.557 231.058 C 241.820 232.178,241.928 232.326,241.951 231.600 C 241.968 231.050,241.631 229.826,241.202 228.880 L 240.422 227.161 241.620 228.014 C 245.503 230.779,245.324 237.629,241.288 240.717 L 239.975 241.722 240.987 239.761 C 241.636 238.504,242.055 236.938,242.153 235.400 C 242.238 234.080,242.232 233.450,242.141 234.000 C 240.920 241.350,239.418 242.800,233.020 242.800 L 229.200 242.800 229.200 234.423 L 229.200 226.046 230.900 225.893 C 234.754 225.546,236.267 225.648,237.840 226.362 M231.672 227.547 C 231.091 227.916,231.117 240.454,231.700 241.034 C 233.052 242.382,237.757 240.651,238.899 238.386 C 241.772 232.691,236.360 224.575,231.672 227.547 M219.593 246.100 C 219.589 246.595,219.322 248.710,219.000 250.800 C 218.678 252.890,218.411 254.760,218.407 254.955 C 218.403 255.152,219.868 255.206,221.700 255.076 C 227.768 254.647,227.917 256.018,221.877 256.709 C 219.940 256.931,218.274 257.193,218.176 257.291 C 217.966 257.501,216.352 268.885,216.509 269.042 C 216.568 269.101,217.308 267.805,218.154 266.161 C 219.954 262.665,221.699 261.320,222.706 262.653 C 223.274 263.405,223.270 263.592,222.545 270.393 C 222.380 271.943,222.449 272.977,222.742 273.330 C 223.267 273.962,222.956 274.400,221.982 274.400 C 220.700 274.400,220.211 273.179,219.996 269.442 L 219.787 265.800 218.131 270.800 C 217.221 273.550,216.165 276.925,215.785 278.300 C 215.075 280.871,213.200 282.131,213.200 280.038 C 213.200 279.375,212.984 279.305,211.539 279.499 C 208.487 279.908,208.162 277.530,209.587 265.208 C 210.006 261.582,210.315 258.582,210.274 258.540 C 210.232 258.499,208.587 258.983,206.617 259.617 C 202.512 260.937,202.562 260.945,203.333 259.098 C 203.883 257.783,204.090 257.669,207.232 256.955 C 210.914 256.117,210.782 256.277,211.383 251.924 C 211.631 250.127,213.781 248.448,214.681 249.348 C 214.899 249.565,214.179 253.868,213.729 255.041 C 213.484 255.678,215.001 255.846,215.385 255.224 C 215.513 255.017,215.832 252.932,216.094 250.590 C 216.561 246.410,216.591 246.324,217.785 245.799 C 219.472 245.058,219.601 245.080,219.593 246.100 M190.176 248.826 C 188.916 250.218,184.445 252.987,179.331 255.543 C 176.652 256.881,173.436 258.811,172.182 259.832 C 169.964 261.638,169.923 261.654,170.651 260.398 C 172.108 257.888,175.287 255.639,182.800 251.805 C 190.633 247.807,191.367 247.511,190.176 248.826 M198.406 250.500 C 203.461 253.934,204.028 259.835,199.693 263.900 C 196.926 266.495,197.287 266.556,194.997 263.112 C 193.941 261.524,191.831 258.538,190.308 256.476 C 188.786 254.414,187.598 252.684,187.670 252.632 C 192.048 249.445,195.766 248.706,198.406 250.500 M193.679 253.543 C 193.279 253.797,193.499 254.445,194.632 256.347 C 196.327 259.192,198.265 260.857,198.835 259.957 C 200.340 257.580,195.941 252.108,193.679 253.543 M188.654 258.459 C 190.164 260.912,192.275 263.884,193.345 265.064 C 196.470 268.513,193.759 269.993,190.026 266.875 C 187.543 264.802,184.400 262.688,184.400 263.091 C 184.400 263.273,185.570 264.901,187.000 266.709 C 188.430 268.518,189.600 270.066,189.600 270.149 C 189.600 270.232,187.956 271.249,185.946 272.409 L 182.292 274.518 181.573 273.564 L 180.853 272.610 179.827 273.575 C 178.589 274.737,178.568 274.968,179.607 276.007 C 180.345 276.745,180.364 276.909,179.833 277.936 C 178.479 280.555,178.401 280.486,174.062 272.831 C 169.670 265.083,169.662 265.063,170.756 263.639 L 171.495 262.679 172.847 263.686 C 174.531 264.940,180.427 268.398,183.675 270.038 L 186.116 271.270 184.805 268.935 C 183.324 266.299,180.376 262.478,178.235 260.422 C 176.419 258.677,176.432 258.569,178.576 257.527 L 180.351 256.664 182.876 258.324 C 185.853 260.282,186.287 259.916,184.083 257.305 L 182.496 255.424 183.948 254.744 C 184.747 254.370,185.514 254.050,185.654 254.032 C 185.794 254.015,187.144 256.007,188.654 258.459 M213.746 257.906 C 212.929 258.435,210.834 275.418,211.375 277.123 C 211.834 278.569,213.135 277.745,213.371 275.858 C 213.694 273.271,215.200 258.651,215.200 258.096 C 215.200 257.548,214.451 257.450,213.746 257.906 M202.326 264.049 C 201.051 266.319,197.348 269.650,193.890 271.637 C 192.300 272.550,188.802 274.600,186.116 276.193 C 183.363 277.825,181.394 278.784,181.605 278.391 C 182.459 276.795,186.182 274.027,191.009 271.400 C 197.263 267.996,200.388 265.761,201.572 263.846 C 202.809 261.844,203.464 262.021,202.326 264.049 M229.771 263.829 C 231.390 265.447,229.814 268.826,227.171 269.406 C 226.394 269.577,226.000 269.911,226.000 270.399 C 226.000 272.506,227.165 272.972,228.942 271.574 C 229.933 270.794,230.800 270.810,230.800 271.607 C 230.800 272.305,227.325 274.000,225.894 274.000 C 221.221 274.000,222.337 266.471,227.401 263.830 C 228.889 263.054,228.997 263.054,229.771 263.829 M227.414 266.235 C 227.041 266.804,226.805 267.338,226.889 267.422 C 226.973 267.507,227.358 267.041,227.744 266.388 C 228.606 264.928,228.348 264.809,227.414 266.235 M175.864 270.800 C 176.659 272.146,176.903 272.240,177.558 271.451 C 177.915 271.020,177.799 270.760,177.021 270.251 C 175.498 269.253,175.070 269.456,175.864 270.800 M178.767 283.183 C 180.819 284.230,182.169 285.914,181.553 286.657 C 180.920 287.419,180.276 287.333,179.699 286.409 C 178.312 284.189,173.688 283.313,171.516 284.859 C 167.538 287.692,169.306 291.689,175.739 294.403 C 182.152 297.108,184.790 302.932,182.043 308.316 C 180.032 312.254,173.510 313.825,169.259 311.395 C 168.302 310.848,167.443 310.400,167.350 310.400 C 166.495 310.400,152.632 334.792,153.178 335.338 C 153.941 336.101,158.998 331.819,160.378 329.241 C 160.646 328.741,160.960 328.427,161.076 328.543 C 161.695 329.162,156.904 334.502,154.716 335.633 C 151.812 337.134,149.645 336.145,150.567 333.742 C 150.739 333.292,150.403 333.420,149.510 334.142 C 146.101 336.902,143.545 337.184,143.200 334.839 L 143.000 333.478 141.800 334.480 C 137.869 337.760,134.932 336.811,136.518 332.773 L 137.136 331.200 135.976 331.200 C 135.116 331.200,134.392 331.660,133.175 332.981 C 129.570 336.892,124.400 338.034,124.400 334.920 C 124.400 333.973,123.841 333.687,123.396 334.406 C 122.846 335.297,119.905 336.442,118.472 336.322 C 115.919 336.110,116.124 333.869,119.211 328.266 C 122.127 322.973,121.880 323.233,123.461 323.779 L 124.722 324.215 121.989 329.105 C 118.683 335.019,118.464 335.600,119.533 335.600 C 120.755 335.600,123.976 331.747,126.329 327.469 C 128.429 323.653,128.976 323.136,129.920 324.080 C 130.768 324.928,130.449 325.974,128.000 330.368 C 125.261 335.284,125.036 336.226,126.700 335.816 C 128.990 335.251,133.106 330.119,132.370 328.745 C 131.211 326.578,132.372 322.400,134.134 322.400 C 136.741 322.400,137.457 324.703,136.000 328.400 C 135.012 330.906,135.006 330.800,136.138 330.800 C 137.288 330.800,137.855 330.157,139.755 326.700 C 141.207 324.058,141.274 324.000,142.853 324.000 C 143.740 324.000,144.407 324.146,144.333 324.324 C 144.260 324.502,142.877 327.035,141.260 329.951 C 138.027 335.782,137.964 336.168,140.482 334.687 C 142.933 333.245,143.447 332.559,147.586 325.208 C 158.746 305.386,162.586 301.854,172.000 302.751 C 173.587 302.902,177.222 302.260,177.102 301.849 C 177.031 301.602,175.141 300.500,172.902 299.400 C 166.748 296.376,165.482 294.842,165.482 290.405 C 165.482 283.510,172.224 279.845,178.767 283.183 M199.071 284.239 C 208.903 292.124,204.614 313.647,193.396 312.716 C 180.277 311.628,181.533 282.209,194.671 282.868 C 197.160 282.993,197.745 283.176,199.071 284.239 M212.105 294.900 C 212.338 310.228,212.784 311.803,216.593 310.751 C 220.726 309.610,221.287 307.683,221.497 293.900 L 221.666 282.800 222.660 282.800 L 223.654 282.800 223.526 294.500 C 223.383 307.428,223.277 308.039,220.697 310.704 C 217.716 313.785,211.660 313.543,208.932 310.234 C 206.824 307.676,206.684 306.760,206.503 294.300 L 206.336 282.800 209.129 282.800 L 211.922 282.800 212.105 294.900 M232.495 296.700 L 232.600 310.600 236.900 310.714 C 240.870 310.818,241.200 310.887,241.200 311.614 C 241.200 312.366,240.892 312.400,234.000 312.400 L 226.800 312.400 226.800 297.600 L 226.800 282.800 229.595 282.800 L 232.390 282.800 232.495 296.700 M192.457 285.708 C 188.614 291.926,189.958 311.200,194.235 311.200 C 198.336 311.200,199.947 293.776,196.490 286.800 C 195.093 283.981,193.749 283.617,192.457 285.708 M164.046 305.443 C 160.177 309.402,156.505 315.035,149.062 328.430 C 144.730 336.227,144.663 336.660,148.148 334.351 C 150.518 332.782,151.143 331.935,155.195 324.800 C 158.859 318.349,162.986 311.870,165.046 309.333 C 165.791 308.416,166.409 307.516,166.419 307.333 C 166.430 307.150,167.424 306.293,168.629 305.430 C 171.044 303.699,171.007 303.259,168.419 302.912 C 166.772 302.691,166.691 302.738,164.046 305.443 M173.376 303.550 C 171.752 304.539,169.145 307.618,169.290 308.373 C 169.861 311.337,175.976 311.380,177.718 308.432 C 179.976 304.609,177.044 301.313,173.376 303.550 M146.384 318.581 C 147.071 319.408,146.518 320.755,145.374 321.042 C 143.968 321.395,143.200 320.968,143.200 319.832 C 143.200 318.247,145.392 317.385,146.384 318.581 M177.447 321.653 C 178.701 321.969,179.521 321.982,180.149 321.696 C 180.842 321.380,181.250 321.437,181.907 321.942 L 182.763 322.600 181.374 325.500 C 179.716 328.963,179.056 329.176,177.511 326.746 C 176.533 325.207,173.590 323.871,172.277 324.371 C 168.885 325.660,170.673 329.427,175.239 330.610 C 176.621 330.968,178.416 331.600,179.226 332.014 C 180.037 332.427,180.781 332.686,180.878 332.589 C 181.602 331.864,183.760 335.361,183.906 337.496 C 184.350 344.004,177.586 347.734,169.625 345.370 C 168.458 345.024,166.811 344.799,165.964 344.870 C 165.117 344.942,164.373 344.820,164.312 344.600 C 164.250 344.380,165.190 344.103,166.400 343.984 C 168.128 343.814,168.342 343.726,167.400 343.573 C 166.740 343.467,165.672 343.516,165.026 343.683 C 163.344 344.118,163.311 343.874,164.680 341.093 C 165.355 339.722,166.030 338.195,166.180 337.700 C 166.479 336.719,167.600 336.452,167.600 337.363 C 167.600 337.715,167.879 337.852,168.348 337.729 C 168.923 337.579,169.302 337.958,169.984 339.367 C 170.472 340.375,170.990 341.200,171.136 341.200 C 171.281 341.201,171.923 341.651,172.562 342.200 C 173.896 343.347,173.753 343.320,175.630 342.798 C 180.993 341.308,179.593 337.598,173.000 335.829 C 167.366 334.317,167.317 334.288,166.199 331.760 C 162.847 324.179,168.238 319.335,177.447 321.653 M199.498 322.215 C 200.308 322.554,201.292 323.122,201.685 323.477 C 202.142 323.891,202.400 323.952,202.400 323.648 C 202.400 322.727,203.879 323.937,204.593 325.441 C 207.051 330.622,203.714 334.836,196.917 335.133 L 193.200 335.295 193.211 338.748 C 193.221 341.964,193.305 342.310,194.434 343.800 L 195.645 345.400 191.348 345.514 C 185.659 345.666,184.570 345.075,190.000 344.783 L 194.200 344.557 189.659 344.478 L 185.117 344.400 186.359 342.986 C 187.513 341.671,187.600 341.361,187.600 338.542 L 187.600 335.512 186.200 335.676 C 184.425 335.883,184.250 334.890,186.000 334.540 C 186.660 334.408,187.200 334.140,187.200 333.945 C 187.200 333.749,186.538 333.866,185.729 334.204 C 184.878 334.559,184.109 334.669,183.905 334.465 C 183.443 334.003,185.821 332.000,186.831 332.000 C 188.166 332.000,187.965 324.754,186.580 322.938 L 185.559 321.600 191.792 321.600 C 196.497 321.600,198.387 321.751,199.498 322.215 M225.003 321.995 C 224.863 322.222,225.023 322.289,225.379 322.153 C 226.368 321.773,226.116 322.569,224.359 325.370 L 222.719 327.987 220.997 326.576 C 216.925 323.240,214.400 323.727,214.400 327.850 C 214.400 331.477,215.438 331.902,218.055 329.346 C 220.371 327.085,220.800 327.560,220.800 332.387 C 220.800 336.778,220.565 337.133,218.939 335.200 C 218.098 334.201,217.634 334.000,216.164 334.000 L 214.400 334.000 214.400 338.200 L 214.400 342.400 215.813 342.400 C 218.082 342.400,219.794 341.444,221.211 339.385 L 222.515 337.489 223.063 338.645 C 223.365 339.280,223.533 339.505,223.436 339.145 C 223.140 338.045,224.676 338.739,225.189 339.938 C 225.440 340.522,226.174 341.622,226.820 342.383 L 227.997 343.766 229.559 342.240 C 230.943 340.888,233.037 337.055,233.792 334.490 C 234.017 333.728,233.859 333.509,232.830 333.151 C 231.382 332.646,231.422 332.813,232.300 330.914 C 233.361 328.620,233.917 328.156,234.881 328.758 C 235.319 329.031,235.738 329.195,235.811 329.122 C 236.294 328.640,237.838 323.547,237.555 323.372 C 235.501 322.103,236.379 321.600,240.648 321.600 L 244.924 321.600 244.165 322.500 C 243.488 323.302,243.525 323.294,244.508 322.425 C 245.251 321.769,245.743 321.583,246.015 321.855 C 246.287 322.127,246.155 322.498,245.609 322.991 C 244.583 323.920,244.589 324.031,245.844 327.314 C 246.850 329.948,246.914 330.021,247.644 329.361 C 248.060 328.984,248.400 328.841,248.400 329.043 C 248.400 329.245,248.782 329.588,249.249 329.805 C 249.744 330.035,250.483 331.159,251.021 332.500 L 251.945 334.800 250.372 334.800 C 248.483 334.800,248.485 334.781,250.027 338.690 C 250.895 340.888,251.799 342.357,253.112 343.700 L 254.970 345.600 249.709 345.600 C 243.119 345.600,242.139 344.878,248.485 344.699 L 253.000 344.571 248.025 344.486 L 243.050 344.400 244.159 343.243 L 245.268 342.085 244.561 339.843 C 243.718 337.169,243.611 337.140,242.247 339.200 C 241.665 340.080,240.901 340.800,240.548 340.800 C 239.978 340.800,239.985 340.680,240.616 339.700 L 241.324 338.600 240.500 339.327 C 239.690 340.043,239.654 340.023,238.372 338.159 C 237.094 336.302,237.060 336.284,236.700 337.232 C 235.905 339.322,236.142 341.783,237.300 343.455 C 238.831 345.665,238.949 345.600,233.424 345.600 C 227.175 345.600,226.263 344.878,232.285 344.699 L 236.600 344.570 232.349 344.485 C 228.982 344.418,227.994 344.525,227.600 345.000 C 226.998 345.725,207.200 345.919,207.200 345.200 C 207.200 344.944,210.659 344.800,216.776 344.800 C 227.631 344.800,227.242 344.928,225.159 342.038 C 223.324 339.494,223.045 339.649,224.819 342.228 L 226.038 344.000 215.989 344.000 L 205.939 344.000 207.169 342.964 C 208.692 341.684,209.168 334.090,207.700 334.505 C 207.315 334.613,206.753 334.769,206.450 334.851 C 205.127 335.209,205.709 334.026,207.079 333.573 C 207.916 333.296,208.387 332.998,208.127 332.910 C 207.867 332.823,207.085 333.046,206.390 333.405 C 205.695 333.765,205.061 333.995,204.983 333.916 C 204.578 333.512,205.968 331.724,207.093 331.200 L 208.383 330.600 208.391 327.136 C 208.400 323.754,208.371 323.646,207.169 322.636 L 205.939 321.600 215.593 321.600 C 221.853 321.600,225.161 321.739,225.003 321.995 M264.167 321.843 C 265.020 322.170,264.964 322.774,263.984 323.817 C 263.265 324.582,263.182 325.119,263.284 328.352 L 263.400 332.019 266.100 328.476 C 269.084 324.561,269.323 323.657,267.700 322.446 L 266.600 321.625 271.700 321.613 C 277.182 321.599,277.493 321.679,275.500 322.595 C 274.607 323.005,274.513 323.112,275.200 322.936 C 277.711 322.294,278.522 323.186,276.111 323.938 C 274.557 324.423,273.753 325.054,271.013 327.940 L 269.426 329.612 272.557 335.914 C 275.487 341.810,275.829 342.317,277.887 343.808 L 280.086 345.400 274.562 345.512 C 267.533 345.654,266.136 345.076,272.800 344.782 L 277.800 344.562 272.609 344.481 L 267.418 344.400 268.463 343.356 L 269.507 342.311 267.696 338.456 C 266.699 336.335,265.807 334.511,265.711 334.403 C 265.616 334.294,265.017 334.834,264.380 335.603 C 262.551 337.809,262.660 341.459,264.627 343.859 L 266.054 345.600 261.027 345.600 C 254.932 345.600,254.197 344.885,260.100 344.698 L 264.200 344.569 259.622 344.484 L 255.043 344.400 256.322 343.081 L 257.600 341.762 257.600 332.912 L 257.600 324.061 256.564 322.831 L 255.529 321.600 259.532 321.600 C 261.733 321.600,263.819 321.709,264.167 321.843 M133.100 324.280 C 132.330 325.688,132.211 327.082,132.783 327.986 C 133.331 328.853,134.069 326.668,133.919 324.623 L 133.800 323.000 133.100 324.280 M214.500 323.476 C 214.885 323.576,215.515 323.576,215.900 323.476 C 216.285 323.375,215.970 323.293,215.200 323.293 C 214.430 323.293,214.115 323.375,214.500 323.476 M212.864 327.300 C 212.929 331.062,213.088 330.614,213.289 326.099 C 213.350 324.724,213.265 323.599,213.100 323.599 C 212.935 323.600,212.829 325.265,212.864 327.300 M193.200 328.407 L 193.200 332.105 194.865 331.882 C 200.583 331.115,200.726 325.838,195.052 324.987 L 193.200 324.709 193.200 328.407 M203.660 328.538 C 203.498 331.622,200.860 333.478,195.898 334.000 L 192.600 334.346 196.000 334.242 C 201.332 334.079,204.396 331.842,203.885 328.486 L 203.720 327.400 203.660 328.538 M239.395 330.014 L 238.726 332.028 239.812 333.451 C 241.685 335.907,242.449 334.507,241.257 330.805 C 240.180 327.459,240.236 327.483,239.395 330.014 M212.886 337.700 L 212.972 342.600 213.099 337.920 L 213.225 333.241 215.313 333.094 L 217.400 332.948 215.100 332.874 L 212.800 332.800 212.886 337.700 M247.905 333.483 C 248.402 333.579,249.122 333.575,249.505 333.475 C 249.887 333.375,249.480 333.296,248.600 333.301 C 247.720 333.305,247.407 333.387,247.905 333.483 M178.400 343.885 C 176.826 344.740,176.224 344.840,173.600 344.683 C 171.885 344.581,171.028 344.636,171.600 344.812 C 174.284 345.639,179.255 344.729,180.174 343.242 C 180.324 342.999,180.392 342.824,180.324 342.854 C 180.256 342.883,179.390 343.347,178.400 343.885 " stroke="none" fill="#010101" fill-rule="evenodd"></path><path id="path1" d="M0.000 200.000 L 0.000 400.000 200.000 400.000 L 400.000 400.000 400.000 200.000 L 400.000 0.000 200.000 0.000 L 0.000 0.000 0.000 200.000 M203.536 32.600 C 209.774 45.262,214.193 57.605,215.746 66.705 C 216.423 70.670,216.484 70.752,220.347 72.868 C 229.654 77.964,244.146 86.349,246.400 87.941 C 253.509 92.963,266.085 102.311,271.749 106.785 C 275.241 109.543,278.913 112.407,279.910 113.148 L 281.722 114.497 281.471 121.148 C 280.376 150.135,271.359 179.397,256.610 201.824 C 251.552 209.517,251.359 210.100,251.035 218.714 L 250.774 225.629 247.041 234.914 C 244.987 240.021,241.348 249.330,238.953 255.600 L 234.600 267.000 234.642 273.200 C 234.729 285.779,238.897 295.871,246.196 301.174 C 253.065 306.165,253.392 306.253,266.400 306.608 C 271.130 306.737,275.540 306.916,276.200 307.007 C 276.860 307.097,279.830 307.274,282.800 307.399 C 288.954 307.659,313.283 309.109,316.000 309.377 C 316.990 309.475,319.960 309.679,322.600 309.830 C 333.889 310.476,338.087 314.898,338.333 326.400 C 338.694 343.290,330.889 353.216,316.159 354.599 C 313.123 354.884,310.588 355.097,309.483 355.159 C 309.088 355.182,307.918 355.980,306.883 356.934 C 301.434 361.951,292.704 365.600,286.150 365.600 C 279.767 365.600,280.106 367.463,287.388 372.400 C 292.949 376.170,293.140 379.037,288.412 387.746 C 285.409 393.279,285.535 393.200,279.697 393.200 L 275.446 393.200 269.733 390.300 C 264.356 387.571,263.966 387.435,263.110 388.000 C 261.738 388.904,243.831 389.063,236.471 388.236 C 207.489 384.978,196.667 385.037,161.600 388.642 C 154.456 389.376,139.307 389.061,137.500 388.140 C 136.454 387.607,136.129 387.717,130.876 390.390 L 125.351 393.200 120.152 393.200 L 114.953 393.200 112.704 389.300 C 110.045 384.689,108.991 382.124,108.636 379.400 C 108.226 376.253,108.898 375.445,116.300 370.180 C 120.704 367.048,120.156 366.348,112.740 365.632 C 105.892 364.971,97.385 361.215,93.600 357.182 C 91.858 355.325,90.065 354.805,85.395 354.802 C 78.391 354.798,72.137 352.070,68.427 347.401 C 63.488 341.187,62.000 336.582,62.000 327.516 C 62.000 318.226,63.831 314.509,69.873 311.534 L 72.494 310.244 86.747 309.362 C 94.586 308.877,103.160 308.365,105.800 308.224 C 108.440 308.084,111.230 307.891,112.000 307.797 C 112.770 307.703,116.100 307.525,119.400 307.403 C 122.700 307.281,126.750 307.099,128.400 306.997 C 130.050 306.896,134.370 306.701,138.000 306.564 C 147.505 306.206,150.723 304.922,156.411 299.220 C 164.411 291.199,168.416 274.884,164.861 264.800 C 163.275 260.300,155.818 241.108,153.206 234.800 C 149.707 226.353,149.733 226.464,149.290 218.365 C 148.820 209.792,149.037 210.422,143.835 202.502 C 128.731 179.509,120.389 152.159,118.970 120.985 L 118.696 114.969 121.048 112.955 C 126.189 108.554,151.217 89.768,156.075 86.664 C 158.061 85.395,172.924 76.934,180.276 72.887 C 183.886 70.899,183.997 70.735,184.809 66.200 C 186.638 55.992,194.958 34.114,198.806 29.400 C 200.087 27.830,201.735 28.945,203.536 32.600 M188.162 80.667 C 181.803 87.194,169.735 99.164,161.344 107.266 C 142.770 125.201,142.913 124.954,146.251 133.350 C 149.113 140.553,161.348 165.799,167.038 176.246 L 168.805 179.491 171.703 179.922 C 178.583 180.944,178.189 180.961,179.761 179.580 C 181.858 177.740,184.985 172.849,185.983 169.852 C 186.973 166.877,187.122 167.400,183.683 161.802 C 180.956 157.362,179.334 153.976,179.007 152.044 C 178.842 151.066,178.466 150.442,177.886 150.186 C 175.934 149.322,174.091 137.468,175.530 135.029 C 176.669 133.099,177.113 131.277,177.800 125.726 C 179.045 115.676,182.191 109.615,188.441 105.225 C 202.909 95.065,220.953 105.543,222.586 125.053 C 222.962 129.544,223.524 132.137,224.657 134.612 C 225.607 136.687,225.593 141.895,224.630 144.860 C 224.534 145.157,224.167 146.435,223.816 147.700 C 223.401 149.197,222.968 150.000,222.576 150.000 C 222.246 150.000,221.905 150.225,221.820 150.500 C 221.735 150.775,221.343 152.078,220.948 153.396 C 220.553 154.714,218.717 158.293,216.868 161.349 L 213.505 166.907 213.994 168.553 C 215.753 174.485,220.322 180.404,223.132 180.392 C 224.975 180.384,230.029 179.760,231.204 179.395 C 231.537 179.291,233.195 176.460,234.891 173.103 C 236.586 169.747,239.736 163.580,241.891 159.400 C 251.544 140.674,255.345 131.599,255.376 127.200 C 255.408 122.731,255.159 122.380,245.642 113.481 C 241.497 109.605,229.667 97.967,219.353 87.618 C 209.039 77.270,200.403 68.802,200.162 68.801 C 199.921 68.801,194.521 74.140,188.162 80.667 M209.519 185.897 L 207.638 187.400 207.619 190.100 C 207.604 192.225,207.472 192.800,207.000 192.800 C 206.670 192.800,206.400 192.980,206.400 193.200 C 206.400 193.420,206.670 193.600,207.000 193.600 C 207.515 193.600,207.600 194.842,207.600 202.374 C 207.600 213.306,207.567 213.200,210.990 213.200 C 213.531 213.200,214.414 212.712,212.801 212.200 C 211.129 211.670,211.032 193.909,212.700 193.672 C 213.917 193.499,213.848 192.800,212.614 192.800 C 211.635 192.800,211.626 192.767,211.514 188.597 L 211.400 184.395 209.519 185.897 M188.400 188.600 L 188.400 190.800 190.600 190.800 L 192.800 190.800 192.800 188.600 L 192.800 186.400 190.600 186.400 L 188.400 186.400 188.400 188.600 M161.400 187.948 C 157.677 190.260,156.193 193.830,156.222 200.400 C 156.264 209.597,159.503 214.100,165.618 213.461 C 167.121 213.304,168.059 213.371,168.230 213.648 C 168.869 214.683,173.596 217.290,176.489 218.204 C 180.639 219.515,181.321 219.482,182.554 217.907 L 183.565 216.615 180.483 216.100 C 176.580 215.448,174.349 214.708,171.690 213.183 L 169.580 211.973 170.578 210.665 C 177.855 201.124,170.299 182.422,161.400 187.948 M166.149 189.212 C 169.308 192.966,169.566 211.294,166.436 209.619 C 165.500 209.118,165.109 209.813,165.691 210.943 C 166.184 211.899,165.597 212.511,164.357 212.334 C 160.037 211.716,159.493 191.561,163.716 188.603 C 164.875 187.792,164.975 187.817,166.149 189.212 M175.600 202.218 L 175.600 211.636 176.582 212.618 C 177.850 213.886,180.421 213.979,181.600 212.800 C 182.222 212.178,182.400 212.133,182.400 212.600 C 182.400 213.053,182.889 213.200,184.400 213.200 L 186.400 213.200 186.400 203.000 L 186.400 192.800 184.400 192.800 L 182.400 192.800 182.400 201.800 C 182.400 210.267,182.353 210.847,181.600 211.600 C 179.495 213.705,179.210 212.457,179.204 201.100 L 179.200 192.800 177.400 192.800 L 175.600 192.800 175.600 202.218 M188.800 203.000 L 188.800 213.200 190.600 213.200 L 192.400 213.200 192.400 203.000 L 192.400 192.800 190.600 192.800 L 188.800 192.800 188.800 203.000 M197.684 193.426 C 193.616 196.276,193.839 210.849,197.984 212.992 C 200.367 214.224,204.110 213.424,205.437 211.399 C 206.504 209.771,205.421 209.345,204.052 210.855 C 200.811 214.429,198.887 212.243,198.813 204.900 L 198.800 203.600 202.600 203.600 L 206.400 203.600 206.400 201.473 C 206.400 194.765,201.815 190.533,197.684 193.426 M201.583 194.700 C 201.864 195.305,202.189 197.387,202.304 199.326 L 202.514 202.852 200.757 202.726 L 199.000 202.600 199.111 199.400 C 199.292 194.228,200.391 192.137,201.583 194.700 M220.400 209.000 L 220.400 219.200 221.400 219.200 L 222.400 219.200 222.400 213.262 C 222.400 207.776,222.463 207.267,223.223 206.579 C 225.008 204.964,225.388 206.023,225.510 212.943 L 225.620 219.200 226.610 219.200 L 227.600 219.200 227.600 213.000 C 227.600 205.651,227.317 205.015,224.163 205.266 L 222.400 205.406 222.400 202.103 C 222.400 198.846,222.386 198.800,221.400 198.800 L 220.400 198.800 220.400 209.000 M216.800 203.613 C 216.800 204.677,216.596 205.303,216.200 205.455 C 215.870 205.582,215.600 205.846,215.600 206.043 C 215.600 206.239,215.870 206.400,216.200 206.400 C 216.708 206.400,216.800 207.378,216.800 212.800 L 216.800 219.200 217.800 219.200 L 218.800 219.200 218.800 212.800 C 218.800 207.378,218.892 206.400,219.400 206.400 C 219.730 206.400,220.000 206.239,220.000 206.043 C 220.000 205.846,219.730 205.582,219.400 205.455 C 219.004 205.303,218.800 204.677,218.800 203.613 C 218.800 202.159,218.701 202.000,217.800 202.000 C 216.899 202.000,216.800 202.159,216.800 203.613 M231.735 206.206 C 225.557 209.909,228.464 219.200,235.800 219.200 C 239.331 219.200,243.511 216.202,241.762 214.923 C 240.757 214.188,240.676 214.226,239.794 215.863 C 237.853 219.467,233.296 219.266,231.343 215.489 C 230.551 213.958,230.486 214.006,236.778 211.423 C 241.540 209.468,242.332 209.021,242.030 208.461 C 240.293 205.240,235.204 204.126,231.735 206.206 M238.810 207.209 C 240.499 208.787,240.485 208.802,235.400 210.873 L 230.800 212.746 230.800 211.353 C 230.800 206.751,235.639 204.247,238.810 207.209 M164.800 226.066 C 164.800 226.373,165.340 226.828,166.000 227.078 C 167.163 227.516,167.199 227.609,167.181 230.065 C 167.134 236.155,166.567 240.371,165.666 241.330 C 164.381 242.698,164.529 242.800,167.800 242.800 C 171.162 242.800,171.242 242.742,169.703 241.418 C 168.558 240.433,168.320 236.236,169.137 231.470 L 169.400 229.940 170.579 232.670 C 174.514 241.785,175.191 242.990,175.852 242.047 C 176.437 241.212,176.277 240.751,172.956 233.682 C 171.023 229.567,169.432 226.172,169.421 226.139 C 169.267 225.683,164.800 225.613,164.800 226.066 M184.315 225.873 C 183.749 226.022,183.607 226.654,183.497 229.526 L 183.365 233.000 183.282 229.500 L 183.200 226.000 182.100 226.009 C 181.076 226.018,180.852 226.363,178.841 231.030 C 177.653 233.787,176.551 235.897,176.392 235.721 C 176.233 235.544,175.153 233.285,173.992 230.700 C 172.165 226.630,171.756 226.000,170.941 226.000 C 169.690 226.000,169.582 225.668,173.322 233.368 L 176.609 240.136 178.805 235.019 L 181.000 229.902 181.272 232.251 C 181.978 238.358,181.844 240.431,180.680 241.433 C 179.210 242.697,179.286 242.800,181.700 242.801 L 183.800 242.801 183.769 238.101 C 183.745 234.370,183.765 234.184,183.869 237.200 C 184.061 242.842,184.042 242.800,186.408 242.800 C 188.668 242.800,188.802 242.632,187.415 241.540 C 186.267 240.638,186.123 239.899,185.794 233.284 L 185.550 228.368 186.775 227.223 C 187.449 226.594,188.000 225.971,188.000 225.840 C 188.000 225.571,185.373 225.595,184.315 225.873 M189.600 225.885 C 189.600 226.042,190.071 226.545,190.646 227.004 C 192.589 228.553,192.526 239.511,190.562 241.474 C 189.262 242.774,189.286 242.800,191.800 242.800 L 194.000 242.800 194.000 234.443 C 194.000 227.191,193.916 226.053,193.367 225.843 C 192.488 225.505,189.600 225.538,189.600 225.885 M194.900 225.865 C 194.522 226.017,194.400 228.114,194.400 234.433 L 194.400 242.800 196.400 242.800 C 198.682 242.800,198.787 242.650,197.400 241.365 C 195.619 239.715,195.987 226.800,197.814 226.800 C 198.136 226.800,198.400 226.530,198.400 226.200 C 198.400 225.604,196.093 225.384,194.900 225.865 M199.600 225.962 C 199.600 226.161,200.365 226.788,201.300 227.355 C 204.882 229.527,204.800 229.354,204.800 234.745 C 204.800 239.776,204.416 241.414,203.139 241.819 C 201.433 242.361,202.625 242.800,205.800 242.800 C 209.677 242.800,209.595 242.857,208.000 241.262 C 206.809 240.070,206.800 240.029,206.800 235.552 L 206.800 231.043 208.100 232.254 C 217.515 241.020,221.200 243.763,221.200 242.006 C 221.200 241.334,209.394 230.780,203.846 226.492 C 202.688 225.597,199.600 225.212,199.600 225.962 M216.401 226.212 C 216.400 226.439,216.928 226.824,217.573 227.068 C 219.000 227.606,219.298 228.818,219.122 233.367 L 219.000 236.534 213.000 231.273 C 208.198 227.061,206.762 226.010,205.809 226.005 L 204.618 226.000 205.609 226.960 C 206.154 227.488,209.840 230.643,213.800 233.972 L 221.000 240.025 221.200 233.973 C 221.399 227.953,221.406 227.917,222.500 227.046 C 224.136 225.743,223.929 225.634,220.001 225.721 C 217.849 225.768,216.401 225.966,216.401 226.212 M224.400 225.973 C 224.400 226.178,224.770 226.464,225.223 226.607 C 227.630 227.371,227.511 240.180,225.079 242.091 C 224.218 242.768,224.248 242.782,226.500 242.791 L 228.800 242.800 228.800 234.443 C 228.800 227.191,228.716 226.053,228.167 225.843 C 227.176 225.463,224.400 225.559,224.400 225.973 M230.900 225.893 L 229.200 226.046 229.200 234.423 L 229.200 242.800 233.020 242.800 C 239.418 242.800,240.920 241.350,242.141 234.000 C 242.232 233.450,242.238 234.080,242.153 235.400 C 242.055 236.938,241.636 238.504,240.987 239.761 L 239.975 241.722 241.288 240.717 C 245.324 237.629,245.503 230.779,241.620 228.014 L 240.422 227.161 241.202 228.880 C 241.631 229.826,241.968 231.050,241.951 231.600 C 241.928 232.326,241.820 232.178,241.557 231.058 C 240.525 226.666,237.672 225.283,230.900 225.893 M236.841 228.108 C 240.644 230.649,240.649 238.358,236.849 240.553 C 235.510 241.327,232.295 241.627,231.700 241.034 C 231.117 240.454,231.091 227.916,231.672 227.547 C 232.719 226.883,235.451 227.179,236.841 228.108 M217.785 245.799 C 216.591 246.324,216.561 246.410,216.094 250.590 C 215.832 252.932,215.513 255.017,215.385 255.224 C 215.001 255.846,213.484 255.678,213.729 255.041 C 214.179 253.868,214.899 249.565,214.681 249.348 C 213.781 248.448,211.631 250.127,211.383 251.924 C 210.782 256.277,210.914 256.117,207.232 256.955 C 204.090 257.669,203.883 257.783,203.333 259.098 C 202.562 260.945,202.512 260.937,206.617 259.617 C 208.587 258.983,210.232 258.499,210.274 258.540 C 210.315 258.582,210.006 261.582,209.587 265.208 C 208.162 277.530,208.487 279.908,211.539 279.499 C 212.984 279.305,213.200 279.375,213.200 280.038 C 213.200 282.131,215.075 280.871,215.785 278.300 C 216.165 276.925,217.221 273.550,218.131 270.800 L 219.787 265.800 219.996 269.442 C 220.211 273.179,220.700 274.400,221.982 274.400 C 222.956 274.400,223.267 273.962,222.742 273.330 C 222.449 272.977,222.380 271.943,222.545 270.393 C 223.270 263.592,223.274 263.405,222.706 262.653 C 221.699 261.320,219.954 262.665,218.154 266.161 C 217.308 267.805,216.568 269.101,216.509 269.042 C 216.352 268.885,217.966 257.501,218.176 257.291 C 218.274 257.193,219.940 256.931,221.877 256.709 C 227.917 256.018,227.768 254.647,221.700 255.076 C 219.868 255.206,218.403 255.152,218.407 254.955 C 218.411 254.760,218.678 252.890,219.000 250.800 C 219.922 244.819,219.931 244.856,217.785 245.799 M182.800 251.805 C 175.287 255.639,172.108 257.888,170.651 260.398 C 169.923 261.654,169.964 261.638,172.182 259.832 C 173.436 258.811,176.652 256.881,179.331 255.543 C 184.445 252.987,188.916 250.218,190.176 248.826 C 191.367 247.511,190.633 247.807,182.800 251.805 M190.187 251.069 C 188.874 251.877,187.741 252.580,187.670 252.632 C 187.598 252.684,188.786 254.414,190.308 256.476 C 191.831 258.538,193.941 261.524,194.997 263.112 C 197.287 266.556,196.926 266.495,199.693 263.900 C 207.209 256.852,198.937 245.686,190.187 251.069 M196.323 254.010 C 198.267 255.195,199.701 258.590,198.835 259.957 C 198.265 260.857,196.327 259.192,194.632 256.347 C 193.499 254.445,193.279 253.797,193.679 253.543 C 194.456 253.050,194.869 253.123,196.323 254.010 M183.948 254.744 L 182.496 255.424 184.083 257.305 C 186.287 259.916,185.853 260.282,182.876 258.324 L 180.351 256.664 178.576 257.527 C 176.432 258.569,176.419 258.677,178.235 260.422 C 180.376 262.478,183.324 266.299,184.805 268.935 L 186.116 271.270 183.675 270.038 C 180.427 268.398,174.531 264.940,172.847 263.686 L 171.495 262.679 170.756 263.639 C 169.662 265.063,169.670 265.083,174.062 272.831 C 178.401 280.486,178.479 280.555,179.833 277.936 C 180.364 276.909,180.345 276.745,179.607 276.007 C 178.568 274.968,178.589 274.737,179.827 273.575 L 180.853 272.610 181.573 273.564 L 182.292 274.518 185.946 272.409 C 187.956 271.249,189.600 270.232,189.600 270.149 C 189.600 270.066,188.430 268.518,187.000 266.709 C 185.570 264.901,184.400 263.273,184.400 263.091 C 184.400 262.688,187.543 264.802,190.026 266.875 C 193.759 269.993,196.470 268.513,193.345 265.064 C 192.275 263.884,190.164 260.912,188.654 258.459 C 187.144 256.007,185.794 254.015,185.654 254.032 C 185.514 254.050,184.747 254.370,183.948 254.744 M215.200 258.096 C 215.200 258.651,213.694 273.271,213.371 275.858 C 213.135 277.745,211.834 278.569,211.375 277.123 C 210.834 275.418,212.929 258.435,213.746 257.906 C 214.451 257.450,215.200 257.548,215.200 258.096 M201.572 263.846 C 200.388 265.761,197.263 267.996,191.009 271.400 C 186.182 274.027,182.459 276.795,181.605 278.391 C 181.394 278.784,183.363 277.825,186.116 276.193 C 188.802 274.600,192.300 272.550,193.890 271.637 C 197.348 269.650,201.051 266.319,202.326 264.049 C 203.464 262.021,202.809 261.844,201.572 263.846 M227.401 263.830 C 222.337 266.471,221.221 274.000,225.894 274.000 C 227.325 274.000,230.800 272.305,230.800 271.607 C 230.800 270.810,229.933 270.794,228.942 271.574 C 227.165 272.972,226.000 272.506,226.000 270.399 C 226.000 269.911,226.394 269.577,227.171 269.406 C 229.814 268.826,231.390 265.447,229.771 263.829 C 228.997 263.054,228.889 263.054,227.401 263.830 M227.744 266.388 C 227.358 267.041,226.973 267.507,226.889 267.422 C 226.718 267.251,227.991 265.200,228.269 265.200 C 228.366 265.200,228.130 265.734,227.744 266.388 M177.021 270.251 C 177.799 270.760,177.915 271.020,177.558 271.451 C 176.903 272.240,176.659 272.146,175.864 270.800 C 175.070 269.456,175.498 269.253,177.021 270.251 M170.700 282.542 C 167.208 283.524,165.482 286.126,165.482 290.405 C 165.482 294.842,166.748 296.376,172.902 299.400 C 175.141 300.500,177.031 301.602,177.102 301.849 C 177.222 302.260,173.587 302.902,172.000 302.751 C 162.586 301.854,158.746 305.386,147.586 325.208 C 143.447 332.559,142.933 333.245,140.482 334.687 C 137.964 336.168,138.027 335.782,141.260 329.951 C 142.877 327.035,144.260 324.502,144.333 324.324 C 144.407 324.146,143.740 324.000,142.853 324.000 C 141.274 324.000,141.207 324.058,139.755 326.700 C 137.855 330.157,137.288 330.800,136.138 330.800 C 135.006 330.800,135.012 330.906,136.000 328.400 C 137.457 324.703,136.741 322.400,134.134 322.400 C 132.372 322.400,131.211 326.578,132.370 328.745 C 133.106 330.119,128.990 335.251,126.700 335.816 C 125.036 336.226,125.261 335.284,128.000 330.368 C 130.449 325.974,130.768 324.928,129.920 324.080 C 128.976 323.136,128.429 323.653,126.329 327.469 C 123.976 331.747,120.755 335.600,119.533 335.600 C 118.464 335.600,118.683 335.019,121.989 329.105 L 124.722 324.215 123.461 323.779 C 121.880 323.233,122.127 322.973,119.211 328.266 C 116.124 333.869,115.919 336.110,118.472 336.322 C 119.905 336.442,122.846 335.297,123.396 334.406 C 123.841 333.687,124.400 333.973,124.400 334.920 C 124.400 338.034,129.570 336.892,133.175 332.981 C 134.392 331.660,135.116 331.200,135.976 331.200 L 137.136 331.200 136.518 332.773 C 134.932 336.811,137.869 337.760,141.800 334.480 L 143.000 333.478 143.200 334.839 C 143.545 337.184,146.101 336.902,149.510 334.142 C 150.403 333.420,150.739 333.292,150.567 333.742 C 149.645 336.145,151.812 337.134,154.716 335.633 C 156.904 334.502,161.695 329.162,161.076 328.543 C 160.960 328.427,160.646 328.741,160.378 329.241 C 158.998 331.819,153.941 336.101,153.178 335.338 C 152.632 334.792,166.495 310.400,167.350 310.400 C 167.443 310.400,168.302 310.848,169.259 311.395 C 173.510 313.825,180.032 312.254,182.043 308.316 C 184.790 302.932,182.152 297.108,175.739 294.403 C 169.306 291.689,167.538 287.692,171.516 284.859 C 173.688 283.313,178.312 284.189,179.699 286.409 C 180.276 287.333,180.920 287.419,181.553 286.657 C 183.515 284.293,175.404 281.217,170.700 282.542 M189.800 284.062 C 185.236 287.115,183.009 296.306,184.966 304.013 C 188.158 316.580,201.573 315.548,203.975 302.551 C 206.410 289.381,198.084 278.521,189.800 284.062 M206.503 294.300 C 206.684 306.760,206.824 307.676,208.932 310.234 C 211.660 313.543,217.716 313.785,220.697 310.704 C 223.277 308.039,223.383 307.428,223.526 294.500 L 223.654 282.800 222.660 282.800 L 221.666 282.800 221.497 293.900 C 221.287 307.683,220.726 309.610,216.593 310.751 C 212.784 311.803,212.338 310.228,212.105 294.900 L 211.922 282.800 209.129 282.800 L 206.336 282.800 206.503 294.300 M226.800 297.600 L 226.800 312.400 234.000 312.400 C 240.892 312.400,241.200 312.366,241.200 311.614 C 241.200 310.887,240.870 310.818,236.900 310.714 L 232.600 310.600 232.495 296.700 L 232.390 282.800 229.595 282.800 L 226.800 282.800 226.800 297.600 M196.490 286.800 C 199.947 293.776,198.336 311.200,194.235 311.200 C 190.830 311.200,188.975 298.688,191.036 289.630 C 192.335 283.922,194.506 282.796,196.490 286.800 M170.458 303.498 C 170.673 303.713,169.933 304.495,168.629 305.430 C 167.424 306.293,166.430 307.150,166.419 307.333 C 166.409 307.516,165.791 308.416,165.046 309.333 C 162.986 311.870,158.859 318.349,155.195 324.800 C 151.143 331.935,150.518 332.782,148.148 334.351 C 144.663 336.660,144.730 336.227,149.062 328.430 C 161.034 306.883,166.950 299.990,170.458 303.498 M177.381 303.264 C 179.506 304.232,178.403 308.938,175.757 310.194 C 173.413 311.306,169.651 310.247,169.290 308.373 C 168.812 305.891,174.820 302.097,177.381 303.264 M143.900 318.432 C 143.043 318.931,142.975 320.739,143.801 321.056 C 144.798 321.438,146.330 320.851,146.606 319.980 C 147.100 318.425,145.492 317.505,143.900 318.432 M168.283 322.036 C 165.106 323.713,164.301 327.468,166.199 331.760 C 167.317 334.288,167.366 334.317,173.000 335.829 C 179.593 337.598,180.993 341.308,175.630 342.798 C 173.753 343.320,173.896 343.347,172.562 342.200 C 171.923 341.651,171.281 341.201,171.136 341.200 C 170.990 341.200,170.472 340.375,169.984 339.367 C 169.302 337.958,168.923 337.579,168.348 337.729 C 167.879 337.852,167.600 337.715,167.600 337.363 C 167.600 336.452,166.479 336.719,166.180 337.700 C 166.030 338.195,165.355 339.722,164.680 341.093 C 163.311 343.874,163.344 344.118,165.026 343.683 C 165.672 343.516,166.740 343.467,167.400 343.573 C 168.342 343.726,168.128 343.814,166.400 343.984 C 165.190 344.103,164.250 344.380,164.312 344.600 C 164.373 344.820,165.117 344.942,165.964 344.870 C 166.811 344.799,168.458 345.024,169.625 345.370 C 177.586 347.734,184.350 344.004,183.906 337.496 C 183.760 335.361,181.602 331.864,180.878 332.589 C 180.781 332.686,180.037 332.427,179.226 332.014 C 178.416 331.600,176.621 330.968,175.239 330.610 C 170.673 329.427,168.885 325.660,172.277 324.371 C 173.590 323.871,176.533 325.207,177.511 326.746 C 179.056 329.176,179.716 328.963,181.374 325.500 L 182.763 322.600 181.907 321.942 C 181.250 321.437,180.842 321.380,180.149 321.696 C 179.521 321.982,178.701 321.969,177.447 321.653 C 174.525 320.918,170.047 321.105,168.283 322.036 M186.580 322.938 C 187.965 324.754,188.166 332.000,186.831 332.000 C 185.821 332.000,183.443 334.003,183.905 334.465 C 184.109 334.669,184.878 334.559,185.729 334.204 C 186.538 333.866,187.200 333.749,187.200 333.945 C 187.200 334.140,186.660 334.408,186.000 334.540 C 184.250 334.890,184.425 335.883,186.200 335.676 L 187.600 335.512 187.600 338.542 C 187.600 341.361,187.513 341.671,186.359 342.986 L 185.117 344.400 189.659 344.478 L 194.200 344.557 190.000 344.783 C 184.570 345.075,185.659 345.666,191.348 345.514 L 195.645 345.400 194.434 343.800 C 193.305 342.310,193.221 341.964,193.211 338.748 L 193.200 335.295 196.917 335.133 C 203.714 334.836,207.051 330.622,204.593 325.441 C 203.879 323.937,202.400 322.727,202.400 323.648 C 202.400 323.952,202.142 323.891,201.685 323.477 C 199.983 321.937,198.209 321.600,191.792 321.600 L 185.559 321.600 186.580 322.938 M207.169 322.636 C 208.371 323.646,208.400 323.754,208.391 327.136 L 208.383 330.600 207.093 331.200 C 205.968 331.724,204.578 333.512,204.983 333.916 C 205.061 333.995,205.695 333.765,206.390 333.405 C 207.085 333.046,207.867 332.823,208.127 332.910 C 208.387 332.998,207.916 333.296,207.079 333.573 C 205.709 334.026,205.127 335.209,206.450 334.851 C 206.753 334.769,207.315 334.613,207.700 334.505 C 209.168 334.090,208.692 341.684,207.169 342.964 L 205.939 344.000 215.989 344.000 L 226.038 344.000 224.819 342.228 C 223.045 339.649,223.324 339.494,225.159 342.038 C 227.242 344.928,227.631 344.800,216.776 344.800 C 210.659 344.800,207.200 344.944,207.200 345.200 C 207.200 345.919,226.998 345.725,227.600 345.000 C 227.994 344.525,228.982 344.418,232.349 344.485 L 236.600 344.570 232.285 344.699 C 226.263 344.878,227.175 345.600,233.424 345.600 C 238.949 345.600,238.831 345.665,237.300 343.455 C 236.142 341.783,235.905 339.322,236.700 337.232 C 237.060 336.284,237.094 336.302,238.372 338.159 C 239.654 340.023,239.690 340.043,240.500 339.327 L 241.324 338.600 240.616 339.700 C 239.985 340.680,239.978 340.800,240.548 340.800 C 240.901 340.800,241.665 340.080,242.247 339.200 C 243.611 337.140,243.718 337.169,244.561 339.843 L 245.268 342.085 244.159 343.243 L 243.050 344.400 248.025 344.486 L 253.000 344.571 248.485 344.699 C 242.139 344.878,243.119 345.600,249.709 345.600 L 254.970 345.600 253.112 343.700 C 251.799 342.357,250.895 340.888,250.027 338.690 C 248.485 334.781,248.483 334.800,250.372 334.800 L 251.945 334.800 251.021 332.500 C 250.483 331.159,249.744 330.035,249.249 329.805 C 248.782 329.588,248.400 329.245,248.400 329.043 C 248.400 328.841,248.060 328.984,247.644 329.361 C 246.914 330.021,246.850 329.948,245.844 327.314 C 244.589 324.031,244.583 323.920,245.609 322.991 C 246.155 322.498,246.287 322.127,246.015 321.855 C 245.743 321.583,245.251 321.769,244.508 322.425 C 243.525 323.294,243.488 323.302,244.165 322.500 L 244.924 321.600 240.648 321.600 C 236.379 321.600,235.501 322.103,237.555 323.372 C 237.838 323.547,236.294 328.640,235.811 329.122 C 235.738 329.195,235.319 329.031,234.881 328.758 C 233.917 328.156,233.361 328.620,232.300 330.914 C 231.422 332.813,231.382 332.646,232.830 333.151 C 233.859 333.509,234.017 333.728,233.792 334.490 C 233.037 337.055,230.943 340.888,229.559 342.240 L 227.997 343.766 226.820 342.383 C 226.174 341.622,225.440 340.522,225.189 339.938 C 224.676 338.739,223.140 338.045,223.436 339.145 C 223.533 339.505,223.365 339.280,223.063 338.645 L 222.515 337.489 221.211 339.385 C 219.794 341.444,218.082 342.400,215.813 342.400 L 214.400 342.400 214.400 338.200 L 214.400 334.000 216.164 334.000 C 217.634 334.000,218.098 334.201,218.939 335.200 C 220.565 337.133,220.800 336.778,220.800 332.387 C 220.800 327.560,220.371 327.085,218.055 329.346 C 215.438 331.902,214.400 331.477,214.400 327.850 C 214.400 323.727,216.925 323.240,220.997 326.576 L 222.719 327.987 224.359 325.370 C 226.116 322.569,226.368 321.773,225.379 322.153 C 225.023 322.289,224.863 322.222,225.003 321.995 C 225.161 321.739,221.853 321.600,215.593 321.600 L 205.939 321.600 207.169 322.636 M256.564 322.831 L 257.600 324.061 257.600 332.912 L 257.600 341.762 256.322 343.081 L 255.043 344.400 259.622 344.484 L 264.200 344.569 260.100 344.698 C 254.197 344.885,254.932 345.600,261.027 345.600 L 266.054 345.600 264.627 343.859 C 262.660 341.459,262.551 337.809,264.380 335.603 C 265.017 334.834,265.616 334.294,265.711 334.403 C 265.807 334.511,266.699 336.335,267.696 338.456 L 269.507 342.311 268.463 343.356 L 267.418 344.400 272.609 344.481 L 277.800 344.562 272.800 344.782 C 266.136 345.076,267.533 345.654,274.562 345.512 L 280.086 345.400 277.887 343.808 C 275.829 342.317,275.487 341.810,272.557 335.914 L 269.426 329.612 271.013 327.940 C 273.753 325.054,274.557 324.423,276.111 323.938 C 278.522 323.186,277.711 322.294,275.200 322.936 C 274.513 323.112,274.607 323.005,275.500 322.595 C 277.493 321.679,277.182 321.599,271.700 321.613 L 266.600 321.625 267.700 322.446 C 269.323 323.657,269.084 324.561,266.100 328.476 L 263.400 332.019 263.284 328.352 C 263.182 325.119,263.265 324.582,263.984 323.817 C 265.721 321.968,264.983 321.600,259.532 321.600 L 255.529 321.600 256.564 322.831 M133.596 327.410 C 133.244 328.337,133.079 328.454,132.783 327.986 C 132.211 327.082,132.330 325.688,133.100 324.280 L 133.800 323.000 133.919 324.623 C 133.985 325.516,133.840 326.770,133.596 327.410 M215.900 323.476 C 215.515 323.576,214.885 323.576,214.500 323.476 C 214.115 323.375,214.430 323.293,215.200 323.293 C 215.970 323.293,216.285 323.375,215.900 323.476 M213.289 326.099 C 213.088 330.614,212.929 331.062,212.864 327.300 C 212.829 325.265,212.935 323.600,213.100 323.599 C 213.265 323.599,213.350 324.724,213.289 326.099 M197.862 325.701 C 200.793 327.036,198.692 331.369,194.865 331.882 L 193.200 332.105 193.200 328.407 L 193.200 324.709 195.052 324.987 C 196.071 325.140,197.335 325.461,197.862 325.701 M203.370 331.006 C 202.348 333.161,200.177 334.114,196.000 334.242 L 192.600 334.346 195.898 334.000 C 200.860 333.478,203.498 331.622,203.660 328.538 L 203.720 327.400 203.885 328.486 C 203.976 329.084,203.744 330.218,203.370 331.006 M241.257 330.805 C 242.449 334.507,241.685 335.907,239.812 333.451 L 238.726 332.028 239.395 330.014 C 240.236 327.483,240.180 327.459,241.257 330.805 M215.313 333.094 L 213.225 333.241 213.099 337.920 L 212.972 342.600 212.886 337.700 L 212.800 332.800 215.100 332.874 L 217.400 332.948 215.313 333.094 M249.505 333.475 C 249.122 333.575,248.402 333.579,247.905 333.483 C 247.407 333.387,247.720 333.305,248.600 333.301 C 249.480 333.296,249.887 333.375,249.505 333.475 M180.174 343.242 C 179.255 344.729,174.284 345.639,171.600 344.812 C 171.028 344.636,171.885 344.581,173.600 344.683 C 176.224 344.840,176.826 344.740,178.400 343.885 C 179.390 343.347,180.256 342.883,180.324 342.854 C 180.392 342.824,180.324 342.999,180.174 343.242 " stroke="none" fill="#ffffff" fill-rule="evenodd"></path></g></svg>