<svg width="20" height="20" xmlns="http://www.w3.org/2000/svg">
 <title/>
 <desc/>

 <g>
  <title>background</title>
  <rect fill="none" id="canvas_background" height="402" width="582" y="-1" x="-1"/>
 </g>
 <g>
  <title>Layer 1</title>
  <path stroke="null" fill="#00d2b3" stroke-width="0" id="Shape" d="m5.93125,8.1l-1.396897,1.4l4.490027,4.5l9.977837,-10l-1.396897,-1.4l-8.58094,8.6l-3.093129,-3.1l0,0zm12.073182,1.9c0,4.4 -3.592021,8 -7.982269,8c-4.390248,0 -7.982269,-3.6 -7.982269,-8c0,-4.4 3.592021,-8 7.982269,-8c0.798227,0 1.496676,0.1 2.195124,0.3l1.596454,-1.6c-1.19734,-0.4 -2.494459,-0.7 -3.791578,-0.7c-5.48781,0 -9.977837,4.5 -9.977837,10c0,5.5 4.490027,10 9.977837,10c5.48781,0 9.977837,-4.5 9.977837,-10l-1.995567,0l0,0z"/>
 </g>
</svg>