<svg xmlns="http://www.w3.org/2000/svg" width="30" height="30" viewBox="0 0 30 30"><defs><style>.a{fill:#fff;}</style></defs><g transform="translate(-48 -48)"><path class="a" d="M165.157,174.865l-1.377-1.187a.326.326,0,0,0-.219-.079.312.312,0,0,0-.219.079l-9.544,8.056-3.473-2.911a.344.344,0,0,0-.438,0l-1.392,1.167a.233.233,0,0,0,0,.374l4.381,3.671a1.507,1.507,0,0,0,.915.374,1.571,1.571,0,0,0,.907-.361h.008l10.459-8.81A.248.248,0,0,0,165.157,174.865Z" transform="translate(-93.819 -116.001)"/><path class="a" d="M63,50.019a12.976,12.976,0,1,1-9.18,3.8,12.895,12.895,0,0,1,9.18-3.8M63,48A15,15,0,1,0,78,63,15,15,0,0,0,63,48Z" transform="translate(0 0)"/></g></svg>