<svg xmlns="http://www.w3.org/2000/svg" xmlns:xlink="http://www.w3.org/1999/xlink" width="165" height="165" viewBox="0 0 165 165"><defs><style>.a{fill:url(#a);}</style><linearGradient id="a" x1="0.5" x2="0.5" y2="1" gradientUnits="objectBoundingBox"><stop offset="0" stop-color="#2385d9"/><stop offset="1" stop-color="#0ec9b0"/></linearGradient></defs><g transform="translate(250 -352)"><path class="a" d="M-216.767,396.9c-7.7,0-13.933,2.75-13.933,6.417V404.6c0,3.483,6.233,6.417,13.933,6.417s13.933-2.75,13.933-6.417v-1.283C-202.833,399.833-209.067,396.9-216.767,396.9Z" transform="translate(16.083 37.417)"/><path class="a" d="M-216.683,408.55c-6.783,0-12.283-2.2-13.75-4.95a3.4,3.4,0,0,0-.367,1.283v1.283c0,3.483,6.233,6.417,13.933,6.417s13.933-2.75,13.933-6.417v-1.283a3.4,3.4,0,0,0-.367-1.283C-204.4,406.35-209.9,408.55-216.683,408.55Z" transform="translate(16 43)"/><path class="a" d="M-216.683,412.45c-6.783,0-12.283-2.2-13.75-4.95a3.4,3.4,0,0,0-.367,1.283v1.283c0,3.483,6.233,6.417,13.933,6.417s13.933-2.75,13.933-6.417v-1.283a3.4,3.4,0,0,0-.367-1.283C-204.4,410.25-209.9,412.45-216.683,412.45Z" transform="translate(16 46.25)"/><path class="a" d="M-216.683,416.45c-6.783,0-12.283-2.2-13.75-4.95a3.4,3.4,0,0,0-.367,1.283v1.283c0,3.483,6.233,6.417,13.933,6.417s13.933-2.75,13.933-6.417v-1.283a3.4,3.4,0,0,0-.367-1.283C-204.4,414.25-209.9,416.45-216.683,416.45Z" transform="translate(16 49.583)"/><path class="a" d="M-216.683,420.35c-6.783,0-12.283-2.2-13.75-4.95a3.4,3.4,0,0,0-.367,1.283v1.283c0,3.483,6.233,6.417,13.933,6.417s13.933-2.75,13.933-6.417v-1.283a3.4,3.4,0,0,0-.367-1.283C-204.4,418.15-209.9,420.35-216.683,420.35Z" transform="translate(16 52.833)"/><path class="a" d="M-187.817,392.9v-1.283c0-3.483-6.233-6.417-13.933-6.417a28.193,28.193,0,0,0-7.15.917l12.65,12.65C-191.3,397.667-187.817,395.467-187.817,392.9Z" transform="translate(34.25 27.667)"/><path class="a" d="M-194.65,394.367v-1.283a3.4,3.4,0,0,0-.367-1.283c-.733,1.65-2.933,2.933-5.683,3.85l2.75,2.75C-195.75,397.483-194.65,396.017-194.65,394.367Z" transform="translate(41.083 33.167)"/><path class="a" d="M-196.733,398.267v-1.283a3.4,3.4,0,0,0-.367-1.283,2.851,2.851,0,0,1-1.1,1.467l1.467,1.467Z" transform="translate(43.167 36.417)"/><path class="a" d="M-212.6,397.433c0,2.2,2.383,4.033,5.867,5.133L-212.6,396.7Z" transform="translate(31.167 37.25)"/><path class="a" d="M-212.333,399.7a3.4,3.4,0,0,0-.367,1.283v1.467c0,3.483,6.233,6.417,13.933,6.417h.55l-4.217-4.217C-207.383,403.917-211.233,402.083-212.333,399.7Z" transform="translate(31.083 39.75)"/><path class="a" d="M-198.583,408.55c-6.783,0-12.283-2.2-13.75-4.95a3.4,3.4,0,0,0-.367,1.283v1.283c0,3.483,6.233,6.417,13.933,6.417a38.442,38.442,0,0,0,6.783-.733l-3.3-3.3Z" transform="translate(31.083 43)"/><path class="a" d="M-198.583,412.45c-6.783,0-12.283-2.2-13.75-4.95a3.4,3.4,0,0,0-.367,1.283v1.283c0,3.483,6.233,6.417,13.933,6.417,4.95,0,9.167-1.1,11.733-2.933l-2.567-2.567A30.632,30.632,0,0,1-198.583,412.45Z" transform="translate(31.083 46.25)"/><path class="a" d="M-198.583,416.45c-6.783,0-12.283-2.2-13.75-4.95a3.4,3.4,0,0,0-.367,1.283v1.283c0,3.483,6.233,6.417,13.933,6.417s13.933-2.75,13.933-6.417v-1.65l-.55-.55C-186.85,414.617-192.167,416.45-198.583,416.45Z" transform="translate(31.083 49.583)"/><path class="a" d="M-198.583,420.35c-6.783,0-12.283-2.2-13.75-4.95a3.4,3.4,0,0,0-.367,1.283v1.283c0,3.483,6.233,6.417,13.933,6.417s13.933-2.75,13.933-6.417v-1.283a3.4,3.4,0,0,0-.367-1.283C-186.3,418.15-191.8,420.35-198.583,420.35Z" transform="translate(31.083 52.833)"/><path class="a" d="M-180.567,387.9c7.7,0,13.933-2.75,13.933-6.417v-1.467c0-3.483-6.233-6.417-13.933-6.417s-13.933,2.75-13.933,6.417v1.467C-194.5,384.967-188.267,387.9-180.567,387.9Z" transform="translate(46.25 18)"/><path class="a" d="M-180.4,389.283c7.7,0,13.933-2.75,13.933-6.417v-1.283a3.4,3.4,0,0,0-.367-1.283c-1.283,2.933-6.967,4.95-13.75,4.95s-12.283-2.2-13.75-4.95a3.4,3.4,0,0,0-.367,1.283v1.283C-194.333,386.533-188.1,389.283-180.4,389.283Z" transform="translate(46.083 23.583)"/><path class="a" d="M-180.4,393.183c7.7,0,13.933-2.75,13.933-6.417v-1.283a3.4,3.4,0,0,0-.367-1.283c-1.283,2.933-6.967,4.95-13.75,4.95s-12.283-2.2-13.75-4.95a3.4,3.4,0,0,0-.367,1.283v1.283C-194.333,390.25-188.1,393.183-180.4,393.183Z" transform="translate(46.083 26.833)"/><path class="a" d="M-180.4,397.283c7.7,0,13.933-2.75,13.933-6.417v-1.283a3.4,3.4,0,0,0-.367-1.283c-1.283,2.933-6.967,4.95-13.75,4.95s-12.283-2.2-13.75-4.95a3.4,3.4,0,0,0-.367,1.283v1.283C-194.333,394.35-188.1,397.283-180.4,397.283Z" transform="translate(46.083 30.25)"/><path class="a" d="M-180.4,401.083c7.7,0,13.933-2.75,13.933-6.417v-1.283a3.4,3.4,0,0,0-.367-1.283c-1.283,2.933-6.967,4.95-13.75,4.95s-12.283-2.2-13.75-4.95a3.4,3.4,0,0,0-.367,1.283v1.283C-194.333,398.333-188.1,401.083-180.4,401.083Z" transform="translate(46.083 33.417)"/><path class="a" d="M-180.4,404.983c7.7,0,13.933-2.75,13.933-6.417v-1.283a3.4,3.4,0,0,0-.367-1.283c-1.283,2.933-6.967,4.95-13.75,4.95s-12.283-2.2-13.75-4.95a3.4,3.4,0,0,0-.367,1.283v1.283C-194.333,402.05-188.1,404.983-180.4,404.983Z" transform="translate(46.083 36.667)"/><path class="a" d="M-180.483,408.983c7.7,0,13.933-2.75,13.933-6.417v-1.283a3.4,3.4,0,0,0-.367-1.283c-1.283,2.933-6.967,4.95-13.75,4.95s-12.283-2.2-13.75-4.95c0,.183,0,.183-.183.367l8.25,8.25C-184.333,408.8-182.5,408.983-180.483,408.983Z" transform="translate(46.167 40)"/><path class="a" d="M-171.967,406.467v-1.283a3.4,3.4,0,0,0-.367-1.283c-1.283,2.933-6.967,4.95-13.75,4.95H-188.1l4.033,4.033C-177.1,412.333-171.967,409.767-171.967,406.467Z" transform="translate(51.583 43.25)"/><path class="a" d="M-174.8,410.067v-1.283a3.4,3.4,0,0,0-.367-1.283c-1.1,2.2-4.767,4.033-9.533,4.767l3.3,3.3C-177.367,414.283-174.8,412.267-174.8,410.067Z" transform="translate(54.417 46.25)"/><path class="a" d="M-177.467,414.067v-1.283a3.4,3.4,0,0,0-.367-1.283c-.55,1.283-1.833,2.2-3.667,3.117l2.383,2.383A3.774,3.774,0,0,0-177.467,414.067Z" transform="translate(57.083 49.583)"/><path class="a" d="M-194.233,415.3a3.4,3.4,0,0,0-.367,1.283v1.283c0,2.75,4.033,5.133,9.533,6.05l-5.5-5.5A7,7,0,0,1-194.233,415.3Z" transform="translate(46.167 52.75)"/><path class="a" d="M-197.7,411.867l.55.55c0-.367-.183-.55-.183-.917C-197.517,411.5-197.517,411.683-197.7,411.867Z" transform="translate(43.583 49.583)"/><path class="a" d="M-167.5,352A82.39,82.39,0,0,0-250,434.5,82.389,82.389,0,0,0-167.5,517,82.389,82.389,0,0,0-85,434.5,82.39,82.39,0,0,0-167.5,352Zm70.033,82.5a69.515,69.515,0,0,1-16.5,45.1l-98.817-98.817a69.884,69.884,0,0,1,45.1-16.5A70.222,70.222,0,0,1-97.467,434.5Zm-140.067,0A69.585,69.585,0,0,1-221.4,389.767l98.633,98.633A69.585,69.585,0,0,1-167.5,504.533,70.027,70.027,0,0,1-237.533,434.5Z" transform="translate(0)"/></g></svg>