<svg xmlns="http://www.w3.org/2000/svg" xmlns:xlink="http://www.w3.org/1999/xlink" width="121.916" height="130.324" viewBox="0 0 121.916 130.324">
  <defs>
    <linearGradient id="linear-gradient" x1="0.5" x2="0.5" y2="1" gradientUnits="objectBoundingBox">
      <stop offset="0" stop-color="#2385d9"/>
      <stop offset="1" stop-color="#0ec9b0"/>
    </linearGradient>
  </defs>
  <g id="Frontend" transform="translate(-357.042 -396.838)">
    <path id="Frontend-2" data-name="Frontend" d="M-9630.307-772.514a2.1,2.1,0,0,1-2.1-2.1,2.1,2.1,0,0,1,2.1-2.1h2.1l7.21-21.02h-30.333a14.715,14.715,0,0,1-14.713-14.713v-67.264a14.714,14.714,0,0,1,10.509-14.084v-2.732a6.307,6.307,0,0,1,6.307-6.307h60.96a2.1,2.1,0,0,1,2.1,2.1,2.1,2.1,0,0,1-2.1,2.1h-60.96a2.1,2.1,0,0,0-2.1,2.1v14.713h92.49v-14.713a2.1,2.1,0,0,0-2.1-2.1h-8.407a2.1,2.1,0,0,1-2.1-2.1,2.1,2.1,0,0,1,2.1-2.1h8.407a6.307,6.307,0,0,1,6.308,6.307v2.732a14.714,14.714,0,0,1,10.509,14.084v67.264a14.715,14.715,0,0,1-14.713,14.713h-30.333l7.21,21.02h2.1a2.1,2.1,0,0,1,2.1,2.1,2.1,2.1,0,0,1-2.1,2.1Zm6.535-4.2h37.375l-7.212-21.02h-22.951Zm-38.066-35.733a10.51,10.51,0,0,0,10.509,10.509h92.49a10.51,10.51,0,0,0,10.509-10.509v-6.307h-113.508Zm0-67.264v56.753h113.508v-56.753a10.388,10.388,0,0,0-6.3-9.587v53.728a6.307,6.307,0,0,1-6.308,6.307h-88.284a6.307,6.307,0,0,1-6.307-6.307V-889.3A10.388,10.388,0,0,0-9661.838-879.715Zm10.509,44.141a2.1,2.1,0,0,0,2.1,2.1h88.284a2.1,2.1,0,0,0,2.1-2.1v-42.04h-92.49Zm44.144,27.327a2.1,2.1,0,0,1-2.1-2.1,2.1,2.1,0,0,1,2.1-2.1h4.2a2.1,2.1,0,0,1,2.1,2.1,2.1,2.1,0,0,1-2.1,2.1Zm2.1-29.428a6.307,6.307,0,0,1-6.307-6.307V-865a6.3,6.3,0,0,1,6.307-6.3h35.733a6.3,6.3,0,0,1,6.3,6.3v21.02a6.3,6.3,0,0,1-6.3,6.307Zm23.143-16.67a2.109,2.109,0,0,0-1.6.757l-6.3,7.651,2.69,4.058h17.3l-10.509-11.751a1.789,1.789,0,0,0-1.436-.721C-9581.846-854.351-9581.893-854.349-9581.94-854.346Zm-16.838,7.083-5.443,5.383h12.022l-3.343-5.068a2.1,2.1,0,0,0-1.533-.946c-.063-.006-.128-.009-.191-.009A2.112,2.112,0,0,0-9598.778-847.262Zm-8.407-17.74v20.159l5.38-5.444a6.31,6.31,0,0,1,4.946-1.817,6.311,6.311,0,0,1,4.6,2.574l5.613-6.727a6.3,6.3,0,0,1,4.791-2.271,6.306,6.306,0,0,1,4.708,2.1l9.9,11.12V-865a2.1,2.1,0,0,0-2.1-2.1h-35.733A2.1,2.1,0,0,0-9607.186-865Zm-27.852,20.683a2.092,2.092,0,0,1-1.276-1.009,2.1,2.1,0,0,1-.175-1.618l4.2-16.268a2.1,2.1,0,0,1,2.564-1.514,2.1,2.1,0,0,1,1.514,2.564l-4.2,16.27a2.1,2.1,0,0,1-2.1,1.574,2.136,2.136,0,0,1-.264.016A2.108,2.108,0,0,1-9635.037-844.319Zm9.878-2.123a2.1,2.1,0,0,1-.587-2.9l3.425-5.15-3.425-5.15a2.107,2.107,0,0,1-.274-2.2,2.106,2.106,0,0,1,1.847-1.223,2.1,2.1,0,0,1,1.916,1.109l4.2,6.3a2.1,2.1,0,0,1,0,2.312l-4.2,6.307a2.1,2.1,0,0,1-1.744.946h-.023A1.978,1.978,0,0,1-9625.159-846.442Zm-15.659.359a2.1,2.1,0,0,1-1.744-.946l-4.2-6.307a2.1,2.1,0,0,1,0-2.312l4.2-6.3a2.1,2.1,0,0,1,2.8-.434,2.1,2.1,0,0,1,.691,2.746l-3.425,5.15,3.425,5.15a2.1,2.1,0,0,1-.587,2.9,1.974,1.974,0,0,1-1.134.359Zm39.733-12.593a4.272,4.272,0,0,1,4.5-4,4.271,4.271,0,0,1,4.5,4,4.271,4.271,0,0,1-4.5,4A4.272,4.272,0,0,1-9601.085-858.676Zm28-31.5a4.271,4.271,0,0,1,4-4.5,4.273,4.273,0,0,1,4,4.5,4.274,4.274,0,0,1-4,4.5A4.272,4.272,0,0,1-9573.083-890.175Zm-13,0a4.271,4.271,0,0,1,4-4.5,4.273,4.273,0,0,1,4,4.5,4.274,4.274,0,0,1-4,4.5A4.272,4.272,0,0,1-9586.083-890.175Zm-13,0a4.5,4.5,0,0,1,4.5-4.5,4.5,4.5,0,0,1,4.5,4.5,4.5,4.5,0,0,1-4.5,4.5A4.5,4.5,0,0,1-9599.084-890.175Zm-43.837,2.052a2.1,2.1,0,0,1-2.1-2.1,2.1,2.1,0,0,1,2.1-2.1h35.735a2.1,2.1,0,0,1,2.1,2.1,2.1,2.1,0,0,1-2.1,2.1Zm63.06-10.511a2.1,2.1,0,0,1-2.1-2.1,2.1,2.1,0,0,1,2.1-2.1h2.1a2.1,2.1,0,0,1,2.1,2.1,2.1,2.1,0,0,1-2.1,2.1Z" transform="translate(10023.084 1299.676)" fill="url(#linear-gradient)"/>
  </g>
</svg>
