<svg xmlns="http://www.w3.org/2000/svg" width="16.603" height="16.821" viewBox="0 0 16.603 16.821">
  <g id="icon_Authors_Learning_Paths" data-name="icon_Authors &amp; Learning Paths" transform="translate(-0.9 -0.5)">
    <path id="Path_360" data-name="Path 360" d="M12.611,13.985v1.041a.263.263,0,0,1-.26.26h-.544a.112.112,0,0,1-.118-.118v-.45a.126.126,0,0,0-.166-.118l-1.964.828a1.059,1.059,0,0,1-.473.095,1.127,1.127,0,0,1-.8-.331,1.155,1.155,0,0,1-.237-1.278L9.086,11.43a1.465,1.465,0,0,1,.26-.4L11.665,8.71c.024-.024.024-.047.024-.095V3.386a.889.889,0,0,0-.875-.875H10.15a.187.187,0,0,0-.189.189V5.658a.155.155,0,0,1-.26.118l-.733-.733a.133.133,0,0,0-.213,0l-.733.733a.155.155,0,0,1-.26-.118V2.724a.187.187,0,0,0-.189-.189H2.178a.178.178,0,0,1-.142-.26A1.731,1.731,0,0,1,3.526,1.4h8.825a.263.263,0,0,1,.26.26v5.82a.131.131,0,0,0,.213.095l.662-.662c.024-.024.024-.047.024-.095V1.659A1.161,1.161,0,0,0,12.351.5H3.526A2.62,2.62,0,0,0,.9,3.126v13.32a.889.889,0,0,0,.875.875h8.919a1,1,0,0,0,.994-.994.112.112,0,0,1,.118-.118h.544A1.161,1.161,0,0,0,13.51,15.05v-1.7a.131.131,0,0,0-.213-.095l-.662.662C12.611,13.914,12.611,13.962,12.611,13.985Z" fill="#fff"/>
    <g id="Group_1006" data-name="Group 1006" transform="translate(8.872 5.929)">
      <path id="Path_361" data-name="Path 361" d="M63.719,24.949l-1.443-1.443a.23.23,0,0,0-.331.024l-.4.4a.107.107,0,0,0,0,.118l1.609,1.632a.107.107,0,0,0,.118,0l.4-.4A.2.2,0,0,0,63.719,24.949Z" transform="translate(-55.154 -23.445)" fill="#fff"/>
      <path id="Path_362" data-name="Path 362" d="M40.653,27.543a.107.107,0,0,0-.118,0l-4.8,4.8a.327.327,0,0,0-.071.095l-1.041,2.484a.178.178,0,0,0,.047.237.217.217,0,0,0,.237.047l2.484-1.041c.024-.024.071-.024.095-.071l4.779-4.826a.107.107,0,0,0,0-.118Zm-3.691,6.293-1.42.591a.122.122,0,0,1-.166-.166l.591-1.42c.047-.095.166-.118.213-.071l.828.828A.154.154,0,0,1,36.963,33.836Z" transform="translate(-34.596 -26.56)" fill="#fff"/>
    </g>
  </g>
</svg>
