<svg xmlns="http://www.w3.org/2000/svg" width="25.24" height="18.504" viewBox="0 0 25.24 18.504">
  <g id="icon_arrow" transform="translate(25.62 -0.248) rotate(180)">
    <path id="Path" d="M-24.518,7.7-16.071.509A2.145,2.145,0,0,1-13.1.7a2.018,2.018,0,0,1-.195,2.9L-17.5,7.2H-2.115A2.087,2.087,0,0,1,0,9.252a2.087,2.087,0,0,1-2.115,2.058H-17.5l4.213,3.59a2.019,2.019,0,0,1,.195,2.9,2.119,2.119,0,0,1-1.587.7A2.129,2.129,0,0,1-16.071,18l-8.446-7.2a2.027,2.027,0,0,1-.722-1.548A2.031,2.031,0,0,1-24.518,7.7Z" transform="translate(0.38 -0.248) rotate(180)" fill="#8e8e8e"/>
  </g>
</svg>
