<svg xmlns="http://www.w3.org/2000/svg" width="13.852" height="21.09" viewBox="0 0 13.852 21.09">
  <g id="icon_student" transform="translate(-20.446 -5)">
    <path id="Path_365" data-name="Path 365" d="M39.607,26.28a1.917,1.917,0,0,1-1.38,0L36.7,25.619l-1.109-.48a3.393,3.393,0,0,0-.067.673c0,1.87,1.522,3.856,3.392,3.856s3.392-1.985,3.392-3.856a3.393,3.393,0,0,0-.067-.673l-1.108.48Z" transform="translate(-11.545 -15.42)" fill="#fff"/>
    <path id="Path_366" data-name="Path 366" d="M35.8,47.7a1.078,1.078,0,0,1,.285.04A4.519,4.519,0,0,0,32.5,44.617a3.9,3.9,0,0,1-2.369.8h-.357a3.894,3.894,0,0,1-2.368-.8,4.519,4.519,0,0,0-3.589,3.126,1.08,1.08,0,0,1,.285-.04Z" transform="translate(-2.581 -30.333)" fill="#fff"/>
    <path id="Path_367" data-name="Path 367" d="M38.878,7.3c.277-.121.277-.317,0-.437l-4.1-1.775a1.461,1.461,0,0,0-1.01,0l-4.1,1.775c-.277.12-.277.317,0,.437l.311.134-.026.209a.252.252,0,0,0-.035.489l-.188,2.642a1.2,1.2,0,0,0,.049.391l.153.459c.017.053.04.079.063.079s.046-.026.064-.079l.153-.459a1.2,1.2,0,0,0,.049-.391l-.188-2.642a.252.252,0,0,0-.036-.489l-.024-.194.717.311.352.152V9.269l1.161.5,1.526.661a1.461,1.461,0,0,0,1.01,0L36.3,9.772l1.161-.5V7.914l.351-.152Z" transform="translate(-6.901)" fill="#fff"/>
    <path id="Path_368" data-name="Path 368" d="M37.471,93.336a.221.221,0,0,0-.221-.221H26.641a.221.221,0,1,0,0,.442H37.25A.221.221,0,0,0,37.471,93.336Z" transform="translate(-4.574 -67.466)" fill="#fff"/>
    <path id="Path_369" data-name="Path 369" d="M33.507,59.085a1.078,1.078,0,0,0-.285-.04h-11.7a1.08,1.08,0,0,0-1.075,1.075v.025l0,.025.971,5.633A1.076,1.076,0,0,0,22.5,66.851h9.751A1.076,1.076,0,0,0,33.322,65.8l.971-5.633,0-.025V60.12A1.076,1.076,0,0,0,33.507,59.085Zm-6.136,4.228a.463.463,0,1,1,.462-.463A.463.463,0,0,1,27.372,63.313Z" transform="translate(0 -41.38)" fill="#fff"/>
  </g>
</svg>
