<svg xmlns="http://www.w3.org/2000/svg" width="21" height="23" viewBox="0 0 21 23">
  <g id="icon_notification_2" transform="translate(0 2)">
    <path id="Notification_Icon" data-name="Notification Icon" d="M6,14h4a2,2,0,1,1-4,0ZM1,13a1,1,0,0,1,0-2h.5A4.353,4.353,0,0,0,3,8V5A4.952,4.952,0,0,1,8,0a4.951,4.951,0,0,1,5,5V8a4.351,4.351,0,0,0,1.5,3H15a1,1,0,0,1,0,2Z" transform="translate(0 5)" fill="#bcbccb"/>
    <g id="Notification_Badge" data-name="Notification Badge" transform="translate(11)" fill="#2385d9" stroke="#fff" stroke-width="2">
      <circle cx="4" cy="4" r="4" stroke="none"/>
      <circle cx="4" cy="4" r="5" fill="none"/>
    </g>
  </g>
</svg>
