<svg xmlns="http://www.w3.org/2000/svg" xmlns:xlink="http://www.w3.org/1999/xlink" width="16" height="16" viewBox="0 0 16 16">
  <defs>
    <clipPath id="clip-path">
      <rect width="16" height="16" fill="none"/>
    </clipPath>
  </defs>
  <g id="icon_dashboard" clip-path="url(#clip-path)">
    <path id="Union_8" data-name="Union 8" d="M13,16a.945.945,0,0,1-1-1V6a.945.945,0,0,1,1-1h2a.945.945,0,0,1,1,1v9a.945.945,0,0,1-1,1ZM7,16a.944.944,0,0,1-1-1V1A.945.945,0,0,1,7,0H9a.945.945,0,0,1,1,1V15a.944.944,0,0,1-1,1ZM1,16a.945.945,0,0,1-1-1V11a.945.945,0,0,1,1-1H3a.946.946,0,0,1,1,1v4a.945.945,0,0,1-1,1Z" fill="#fff"/>
  </g>
</svg>
