<svg xmlns="http://www.w3.org/2000/svg" width="1490.156" height="566.341" viewBox="0 0 1490.156 566.341">
  <g id="Group_1379" data-name="Group 1379" transform="translate(-604.805 -3116.826)">
    <path id="Path_4292" data-name="Path 4292" d="M481.455,338.751a164.969,164.969,0,0,1-38.313-57.263s-6.464.005-6.105,12.642L413.48,310.325s-25.542,6.179-51.5,13.182-34.6,14.007-29.249,39.893c3.246,15.691,14.005,59.8,23.893,79.166,0,0-24.306,27.6-27.189,45.728s23.07,27.6,27.189,32.957,30.442,42.51,39.549,50.671a89.05,89.05,0,0,0,46.773,22.451c3.464,21.729,9.342,59.729,10.49,74.361,1.648,21.009,18.127,116.584,12.771,140.067s-36.252,26.367-36.252,26.367-16.891,8.238,4.12,11.121,39.96-2.884,56.026,0,16.478-18.538,11.122-26.365-9.474-21.011-9.474-21.011,14.83-64.266,10.3-90.22-14.419-36.665-6.592-55.615c5.679-13.75,12.652-44.409,11.336-72,8.984-10.323,15.612-25,18.325-41.7,5.356-32.957,39.549-88.572,42.021-110.817S508.645,364.7,481.455,338.751Zm2.47,159.017s-5.354,11.123-12.358,11.123-12.36-5.767-33.782,10.71c0,0-30.9-10.71-36.665-30.073a38.47,38.47,0,0,1-1.5-13.517,90.047,90.047,0,0,0,4.1-8.774c1.723-4.223,1.794-8.8,2.09-13.045a38.217,38.217,0,0,1,2-8.8c1.879-5.924,2.1-12.3,4.691-17.861L414.616,423c1.027,1.111,3,2.206,6.774,2.514.56.046,1.109.061,1.649.051l.248.022a37.391,37.391,0,0,0,6.491.209c3.525-.252,6.025-1.593,9.079-3.143.6-.32,1.183-.648,1.736-1a36.585,36.585,0,0,0,3.08-2.156c.948-.731,1.807-1.462,2.59-2.149.211-.189.415-.375.613-.558a8.2,8.2,0,0,0,1.822,1.75,7.628,7.628,0,0,0,2.816,1.22,8.457,8.457,0,0,0,1.479.171,7.682,7.682,0,0,0,1.385-.086,7.971,7.971,0,0,0,1.2-.266,8.6,8.6,0,0,0,2.8.428,9.33,9.33,0,0,0,4.559-1.135c-.09.088-.178.176-.27.265a14.342,14.342,0,0,1-1.365,1.144,10.428,10.428,0,0,1-1.493.935l-.4.193-.389.169c-.264.1-.531.2-.8.287a14.551,14.551,0,0,1-1.567.389c-.507.086-.994.151-1.444.2-.9.077-1.662.1-2.195.1l-.839-.006.219.033c.141.022.349.057.615.084s.588.062.962.086.8.04,1.256.035a12.436,12.436,0,0,0,3.137-.428c.283-.077.564-.173.849-.274l.43-.171.406-.189a10.722,10.722,0,0,0,1.6-.973,14.861,14.861,0,0,0,1.405-1.207c.441-.419.841-.867,1.22-1.3.553-.639,1.047-1.269,1.475-1.859.479-.562.946-1.13,1.425-1.7.509-.621,1.03-1.231,1.543-1.87a20.535,20.535,0,0,0,1.425-1.6c-.024.16-.05.32-.073.481a3.942,3.942,0,0,1-.088.457c-.031.152-.064.3-.1.459-.057.31-.151.613-.237.92l-.13.459-.162.452c-.1.3-.2.606-.334.9s-.231.593-.38.871-.274.566-.419.838l-.452.793c-.327.5-.632,1-.972,1.433-.162.224-.323.439-.5.634l-.483.579-.478.5a5.978,5.978,0,0,1-.441.446c-.292.263-.531.514-.757.687-.441.356-.689.569-.689.569s.277-.169.757-.481c.244-.151.509-.377.83-.614s.647-.553,1.016-.88a14.907,14.907,0,0,0,1.078-1.174,16.635,16.635,0,0,0,3.438-7.656c.077-.5.13-1,.184-1.5a18.669,18.669,0,0,0,1.585-2.893l.253,3.852c.964-3.268,1.666-6.768.955-10.069a8.3,8.3,0,0,0-.149-.821c.05.158.1.316.136.472a12.035,12.035,0,0,1,.353,2.785,18.546,18.546,0,0,1-.088,2.013c-.046.487-.083.766-.083.766l.053-.195c.037-.127.088-.312.143-.553a12.721,12.721,0,0,0,.3-2.022,10.162,10.162,0,0,0-.189-2.911,8.578,8.578,0,0,0-.5-1.587c-.088-.2-.187-.4-.29-.6a8.017,8.017,0,0,0-.694-1.87,15.614,15.614,0,0,0-1.354-2.132c-.492-.654-.955-1.28-1.457-1.875a5.047,5.047,0,0,0-1.769-1.4,7.063,7.063,0,0,0-1.163-.4,9.96,9.96,0,0,0-1.35-1.045,6.106,6.106,0,0,0-.623-.376,4.9,4.9,0,0,0-.615-.32l-.6-.268-.588-.2a4.162,4.162,0,0,0-.558-.164l-.525-.13c-.342-.059-.656-.1-.94-.141l-.094-.006q.006-.438-.011-.871l.061-.018c.354-.094.711-.171,1.067-.244s.713-.125,1.082-.173.713-.075,1.076-.088.724-.011,1.084.006c.18,0,.358.02.538.035s.358.035.536.061.356.051.531.09.353.068.525.114.349.083.518.141.342.1.507.173a8.924,8.924,0,0,1,.975.439,7.3,7.3,0,0,1,.9.566c.138.112.285.213.419.332s.266.237.395.362a5.435,5.435,0,0,1,.674.821,3.531,3.531,0,0,1,.448.953,2.813,2.813,0,0,1,.1,1.058,2.319,2.319,0,0,1-.347,1.025,2.208,2.208,0,0,0,.5-1,2.846,2.846,0,0,0,.017-1.142,4.322,4.322,0,0,0-1.071-2.017c-.129-.141-.264-.274-.4-.411s-.288-.252-.432-.377a7.7,7.7,0,0,0-.95-.643,7.2,7.2,0,0,0-1.034-.49c-.175-.077-.358-.13-.538-.191s-.366-.11-.549-.156a4.847,4.847,0,0,0-.556-.121q-.278-.058-.562-.088c-.187-.026-.377-.05-.566-.059s-.377-.029-.566-.029a10.547,10.547,0,0,0-1.131.029c-.375.029-.755.073-1.126.138s-.737.143-1.095.241-.705.206-1.052.325l0-.044a24.351,24.351,0,0,0-.61-4.116,23.147,23.147,0,0,0-1.124-3.549c-.094-.235-.193-.461-.294-.683a30.381,30.381,0,0,0-.905-3.587q-.187-.554-.378-1.115l-.426-1.109q-.457-1.108-1-2.206a40.552,40.552,0,0,0-2.476-4.265c-.915-1.376-1.9-2.7-2.9-3.98s-2-2.511-3-3.7a26.013,26.013,0,0,0-3.146-3.178,10.852,10.852,0,0,0-3.473-2.02c-.294-.107-.593-.178-.882-.255-.292-.057-.577-.127-.858-.162a12.642,12.642,0,0,0-1.6-.143,12.262,12.262,0,0,0-2.593.224c-.119.024-.233.048-.342.073-.195-.114-.395-.224-.6-.332a8.985,8.985,0,0,0-1.712-.676,7.236,7.236,0,0,0-1.964-.287,5.82,5.82,0,0,0-1.034.079,5.547,5.547,0,0,0-1.007.257,8.034,8.034,0,0,0-1.818.939,10.274,10.274,0,0,0-1.512,1.255,18.47,18.47,0,0,0-2.166,2.671c-.285.413-.516.812-.724,1.163s-.369.665-.5.926l-.026.051a43.506,43.506,0,0,0-4.818.966c-.988.255-1.971.544-2.937.874s-1.951.591-2.928.9a6.785,6.785,0,0,0-2.695,1.449,5.692,5.692,0,0,0-.95,1.22c-.252.45-.468.911-.705,1.363a15.082,15.082,0,0,1-.749,1.324,3.355,3.355,0,0,1-.465.579,2.378,2.378,0,0,1-.626.386,6.994,6.994,0,0,1-1.458.391l-1.5.281-1.5.276c-.5.081-1.008.152-1.513.219-1.008.127-2.024.239-3.036.285l-1.532.066c-.5.05-1-.04-1.545.035a1.622,1.622,0,0,0-.759.32,1.191,1.191,0,0,0-.437.733,1.787,1.787,0,0,0,.084.817,4.588,4.588,0,0,0,.3.731c.239.463.512.9.773,1.333a5.8,5.8,0,0,1,.349.654,1.3,1.3,0,0,1,.094.669,1.636,1.636,0,0,1-.819,1.08,4.5,4.5,0,0,1-1.361.557c-.487.121-1,.2-1.5.378a1.884,1.884,0,0,0-.727.413.727.727,0,0,0-.075.092c-.024.035-.048.079-.061.1a.82.82,0,0,0-.072.235,1.522,1.522,0,0,0,.011.432c.136.817.3,1.622.5,2.423a5.767,5.767,0,0,0-.676-.546,3.2,3.2,0,0,0-.678-.351,1.687,1.687,0,0,0-.79-.112,1.756,1.756,0,0,0-1.273.9,1.737,1.737,0,0,0-.158.382,1.208,1.208,0,0,0-.042.41,4.435,4.435,0,0,0,.154.738,3.017,3.017,0,0,1,.073.332.982.982,0,0,1,.017.151.584.584,0,0,1,0,.077c0,.009,0,.04,0,.033l-.006.037a1.28,1.28,0,0,1-.263.564,3.674,3.674,0,0,1-1.06.845,27.328,27.328,0,0,0-2.582,1.324c-2.467,1.738-1.666,5.132.1,7.042a21.383,21.383,0,0,0,4.4,3.222c2.9,1.851,7.621,5.4,5.654,9.406-1.06,2.155-2.5,3.473-3.516,5.395-11.032-16.171-25.015-35.141-28.984-59.212,0,0,45.728-21.833,59.324-31.309a40.721,40.721,0,0,1,21.266-6.945c3.027,19.26.362,31.219,5.1,34.134,5.356,3.3,12.36-4.12,23.071,7s20.186,60.146,54.79,76.212C523.063,430.618,492.99,458.221,483.925,497.768Z" transform="translate(1423.983 2835.338)" fill="#a29f9e"/>
    <path id="Path_4293" data-name="Path 4293" d="M611.263,420.218c-10.047,1-78.609.571-96.694-.1s-85.74,2.483-103.49-1.2c-4.239-.88-9.322-.828-12.374-4.226a6.505,6.505,0,0,1-1.793-4.237c0-2.177,1.251-4.232,1.721-6.328.454-2.03.439-4.155,1.019-6.17,1.357-4.72,7.826-4.118,11.555-3.484a23.552,23.552,0,0,0,5.968.63c2.847-.253,6.008-2.424,5.284-5.663a29.814,29.814,0,0,0-1.126-2.987,4.022,4.022,0,0,1-.239-1.473,1.417,1.417,0,0,1,.2-.652l.022-.035.024-.029a.458.458,0,0,1,.055-.064,1.1,1.1,0,0,1,.123-.11,3.37,3.37,0,0,1,.307-.217,4.9,4.9,0,0,0,.672-.487,1.32,1.32,0,0,0,.266-.366,1.969,1.969,0,0,0-.219-2.1,1.874,1.874,0,0,0-.727-.494,3.453,3.453,0,0,0-.812-.213,6.163,6.163,0,0,0-.951-.057c.749-.509,1.48-1.04,2.195-1.605a1.584,1.584,0,0,0,.327-.343.885.885,0,0,0,.116-.244.976.976,0,0,0,.026-.125,1.074,1.074,0,0,0,.007-.132,2.077,2.077,0,0,0-.288-.874,16.459,16.459,0,0,0-.942-1.416,4.9,4.9,0,0,1-.7-1.46,1.807,1.807,0,0,1,.129-1.486A1.431,1.431,0,0,1,421.5,372a6.077,6.077,0,0,1,.768-.274c.534-.163,1.078-.314,1.615-.516a5.1,5.1,0,0,0,.786-.371,2.011,2.011,0,0,0,.674-.6,1.3,1.3,0,0,0,.184-.92,1.781,1.781,0,0,0-.382-.821c-.388-.466-.858-.759-1.231-1.172l-1.2-1.183c-.79-.786-1.536-1.627-2.263-2.478q-.546-.639-1.071-1.295l-1.021-1.335-1.018-1.341a7.641,7.641,0,0,1-.9-1.4,2.557,2.557,0,0,1-.224-.777,3.593,3.593,0,0,1,.048-.814c.088-.547.224-1.093.367-1.633s.3-1.078.433-1.631a6.4,6.4,0,0,0,.129-1.7,7.475,7.475,0,0,0-1.126-3.172c-.568-.972-1.188-1.907-1.719-2.895s-1.131-1.943-1.747-2.882a47.928,47.928,0,0,0-3.211-4.349l.018-.059c.083-.31.18-.689.276-1.126s.195-.933.268-1.48a20.393,20.393,0,0,0,.211-3.775,11.375,11.375,0,0,0-.3-2.14,8.834,8.834,0,0,0-.788-2.109,6.108,6.108,0,0,0-.628-.953,6.606,6.606,0,0,0-.786-.828,7.952,7.952,0,0,0-1.811-1.218,9.857,9.857,0,0,0-1.894-.715c-.25-.068-.5-.125-.738-.174-.07-.1-.143-.206-.222-.312a13.3,13.3,0,0,0-3.358-3.167c-.257-.18-.538-.334-.819-.5-.292-.151-.588-.312-.906-.443a11.979,11.979,0,0,0-4.322-.922,28.663,28.663,0,0,0-4.911.265c-1.69.228-3.413.511-5.172.8s-3.539.656-5.3,1.1a44.686,44.686,0,0,0-5.17,1.646q-1.251.49-2.445,1.056c-.391.2-.779.393-1.166.588l-1.133.63a33.773,33.773,0,0,0-3.387,2.252c-.246.107-.494.219-.744.34a25.492,25.492,0,0,0-3.539,2.061,26.732,26.732,0,0,0-3.538,2.9l-.035.033c-.193-.353-.393-.7-.615-1.041-.171-.268-.362-.534-.553-.792a12.449,12.449,0,0,0-1.071-1.255,10.917,10.917,0,0,0-.8-.764c-.154-.14-.32-.266-.485-.393s-.331-.253-.5-.371a6.226,6.226,0,0,0-.522-.344,5.7,5.7,0,0,0-.544-.312c-.186-.1-.369-.2-.562-.277s-.38-.176-.58-.244a8.049,8.049,0,0,0-1.2-.364,8.381,8.381,0,0,0-1.247-.178c-.211,0-.421-.024-.63-.013s-.421.02-.63.04a4.739,4.739,0,0,0-2.362.854,3.135,3.135,0,0,0-.832.94,2.413,2.413,0,0,0-.329,1.185,2.516,2.516,0,0,1,.474-1.091,3.043,3.043,0,0,1,.863-.788,3.881,3.881,0,0,1,1.069-.445,5.982,5.982,0,0,1,1.157-.173c.195-.006.393,0,.588,0s.391.028.588.039a7.966,7.966,0,0,1,1.155.208,9.2,9.2,0,0,1,1.117.364c.186.064.362.152.542.233s.353.174.525.268.343.191.512.294.336.206.5.32.327.222.483.347.316.237.465.369c.3.252.6.518.885.8s.549.571.812.869.516.612.753.939.47.65.689.988l.037.061c-.222.226-.439.461-.652.7l-.081-.068c-.263-.174-.549-.373-.872-.579l-.523-.281a4.65,4.65,0,0,0-.575-.281l-.628-.266-.689-.226a5.432,5.432,0,0,0-.738-.195,7.477,7.477,0,0,0-.784-.154,10.962,10.962,0,0,0-1.872-.145,7.692,7.692,0,0,0-1.245-.531,5.577,5.577,0,0,0-2.478-.163c-.849.116-1.69.283-2.571.452a17.38,17.38,0,0,0-2.68.736,8.891,8.891,0,0,0-1.947,1.01c-.231.086-.461.176-.683.277a9.581,9.581,0,0,0-1.581.922,11.263,11.263,0,0,0-2.305,2.232,13.807,13.807,0,0,0-1.245,1.874c-.132.235-.228.426-.292.555l-.1.2s.176-.253.5-.685a20.44,20.44,0,0,1,1.416-1.7,13.092,13.092,0,0,1,2.346-2.008c.147-.1.3-.191.459-.283a8.78,8.78,0,0,0-.727.557c-3.02,2.164-5.035,5.532-6.664,8.906l3.053-2.95a22.158,22.158,0,0,0-.784,3.106,1.8,1.8,0,0,1-.31.762c-.242.336-.483.674-.711,1.019a18.321,18.321,0,0,0-2.858,8.776,17.273,17.273,0,0,0,.011,1.752c.061.54.088,1.036.178,1.468s.134.81.222,1.113c.162.61.263.951.263.951s-.046-.358-.141-.973c-.057-.307-.066-.689-.108-1.119a6.849,6.849,0,0,1-.029-.689c-.005-.242-.011-.5-.018-.762.011-.264.022-.542.033-.826s.031-.58.064-.882c.044-.606.162-1.234.266-1.886.073-.321.147-.65.22-.981s.189-.656.277-.99.222-.659.332-.992.252-.654.391-.977l.2-.487.233-.47c.156-.314.3-.63.487-.924l.259-.448c.083-.151.171-.3.266-.435s.2-.3.3-.448c-.042.672-.053,1.427-.022,2.289a1.039,1.039,0,0,1,0,.13c-.051.878-.077,1.738-.119,2.6-.031.8-.07,1.592-.1,2.386a.876.876,0,0,1-.005.1c-.085.786-.145,1.648-.167,2.557-.011.632-.015,1.291.033,1.958a16.488,16.488,0,0,0,.226,1.874,14.927,14.927,0,0,0,.8,2.577c.075.152.149.3.224.455.156.294.316.579.489.85a13.727,13.727,0,0,0,2.239,2.667c.371.345.725.647,1.051.9s.608.468.847.641.432.3.564.386l.2.134-.687-.617c-.437-.389-1.038-.97-1.716-1.7-.334-.369-.681-.781-1.03-1.227a15.8,15.8,0,0,1-.988-1.473c-.156-.264-.3-.542-.439-.823-.062-.141-.127-.283-.191-.426s-.123-.3-.185-.456a11.218,11.218,0,0,1-.527-1.864,15.457,15.457,0,0,1-.264-1.941c-.011-.138-.017-.275-.026-.413a10.267,10.267,0,0,0,2.875,4.293,9.768,9.768,0,0,0,2.153,1.513,1.7,1.7,0,0,1,.678.573,7.222,7.222,0,0,0,.551.742,8.462,8.462,0,0,0,1.063,1.091,9.262,9.262,0,0,0,1.332.953,9.9,9.9,0,0,0,1.541.707,10.057,10.057,0,0,0,1.653.382,9.45,9.45,0,0,0,1.635.057,9.3,9.3,0,0,0,1.142-.136c.026.294.055.6.086.906.13,1.139.29,2.371.522,3.664a40.39,40.39,0,0,0,.917,4.035c.191.692.419,1.387.676,2.094,1.344,3.519,2.39,6.46,5.073,9.268a41.147,41.147,0,0,0,5.442,4.627c.073.053.145.108.219.163.434.406.891.8,1.381,1.177a14.187,14.187,0,0,0,5.338,2.788,1.75,1.75,0,0,1,1.352,1.609c.007.11.013.222.02.334a1.806,1.806,0,0,1-.079.626l-.883,2.853c-1.732,5.565-5.334,10.328-8.12,15.524a1.758,1.758,0,0,1-1.124.882c-2.674.665-6.814,1.328-14.242,2.869-17.75,3.684-85.405.531-103.49,1.2s-86.647,1.1-96.694.1-50.336,2.248-48.327,6.6,21.435.67,24.449,3.685,19.049,9.378,27.423,5.023,22.537-1.339,34.93-.67,58.806,19.479,85.6,15.46c23.567-3.536,51.381-6.491,68.055,5.553a1.931,1.931,0,0,1,.5.533,59.833,59.833,0,0,1,3.578,6.728l-.138.4.294-.061c9.415,20.891,10.648,49.886,10.7,51.33,0,.042,0,.073,0,.116-.05,1.633-1.308,36.061-19.835,47.177C311.134,574.731,286.936,607,277.446,629.3s-41.279,28.944-55.038,39.382-46.975,51.244-54.566,59.785-39.856,34.164-45.55,53.617,24.2,2.847,34.162-9.489,16.134-17.556,19.929-24.2,83.984-46.973,94.9-62.156c10.383-14.446,100.654-74.6,109.4-80.41a1.733,1.733,0,0,1,1.46-.22c4.877,1.436,31.982,9.366,63.748,17.523,27.856,7.152,47.649,8.929,54.64,9.358a1.757,1.757,0,0,1,1.451,2.553c-12.933,26.225,1.455,80.343,5.593,86.781,4.27,6.642,1.9,35.585-1.424,41.753s0,15.658,10.912,13.366,26.57-2.452,34.164-1.5,29.417,2.849,35.585,0-26.571-13.285-31.317-15.656-21.824-11.388-24.2-41.281,17.082-110.079,0-120.043c-16.257-9.483-91.817-36.155-99.08-38.71a1.711,1.711,0,0,1-.883-.692c-1.648-2.531-9.173-14.172-12.962-21.33-4.27-8.067-4.3-29.208-1.451-38.223s17.056-20.627,17.056-32.015c0-3.475-2.56-8.519-6.116-13.853a1.759,1.759,0,0,1,.83-2.623c13.01-4.871,38.633-4.928,58.5-1.947,26.795,4.019,73.209-13.537,85.6-14.206s26.558-3.685,34.93.669,24.407-2.009,27.421-5.023,22.44.67,24.451-3.685S621.31,419.213,611.263,420.218Z" transform="translate(510.317 2892.098)" fill="#a29f9e"/>
    <path id="Path_4294" data-name="Path 4294" d="M389.674,648.062c-2.854-12.578-35.76-88.9-35.76-88.9l-4.568-12.242c-2.814-18.726-7.553-46.444-11.86-53.448-3.457-5.622-6.9-16.669-9.634-26.258a6.259,6.259,0,0,0,3.077-.845,1.33,1.33,0,0,0,.615-.623,1.452,1.452,0,0,0-.013-.762q-1.642-8.276-3.28-16.553a10.853,10.853,0,0,0-1.567-4.41c-4.032-5.5-17.273-5.1-23.43-6.052,0,0-21.516-12.281-43.847-24.262-19.481-10.455-25.461-12.7-35.347.981l-.443-.2c-.76-.325-1.541-.63-2.336-.907a42.084,42.084,0,0,0-4.917-1.363c-1.673-.354-3.358-.628-5.024-.845s-3.293-.412-4.889-.566a27.021,27.021,0,0,0-4.625-.075,11.248,11.248,0,0,0-4.03,1.019c-.3.134-.568.3-.838.45-.257.169-.518.321-.751.5a13.321,13.321,0,0,0-1.288,1.054,12.651,12.651,0,0,0-1.756,2.042c-.072.1-.138.2-.2.3-.224.057-.454.118-.685.191a9.234,9.234,0,0,0-1.756.738,7.452,7.452,0,0,0-1.66,1.209,6.249,6.249,0,0,0-.709.806,5.66,5.66,0,0,0-.557.918,8.271,8.271,0,0,0-.665,2.009,10.569,10.569,0,0,0-.211,2.022,19.218,19.218,0,0,0,.331,3.541c.09.512.206.973.3,1.383s.209.76.3,1.047l.02.057a44.773,44.773,0,0,0-2.865,4.2c-.546.9-1.064,1.828-1.539,2.772s-1.016,1.848-1.513,2.781a7.02,7.02,0,0,0-.946,3.023,5.981,5.981,0,0,0,.18,1.587c.14.516.312,1.012.465,1.519s.3,1.01.4,1.521a3.408,3.408,0,0,1,.073.764,2.33,2.33,0,0,1-.184.738,7.2,7.2,0,0,1-.793,1.344l-.909,1.295-.913,1.291q-.471.636-.961,1.256c-.654.825-1.324,1.642-2.039,2.41l-1.086,1.153c-.338.4-.768.694-1.117,1.146a1.685,1.685,0,0,0-.331.784,1.231,1.231,0,0,0,.206.858,1.876,1.876,0,0,0,.656.546,4.972,4.972,0,0,0,.751.321c.511.169,1.029.292,1.537.426a5.955,5.955,0,0,1,.731.23,1.364,1.364,0,0,1,.553.428,1.7,1.7,0,0,1,.174,1.39,4.652,4.652,0,0,1-.6,1.4,15.409,15.409,0,0,0-.836,1.365,1.926,1.926,0,0,0-.241.832.936.936,0,0,0,.013.123.8.8,0,0,0,.028.118.847.847,0,0,0,.118.226,1.5,1.5,0,0,0,.32.31c.692.507,1.4.981,2.12,1.433a5.7,5.7,0,0,0-.893.086,3.223,3.223,0,0,0-.755.23,1.714,1.714,0,0,0-.665.49,1.821,1.821,0,0,0-.294,1.583,1.889,1.889,0,0,0,.16.4,1.284,1.284,0,0,0,.266.334,4.479,4.479,0,0,0,.648.433c.1.062.206.127.3.193.042.033.092.072.119.1a.616.616,0,0,1,.055.059l.022.028.022.031a1.31,1.31,0,0,1,.213.606,3.771,3.771,0,0,1-.173,1.392,28.4,28.4,0,0,0-.953,2.847c-.566,3.071,2.483,5,5.169,5.136a21.971,21.971,0,0,0,5.587-.8c3.483-.727,9.542-1.523,10.986,2.865a13.219,13.219,0,0,1,.347,1.3c-3.718,13.68-7.277,26.807-10.133,36.384-11,10.475-23.5,23.2-20.978,29.783,4.217,11.008,8.859,14.121,14.123,26.038s5.65,22.7,10.885,42,22.561,30.36,22.561,30.36-77.362,8.893-89.672,22.542-.514,27.562,2.311,32.77,65.6,3.24,75.1,5.519,72.739-7.094,84.781,3.363,26.648,8.444,28.6,8.306c1.787-.125-2.368-14.606-15.5-28.229,25.375,3.242,63.614,7.457,80.78,5.933C409.014,699.293,392.527,660.642,389.674,648.062ZM242.98,505.535a8.9,8.9,0,0,1-2.97-.95c-.132-.261-.27-.52-.4-.781-2.9-5.74-7.338-10.616-9.452-16.6l-1.717-4.878c1.563.079,3.811-.536,6.829-3.042.446-.371.863-.759,1.258-1.155.066-.055.13-.108.2-.162a38.81,38.81,0,0,0,4.952-4.542c2.423-2.735,3.3-5.536,4.441-8.892.215-.674.4-1.335.56-1.993a38.437,38.437,0,0,0,.718-3.826c.173-1.223.279-2.388.36-3.462.02-.292.035-.577.05-.856a8.484,8.484,0,0,0,1.078.088,8.607,8.607,0,0,0,1.536-.112,9.43,9.43,0,0,0,1.541-.417,9.229,9.229,0,0,0,1.423-.718,8.731,8.731,0,0,0,1.218-.944,7.9,7.9,0,0,0,.961-1.063,8.086,8.086,0,0,0,.694-1.067,8.854,8.854,0,0,0,2.384-1.712,9.63,9.63,0,0,0,2.549-4.136c0,.13,0,.259-.007.389a15.057,15.057,0,0,1-.182,1.835,10.7,10.7,0,0,1-.428,1.771c-.053.145-.107.29-.158.435l-.167.406c-.119.27-.244.536-.382.79a14.823,14.823,0,0,1-.876,1.42c-.312.433-.625.832-.926,1.19-.61.711-1.155,1.278-1.554,1.66l-.623.6.184-.132c.121-.086.3-.209.516-.382s.481-.38.773-.634.619-.544.955-.883a12.788,12.788,0,0,0,2.011-2.586c.152-.261.292-.534.43-.815l.195-.437.163-.435a11.021,11.021,0,0,0,.476-1.873,15.4,15.4,0,0,0,.167-1.91c.022-.628-.006-1.249-.039-1.842-.053-.872-.143-1.7-.253-2.443-.051-.76-.118-1.519-.176-2.287-.031-.343-.061-.692-.088-1.036q1.052.35,2.134.705a4.144,4.144,0,0,1,.143.4c.1.312.208.615.3.922s.162.615.242.915c.121.608.253,1.2.316,1.763.042.283.079.558.092.827s.042.527.061.777.007.489.009.716a5.843,5.843,0,0,1,0,.648c-.026.406-.02.766-.062,1.056-.068.582-.1.92-.1.92s.081-.327.211-.9c.072-.288.1-.647.171-1.054s.077-.876.114-1.387a15.532,15.532,0,0,0-.051-1.648,19.645,19.645,0,0,0-.808-3.743c12.8,4.2,28.361,8.965,36.564,10.183.692.1,1.354.226,1.991.362,4.068,6.361,9.729,15.311,11.478,18.533,2.825,5.209,2.491,21.451,4.125,30.676s2.836,33.225,9.36,42.1c0,0-34.983-22.111-48.6-27.048S249.407,506.066,242.98,505.535Zm65.445,131.672s-2.994-12-21.677-19.038S260.519,614,258.534,606.762s-17.462-30.284-10.572-37.159,11.583-31.318,21.641-28.1c7.158,2.294,39.446,11.527,57.472,16.661-.366,5.861,1.236,10.637,7.966,12.15,9.988,2.245,9.527,9.65,9.8,13.563s-6.265,50.579,19.11,75.825C363.953,659.707,331.3,641,308.426,637.207Z" transform="translate(1364.646 2958.948)" fill="#a29f9e"/>
    <path id="Path_4295" data-name="Path 4295" d="M527.587,691.811c-11.693-2.138-53.74,5.047-68.465,5.547l-14.953-31.44a47.629,47.629,0,0,1-3.431-30.975,138.053,138.053,0,0,1,6.548-21.191c5.147-12.716,13.495-32.338,19.376-55.424,7.314-12.571,14.294-26.76,18.994-42.466,12.31-41.13,16.213-56.436,16.213-56.436s1.515-5.047-9.979-14.641S419.5,405.3,419.5,405.3s-5.176-2.48-8.423-9.487-4-19.837-5.112-24.706-1.8,1.221-4.331,9,2.8,17.805-.226,25.768,4.752,10.5,9.489,10.554,38.315,35.266,66.1,45.5c0,0-9.109,17.475-17.159,46.933,0,0-12.145,20.461-15.7,28.839-1.945,4.592-6.225,6.5-9.851,7.264-7.316-.814-14.516-1.33-17.28-4.462-2.221-2.518-3.3-9.775-3.828-16.446a28.671,28.671,0,0,0,7.784-10.438c3.745-.345,5.181-6.649,7.329-15.241,1.17-4.673-.718-4.6-2.873-3.383,1.9-7.117,4.735-20.906,1.036-29.414a30.9,30.9,0,0,0-11.46-13.871c.968-2.1,1.717-3.749,1.717-3.749a7.8,7.8,0,0,0,.244-.953,8.244,8.244,0,0,0,.134-1.4,8.8,8.8,0,0,0-.14-1.447,8.533,8.533,0,0,0-.43-1.387,7.864,7.864,0,0,0-.661-1.238,7.748,7.748,0,0,0-1.66-1.809,8.043,8.043,0,0,0-1.174-2.4,8.769,8.769,0,0,0-3.326-2.92c.118.022.232.042.349.068a13.207,13.207,0,0,1,1.62.441,9.817,9.817,0,0,1,1.525.654l.365.209.34.209c.224.151.445.3.65.465a13.494,13.494,0,0,1,1.142,1c.34.345.65.685.927,1.012.544.656.972,1.231,1.253,1.646l.446.652-.09-.185c-.059-.121-.143-.3-.266-.522s-.268-.49-.45-.792-.395-.637-.647-.992a11.677,11.677,0,0,0-2.017-2.2c-.211-.176-.435-.344-.667-.511l-.362-.241-.365-.213a10,10,0,0,0-1.611-.713,13.753,13.753,0,0,0-1.688-.441c-.562-.116-1.122-.185-1.66-.246-.792-.084-1.545-.13-2.232-.145-.691-.068-1.383-.125-2.081-.189-.755-.061-1.506-.138-2.276-.191a19.355,19.355,0,0,0-2-.246c.136-.066.274-.132.411-.2a4.087,4.087,0,0,1,.4-.176l.41-.171c.27-.121.555-.213.838-.31l.428-.147.435-.118c.29-.081.579-.167.874-.222s.582-.138.878-.171.582-.094.872-.127l.858-.077c.564-.017,1.111-.046,1.631-.017.259.005.512.017.755.044s.481.044.707.062l.645.1a5.612,5.612,0,0,1,.582.1c.36.083.683.134.937.217.514.149.812.228.812.228s-.279-.123-.779-.329c-.248-.108-.564-.191-.92-.312s-.775-.2-1.227-.314a14.375,14.375,0,0,0-1.486-.206,15.7,15.7,0,0,0-7.773,1.449c-.426.208-.843.435-1.26.663a17.594,17.594,0,0,0-3.091.327l2.845-2.265c-3.047,1.008-6.133,2.344-8.308,4.667a7.681,7.681,0,0,0-.553.557c.1-.125.191-.246.292-.36a11.249,11.249,0,0,1,1.965-1.767,17.653,17.653,0,0,1,1.605-1.014c.4-.226.637-.347.637-.347l-.178.062c-.118.04-.29.1-.505.187a12.038,12.038,0,0,0-1.73.849,9.653,9.653,0,0,0-2.151,1.71,8.035,8.035,0,0,0-.959,1.24c-.112.178-.215.362-.312.549a7.421,7.421,0,0,0-1.075,1.543,14.731,14.731,0,0,0-.926,2.193c-.241.731-.478,1.425-.669,2.132a4.782,4.782,0,0,0-.138,2.123,6.516,6.516,0,0,0,.312,1.117,9.242,9.242,0,0,0-.084,1.605,6.43,6.43,0,0,0,.042.685,4.85,4.85,0,0,0,.083.647l.116.612c.053.193.106.38.158.564a3.746,3.746,0,0,0,.173.52l.118.307q-.548.325-1.082.681c-.208-.2-.4-.413-.6-.634-.222-.257-.441-.512-.647-.786s-.4-.553-.577-.841c-.1-.14-.178-.288-.263-.435s-.165-.3-.239-.448a4.749,4.749,0,0,1-.217-.459c-.07-.154-.136-.309-.193-.468s-.123-.314-.169-.476-.1-.321-.14-.485a8.308,8.308,0,0,1-.184-.99,6.8,6.8,0,0,1-.048-1c.013-.167.013-.336.033-.5s.04-.334.068-.5a5.079,5.079,0,0,1,.274-.964,3.343,3.343,0,0,1,.5-.86,2.634,2.634,0,0,1,.764-.645,2.176,2.176,0,0,1,.981-.281,2.087,2.087,0,0,0-1.043.149,2.686,2.686,0,0,0-.893.6,4.086,4.086,0,0,0-.986,1.912c-.04.176-.07.353-.1.529s-.04.358-.059.536a7.322,7.322,0,0,0,.011,1.08,6.734,6.734,0,0,0,.176,1.063c.035.176.09.347.141.52s.11.342.173.509a4.664,4.664,0,0,0,.206.5c.07.165.149.325.233.483s.165.316.259.468.178.309.279.454a9.746,9.746,0,0,0,.632.86c.222.276.463.545.711.8.187.184.384.369.584.547a31.252,31.252,0,0,0-10.616,13.315c-3.7,8.508-.863,22.3,1.036,29.414-2.155-1.216-4.043-1.289-2.875,3.383,2.149,8.592,3.585,14.9,7.331,15.241a28.628,28.628,0,0,0,7.784,10.438c-.527,6.673-1.607,13.93-3.828,16.446-2.764,3.132-9.964,3.648-17.28,4.462-3.626-.768-7.905-2.672-9.851-7.264-3.55-8.377-15.7-28.839-15.7-28.839-8.05-29.458-17.159-46.933-17.159-46.933,27.79-10.238,61.366-45.447,66.1-45.5s12.518-2.592,9.489-10.554,2.309-17.987-.226-25.768-3.218-13.871-4.331-9-1.866,17.7-5.112,24.706-8.425,9.487-8.425,9.487-60.89,29.891-72.387,39.485-9.979,14.641-9.979,14.641,3.9,15.306,16.213,56.436a194.17,194.17,0,0,0,17.769,40.332c5.9,24.008,14.606,44.453,19.91,57.558a138.264,138.264,0,0,1,6.548,21.191,47.64,47.64,0,0,1-3.431,30.975l-14.94,31.412c-15.295-.685-56.269-7.626-67.785-5.519-13.346,2.441-30.435,7.161-18.88,29.3s65.1,37.92,73.073,39.547a170.827,170.827,0,0,0,19.855,2.278s-8.951,4.232-9.928,8.625,20.507,4.232,29.946,0,20.994-5.371,25.715-6.021a32.088,32.088,0,0,0,7.283-2.063,32.111,32.111,0,0,0,7.285,2.063c4.721.65,16.276,1.791,25.715,6.021s30.922,4.4,29.947,0-9.928-8.625-9.928-8.625a170.829,170.829,0,0,0,19.855-2.278c7.973-1.627,61.518-17.414,73.073-39.547S540.931,694.252,527.587,691.811Z" transform="translate(888.485 2908.064)" fill="#a29f9e"/>
    <path id="Path_4296" data-name="Path 4296" d="M507.661,375.973c3.877-.1,6.5,3.325,8.7,6.035,5.372,6.616,10.169,13.723,11.4,22.333a116.771,116.771,0,0,1,.428,27.308,8.894,8.894,0,0,1,2.277-.987,1.7,1.7,0,0,1,1.969,1.773,3.94,3.94,0,0,1-.317,1.171l.016.039c7.068-4.711,15.113-8.435,22.611-12.275a46.431,46.431,0,0,1,12.608-4.661c.759-.294,1.507-.556,2.186-.791a8.312,8.312,0,0,1,6.794.146c.415.219.786.9.378,1.324a37.119,37.119,0,0,1-6.208,5.581,1.546,1.546,0,0,1-.089.417,2.869,2.869,0,0,1-.28,1.272,2.8,2.8,0,0,1-.9,1.042,8.739,8.739,0,0,1-3.642,3.125,1.069,1.069,0,0,1-.392.094c-.075.232-.157.467-.248.7a6.86,6.86,0,0,1-2.516,3.578,17.255,17.255,0,0,0-3.334,3.822,7.1,7.1,0,0,1-1.1,1.593c-.8.763-2.17,1.133-3.036,1.869-.823.7-.633,1.144-1.65,1.7a6.3,6.3,0,0,1-2.261.629,4.227,4.227,0,0,0-.207.836,3.011,3.011,0,0,1-.016,1.506c-.014.048-.032.084-.046.13.059,1.743.294,3.51-1.363,4.884-.666.554-1.479.558-2.14,1-1.853,1.242-1.668,2.569-2.557,3.954a6.223,6.223,0,0,1-1.958,2.088,13.368,13.368,0,0,0-4.406,4.328c-1.7,2.516-3.46,3.143-6.37,4.043-3.562,1.1-11.8,3.425-12.184-2.626-.239-3.8,1-8.2,1.723-11.906.094-.49.859-2.306-.155-2.327a1.4,1.4,0,0,0-.914.476,23.953,23.953,0,0,0-2.758,3.248c-.743.987-5.107,7.095-6.147,3.688a1.075,1.075,0,0,1-.107-1.051c.531-1.3,1.012-2.628,1.545-3.929.333-.814,1.992-3.221,1.764-4-.4-1.363-4.255,1.24-5.076,1.591a28.593,28.593,0,0,1-6.24,1.9c-5.4.95-9.447-1.135-14.42-2.947a1.925,1.925,0,0,1-1-.627,1.883,1.883,0,0,1-.242-.775c-.6-3.868-.515-7.806-1.358-11.58a20.228,20.228,0,0,1,.166-9.641,20.753,20.753,0,0,1,3.357-5.987,8.28,8.28,0,0,1,3.07-2.7,8.685,8.685,0,0,1,3.881-.775,4.947,4.947,0,0,1-1.194-1.372c-1.527-2.744.882-5.281.679-8.159a.376.376,0,0,1,.495-.4c.036-.121.075-.239.121-.353a.532.532,0,0,1,.048-.791c1.183-.85,1-4.406,1.379-5.91a11.69,11.69,0,0,0,.777-2.459,3.344,3.344,0,0,0,.321-3.063c.046-.235.078-.561.116-.791a8.951,8.951,0,0,1,1.178-2.637,12.763,12.763,0,0,0,1.81-4.775c.176-1.395-.15-2.817.1-4.207C503.224,378,504.8,376.051,507.661,375.973Z" transform="translate(1518.065 3128.994)" fill="#343434" opacity="0.594"/>
    <path id="Path_4297" data-name="Path 4297" d="M498.593,375.972c2.259-.061,3.791,1.938,5.072,3.517,3.131,3.856,5.926,8,6.645,13.015a68.051,68.051,0,0,1,.25,15.914,5.182,5.182,0,0,1,1.327-.575.989.989,0,0,1,1.148,1.033,2.3,2.3,0,0,1-.185.683l.009.023a132.583,132.583,0,0,1,13.177-7.154,27.058,27.058,0,0,1,7.348-2.716c.442-.171.878-.324,1.274-.461a4.844,4.844,0,0,1,3.959.085c.242.128.458.525.22.772a21.631,21.631,0,0,1-3.618,3.253.9.9,0,0,1-.052.243,1.672,1.672,0,0,1-.163.741,1.634,1.634,0,0,1-.526.607,5.093,5.093,0,0,1-2.122,1.821.624.624,0,0,1-.229.055c-.044.135-.092.272-.145.408a4,4,0,0,1-1.466,2.085,10.058,10.058,0,0,0-1.943,2.227,4.14,4.14,0,0,1-.641.928c-.465.445-1.265.66-1.769,1.089-.479.408-.369.667-.962.992a3.673,3.673,0,0,1-1.318.367,2.463,2.463,0,0,0-.121.487,1.755,1.755,0,0,1-.009.878c-.008.028-.019.049-.027.076.034,1.016.171,2.045-.794,2.846-.388.323-.862.326-1.247.582-1.08.724-.972,1.5-1.49,2.3a3.626,3.626,0,0,1-1.141,1.217,7.79,7.79,0,0,0-2.567,2.522c-.988,1.466-2.016,1.832-3.712,2.356-2.076.64-6.877,2-7.1-1.53-.139-2.213.584-4.776,1-6.938.054-.286.5-1.344-.09-1.356a.814.814,0,0,0-.533.278,13.96,13.96,0,0,0-1.607,1.893c-.433.575-2.976,4.135-3.582,2.149a.626.626,0,0,1-.062-.612c.309-.76.59-1.531.9-2.29.194-.474,1.161-1.877,1.028-2.332-.231-.794-2.48.723-2.958.927a16.663,16.663,0,0,1-3.637,1.105c-3.147.554-5.505-.661-8.4-1.717a1.122,1.122,0,0,1-.582-.365,1.1,1.1,0,0,1-.141-.452c-.349-2.254-.3-4.549-.792-6.749a11.788,11.788,0,0,1,.1-5.618,12.094,12.094,0,0,1,1.956-3.489,4.825,4.825,0,0,1,1.789-1.574,5.061,5.061,0,0,1,2.262-.452,2.883,2.883,0,0,1-.7-.8c-.89-1.6.514-3.077.4-4.755a.219.219,0,0,1,.288-.231c.021-.07.044-.139.07-.206a.31.31,0,0,1,.028-.461c.689-.5.582-2.567.8-3.444a6.811,6.811,0,0,0,.453-1.433,1.949,1.949,0,0,0,.187-1.785c.027-.137.045-.327.068-.461a5.217,5.217,0,0,1,.687-1.537,7.438,7.438,0,0,0,1.055-2.783c.1-.813-.088-1.642.06-2.452A2.948,2.948,0,0,1,498.593,375.972Z" transform="translate(612.043 3069.974)" fill="#343434" opacity="0.594"/>
    <path id="Path_4298" data-name="Path 4298" d="M140.9,491.1c-3.877-.1-6.5,3.325-8.706,6.037-5.37,6.616-10.167,13.723-11.4,22.331a116.785,116.785,0,0,0-.429,27.311,8.893,8.893,0,0,0-2.277-.987,1.694,1.694,0,0,0-1.969,1.771,3.922,3.922,0,0,0,.317,1.172l-.018.039c-7.065-4.711-15.111-8.435-22.611-12.273A46.346,46.346,0,0,0,81.2,531.832c-.759-.292-1.507-.554-2.186-.791a8.32,8.32,0,0,0-6.794.146c-.415.221-.786.9-.378,1.324a37.238,37.238,0,0,0,6.208,5.584,1.381,1.381,0,0,0,.089.415,2.865,2.865,0,0,0,.28,1.272,2.827,2.827,0,0,0,.9,1.044,8.735,8.735,0,0,0,3.642,3.122,1.048,1.048,0,0,0,.392.093c.075.232.157.467.248.7a6.862,6.862,0,0,0,2.516,3.578,17.216,17.216,0,0,1,3.334,3.824,7.14,7.14,0,0,0,1.1,1.591c.8.764,2.17,1.135,3.033,1.869.825.7.636,1.144,1.652,1.7a6.211,6.211,0,0,0,2.261.629,4.309,4.309,0,0,1,.205.836,3.036,3.036,0,0,0,.018,1.506c.014.048.032.087.046.13-.059,1.744-.294,3.51,1.361,4.884.668.554,1.481.558,2.14,1,1.855,1.24,1.671,2.566,2.559,3.952a6.216,6.216,0,0,0,1.955,2.088,13.383,13.383,0,0,1,4.408,4.33c1.7,2.514,3.46,3.143,6.37,4.041,3.562,1.1,11.8,3.425,12.184-2.626.239-3.8-1-8.193-1.723-11.906-.093-.49-.859-2.306.155-2.327a1.418,1.418,0,0,1,.914.476,23.949,23.949,0,0,1,2.758,3.248c.743.989,5.108,7.095,6.145,3.688a1.08,1.08,0,0,0,.109-1.051c-.531-1.3-1.012-2.625-1.545-3.929-.333-.814-1.994-3.218-1.764-4,.4-1.363,4.253,1.24,5.076,1.591a28.577,28.577,0,0,0,6.238,1.9c5.4.95,9.449-1.137,14.42-2.949a1.926,1.926,0,0,0,1-.627,1.881,1.881,0,0,0,.239-.773c.6-3.87.517-7.808,1.361-11.582a20.287,20.287,0,0,0-.166-9.641,20.812,20.812,0,0,0-3.357-5.987,8.29,8.29,0,0,0-3.072-2.7,8.7,8.7,0,0,0-3.879-.775,4.946,4.946,0,0,0,1.194-1.372c1.527-2.742-.882-5.278-.679-8.159a.376.376,0,0,0-.495-.4c-.036-.118-.075-.239-.121-.353a.534.534,0,0,0-.048-.791c-1.183-.85-1-4.4-1.379-5.91a11.478,11.478,0,0,1-.777-2.459,3.344,3.344,0,0,1-.321-3.063c-.046-.235-.077-.561-.116-.791a9.012,9.012,0,0,0-1.178-2.637,12.749,12.749,0,0,1-1.81-4.775c-.176-1.395.15-2.817-.1-4.207C145.334,493.126,143.759,491.173,140.9,491.1Z" transform="translate(581.173 2646.249)" fill="#343434" opacity="0.8"/>
    <path id="Path_4299" data-name="Path 4299" d="M125.777,491.095c-3.03-.082-5.084,2.6-6.8,4.719-4.2,5.171-7.947,10.725-8.91,17.453a91.278,91.278,0,0,0-.335,21.346,6.951,6.951,0,0,0-1.78-.771,1.324,1.324,0,0,0-1.539,1.384,3.065,3.065,0,0,0,.248.916l-.014.03c-5.522-3.682-11.81-6.593-17.673-9.592a36.224,36.224,0,0,0-9.853-3.645c-.593-.228-1.177-.433-1.708-.618a6.5,6.5,0,0,0-5.31.114c-.324.173-.615.7-.3,1.035a29.105,29.105,0,0,0,4.852,4.364,1.08,1.08,0,0,0,.069.324,2.239,2.239,0,0,0,.219.994,2.21,2.21,0,0,0,.705.816A6.828,6.828,0,0,0,80.5,532.4a.82.82,0,0,0,.306.073c.059.182.123.365.194.547a5.363,5.363,0,0,0,1.967,2.8,13.455,13.455,0,0,1,2.606,2.989,5.58,5.58,0,0,0,.86,1.243c.623.6,1.7.887,2.371,1.461.645.549.5.894,1.291,1.331a4.855,4.855,0,0,0,1.767.492,3.367,3.367,0,0,1,.16.654,2.373,2.373,0,0,0,.014,1.177c.011.037.025.068.036.1-.046,1.363-.23,2.743,1.063,3.817.522.433,1.158.436,1.673.782,1.45.969,1.306,2.006,2,3.089a4.859,4.859,0,0,0,1.528,1.632,10.461,10.461,0,0,1,3.445,3.385c1.325,1.965,2.7,2.457,4.979,3.158,2.784.86,9.224,2.677,9.523-2.052.187-2.968-.784-6.4-1.347-9.306-.073-.383-.672-1.8.121-1.819a1.108,1.108,0,0,1,.714.372,18.721,18.721,0,0,1,2.155,2.538c.581.773,3.992,5.545,4.8,2.882a.844.844,0,0,0,.085-.821c-.415-1.017-.791-2.052-1.208-3.071-.26-.636-1.559-2.515-1.379-3.128.31-1.065,3.324.969,3.967,1.243a22.336,22.336,0,0,0,4.876,1.484c4.222.743,7.385-.889,11.271-2.305a1.505,1.505,0,0,0,.782-.49,1.471,1.471,0,0,0,.187-.6c.468-3.025.4-6.1,1.063-9.053a15.856,15.856,0,0,0-.13-7.535,16.266,16.266,0,0,0-2.624-4.68,6.479,6.479,0,0,0-2.4-2.111,6.8,6.8,0,0,0-3.032-.606,3.867,3.867,0,0,0,.933-1.072c1.193-2.143-.689-4.125-.531-6.377a.294.294,0,0,0-.387-.31c-.029-.093-.059-.187-.094-.276a.417.417,0,0,0-.037-.618c-.925-.664-.78-3.442-1.078-4.619a8.971,8.971,0,0,1-.607-1.922,2.614,2.614,0,0,1-.251-2.394c-.036-.183-.061-.438-.091-.618a7.044,7.044,0,0,0-.921-2.061,9.964,9.964,0,0,1-1.414-3.732c-.137-1.09.118-2.2-.08-3.288C129.243,492.682,128.013,491.155,125.777,491.095Z" transform="translate(1367.107 2701.185)" fill="#343434" opacity="0.8"/>
  </g>
</svg>
