<svg xmlns="http://www.w3.org/2000/svg" width="626.018" height="607.027" viewBox="0 0 626.018 607.027">
  <g id="Mobile_BG_V1" transform="translate(-654.4 -3046.965)">
    <path id="Path_4292" data-name="Path 4292" d="M475.6,336.548a158.623,158.623,0,0,1-36.839-55.06s-6.215.005-5.871,12.156l-22.65,15.572s-24.559,5.941-49.514,12.675-33.273,13.468-28.123,38.358c3.121,15.088,13.466,57.5,22.973,76.12,0,0-23.371,26.539-26.143,43.969s22.182,26.539,26.143,31.689S384.846,552.9,393.6,560.748a85.624,85.624,0,0,0,44.974,21.587c3.331,20.893,8.982,57.431,10.086,71.5,1.584,20.2,17.43,112.1,12.28,134.678s-34.857,25.352-34.857,25.352-16.241,7.921,3.961,10.694,38.423-2.773,53.871,0,15.844-17.825,10.694-25.35-9.109-20.2-9.109-20.2,14.259-61.794,9.9-86.749S481.539,657,489.065,638.782c5.461-13.221,12.165-42.7,10.9-69.234,8.638-9.925,15.012-24.04,17.62-40.094,5.15-31.689,38.027-85.165,40.4-106.554S501.741,361.5,475.6,336.548Zm2.375,152.9s-5.148,10.7-11.882,10.7-11.884-5.545-32.482,10.3c0,0-29.709-10.3-35.255-28.916a36.991,36.991,0,0,1-1.438-13,86.587,86.587,0,0,0,3.942-8.437c1.657-4.06,1.725-8.461,2.01-12.543a36.747,36.747,0,0,1,1.92-8.458c1.807-5.7,2.024-11.822,4.511-17.173l2.031-4.357c.987,1.068,2.881,2.121,6.513,2.418.539.044,1.067.058,1.586.049l.238.021a35.953,35.953,0,0,0,6.241.2c3.389-.242,5.793-1.531,8.73-3.022.581-.307,1.137-.623,1.669-.959a35.164,35.164,0,0,0,2.962-2.073c.911-.7,1.738-1.406,2.49-2.066.2-.182.4-.36.59-.537a7.888,7.888,0,0,0,1.752,1.683,7.337,7.337,0,0,0,2.707,1.173,8.134,8.134,0,0,0,1.422.164,7.389,7.389,0,0,0,1.332-.083,7.659,7.659,0,0,0,1.153-.256,8.269,8.269,0,0,0,2.7.412,8.972,8.972,0,0,0,4.383-1.092c-.087.085-.171.17-.26.254a13.784,13.784,0,0,1-1.312,1.1,10.021,10.021,0,0,1-1.436.9l-.389.186-.374.162c-.254.1-.51.2-.766.276a13.988,13.988,0,0,1-1.507.374c-.487.083-.955.145-1.388.189-.867.074-1.6.1-2.11.094l-.807-.005.21.032c.136.021.336.055.592.081s.565.06.925.083.765.039,1.208.034a11.959,11.959,0,0,0,3.016-.412c.272-.074.542-.166.816-.263l.413-.164.39-.182a10.307,10.307,0,0,0,1.536-.936,14.282,14.282,0,0,0,1.351-1.16c.424-.4.809-.834,1.173-1.249.532-.615,1.007-1.22,1.418-1.787.461-.54.91-1.086,1.37-1.635.489-.6.991-1.183,1.484-1.8a19.736,19.736,0,0,0,1.37-1.537c-.023.154-.048.307-.071.463a3.8,3.8,0,0,1-.085.44c-.03.147-.062.293-.094.441-.055.3-.145.59-.228.885l-.125.441-.155.434c-.1.291-.194.583-.321.862s-.223.57-.366.837-.263.544-.4.805l-.434.763c-.314.484-.607.961-.934,1.378-.155.215-.311.422-.477.609l-.464.556-.459.482a5.745,5.745,0,0,1-.424.429c-.281.253-.51.495-.728.661-.424.343-.662.547-.662.547s.267-.163.728-.463c.235-.145.489-.362.8-.59s.622-.532.977-.846a14.335,14.335,0,0,0,1.037-1.129,16,16,0,0,0,3.306-7.361c.074-.477.125-.961.177-1.443a17.957,17.957,0,0,0,1.524-2.782l.244,3.7c.927-3.142,1.6-6.508.918-9.682a7.993,7.993,0,0,0-.143-.79c.048.152.094.3.131.454a11.573,11.573,0,0,1,.339,2.677,17.85,17.85,0,0,1-.085,1.936c-.044.468-.079.736-.079.736l.051-.187c.035-.122.085-.3.138-.532a12.228,12.228,0,0,0,.293-1.944,9.771,9.771,0,0,0-.182-2.8,8.249,8.249,0,0,0-.482-1.526c-.085-.2-.18-.389-.279-.581a7.709,7.709,0,0,0-.668-1.8,15.014,15.014,0,0,0-1.3-2.05c-.473-.629-.918-1.231-1.4-1.8a4.852,4.852,0,0,0-1.7-1.349,6.794,6.794,0,0,0-1.118-.389,9.578,9.578,0,0,0-1.3-1,5.877,5.877,0,0,0-.6-.362,4.708,4.708,0,0,0-.592-.307l-.578-.258-.565-.2a4,4,0,0,0-.537-.157l-.505-.125c-.329-.057-.631-.1-.9-.136l-.09-.005q.005-.421-.011-.837l.058-.018c.341-.09.683-.164,1.026-.235s.685-.12,1.04-.166.685-.072,1.035-.085.7-.011,1.042.005c.173,0,.344.019.518.034s.344.034.516.058.343.049.51.087.339.065.505.11.336.079.5.136.329.1.487.166a8.59,8.59,0,0,1,.938.422,7.013,7.013,0,0,1,.869.544c.132.108.274.2.4.32s.256.228.38.348a5.225,5.225,0,0,1,.648.789,3.4,3.4,0,0,1,.431.917,2.7,2.7,0,0,1,.1,1.017,2.23,2.23,0,0,1-.334.985,2.123,2.123,0,0,0,.48-.961,2.736,2.736,0,0,0,.016-1.1,4.155,4.155,0,0,0-1.03-1.939c-.124-.136-.254-.263-.383-.4s-.277-.242-.415-.362a7.4,7.4,0,0,0-.913-.618,6.913,6.913,0,0,0-.994-.471c-.168-.074-.344-.125-.517-.184s-.352-.106-.528-.15a4.67,4.67,0,0,0-.535-.117q-.268-.056-.54-.085c-.18-.025-.362-.048-.544-.057s-.362-.028-.544-.028a10.132,10.132,0,0,0-1.088.028c-.36.028-.726.071-1.083.132s-.708.138-1.053.231-.678.2-1.012.313l0-.042a23.41,23.41,0,0,0-.586-3.958,22.257,22.257,0,0,0-1.081-3.412c-.09-.226-.185-.443-.283-.657a29.22,29.22,0,0,0-.871-3.449q-.18-.532-.364-1.072l-.41-1.067q-.44-1.065-.962-2.121a39,39,0,0,0-2.381-4.1c-.88-1.323-1.823-2.6-2.787-3.827s-1.922-2.414-2.88-3.553a25.015,25.015,0,0,0-3.025-3.055,10.435,10.435,0,0,0-3.34-1.943c-.283-.1-.57-.171-.848-.245-.281-.055-.555-.122-.825-.155a12.158,12.158,0,0,0-1.54-.138,11.791,11.791,0,0,0-2.494.215c-.115.023-.224.046-.329.071-.187-.109-.38-.215-.581-.32a8.636,8.636,0,0,0-1.646-.65,6.958,6.958,0,0,0-1.888-.276,5.594,5.594,0,0,0-.994.076,5.333,5.333,0,0,0-.968.247,7.726,7.726,0,0,0-1.748.9,9.879,9.879,0,0,0-1.453,1.206,17.763,17.763,0,0,0-2.082,2.568c-.274.4-.5.781-.7,1.118s-.355.639-.482.89l-.025.049a41.832,41.832,0,0,0-4.632.929c-.95.245-1.9.523-2.824.841s-1.876.569-2.815.864a6.524,6.524,0,0,0-2.591,1.393,5.471,5.471,0,0,0-.913,1.173c-.242.433-.45.876-.678,1.311a14.5,14.5,0,0,1-.721,1.273,3.224,3.224,0,0,1-.447.556,2.286,2.286,0,0,1-.6.371,6.728,6.728,0,0,1-1.4.376l-1.445.27-1.446.265c-.484.078-.97.147-1.455.21-.97.122-1.946.23-2.919.274l-1.473.064c-.484.048-.959-.039-1.485.034a1.56,1.56,0,0,0-.729.307,1.145,1.145,0,0,0-.42.7,1.718,1.718,0,0,0,.081.786,4.411,4.411,0,0,0,.29.7c.23.445.493.864.743,1.282a5.578,5.578,0,0,1,.336.629,1.249,1.249,0,0,1,.09.643,1.573,1.573,0,0,1-.788,1.038,4.33,4.33,0,0,1-1.309.535c-.468.117-.961.193-1.443.364a1.812,1.812,0,0,0-.7.4.7.7,0,0,0-.072.088c-.023.034-.046.076-.058.1a.789.789,0,0,0-.069.226,1.464,1.464,0,0,0,.011.415c.131.786.291,1.559.479,2.329a5.549,5.549,0,0,0-.65-.525,3.078,3.078,0,0,0-.652-.337,1.622,1.622,0,0,0-.759-.108,1.688,1.688,0,0,0-1.224.864,1.67,1.67,0,0,0-.152.367,1.162,1.162,0,0,0-.041.394,4.267,4.267,0,0,0,.148.71,2.9,2.9,0,0,1,.071.32.946.946,0,0,1,.016.145.559.559,0,0,1,0,.074c0,.009,0,.039,0,.032l-.005.035a1.23,1.23,0,0,1-.253.542,3.532,3.532,0,0,1-1.019.812,26.267,26.267,0,0,0-2.483,1.273c-2.372,1.671-1.6,4.934.1,6.771a20.56,20.56,0,0,0,4.233,3.1c2.787,1.78,7.328,5.191,5.436,9.044-1.019,2.072-2.407,3.34-3.38,5.187-10.607-15.549-24.052-33.789-27.869-56.934,0,0,43.969-20.994,57.041-30.1a39.154,39.154,0,0,1,20.448-6.678c2.91,18.519.348,30.018,4.9,32.821,5.15,3.168,11.884-3.961,22.184,6.734s19.409,57.832,52.683,73.28C515.605,424.88,486.689,451.421,477.973,489.447Z" transform="translate(688.06 2828.632)" fill="#a29f9e" opacity="0.4"/>
    <path id="Path_4293" data-name="Path 4293" d="M591.382,416.3c-9.661.966-75.585.549-92.974-.094s-82.441,2.388-99.509-1.155c-4.076-.846-8.963-.8-11.9-4.064a6.255,6.255,0,0,1-1.724-4.074c0-2.093,1.2-4.069,1.655-6.084.436-1.951.422-3.995.98-5.932,1.305-4.539,7.525-3.96,11.11-3.35a22.645,22.645,0,0,0,5.738.606c2.737-.244,5.777-2.331,5.081-5.445a28.66,28.66,0,0,0-1.083-2.872,3.867,3.867,0,0,1-.23-1.416,1.362,1.362,0,0,1,.194-.627l.021-.034.023-.028a.448.448,0,0,1,.053-.062,1.065,1.065,0,0,1,.118-.106,3.233,3.233,0,0,1,.295-.208,4.705,4.705,0,0,0,.646-.468,1.269,1.269,0,0,0,.256-.351,1.894,1.894,0,0,0-.21-2.019,1.8,1.8,0,0,0-.7-.475,3.321,3.321,0,0,0-.781-.2,5.927,5.927,0,0,0-.915-.055c.721-.489,1.423-1,2.11-1.544a1.521,1.521,0,0,0,.314-.33.851.851,0,0,0,.111-.235.938.938,0,0,0,.025-.12,1.034,1.034,0,0,0,.007-.127,2,2,0,0,0-.277-.841,15.822,15.822,0,0,0-.906-1.362,4.706,4.706,0,0,1-.669-1.4,1.738,1.738,0,0,1,.124-1.429,1.376,1.376,0,0,1,.549-.456,5.843,5.843,0,0,1,.738-.263c.514-.157,1.037-.3,1.552-.5a4.9,4.9,0,0,0,.756-.357,1.933,1.933,0,0,0,.648-.581,1.254,1.254,0,0,0,.177-.885,1.712,1.712,0,0,0-.367-.79c-.373-.449-.825-.729-1.183-1.127l-1.153-1.137c-.76-.756-1.477-1.565-2.176-2.382q-.525-.615-1.03-1.245l-.982-1.284-.978-1.289a7.35,7.35,0,0,1-.864-1.342,2.458,2.458,0,0,1-.215-.747,3.452,3.452,0,0,1,.046-.782c.085-.526.215-1.051.353-1.57s.293-1.037.417-1.568a6.15,6.15,0,0,0,.124-1.63,7.188,7.188,0,0,0-1.083-3.05c-.546-.934-1.143-1.833-1.653-2.783s-1.088-1.868-1.68-2.771a46.085,46.085,0,0,0-3.087-4.182l.018-.057c.079-.3.173-.662.265-1.083s.187-.9.258-1.423a19.61,19.61,0,0,0,.2-3.629,10.944,10.944,0,0,0-.293-2.057,8.5,8.5,0,0,0-.758-2.027,5.874,5.874,0,0,0-.6-.917,6.349,6.349,0,0,0-.756-.8,7.646,7.646,0,0,0-1.741-1.171,9.478,9.478,0,0,0-1.821-.687c-.24-.065-.477-.12-.71-.168-.067-.1-.138-.2-.214-.3a12.794,12.794,0,0,0-3.228-3.045c-.247-.173-.517-.321-.788-.484-.281-.145-.565-.3-.871-.426a11.518,11.518,0,0,0-4.156-.887,27.561,27.561,0,0,0-4.722.254c-1.625.219-3.281.491-4.973.766s-3.4.63-5.1,1.056a42.968,42.968,0,0,0-4.971,1.582q-1.2.472-2.351,1.016c-.376.191-.749.378-1.122.565l-1.09.606a32.474,32.474,0,0,0-3.257,2.165c-.237.1-.475.21-.715.327a24.512,24.512,0,0,0-3.4,1.982,25.712,25.712,0,0,0-3.4,2.79l-.033.032c-.186-.339-.378-.676-.592-1-.164-.258-.348-.514-.532-.761a11.967,11.967,0,0,0-1.03-1.206,10.5,10.5,0,0,0-.774-.735c-.148-.134-.307-.256-.466-.378s-.318-.244-.484-.357a6,6,0,0,0-.5-.33,5.48,5.48,0,0,0-.523-.3c-.178-.094-.355-.189-.54-.267s-.366-.17-.558-.235a7.743,7.743,0,0,0-1.159-.35,8.058,8.058,0,0,0-1.2-.171c-.2,0-.4-.023-.606-.012s-.4.019-.606.039a4.556,4.556,0,0,0-2.271.821,3.014,3.014,0,0,0-.8.9,2.32,2.32,0,0,0-.316,1.139,2.419,2.419,0,0,1,.456-1.049,2.926,2.926,0,0,1,.83-.758,3.73,3.73,0,0,1,1.028-.427,5.751,5.751,0,0,1,1.113-.166c.187-.005.378,0,.565,0s.376.027.565.037a7.665,7.665,0,0,1,1.111.2,8.843,8.843,0,0,1,1.074.35c.178.062.348.147.521.224s.339.168.505.258.33.184.493.283.323.2.479.307.314.214.464.334.3.228.447.355c.293.242.578.5.851.765s.528.549.781.835.5.588.724.9.452.625.662.95l.035.058c-.214.217-.422.443-.627.675l-.078-.065c-.253-.168-.528-.358-.839-.556l-.5-.27a4.469,4.469,0,0,0-.553-.27l-.6-.256-.662-.217a5.217,5.217,0,0,0-.71-.187,7.18,7.18,0,0,0-.754-.148,10.539,10.539,0,0,0-1.8-.14,7.4,7.4,0,0,0-1.2-.51,5.362,5.362,0,0,0-2.383-.157c-.816.111-1.625.272-2.472.434a16.7,16.7,0,0,0-2.577.708,8.546,8.546,0,0,0-1.872.971c-.222.083-.443.17-.657.267a9.212,9.212,0,0,0-1.521.887,10.828,10.828,0,0,0-2.216,2.146,13.275,13.275,0,0,0-1.2,1.8c-.127.226-.219.41-.281.533l-.1.191s.17-.244.48-.659a19.649,19.649,0,0,1,1.362-1.639,12.59,12.59,0,0,1,2.255-1.93c.141-.1.29-.184.442-.272a8.445,8.445,0,0,0-.7.535c-2.9,2.08-4.841,5.319-6.407,8.564l2.935-2.836a21.3,21.3,0,0,0-.754,2.986,1.734,1.734,0,0,1-.3.733c-.233.323-.464.648-.683.98a17.616,17.616,0,0,0-2.748,8.438,16.626,16.626,0,0,0,.011,1.685c.058.519.085,1,.171,1.411s.129.779.214,1.07c.155.586.253.915.253.915s-.044-.344-.136-.936c-.055-.295-.064-.662-.1-1.076a6.589,6.589,0,0,1-.028-.662c-.005-.233-.011-.477-.018-.733.011-.254.021-.521.032-.795s.03-.558.062-.848c.042-.583.155-1.187.256-1.814.071-.309.141-.625.212-.943s.182-.63.267-.952.214-.634.32-.954.242-.629.376-.94l.194-.468.224-.452c.15-.3.293-.606.468-.888l.249-.431c.079-.145.164-.284.256-.419s.191-.288.284-.431c-.041.646-.051,1.372-.021,2.2a.989.989,0,0,1,0,.125c-.049.844-.074,1.671-.115,2.5-.03.77-.067,1.531-.092,2.294a.838.838,0,0,1-.005.1c-.081.756-.14,1.584-.161,2.458-.011.608-.014,1.242.032,1.883a15.842,15.842,0,0,0,.217,1.8,14.348,14.348,0,0,0,.77,2.478c.072.147.143.293.215.438.15.283.3.556.47.818A13.2,13.2,0,0,0,326,363.65c.357.332.7.622,1.01.865s.585.45.814.616.415.288.542.371l.192.129-.66-.593c-.42-.374-1-.932-1.65-1.635-.321-.355-.655-.751-.991-1.18a15.21,15.21,0,0,1-.95-1.416c-.15-.254-.288-.521-.422-.791-.06-.136-.122-.272-.184-.41s-.118-.291-.178-.438a10.791,10.791,0,0,1-.507-1.793,14.861,14.861,0,0,1-.254-1.867c-.011-.132-.016-.265-.025-.4a9.872,9.872,0,0,0,2.764,4.127,9.391,9.391,0,0,0,2.07,1.455,1.633,1.633,0,0,1,.652.551,6.955,6.955,0,0,0,.53.713,8.136,8.136,0,0,0,1.023,1.049,8.914,8.914,0,0,0,1.28.917,9.516,9.516,0,0,0,1.482.68,9.673,9.673,0,0,0,1.589.367,9.092,9.092,0,0,0,1.572.055,8.95,8.95,0,0,0,1.1-.131c.025.283.053.574.083.871.125,1.095.279,2.28.5,3.523a38.858,38.858,0,0,0,.881,3.88c.184.666.4,1.333.65,2.013,1.293,3.384,2.3,6.211,4.878,8.912a39.562,39.562,0,0,0,5.233,4.449c.071.051.14.1.21.157.417.39.857.77,1.328,1.132a13.64,13.64,0,0,0,5.132,2.681,1.683,1.683,0,0,1,1.3,1.547c.007.106.012.214.019.321a1.737,1.737,0,0,1-.076.6l-.849,2.743c-1.665,5.351-5.129,9.931-7.808,14.927a1.69,1.69,0,0,1-1.081.848c-2.571.639-6.552,1.277-13.694,2.759-17.068,3.543-82.12.51-99.509,1.153s-83.314,1.061-92.974.094-48.4,2.162-46.468,6.347,20.61.645,23.508,3.543,18.316,9.018,26.368,4.83,21.67-1.287,33.586-.645,56.543,18.729,82.305,14.865c22.661-3.4,49.4-6.241,65.437,5.339a1.856,1.856,0,0,1,.477.512,57.522,57.522,0,0,1,3.44,6.469l-.132.385.283-.058c9.053,20.088,10.238,47.967,10.291,49.355,0,.041,0,.071,0,.111-.048,1.57-1.257,34.674-19.072,45.362-18.249,10.95-41.516,41.973-50.641,63.415s-39.691,27.83-52.921,37.867-45.168,49.272-52.467,57.485-38.322,32.849-43.8,51.554,23.268,2.737,32.848-9.124,15.513-16.88,19.162-23.268,80.753-45.166,91.245-59.764c9.984-13.89,96.782-71.73,105.19-77.316a1.667,1.667,0,0,1,1.4-.212c4.689,1.381,30.751,9.005,61.3,16.848,26.784,6.877,45.816,8.585,52.538,9a1.689,1.689,0,0,1,1.4,2.455c-12.435,25.216,1.4,77.252,5.378,83.443,4.106,6.386,1.824,34.216-1.369,40.147s0,15.056,10.492,12.852,25.548-2.358,32.849-1.446,28.286,2.739,34.216,0-25.548-12.774-30.112-15.054-20.985-10.95-23.267-39.693,16.425-105.844,0-115.425c-15.632-9.118-88.285-34.764-95.268-37.22a1.645,1.645,0,0,1-.849-.666c-1.584-2.434-8.82-13.627-12.463-20.51-4.106-7.757-4.133-28.084-1.4-36.752s16.4-19.833,16.4-30.783c0-3.341-2.462-8.191-5.881-13.32a1.692,1.692,0,0,1,.8-2.522c12.509-4.684,37.146-4.738,56.252-1.872,25.764,3.864,70.393-13.016,82.307-13.659s25.536-3.543,33.586.643,23.468-1.932,26.366-4.83,21.576.645,23.51-3.543S601.042,415.339,591.382,416.3Z" transform="translate(559.913 2880.823)" fill="#a29f9e" opacity="0.5"/>
    <path id="Path_4294" data-name="Path 4294" d="M379.322,638.716c-2.745-12.094-34.384-85.484-34.384-85.484l-4.392-11.771c-2.706-18.005-7.262-44.657-11.4-51.392-3.324-5.406-6.632-16.027-9.263-25.248a6.018,6.018,0,0,0,2.958-.812,1.279,1.279,0,0,0,.592-.6,1.4,1.4,0,0,0-.012-.733q-1.579-7.958-3.154-15.916a10.435,10.435,0,0,0-1.507-4.24c-3.877-5.284-16.608-4.9-22.528-5.819,0,0-20.688-11.808-42.16-23.328-18.731-10.053-24.482-12.212-33.987.943l-.426-.194c-.731-.313-1.482-.606-2.246-.872a40.464,40.464,0,0,0-4.728-1.31c-1.609-.341-3.228-.6-4.83-.812s-3.167-.4-4.7-.544a25.983,25.983,0,0,0-4.447-.072,10.816,10.816,0,0,0-3.875.98c-.284.129-.546.286-.805.433-.247.162-.5.309-.722.48a12.816,12.816,0,0,0-1.238,1.014,12.164,12.164,0,0,0-1.688,1.964c-.069.1-.132.194-.192.29-.215.055-.436.113-.659.184a8.878,8.878,0,0,0-1.688.71,7.165,7.165,0,0,0-1.6,1.162,6.007,6.007,0,0,0-.682.775,5.445,5.445,0,0,0-.535.883,7.953,7.953,0,0,0-.639,1.932,10.161,10.161,0,0,0-.2,1.944,18.478,18.478,0,0,0,.318,3.405c.086.493.2.936.293,1.33s.2.731.288,1.007l.019.055a43.054,43.054,0,0,0-2.755,4.039c-.525.869-1.023,1.757-1.48,2.665s-.977,1.777-1.455,2.674a6.751,6.751,0,0,0-.91,2.907,5.75,5.75,0,0,0,.173,1.526c.134.5.3.973.447,1.461s.29.971.389,1.462a3.278,3.278,0,0,1,.071.735,2.242,2.242,0,0,1-.177.71,6.922,6.922,0,0,1-.763,1.293l-.874,1.245-.878,1.242q-.453.612-.924,1.208c-.629.793-1.273,1.579-1.96,2.317l-1.044,1.109c-.325.387-.738.668-1.074,1.1a1.621,1.621,0,0,0-.318.754,1.184,1.184,0,0,0,.2.825,1.8,1.8,0,0,0,.63.525,4.775,4.775,0,0,0,.722.309c.491.162.989.281,1.478.41a5.735,5.735,0,0,1,.7.221,1.312,1.312,0,0,1,.532.411,1.632,1.632,0,0,1,.168,1.337,4.473,4.473,0,0,1-.579,1.344,14.829,14.829,0,0,0-.8,1.312,1.852,1.852,0,0,0-.231.8.9.9,0,0,0,.012.118.771.771,0,0,0,.026.113.815.815,0,0,0,.113.217,1.439,1.439,0,0,0,.307.3c.666.487,1.344.943,2.038,1.378a5.468,5.468,0,0,0-.858.083,3.094,3.094,0,0,0-.726.221,1.648,1.648,0,0,0-.639.472,1.751,1.751,0,0,0-.283,1.522,1.817,1.817,0,0,0,.154.381,1.234,1.234,0,0,0,.256.321,4.309,4.309,0,0,0,.623.417c.1.06.2.122.284.185a1.491,1.491,0,0,1,.115.1.583.583,0,0,1,.053.057l.021.026.021.03a1.26,1.26,0,0,1,.2.583,3.625,3.625,0,0,1-.166,1.339,27.309,27.309,0,0,0-.917,2.737c-.544,2.953,2.388,4.807,4.97,4.938a21.124,21.124,0,0,0,5.372-.772c3.349-.7,9.175-1.464,10.563,2.755a12.709,12.709,0,0,1,.334,1.252c-3.575,13.154-7,25.776-9.744,34.984-10.579,10.072-22.594,22.311-20.171,28.637,4.055,10.584,8.518,13.578,13.579,25.036s5.432,21.831,10.466,40.38S212.085,642,212.085,642s-74.386,8.551-86.222,21.675-.495,26.5,2.222,31.509,63.078,3.115,72.212,5.307,69.941-6.821,81.519,3.234,25.622,8.119,27.5,7.986c1.718-.12-2.277-14.044-14.908-27.143,24.4,3.117,61.167,7.17,77.673,5.7C397.917,687.976,382.064,650.812,379.322,638.716ZM238.271,501.672a8.559,8.559,0,0,1-2.856-.913c-.127-.251-.26-.5-.387-.751-2.785-5.519-7.056-10.208-9.088-15.964l-1.651-4.691c1.5.076,3.665-.516,6.566-2.925.429-.357.83-.729,1.21-1.111.064-.053.125-.1.191-.155a37.32,37.32,0,0,0,4.761-4.368c2.329-2.63,3.175-5.323,4.27-8.55.207-.648.389-1.284.539-1.916a36.963,36.963,0,0,0,.691-3.679c.166-1.176.268-2.3.346-3.329.019-.281.034-.555.048-.823a8.149,8.149,0,0,0,1.037.085,8.276,8.276,0,0,0,1.476-.108,9.063,9.063,0,0,0,1.482-.4,8.872,8.872,0,0,0,1.369-.69,8.4,8.4,0,0,0,1.171-.908,7.6,7.6,0,0,0,.924-1.023,7.773,7.773,0,0,0,.668-1.026,8.513,8.513,0,0,0,2.292-1.646,9.26,9.26,0,0,0,2.451-3.977c0,.125,0,.249-.007.374a14.479,14.479,0,0,1-.175,1.764,10.283,10.283,0,0,1-.411,1.7c-.051.14-.1.279-.152.419l-.161.39c-.115.26-.235.516-.367.759a14.251,14.251,0,0,1-.842,1.365c-.3.417-.6.8-.89,1.145-.586.683-1.111,1.229-1.494,1.6l-.6.579.177-.127c.117-.083.288-.2.5-.367s.463-.366.744-.609.6-.523.918-.849a12.3,12.3,0,0,0,1.934-2.487c.147-.251.281-.514.413-.784l.187-.42.157-.419a10.593,10.593,0,0,0,.457-1.8,14.8,14.8,0,0,0,.161-1.837c.021-.6-.005-1.2-.037-1.771-.051-.839-.138-1.63-.244-2.349-.049-.731-.113-1.461-.17-2.2-.03-.33-.058-.666-.085-1q1.012.336,2.052.678a3.98,3.98,0,0,1,.138.383c.092.3.2.592.284.887s.155.592.233.88c.117.585.244,1.15.3,1.7.041.272.076.537.088.795s.041.507.058.747.007.47.009.689a5.624,5.624,0,0,1,0,.623c-.025.39-.019.737-.06,1.016-.065.56-.094.885-.094.885s.078-.314.2-.869c.069-.277.1-.622.164-1.014s.074-.842.109-1.333a14.933,14.933,0,0,0-.049-1.584,18.884,18.884,0,0,0-.777-3.6c12.306,4.041,27.27,8.62,35.158,9.791.666.1,1.3.217,1.914.348,3.912,6.116,9.355,14.722,11.036,17.82,2.716,5.009,2.395,20.626,3.967,29.5s2.727,31.947,9,40.484c0,0-33.637-21.26-46.733-26.007S244.45,502.183,238.271,501.672ZM301.2,628.278s-2.879-11.538-20.843-18.305-25.22-4.013-27.129-10.967-16.79-29.119-10.166-35.73,11.137-30.114,20.808-27.014c6.882,2.206,37.929,11.084,55.261,16.02-.351,5.635,1.189,10.227,7.659,11.683,9.6,2.158,9.161,9.279,9.426,13.041s-6.024,48.633,18.374,72.908C354.589,649.913,323.2,631.927,301.2,628.278Z" transform="translate(566.917 2940.806)" fill="#a29f9e" opacity="0.7"/>
    <path id="Path_4295" data-name="Path 4295" d="M516.937,679.405c-11.243-2.056-51.672,4.853-65.831,5.334l-14.378-30.23a45.8,45.8,0,0,1-3.3-29.783,132.748,132.748,0,0,1,6.3-20.375c4.949-12.227,12.975-31.094,18.631-53.292,7.033-12.087,13.744-25.73,18.263-40.832,11.836-39.548,15.589-54.265,15.589-54.265s1.457-4.853-9.6-14.077-69.6-37.966-69.6-37.966-4.977-2.384-8.1-9.122S401.065,375.722,400,371.04s-1.729,1.174-4.164,8.656,2.7,17.12-.217,24.776,4.569,10.093,9.124,10.148,36.841,33.909,63.562,43.753c0,0-8.758,16.8-16.5,45.127,0,0-11.677,19.674-15.091,27.729-1.87,4.415-5.985,6.247-9.471,6.985-7.034-.782-13.957-1.279-16.615-4.29-2.135-2.421-3.174-9.4-3.68-15.814a27.569,27.569,0,0,0,7.485-10.037c3.6-.332,4.982-6.393,7.047-14.655,1.125-4.493-.69-4.422-2.762-3.253,1.826-6.844,4.553-20.1,1-28.282a29.71,29.71,0,0,0-11.019-13.337c.931-2.017,1.651-3.6,1.651-3.6a7.5,7.5,0,0,0,.235-.917,7.929,7.929,0,0,0,.129-1.342,8.464,8.464,0,0,0-.134-1.392,8.2,8.2,0,0,0-.413-1.333,7.564,7.564,0,0,0-.636-1.19,7.451,7.451,0,0,0-1.6-1.74,7.733,7.733,0,0,0-1.129-2.308,8.432,8.432,0,0,0-3.2-2.808c.113.021.223.041.336.065a12.7,12.7,0,0,1,1.558.424,9.433,9.433,0,0,1,1.466.629l.351.2.327.2c.215.145.427.29.625.447a12.983,12.983,0,0,1,1.1.966c.327.332.625.659.892.973.523.63.934,1.183,1.2,1.582l.429.627-.087-.178c-.057-.117-.138-.29-.256-.5s-.258-.472-.433-.761-.38-.613-.622-.954a11.229,11.229,0,0,0-1.939-2.114c-.2-.17-.419-.33-.641-.491l-.348-.231-.351-.2a9.61,9.61,0,0,0-1.549-.685,13.218,13.218,0,0,0-1.623-.424c-.54-.111-1.079-.178-1.6-.237-.761-.081-1.485-.125-2.146-.139-.664-.065-1.33-.12-2-.182-.726-.058-1.448-.132-2.188-.184a18.612,18.612,0,0,0-1.925-.237c.131-.064.263-.127.4-.194a3.95,3.95,0,0,1,.385-.169l.394-.164c.26-.117.533-.2.805-.3l.411-.141.419-.113c.279-.078.556-.161.841-.214s.56-.133.844-.164.56-.09.839-.122l.825-.074c.542-.016,1.068-.044,1.568-.016.249.005.493.016.726.042s.463.042.68.06l.62.1a5.4,5.4,0,0,1,.56.1c.346.08.657.129.9.208.495.143.781.219.781.219s-.268-.118-.749-.316c-.238-.1-.542-.184-.885-.3s-.745-.2-1.18-.3a13.831,13.831,0,0,0-1.429-.2,15.1,15.1,0,0,0-7.474,1.393c-.41.2-.811.418-1.211.638a16.91,16.91,0,0,0-2.972.314l2.736-2.178c-2.93.97-5.9,2.254-7.988,4.488a7.372,7.372,0,0,0-.532.535c.092-.12.184-.237.281-.346a10.817,10.817,0,0,1,1.89-1.7,16.982,16.982,0,0,1,1.544-.975c.387-.217.613-.334.613-.334l-.171.06c-.113.039-.279.1-.486.18a11.571,11.571,0,0,0-1.664.816,9.283,9.283,0,0,0-2.068,1.644,7.725,7.725,0,0,0-.922,1.192c-.108.171-.207.348-.3.528a7.139,7.139,0,0,0-1.033,1.484,14.171,14.171,0,0,0-.89,2.109c-.231.7-.459,1.37-.643,2.05a4.6,4.6,0,0,0-.132,2.042,6.265,6.265,0,0,0,.3,1.074,8.891,8.891,0,0,0-.081,1.543,6.2,6.2,0,0,0,.041.659,4.68,4.68,0,0,0,.079.622l.111.588c.051.185.1.366.152.542a3.6,3.6,0,0,0,.166.5l.113.295q-.527.313-1.04.655c-.2-.2-.389-.4-.581-.609-.214-.247-.424-.493-.622-.756s-.381-.532-.555-.809c-.092-.134-.171-.277-.252-.419s-.159-.284-.23-.431a4.563,4.563,0,0,1-.208-.442c-.067-.148-.131-.3-.185-.45s-.118-.3-.162-.457-.1-.309-.134-.466a7.986,7.986,0,0,1-.177-.952,6.53,6.53,0,0,1-.046-.966c.012-.161.012-.323.032-.482s.039-.322.065-.48a4.887,4.887,0,0,1,.263-.927,3.214,3.214,0,0,1,.479-.826,2.532,2.532,0,0,1,.735-.62,2.093,2.093,0,0,1,.943-.27,2.008,2.008,0,0,0-1,.143,2.583,2.583,0,0,0-.858.578,3.929,3.929,0,0,0-.948,1.839c-.039.17-.067.339-.1.509s-.039.344-.057.516a7.045,7.045,0,0,0,.011,1.038,6.469,6.469,0,0,0,.17,1.023c.034.17.086.334.136.5s.106.328.166.489a4.485,4.485,0,0,0,.2.477c.067.159.143.313.224.464s.159.3.249.45.171.3.268.436a9.353,9.353,0,0,0,.608.827c.214.265.445.525.683.768.18.177.369.355.562.526a30.049,30.049,0,0,0-10.208,12.8c-3.557,8.181-.83,21.439,1,28.282-2.072-1.169-3.887-1.24-2.764,3.253,2.066,8.262,3.447,14.323,7.048,14.655a27.527,27.527,0,0,0,7.485,10.037c-.507,6.416-1.545,13.394-3.681,15.814-2.658,3.011-9.581,3.507-16.615,4.29-3.486-.738-7.6-2.57-9.472-6.985-3.414-8.055-15.091-27.729-15.091-27.729-7.741-28.325-16.5-45.127-16.5-45.127,26.721-9.844,59.005-43.7,63.562-43.753s12.036-2.492,9.124-10.148,2.22-17.3-.217-24.776-3.094-13.338-4.164-8.656-1.794,17.02-4.915,23.756-8.1,9.122-8.1,9.122-58.548,28.741-69.6,37.966-9.6,14.077-9.6,14.077,3.753,14.717,15.589,54.265a186.7,186.7,0,0,0,17.085,38.78c5.673,23.084,14.044,42.743,19.144,55.344a132.937,132.937,0,0,1,6.3,20.375,45.807,45.807,0,0,1-3.3,29.783l-14.365,30.2c-14.706-.659-54.1-7.333-65.178-5.307-12.832,2.347-29.264,6.886-18.154,28.169s62.6,36.461,70.262,38.026a164.247,164.247,0,0,0,19.091,2.19s-8.606,4.069-9.546,8.294,19.718,4.069,28.794,0,20.186-5.164,24.725-5.789a30.858,30.858,0,0,0,7-1.983,30.88,30.88,0,0,0,7,1.983c4.539.625,15.649,1.722,24.725,5.789s29.732,4.226,28.794,0-9.546-8.294-9.546-8.294a164.251,164.251,0,0,0,19.092-2.19c7.667-1.565,59.152-16.744,70.262-38.026S529.768,681.753,516.937,679.405Z" transform="translate(592.523 2894.218)" fill="#a29f9e" opacity="0.9"/>
    <path id="Path_4296" data-name="Path 4296" d="M506.825,375.973c3.728-.1,6.254,3.2,8.369,5.8,5.165,6.362,9.778,13.195,10.964,21.474a112.276,112.276,0,0,1,.412,26.258,8.553,8.553,0,0,1,2.189-.949,1.631,1.631,0,0,1,1.893,1.705,3.792,3.792,0,0,1-.3,1.126l.015.037c6.8-4.53,14.531-8.111,21.741-11.8a44.646,44.646,0,0,1,12.123-4.481c.73-.283,1.449-.535,2.1-.76a7.992,7.992,0,0,1,6.533.14c.4.21.756.866.364,1.273a35.7,35.7,0,0,1-5.97,5.367,1.483,1.483,0,0,1-.086.4,2.76,2.76,0,0,1-.269,1.223,2.7,2.7,0,0,1-.868,1,8.4,8.4,0,0,1-3.5,3,1.028,1.028,0,0,1-.377.09c-.072.223-.151.449-.239.673A6.6,6.6,0,0,1,559.5,431a16.6,16.6,0,0,0-3.206,3.675,6.827,6.827,0,0,1-1.058,1.532c-.767.734-2.086,1.089-2.919,1.8-.791.673-.609,1.1-1.587,1.637a6.059,6.059,0,0,1-2.174.6,4.061,4.061,0,0,0-.2.8,2.9,2.9,0,0,1-.015,1.448c-.013.046-.031.081-.044.125.057,1.676.283,3.375-1.31,4.7-.64.532-1.422.537-2.058.96-1.782,1.194-1.6,2.47-2.459,3.8a5.985,5.985,0,0,1-1.883,2.007,12.854,12.854,0,0,0-4.236,4.162c-1.63,2.419-3.327,3.022-6.125,3.888-3.425,1.056-11.347,3.294-11.715-2.525-.23-3.651.964-7.88,1.657-11.448.09-.471.826-2.218-.149-2.237a1.344,1.344,0,0,0-.879.458,23.021,23.021,0,0,0-2.652,3.123c-.714.949-4.911,6.822-5.91,3.546a1.033,1.033,0,0,1-.1-1.01c.51-1.254.973-2.527,1.486-3.778.32-.782,1.915-3.1,1.7-3.848-.381-1.31-4.091,1.192-4.88,1.53a27.492,27.492,0,0,1-6,1.823c-5.192.914-9.083-1.091-13.865-2.834a1.851,1.851,0,0,1-.96-.6,1.81,1.81,0,0,1-.232-.745c-.576-3.719-.5-7.506-1.306-11.135a19.449,19.449,0,0,1,.16-9.27,19.953,19.953,0,0,1,3.228-5.757,7.961,7.961,0,0,1,2.952-2.6,8.35,8.35,0,0,1,3.732-.745,4.757,4.757,0,0,1-1.148-1.319c-1.468-2.638.848-5.078.653-7.845a.361.361,0,0,1,.476-.381c.035-.116.072-.23.116-.34a.512.512,0,0,1,.046-.76c1.137-.817.96-4.236,1.326-5.682a11.245,11.245,0,0,0,.747-2.365,3.215,3.215,0,0,0,.309-2.945c.044-.226.075-.539.112-.761a8.606,8.606,0,0,1,1.133-2.535,12.271,12.271,0,0,0,1.74-4.591c.169-1.341-.145-2.709.1-4.045C502.558,377.926,504.075,376.048,506.825,375.973Z" transform="translate(458.073 2670.994)" fill="#343434" opacity="0.594"/>
    <path id="Path_4297" data-name="Path 4297" d="M498.105,375.972c2.172-.059,3.645,1.863,4.877,3.382,3.01,3.707,5.7,7.689,6.389,12.514a65.432,65.432,0,0,1,.24,15.3,4.986,4.986,0,0,1,1.276-.553.951.951,0,0,1,1.1.994,2.206,2.206,0,0,1-.177.656l.009.022a127.47,127.47,0,0,1,12.67-6.878,26.015,26.015,0,0,1,7.065-2.612c.425-.165.844-.312,1.225-.443a4.658,4.658,0,0,1,3.807.082c.232.123.441.5.212.742a20.8,20.8,0,0,1-3.479,3.128.864.864,0,0,1-.05.234,1.606,1.606,0,0,1-.157.713,1.571,1.571,0,0,1-.506.584,4.9,4.9,0,0,1-2.041,1.751.6.6,0,0,1-.22.052c-.042.13-.088.262-.139.392a3.844,3.844,0,0,1-1.41,2.005,9.67,9.67,0,0,0-1.868,2.142,3.982,3.982,0,0,1-.617.893c-.447.428-1.216.635-1.7,1.047-.461.392-.355.641-.925.954a3.532,3.532,0,0,1-1.267.352,2.368,2.368,0,0,0-.116.469,1.687,1.687,0,0,1-.009.844c-.008.027-.018.047-.025.073.033.977.165,1.967-.764,2.737-.373.31-.829.313-1.2.559-1.038.7-.935,1.439-1.433,2.216a3.487,3.487,0,0,1-1.1,1.17,7.491,7.491,0,0,0-2.469,2.425c-.95,1.41-1.939,1.761-3.57,2.266-2,.616-6.613,1.919-6.827-1.471-.134-2.128.562-4.592.965-6.671.052-.275.482-1.292-.087-1.3a.783.783,0,0,0-.512.267,13.417,13.417,0,0,0-1.545,1.82c-.416.553-2.862,3.976-3.444,2.066a.6.6,0,0,1-.06-.589c.3-.731.567-1.473.866-2.2.186-.456,1.116-1.8.988-2.243-.222-.764-2.384.695-2.844.891a16.018,16.018,0,0,1-3.5,1.063c-3.025.533-5.294-.636-8.08-1.651a1.079,1.079,0,0,1-.559-.351,1.055,1.055,0,0,1-.135-.434c-.336-2.167-.289-4.374-.761-6.489a11.335,11.335,0,0,1,.093-5.4,11.626,11.626,0,0,1,1.881-3.355,4.64,4.64,0,0,1,1.72-1.513,4.866,4.866,0,0,1,2.175-.434,2.773,2.773,0,0,1-.669-.769c-.856-1.538.494-2.959.381-4.572a.211.211,0,0,1,.277-.222c.02-.068.042-.134.068-.2a.3.3,0,0,1,.027-.443c.663-.476.559-2.469.773-3.311a6.547,6.547,0,0,0,.435-1.378,1.874,1.874,0,0,0,.18-1.716c.026-.132.043-.314.065-.443a5.017,5.017,0,0,1,.66-1.478,7.152,7.152,0,0,0,1.014-2.676c.1-.782-.084-1.578.057-2.358A2.835,2.835,0,0,1,498.105,375.972Z" transform="translate(332.092 3006.375)" fill="#343434" opacity="0.594"/>
    <path id="Path_4298" data-name="Path 4298" d="M138.235,491.1c-3.728-.1-6.254,3.2-8.371,5.805-5.163,6.362-9.776,13.195-10.962,21.472a112.292,112.292,0,0,0-.412,26.26,8.551,8.551,0,0,0-2.189-.949,1.628,1.628,0,0,0-1.893,1.7,3.77,3.77,0,0,0,.3,1.126l-.018.037c-6.793-4.53-14.529-8.111-21.741-11.8a44.566,44.566,0,0,0-12.121-4.484c-.73-.281-1.449-.532-2.1-.76a8,8,0,0,0-6.533.14c-.4.213-.756.866-.364,1.273a35.8,35.8,0,0,0,5.969,5.369,1.328,1.328,0,0,0,.085.4,2.755,2.755,0,0,0,.27,1.223,2.719,2.719,0,0,0,.868,1,8.4,8.4,0,0,0,3.5,3,1.009,1.009,0,0,0,.377.09c.072.224.151.449.239.673a6.6,6.6,0,0,0,2.419,3.441A16.553,16.553,0,0,1,88.77,549.8a6.865,6.865,0,0,0,1.058,1.53c.767.734,2.086,1.091,2.917,1.8.793.675.611,1.1,1.589,1.637a5.971,5.971,0,0,0,2.174.6,4.147,4.147,0,0,1,.2.8,2.919,2.919,0,0,0,.018,1.448c.013.046.031.083.044.125-.057,1.677-.283,3.375,1.308,4.7.642.533,1.424.537,2.058.962,1.784,1.192,1.606,2.468,2.461,3.8a5.977,5.977,0,0,0,1.88,2.007,12.868,12.868,0,0,1,4.238,4.164c1.63,2.417,3.327,3.022,6.125,3.885,3.425,1.058,11.347,3.294,11.715-2.525.23-3.651-.964-7.878-1.657-11.448-.09-.471-.826-2.218.149-2.237a1.363,1.363,0,0,1,.879.458,23.018,23.018,0,0,1,2.652,3.123c.714.951,4.911,6.822,5.908,3.546a1.039,1.039,0,0,0,.105-1.01c-.511-1.251-.973-2.525-1.486-3.778-.32-.782-1.917-3.094-1.7-3.848.381-1.311,4.089,1.192,4.88,1.53a27.473,27.473,0,0,0,6,1.825c5.194.914,9.086-1.094,13.865-2.836a1.852,1.852,0,0,0,.962-.6,1.809,1.809,0,0,0,.23-.743c.576-3.721.5-7.508,1.308-11.137a19.506,19.506,0,0,0-.16-9.27,20.01,20.01,0,0,0-3.228-5.757,7.972,7.972,0,0,0-2.954-2.6,8.369,8.369,0,0,0-3.73-.745,4.756,4.756,0,0,0,1.148-1.319c1.468-2.636-.848-5.075-.653-7.845a.362.362,0,0,0-.476-.381c-.035-.114-.072-.23-.116-.34a.513.513,0,0,0-.046-.76c-1.137-.817-.96-4.234-1.326-5.682a11.036,11.036,0,0,1-.747-2.365,3.216,3.216,0,0,1-.309-2.945c-.044-.226-.075-.539-.112-.76a8.665,8.665,0,0,0-1.133-2.536,12.258,12.258,0,0,1-1.74-4.591c-.169-1.341.145-2.709-.1-4.045C142.5,493.048,140.985,491.17,138.235,491.1Z" transform="translate(653.476 2674.108)" fill="#343434" opacity="0.8"/>
    <path id="Path_4299" data-name="Path 4299" d="M123.7,491.095c-2.913-.079-4.888,2.5-6.543,4.537-4.035,4.972-7.641,10.313-8.567,16.782a87.767,87.767,0,0,0-.322,20.525,6.677,6.677,0,0,0-1.711-.742,1.273,1.273,0,0,0-1.48,1.331,2.948,2.948,0,0,0,.238.88l-.014.029c-5.31-3.54-11.356-6.339-16.993-9.223a34.83,34.83,0,0,0-9.474-3.5c-.57-.219-1.132-.416-1.643-.594a6.252,6.252,0,0,0-5.106.11c-.312.166-.591.677-.284,1a27.985,27.985,0,0,0,4.666,4.2,1.038,1.038,0,0,0,.067.312,2.154,2.154,0,0,0,.211.956,2.125,2.125,0,0,0,.678.784,6.565,6.565,0,0,0,2.737,2.347.788.788,0,0,0,.295.07c.057.175.118.351.187.526a5.156,5.156,0,0,0,1.891,2.689,12.941,12.941,0,0,1,2.506,2.874,5.365,5.365,0,0,0,.827,1.2c.6.574,1.631.853,2.28,1.4.62.528.478.86,1.242,1.279a4.666,4.666,0,0,0,1.7.473,3.239,3.239,0,0,1,.154.629,2.282,2.282,0,0,0,.014,1.132c.01.036.024.065.034.1-.045,1.31-.221,2.638,1.023,3.671.5.416,1.113.42,1.608.752,1.394.932,1.255,1.929,1.923,2.97a4.671,4.671,0,0,0,1.47,1.569,10.06,10.06,0,0,1,3.313,3.254c1.274,1.889,2.6,2.362,4.787,3.037,2.677.827,8.869,2.574,9.157-1.973.18-2.853-.754-6.157-1.295-8.948-.07-.368-.646-1.733.116-1.749a1.066,1.066,0,0,1,.687.358,17.992,17.992,0,0,1,2.072,2.441c.558.743,3.838,5.332,4.618,2.771a.812.812,0,0,0,.082-.79c-.4-.978-.76-1.973-1.161-2.953-.25-.611-1.5-2.418-1.326-3.008.3-1.024,3.2.932,3.814,1.2a21.481,21.481,0,0,0,4.688,1.427c4.059.714,7.1-.855,10.837-2.216a1.448,1.448,0,0,0,.752-.471,1.413,1.413,0,0,0,.18-.581c.45-2.908.389-5.868,1.023-8.7a15.247,15.247,0,0,0-.125-7.245,15.64,15.64,0,0,0-2.523-4.5,6.23,6.23,0,0,0-2.309-2.03,6.541,6.541,0,0,0-2.915-.582,3.719,3.719,0,0,0,.9-1.031c1.148-2.06-.663-3.967-.51-6.132a.283.283,0,0,0-.372-.3c-.027-.089-.057-.18-.091-.266a.4.4,0,0,0-.036-.594c-.889-.639-.75-3.309-1.036-4.441a8.626,8.626,0,0,1-.584-1.848,2.513,2.513,0,0,1-.242-2.3c-.034-.176-.058-.421-.087-.594a6.773,6.773,0,0,0-.886-1.982,9.58,9.58,0,0,1-1.36-3.588c-.132-1.048.113-2.117-.077-3.162C127.028,492.621,125.845,491.153,123.7,491.095Z" transform="translate(1140.39 3029.072)" fill="#343434" opacity="0.8"/>
  </g>
</svg>
