<svg xmlns="http://www.w3.org/2000/svg" xmlns:xlink="http://www.w3.org/1999/xlink" width="165" height="165" viewBox="0 0 165 165">
  <defs>
    <linearGradient id="linear-gradient" x1="0.5" x2="0.5" y2="1" gradientUnits="objectBoundingBox">
      <stop offset="0" stop-color="#2385d9"/>
      <stop offset="1" stop-color="#0ec9b0"/>
    </linearGradient>
  </defs>
  <g id="Group_964" data-name="Group 964" transform="translate(-8 -8)">
    <g id="Group_963" data-name="Group 963" transform="translate(8 8)">
      <path id="Path_106" data-name="Path 106" d="M147.7,105.522a71.472,71.472,0,0,0,4.675-25.334,72.188,72.188,0,1,0-72.187,72.187,71.332,71.332,0,0,0,25.334-4.675A34.345,34.345,0,1,0,147.7,105.522Zm-47.74,2.31C94.206,114.387,86.715,118,78.871,118,65.784,118,54.6,108,50.082,93.938H42.375a3.438,3.438,0,0,1,0-6.875H48.47a44.339,44.339,0,0,1,0-13.75H42.375a3.438,3.438,0,0,1,0-6.875h7.707c4.513-14.063,15.7-24.063,28.789-24.063,7.848,0,15.335,3.609,21.089,10.168a3.438,3.438,0,0,1-5.17,4.534c-4.428-5.046-10.082-7.827-15.919-7.827-9.422,0-17.576,7.019-21.522,17.188H69.875a3.438,3.438,0,1,1,0,6.875H55.427a38.5,38.5,0,0,0,0,13.75H69.875a3.438,3.438,0,1,1,0,6.875H57.349c3.946,10.172,12.1,17.187,21.522,17.187,5.837,0,11.492-2.781,15.919-7.824a3.437,3.437,0,0,1,5.17,4.531Zm38.665,58.293a27.5,27.5,0,1,1,27.5-27.5A27.537,27.537,0,0,1,138.625,166.125Z" transform="translate(-8 -8)" fill="url(#linear-gradient)"/>
      <path id="Path_107" data-name="Path 107" d="M67.964,42.582a3.4,3.4,0,0,0-4.745.963L51.77,60.663l-3.885-3.919A3.452,3.452,0,1,0,43,61.626L49.879,68.5a3.45,3.45,0,0,0,2.441,1h.344a3.394,3.394,0,0,0,2.51-1.547L68.927,47.327A3.4,3.4,0,0,0,67.964,42.582Z" transform="translate(74.86 74.868)" fill="url(#linear-gradient)"/>
    </g>
  </g>
</svg>
